<?xml version="1.0" encoding="utf-8"?>
<!-- Generator: Adobe Illustrator 27.6.1, SVG Export Plug-In . SVG Version: 6.00 Build 0)  -->
<svg version="1.1" id="Lager_1" xmlns="http://www.w3.org/2000/svg" xmlns:xlink="http://www.w3.org/1999/xlink" x="0px" y="0px"
	 viewBox="0 0 1500 998" style="enable-background:new 0 0 1500 998;" xml:space="preserve">
<style type="text/css">
	.st0{fill:url(#SVGID_1_);}
	.st1{fill:url(#SVGID_00000039820003774128870120000014273307104837574037_);fill-opacity:0.2;}
	.st2{fill:url(#SVGID_00000124139536644678554850000016542852424361637047_);fill-opacity:0.2;}
	.st3{fill:#003C3F;}
</style>
<linearGradient id="SVGID_1_" gradientUnits="userSpaceOnUse" x1="749.6226" y1="998.5663" x2="750.3766" y2="0.5654" gradientTransform="matrix(1 0 0 -1 0 998)">
	<stop  offset="0.3646" style="stop-color:#FFF7B2"/>
	<stop  offset="0.75" style="stop-color:#DCFFDE"/>
</linearGradient>
<rect class="st0" width="1500" height="998"/>
<linearGradient id="SVGID_00000170981793246754401600000000484038314779681962_" gradientUnits="userSpaceOnUse" x1="464.7246" y1="1161.3917" x2="1059.4117" y2="-219.4347" gradientTransform="matrix(1 0 0 -1 0 998)">
	<stop  offset="0" style="stop-color:#FFFFFF"/>
	<stop  offset="0.2865" style="stop-color:#DCFFDE"/>
</linearGradient>
<rect style="fill:url(#SVGID_00000170981793246754401600000000484038314779681962_);fill-opacity:0.2;" width="1500" height="998"/>
<radialGradient id="SVGID_00000018936354817087890370000015449890823360867720_" cx="684.2975" cy="565.2516" r="1" gradientTransform="matrix(-2.6496 610.6743 917.8344 3.9823 -516241.5938 -419746.5312)" gradientUnits="userSpaceOnUse">
	<stop  offset="0" style="stop-color:#DCFFDE"/>
	<stop  offset="0.5" style="stop-color:#EEFBC8"/>
	<stop  offset="0.5001" style="stop-color:#EEFBC8"/>
	<stop  offset="1" style="stop-color:#FFF7B2"/>
</radialGradient>
<rect style="fill:url(#SVGID_00000018936354817087890370000015449890823360867720_);fill-opacity:0.2;" width="1500" height="998"/>
<path class="st3" d="M831.1,215.3c-3.3,1.8-4.7,3.6-5.9,7.7c-1.2,4,0.4,8.3,3.9,11.1c1.4,1.2,2.3,2.7,2.3,4.2
	c0,4.2-3.6,19.4-5.9,24.9c-4.3,10.3-5.4,12.5-13.5,26.2c-15,25.2-20.9,40.6-23.3,60.2c-0.2,1.5-2.4-2.6-7.2-13.3
	c-20-44.2-25.7-60.1-26.9-74.2c-0.5-6.8-0.5-6.9,1.8-8c3.1-1.4,5.9-6.1,5.9-9.9c0-9.7-11.9-14.9-18.8-8.2
	c-5.2,5.1-4.9,12.9,0.9,17.1c2.3,1.8,2.7,2.6,3.1,8.3c0.4,3.5,0.9,7.2,1.2,8.1c0.5,1.4,0.3,1.4-3.3,0.8c-6.3-1.2-13.4-0.7-17.3,1.2
	c-4.9,2.5-7.7,5.8-7,8.1c1,3.3,5,7.2,9.7,9.6c5.4,2.7,14.1,3.2,19.2,1l3.2-1.4l3.4,8.5c1.9,4.7,8,18.9,13.7,31.7
	c18.8,41.8,22.7,54.3,23.7,76.2c1.1,23.9-2.6,39.8-24,104.4c-9.8,29.6-15.6,49.3-18.1,62.1c-0.8,4.3-1.7,7.8-2,7.8
	c-0.3,0-1.6-3.5-2.9-7.8c-4.7-14.5-13.9-30.9-26.9-47.2c-3.3-4.2-23.3-24.9-44.7-46.1c-42.8-42.6-49.2-49.8-59.2-67.1
	c-4.3-7.3-9-18.2-10.8-24.5c-1.2-4.2-1.1-4.3,1.3-6.8c1.9-1.9,2.6-3.7,2.9-7c0.4-5.2-1-8.1-5.4-10.7c-5-3-10.8-1.8-14.7,3.2
	c-3.9,5-1.3,14.3,4.6,16.8c2.6,1.1,3.1,1.9,5,8.2c1.1,3.8,3.5,10.3,5.5,14.4l3.5,7.4l-4.8-0.6c-8.8-1-19.4,3-23.2,8.7
	c-1.3,2-1.3,2.4-0.1,4.8c4.3,8.4,18.1,14.1,28.7,11.8c2.7-0.6,6.7-2.1,8.7-3.3l3.6-2l4.7,5.9c2.7,3.3,22.2,23.3,43.5,44.5
	c46.5,46.3,53.1,54.1,64.3,76.2c10.3,20.4,12.9,32.2,13.5,62.2c0.5,21.9,0.3,23.8-2.4,20.7c-3.9-4.7-17.5-9-25.5-8.1
	c-5.1,0.6-11.6,3.3-13.9,5.9c-2,2.2-0.6,7.2,3.5,12.2c7.1,8.8,15.3,12.8,26.7,12.9c4,0,7.9-0.4,9-1c1.1-0.6,2.1-0.8,2.5-0.5
	c0.3,0.3,0.5,21,0.5,46v45.4l-7.3,1.1c-7.7,1.1-15.8,4.2-19.1,7.3l-2,1.9l-4.3-1.9c-18.4-7.8-44.7-3-58.1,10.6
	c-5.6,5.7-6.6,8.8-3.3,10.5c1.6,0.9,2.5,0.4,7.3-4.6c9-9.2,17.9-12.6,33.9-12.7c13,0,16,0.9,30,9.3c10.9,6.5,17.2,8.9,23.3,8.9
	c4.1,0,6.2-2,5.1-4.8c-0.6-1.5-1.9-1.9-8.2-2.7c-4-0.4-13.1-4.5-16.9-7.6c-1.5-1.2-1.6-2.2-0.4-3.1c7.4-5.7,30.4-6.3,42-1.2l3.8,1.7
	l-1.4,2.3c-2.1,3.1-1.5,6,1.2,6.4c1.6,0.2,3.1-0.7,5.5-3.3c4.2-4.3,9.7-6.3,17.7-6.3c8,0,15.1,2.7,18.3,6.7c1.8,2.4,2.8,3,4.6,2.8
	c1.8-0.2,2.4-0.8,2.6-2.7c0.3-1.9-0.6-3.3-3.6-6.4c-7.3-7.2-21.4-9.7-33.8-5.9c-5.9,1.9-5.9,1.9-8.2,0.1c-2.9-2.3-9.3-4.3-15.9-5.2
	l-5.3-0.6v-80.7c0-79.9,0-80.8,2-91.3c2.6-13.6,6.2-28.2,10.4-41.5c2.8-8.9,3.5-10.5,4.8-9.9c13.9,5.8,33.1-1.1,40.4-14.5
	c1.3-2.4,2.5-5.9,2.7-7.7c0.2-3.1-0.1-3.5-4.3-5.6c-3.7-2-5.5-2.3-12-2.3c-7,0-8.2,0.3-14,3.2c-3.5,1.7-6.4,2.9-6.4,2.7
	c0-0.3,3.2-10.2,7.1-22.1c11.4-34.4,16-56.1,16-75c0-9.8-2.3-25.3-5.2-35.4c-1.5-5.2-1.6-7-0.9-16.4c2-25,6.4-37.1,24.2-67.6
	c4.2-7.1,7.9-13.4,8.2-14c0.6-1,1.5-1,5-0.1c12.7,3.2,28.6-4.5,31.8-15.4c0.9-3,0.8-3.5-1.1-5.5c-4.2-4.4-15.3-6.2-22.6-3.5
	c-2,0.7-3.7,1.3-4,1.3s0.1-3.7,0.9-8.3c1.2-8,1.4-8.4,4.1-9.7c1.5-0.8,3.4-2.7,4.2-4.4c2.8-5.9,1.5-11-3.7-14.5
	C838.7,213.6,834.7,213.4,831.1,215.3z M839.3,222.1c0.6,0.6,1.1,1.9,1.1,2.9c0,2.6-1.7,4-4.6,4c-3.2,0-5-3.2-3.5-6.1
	C833.4,220.8,837.5,220.3,839.3,222.1z M754.1,240.7c2,2,1.3,5.9-1.1,7.1c-2.8,1.2-4.7,0.4-6-2.4c-0.8-1.9-0.7-2.5,0.6-4
	C749.4,239.5,752.5,239.1,754.1,240.7z M856.4,258.9c1.5,1.5-1.4,5.2-6.2,8.1c-3.5,2-5.1,2.4-10.9,2.4c-3.7,0-7-0.3-7.4-0.6
	c-2-2,3.6-7.8,9.9-10.1C845.7,257.2,854.9,257.4,856.4,258.9z M747.4,278.4c3.6,2.1,3.9,3.3,1.2,4.5c-6.1,2.7-13.5,2-18-2l-2.5-2.1
	l3.1-1.4C735.2,275.5,743.5,276.1,747.4,278.4z M601.6,368.4c1.9,1.9,1.3,5.9-1.1,7c-3,1.4-5.9-0.3-5.9-3.5c0-2.9,1.4-4.6,4-4.6
	C599.7,367.3,600.9,367.8,601.6,368.4z M606.7,419.2c2.4,0.7,5.5,2.2,7,3.5c2.2,1.8,2.4,2.3,1.4,3.5c-0.6,0.8-3.1,2-5.6,2.9
	c-7.1,2.3-16.9,0.2-21.4-4.8c-1.5-1.7-1.5-1.8,0.5-3.1C593.7,417.8,600.1,417.1,606.7,419.2z M806.8,509c2.4,2.4-3.9,10.2-11.4,14
	c-4.3,2.2-6.2,2.6-12,2.6c-7.8,0-9.5-0.9-7.7-4.1c4.8-9.1,14.1-14.4,24.5-13.8C803.3,507.8,806.2,508.4,806.8,509z M733.1,642
	c4.8,2.1,10.1,6.6,11.9,10l1.3,2.4l-4.5,1.5c-10.1,3.4-24.1-2.1-28.8-11.3c-0.9-1.6-1-2.6-0.3-3C716.9,639,726.8,639.2,733.1,642z"
	/>
</svg>
