<?xml version="1.0" encoding="utf-8"?>
<!-- Generator: Adobe Illustrator 27.6.1, SVG Export Plug-In . SVG Version: 6.00 Build 0)  -->
<svg version="1.1" id="Lager_1" xmlns="http://www.w3.org/2000/svg" xmlns:xlink="http://www.w3.org/1999/xlink" x="0px" y="0px"
	 viewBox="0 0 1500 998" style="enable-background:new 0 0 1500 998;" xml:space="preserve">
<style type="text/css">
	.st0{fill:url(#SVGID_1_);}
	.st1{fill:url(#SVGID_00000070094553928711320960000015619932707130749318_);fill-opacity:0.2;}
	.st2{fill:url(#SVGID_00000041262048476774164880000014221195588940545978_);fill-opacity:0.2;}
	.st3{fill:#003C3F;}
</style>
<linearGradient id="SVGID_1_" gradientUnits="userSpaceOnUse" x1="749.6226" y1="998.5663" x2="750.3766" y2="0.5654" gradientTransform="matrix(1 0 0 -1 0 998)">
	<stop  offset="0.3646" style="stop-color:#FFF7B2"/>
	<stop  offset="0.75" style="stop-color:#DCFFDE"/>
</linearGradient>
<rect class="st0" width="1500" height="998"/>
<linearGradient id="SVGID_00000049221766286100995000000015799457481439292307_" gradientUnits="userSpaceOnUse" x1="464.7246" y1="1161.3917" x2="1059.4117" y2="-219.4347" gradientTransform="matrix(1 0 0 -1 0 998)">
	<stop  offset="0" style="stop-color:#FFFFFF"/>
	<stop  offset="0.2865" style="stop-color:#DCFFDE"/>
</linearGradient>
<rect style="fill:url(#SVGID_00000049221766286100995000000015799457481439292307_);fill-opacity:0.2;" width="1500" height="998"/>
<radialGradient id="SVGID_00000005959678954723126280000013199496254146851219_" cx="684.2975" cy="565.2516" r="1" gradientTransform="matrix(-2.6496 610.6743 917.8344 3.9823 -516241.5938 -419746.5312)" gradientUnits="userSpaceOnUse">
	<stop  offset="0" style="stop-color:#DCFFDE"/>
	<stop  offset="0.5" style="stop-color:#EEFBC8"/>
	<stop  offset="0.5001" style="stop-color:#EEFBC8"/>
	<stop  offset="1" style="stop-color:#FFF7B2"/>
</radialGradient>
<rect style="fill:url(#SVGID_00000005959678954723126280000013199496254146851219_);fill-opacity:0.2;" width="1500" height="998"/>
<path class="st3" d="M852.2,674.6c-40.4-1.1-75.6-22.8-95.4-55c9.7-17.8,15.3-38.2,15.3-59.9c0-10-1.2-19.7-3.4-29
	c21.9,20.6,51.2,33.5,83.4,34.3c9,16.3,14.1,35.1,14.1,54.9C866.2,639.8,861.1,658.4,852.2,674.6z M648.8,324.4
	c40.4,1.1,75.6,22.8,95.4,55c-9.7,17.8-15.3,38.2-15.3,59.9c0,10,1.2,19.7,3.4,29c-21.9-20.6-51.2-33.4-83.4-34.3
	c-9-16.3-14.1-35.1-14.1-55C634.8,359.3,639.9,340.7,648.8,324.4L648.8,324.4z M656,553.8c19.1-26.9,49.4-45.4,84.2-48.5
	c-3.8,5.4-8.1,10.5-12.8,15.2C708.8,539.2,683.8,551.4,656,553.8z M750.5,511.4c6.9,14.7,10.8,31,10.8,48.3
	c0,17.3-3.9,33.6-10.8,48.3c-6.9-14.7-10.8-31-10.8-48.3C739.7,542.4,743.6,526.1,750.5,511.4z M740.2,493.6
	c-34.8-3.1-65.1-21.5-84.2-48.5C690.7,448.2,721.1,466.7,740.2,493.6z M648.9,565c32.2-0.8,61.5-13.7,83.4-34.3
	c-2.2,9.3-3.4,19-3.4,29c0,21.7,5.5,42.1,15.3,59.9c-19.8,32.2-55,53.9-95.4,55c-8.9-16.3-13.9-34.9-13.9-54.7
	C634.8,600.1,640,581.3,648.9,565L648.9,565z M760.8,505.4c34.8,3.1,65.1,21.5,84.2,48.5C810.3,550.7,779.9,532.3,760.8,505.4z
	 M761.3,439.3c0,17.3-3.9,33.6-10.8,48.3c-6.9-14.7-10.8-31-10.8-48.3c0-17.3,3.9-33.6,10.8-48.3C757.4,405.7,761.3,422,761.3,439.3
	L761.3,439.3z M642.8,444.8c16.1,26,41.4,45.7,71.3,54.7c-29.9,9-55.2,28.7-71.3,54.7c-40.4-1-75.6-22.6-95.5-54.7
	C567.2,467.4,602.4,445.8,642.8,444.8L642.8,444.8z M787,499.5c29.9-9,55.2-28.7,71.3-54.7c40.4,1,75.6,22.6,95.5,54.7
	c-19.9,32.1-55.1,53.7-95.5,54.7C842.2,528.2,816.9,508.5,787,499.5L787,499.5z M760.8,493.6c19.1-26.9,49.4-45.4,84.2-48.5
	C825.9,472.1,795.6,490.5,760.8,493.6z M852.1,434c-32.2,0.8-61.5,13.7-83.4,34.3c2.2-9.3,3.4-19,3.4-29c0-21.7-5.5-42.1-15.3-59.9
	c19.8-32.2,55.1-53.9,95.4-55c8.9,16.3,13.9,34.9,13.9,54.7C866.2,399,861.1,417.7,852.1,434L852.1,434z M636.9,564.7
	c-8.2,16.7-12.9,35.4-12.9,55.2c0,19.5,4.5,37.9,12.4,54.4C577,669.7,530,620.1,530,559.7c0-17.7,4.2-34.4,11.4-49.4
	C562.6,541.1,597.3,562,636.9,564.7L636.9,564.7z M750.5,629.9c21,31,55.6,52.2,95.2,55.1C824.8,715.2,790,735,750.5,735
	s-74.3-19.8-95.2-49.9C694.9,682.1,729.5,660.9,750.5,629.9L750.5,629.9z M959.6,488.7c-21.3-30.8-55.9-51.7-95.5-54.4
	c8.2-16.7,12.9-35.4,12.9-55.2c0-19.8-4.5-37.9-12.4-54.4C924,329.4,971,378.9,971,439.3C971,457,966.8,473.7,959.6,488.7
	L959.6,488.7z M636.5,324.7c-8,16.5-12.4,34.9-12.4,54.4s4.6,38.5,12.9,55.2c-39.6,2.7-74.3,23.6-95.6,54.4
	c-7.2-15-11.4-31.7-11.4-49.4c0-31.7,13-60.5,33.9-81.3C582.8,339.1,608.3,326.9,636.5,324.7z M750.5,264
	c39.5,0,74.3,19.8,95.2,49.9c-39.6,3-74.2,24.2-95.2,55.2c-21-31-55.6-52.2-95.2-55.2C676.2,283.8,711,264,750.5,264z M971,559.7
	c0,60.4-47,110-106.5,114.6c8-16.5,12.4-34.9,12.4-54.4c0-19.8-4.6-38.5-12.9-55.2c39.6-2.7,74.3-23.6,95.5-54.4
	C966.8,525.3,971,542,971,559.7L971,559.7z"/>
</svg>
