<?xml version="1.0" encoding="utf-8"?>
<!-- Generator: Adobe Illustrator 27.6.1, SVG Export Plug-In . SVG Version: 6.00 Build 0)  -->
<svg version="1.1" id="Lager_1" xmlns="http://www.w3.org/2000/svg" xmlns:xlink="http://www.w3.org/1999/xlink" x="0px" y="0px"
	 viewBox="0 0 1500 998" style="enable-background:new 0 0 1500 998;" xml:space="preserve">
<style type="text/css">
	.st0{fill:url(#SVGID_1_);}
	.st1{fill:url(#SVGID_00000011006311629934130050000004239647584063996344_);fill-opacity:0.2;}
	.st2{fill:url(#SVGID_00000091004524526159704850000013048503210807582111_);fill-opacity:0.2;}
	.st3{fill-rule:evenodd;clip-rule:evenodd;fill:#003C3F;}
</style>
<linearGradient id="SVGID_1_" gradientUnits="userSpaceOnUse" x1="749.6226" y1="998.5663" x2="750.3766" y2="0.5654" gradientTransform="matrix(1 0 0 -1 0 998)">
	<stop  offset="0.3646" style="stop-color:#FFF7B2"/>
	<stop  offset="0.75" style="stop-color:#DCFFDE"/>
</linearGradient>
<rect class="st0" width="1500" height="998"/>
<linearGradient id="SVGID_00000164516225837096311800000001501272531047092386_" gradientUnits="userSpaceOnUse" x1="464.7246" y1="1161.3917" x2="1059.4117" y2="-219.4347" gradientTransform="matrix(1 0 0 -1 0 998)">
	<stop  offset="0" style="stop-color:#FFFFFF"/>
	<stop  offset="0.2865" style="stop-color:#DCFFDE"/>
</linearGradient>
<rect style="fill:url(#SVGID_00000164516225837096311800000001501272531047092386_);fill-opacity:0.2;" width="1500" height="998"/>
<radialGradient id="SVGID_00000011028381200847049070000005544390358849020297_" cx="684.2975" cy="565.2516" r="1" gradientTransform="matrix(-2.6496 610.6743 917.8344 3.9823 -516241.5938 -419746.5312)" gradientUnits="userSpaceOnUse">
	<stop  offset="0" style="stop-color:#DCFFDE"/>
	<stop  offset="0.5" style="stop-color:#EEFBC8"/>
	<stop  offset="0.5001" style="stop-color:#EEFBC8"/>
	<stop  offset="1" style="stop-color:#FFF7B2"/>
</radialGradient>
<rect style="fill:url(#SVGID_00000011028381200847049070000005544390358849020297_);fill-opacity:0.2;" width="1500" height="998"/>
<path class="st3" d="M792.1,288.6c-97.3,0-161.5,79.8-161.5,173.6c0,50,38.9,93,87,93c25.3,0,47.8-9.5,65.8-27.3
	c4.8-5,12.7-5,17.5,0c4.8,4.8,4.8,12.6,0,17.4c-10.7,10.9-27.8,20.8-40.5,27.3c-6.2,3.1-11.8,6.2-11.8,13.6
	c0,11.5,7.9,18.6,18.6,18.6c6.8,0,12.4,5.6,12.4,12.4c0,6.8-5.6,12.4-12.4,12.4c-10.9,0-20.5-6.2-31.1-6.2
	c-5.8,0-12.4,6.6-12.4,12.4c0,6.5,2,11.2,6.8,14.5c5.8,3.7,7.3,11.5,3.5,17.2c-3.7,5.9-11.6,7.4-17.2,3.6c-13.7-9.1-18-22.9-18-35.1
	c0-15.9,12.1-30.6,27-35.5c-1.4-4.3-2.2-9-2.2-14.1c0-2.1,0.2-4.2,0.4-6.2h-6.6c-63.7,0-111.8-56.1-111.8-117.8
	c0-104.5,72.5-198.4,186.3-198.4c79.7,0,132.3,42,156.6,99.8C1015.2,521.3,867.5,735,698.9,735c-101.2,0-174.7-94-161.4-187.8
	c1-6.8,7.3-11.5,14.1-10.5c6.8,1,11.5,7.2,10.6,14c-11.5,79.9,51.4,159.5,136.5,159.5c151.1,0,286.6-195.3,227-337
	C905.2,324.2,861.5,288.6,792.1,288.6L792.1,288.6z"/>
</svg>
