<?xml version="1.0" encoding="utf-8"?>
<!-- Generator: Adobe Illustrator 27.6.1, SVG Export Plug-In . SVG Version: 6.00 Build 0)  -->
<svg version="1.1" id="Lager_1" xmlns="http://www.w3.org/2000/svg" xmlns:xlink="http://www.w3.org/1999/xlink" x="0px" y="0px"
	 viewBox="0 0 1500 998" style="enable-background:new 0 0 1500 998;" xml:space="preserve">
<style type="text/css">
	.st0{fill:url(#SVGID_1_);}
	.st1{fill:url(#SVGID_00000113344072295868627920000001004940414714211728_);fill-opacity:0.2;}
	.st2{fill:url(#SVGID_00000122713478615922040010000010371565707832172944_);fill-opacity:0.2;}
	.st3{fill:#003C3F;}
</style>
<linearGradient id="SVGID_1_" gradientUnits="userSpaceOnUse" x1="749.6226" y1="998.5663" x2="750.3766" y2="0.5654" gradientTransform="matrix(1 0 0 -1 0 998)">
	<stop  offset="0.3646" style="stop-color:#FFF7B2"/>
	<stop  offset="0.75" style="stop-color:#DCFFDE"/>
</linearGradient>
<rect class="st0" width="1500" height="998"/>
<linearGradient id="SVGID_00000124842087376464319560000002780012745943535771_" gradientUnits="userSpaceOnUse" x1="464.7246" y1="1161.3917" x2="1059.4117" y2="-219.4347" gradientTransform="matrix(1 0 0 -1 0 998)">
	<stop  offset="0" style="stop-color:#FFFFFF"/>
	<stop  offset="0.2865" style="stop-color:#DCFFDE"/>
</linearGradient>
<rect style="fill:url(#SVGID_00000124842087376464319560000002780012745943535771_);fill-opacity:0.2;" width="1500" height="998"/>
<radialGradient id="SVGID_00000148652710521882957700000013295661895498751134_" cx="684.2975" cy="565.2516" r="1" gradientTransform="matrix(-2.6496 610.6743 917.8344 3.9823 -516241.5938 -419746.5312)" gradientUnits="userSpaceOnUse">
	<stop  offset="0" style="stop-color:#DCFFDE"/>
	<stop  offset="0.5" style="stop-color:#EEFBC8"/>
	<stop  offset="0.5001" style="stop-color:#EEFBC8"/>
	<stop  offset="1" style="stop-color:#FFF7B2"/>
</radialGradient>
<rect style="fill:url(#SVGID_00000148652710521882957700000013295661895498751134_);fill-opacity:0.2;" width="1500" height="998"/>
<path class="st3" d="M898.9,508.2c0,7.4,6,13.4,13.4,13.4c7.4,0,13.4-6,13.4-13.4c0-6.9-8.6-24.7-13.6-32
	C907.2,483.4,898.9,501.3,898.9,508.2z"/>
<path class="st3" d="M1002.9,466.5c0,0-37.5-56.9-40-58.7C954.8,326.5,886.1,263,802.6,263c-46.2,0-87.8,19.4-117.1,50.6
	c-77,8.6-138.5,69-147.2,147.4c-3.5,4.5-12.7,17.5-39.2,57.8c-4.6,7.1-6.1,15.7-4.4,24c1.8,8.3,6.7,15.4,13.9,20l23.9,15.4v49.5
	c0,24.7,20.1,44.8,44.8,44.8h32.6v55.8c0,3.3,2.7,6,6,6h177c3.3,0,6-2.7,6-6v-55.5h92.2V611h38.6c21.4,0,38.8-17.3,38.8-38.8v-52.8
	l26.7-17.2C1007.2,494.5,1010.6,478.5,1002.9,466.5z M786.8,614.3l0,107.9H621.9v-55.8c0-3.3-2.7-6-6-6h-38.6
	c-18.1,0-32.7-14.7-32.7-32.7v-21.5c2.6,0.3,5.9,0.6,9.7,0.6c16.1,0,41.2-4.6,64.8-28.3c2.4-2.4,2.4-6.2,0-8.5
	c-2.4-2.4-6.2-2.4-8.5,0c-26.9,26.9-55.5,25.7-66,24.1v-19.2c0-2-1-3.9-2.8-5.1l-26.7-17.2c-4.4-2.9-7.5-7.3-8.6-12.4
	c-1.1-5.2-0.1-10.5,2.7-14.9c13.4-20.4,35.7-53.8,39-57.6c1.1-1,1.8-2.4,1.9-3.8c8-79.5,74.3-139.4,154.3-139.4
	c85.5,0,155.1,69.6,155.1,155.1c0,52.3-26.2,100.8-70,129.6C787.8,610.3,786.8,612.3,786.8,614.3z M912.3,533.6
	c-14,0-25.5-11.4-25.5-25.5c0-9.6,14.6-46.3,25.5-46.3c10.6,0,25.5,36.9,25.5,46.3C937.8,522.2,926.4,533.6,912.3,533.6z
	 M912.3,438.8c-17.2,0-31.2-14-31.2-31.2c0-3.3,2.7-6,6-6c3.3,0,6,2.7,6,6c0,10.6,8.6,19.1,19.1,19.1c10.6,0,19.1-8.6,19.1-19.1
	c0-3.3,2.7-6,6-6c3.3,0,6,2.7,6,6C943.5,424.8,929.5,438.8,912.3,438.8z"/>
<path class="st3" d="M616.6,447.1c-19.3,0-35.1,15.7-35.1,35.1c0,3.3,2.7,6,6,6c3.3,0,6-2.7,6-6c0-12.7,10.3-23,23-23
	c12.7,0,23,10.3,23,23c0,3.3,2.7,6,6,6c3.3,0,6-2.7,6-6C651.7,462.8,636,447.1,616.6,447.1z"/>
</svg>
