<?xml version="1.0" encoding="utf-8"?>
<!-- Generator: Adobe Illustrator 27.6.1, SVG Export Plug-In . SVG Version: 6.00 Build 0)  -->
<svg version="1.1" id="Lager_1" xmlns="http://www.w3.org/2000/svg" xmlns:xlink="http://www.w3.org/1999/xlink" x="0px" y="0px"
	 viewBox="0 0 1500 998" style="enable-background:new 0 0 1500 998;" xml:space="preserve">
<style type="text/css">
	.st0{fill:url(#SVGID_1_);}
	.st1{fill:url(#SVGID_00000130620203819151052750000006877019044985618575_);fill-opacity:0.2;}
	.st2{fill:url(#SVGID_00000041254412877847139170000006166373301654863529_);fill-opacity:0.2;}
	.st3{fill:#003C3F;}
</style>
<linearGradient id="SVGID_1_" gradientUnits="userSpaceOnUse" x1="749.6226" y1="998.5663" x2="750.3766" y2="0.5654" gradientTransform="matrix(1 0 0 -1 0 998)">
	<stop  offset="0.3646" style="stop-color:#FFF7B2"/>
	<stop  offset="0.75" style="stop-color:#DCFFDE"/>
</linearGradient>
<rect class="st0" width="1500" height="998"/>
<linearGradient id="SVGID_00000010993318124294968100000010488869152499478153_" gradientUnits="userSpaceOnUse" x1="464.7246" y1="1161.3917" x2="1059.4117" y2="-219.4347" gradientTransform="matrix(1 0 0 -1 0 998)">
	<stop  offset="0" style="stop-color:#FFFFFF"/>
	<stop  offset="0.2865" style="stop-color:#DCFFDE"/>
</linearGradient>
<rect style="fill:url(#SVGID_00000010993318124294968100000010488869152499478153_);fill-opacity:0.2;" width="1500" height="998"/>
<radialGradient id="SVGID_00000130647620383759262700000004625801039321883580_" cx="684.2975" cy="565.2516" r="1" gradientTransform="matrix(-2.6496 610.6743 917.8344 3.9823 -516241.5938 -419746.5312)" gradientUnits="userSpaceOnUse">
	<stop  offset="0" style="stop-color:#DCFFDE"/>
	<stop  offset="0.5" style="stop-color:#EEFBC8"/>
	<stop  offset="0.5001" style="stop-color:#EEFBC8"/>
	<stop  offset="1" style="stop-color:#FFF7B2"/>
</radialGradient>
<rect style="fill:url(#SVGID_00000130647620383759262700000004625801039321883580_);fill-opacity:0.2;" width="1500" height="998"/>
<path class="st3" d="M750.5,464.2c55.4,0,100.5-45.2,100.5-100.5S805.9,263,750.5,263C695.1,263,650,308.2,650,363.7
	C650,419.1,695.1,464.2,750.5,464.2z"/>
<path class="st3" d="M750.5,475.9c-96.2,0-174.5,78.5-174.5,174.9v30.4c0,29.3,23.8,53.2,53.1,53.2h242.8
	c29.3,0,53.1-23.9,53.1-53.2v-30.4C925,554.3,846.7,475.9,750.5,475.9L750.5,475.9z"/>
</svg>
