<?xml version="1.0" encoding="utf-8"?>
<!-- Generator: Adobe Illustrator 27.7.0, SVG Export Plug-In . SVG Version: 6.00 Build 0)  -->
<svg version="1.1" id="Lager_1" xmlns="http://www.w3.org/2000/svg" xmlns:xlink="http://www.w3.org/1999/xlink" x="0px" y="0px"
	 viewBox="0 0 208 128" style="enable-background:new 0 0 208 128;" xml:space="preserve">
<style type="text/css">
	.st0{fill:#FFFFFF;}
</style>
<g>
	<path class="st0" d="M100.3,47.5h-8.3v-5.9h15l15.3,35.9h-7.2l-2.8-6.8H97l-2.8,6.8H87L100.3,47.5z M109.9,64.8l-5.2-12.9
		l-5.3,12.9H109.9z"/>
	<path class="st0" d="M125.7,41.5h15.2c12.2,0,19.4,8.5,19.4,18s-7.5,18-19.4,18h-15.2V41.5z M132.4,71.2h8.6
		c7.7,0,12.7-5.4,12.7-11.7s-5-11.6-12.7-11.6h-8.6V71.2z"/>
	<path class="st0" d="M167.2,62.2h-4.3v-6.3h4.3V41.5h19.3c5.6,0,10.4,3.2,10.4,9.6c0,3.4-1.8,5.9-4.5,7.1c3.7,1.2,6.5,4.2,6.5,8.8
		c0,6.5-4.8,10.4-11.1,10.4h-20.6V62.2z M173.9,55.8h11.9c2.9,0,4.5-1.9,4.5-4.1c0-2.2-1.5-4-4.5-4h-11.9V55.8z M173.9,71.2h13.2
		c3,0,5.1-1.9,5.1-4.4c0-2.5-2.2-4.5-5.1-4.5h-13.2V71.2z"/>
	<path class="st0" d="M89,90.6c0.8,0.8,1.9,1.4,3.1,1.4c1.4,0,2.5-0.6,2.5-1.6c0-2.3-6.7-0.1-6.7-4.4c0-1.8,1.9-3.1,4.3-3.1
		c1.5-0.1,3,0.5,4.1,1.6l-1.4,1.3c-0.8-0.8-1.8-1.3-2.9-1.3c-1.6,0-2.2,0.8-2.2,1.4c0,2.3,6.7,0,6.7,4.4c0,2.2-2.2,3.5-4.6,3.5
		c-1.7,0-3.3-0.7-4.5-1.9L89,90.6z"/>
	<path class="st0" d="M97.2,85.7h1v-2.1l1.8-0.5v2.6h1.3v1.6H100v3.2c0,0.8,0.2,1.3,0.8,1.6l0.9,0.5l-0.8,1.3
		c-1.8-0.8-2.6-1.4-2.6-3.1v-3.5h-1L97.2,85.7L97.2,85.7z"/>
	<path class="st0" d="M106.5,85.4c2.8,0,4.5,2.1,4.5,4.2c0,2.1-1.6,4.2-4.5,4.2c-2.9,0-4.5-2.1-4.5-4.2
		C102,87.5,103.6,85.4,106.5,85.4z M106.5,92.3c1.4,0,2.6-1.2,2.6-2.6c0-1.4-1.2-2.6-2.6-2.6c-1.4,0-2.6,1.2-2.6,2.6
		C103.9,91.1,105,92.3,106.5,92.3C106.4,92.3,106.4,92.3,106.5,92.3z"/>
	<path class="st0" d="M118.4,88.3c-0.4-0.8-1.3-1.2-2.1-1.2c-1.4,0.1-2.6,1.3-2.5,2.7c0.1,1.3,1.2,2.4,2.5,2.5
		c0.8,0,1.7-0.4,2.1-1.2l1.5,0.9c-0.8,1.2-2.2,1.9-3.6,1.9c-2.8,0-4.5-2.1-4.5-4.2c0-2.1,1.6-4.2,4.5-4.2c1.4,0,2.9,0.7,3.6,1.9
		L118.4,88.3z"/>
	<path class="st0" d="M121.4,90.3h-1.1v-1.7h1.1v-5.4h1.8v5.4h0.9l2.1-3h2.1l-2.7,3.8l2.9,4.3h-2l-2.1-3.4h-1v3.4h-1.8v-3.4H121.4z"
		/>
	<path class="st0" d="M129.3,83.2h1.8v3.4c0.6-0.8,1.5-1.3,2.4-1.3c1.7,0,3.1,1.4,3.1,3.4v4.9h-1.8v-4.4c0-1.4-0.8-2.1-1.9-2.1
		c-1-0.1-1.9,0.8-2,1.8c0,0.1,0,0.2,0,0.3v4.5h-1.6V83.2z"/>
	<path class="st0" d="M142.4,85.4c2.8,0,4.5,2.1,4.5,4.2c0,2.1-1.6,4.2-4.5,4.2c-2.9,0-4.5-2.1-4.5-4.2
		C138,87.5,139.7,85.4,142.4,85.4z M142.4,92.3c1.4,0,2.6-1.2,2.6-2.6c0-1.4-1.2-2.6-2.6-2.6c-1.4,0-2.6,1.2-2.6,2.6
		C139.8,91.1,140.9,92.3,142.4,92.3L142.4,92.3z"/>
	<path class="st0" d="M150,83.2v7.2c0,0.9,0.2,1.3,0.7,1.6l0.9,0.5l-0.8,1.3c-1.8-0.8-2.6-1.4-2.6-3.1v-7.5L150,83.2z"/>
	<path class="st0" d="M152.5,88.6c0-2,1.3-3.2,2.9-3.2c1.2,0,2.1,0.6,2.4,1.4c0.3-0.8,1.2-1.4,2.4-1.4c1.6,0,2.9,1.2,2.9,3.2v5h-1.8
		v-5c0-0.9-0.6-1.5-1.3-1.5c-0.8,0-1.4,0.5-1.4,1.8v4.8h-1.8v-4.8c0-1.3-0.6-1.8-1.4-1.8c-0.7,0-1.3,0.6-1.3,1.5v5h-1.8L152.5,88.6z
		"/>
	<path class="st0" d="M170.7,90.6c0.8,0.8,1.9,1.4,3.1,1.4c1.4,0,2.5-0.6,2.5-1.6c0-2.3-6.7-0.1-6.7-4.4c0-1.8,1.9-3.1,4.3-3.1
		c1.5-0.1,3,0.5,4.1,1.6l-1.4,1.3c-0.8-0.8-1.8-1.3-2.9-1.3c-1.6,0-2.2,0.8-2.2,1.4c0,2.3,6.7,0,6.7,4.4c0,2.2-2.2,3.5-4.6,3.5
		c-1.7,0-3.3-0.7-4.5-1.9L170.7,90.6z"/>
	<path class="st0" d="M179.8,85.7h1.8v4.7c0,1.3,0.8,1.9,1.9,1.9c1.3,0,2-0.8,2-2.1v-4.5h1.8v7.8c0,2.4-2.2,3.5-3.7,3.5
		c-1.3,0.1-2.6-0.5-3.5-1.6l1.4-0.9c0.5,0.5,1.2,0.8,1.9,0.8c1.2,0,2.2-0.7,2.2-2.1v-0.4c-0.6,0.8-1.5,1.2-2.4,1.1
		c-1.8,0-3.3-1.3-3.3-3.6L179.8,85.7z"/>
	<path class="st0" d="M195.4,92.7c-0.7,0.8-1.7,1.3-2.7,1.2c-2.3,0-4.2-1.8-4.2-4.1v-0.1c0-2.3,1.9-4.2,4.3-4.2
		c1-0.1,1.9,0.4,2.5,1.2v-3.4h1.8v10.4h-1.8L195.4,92.7z M193,92.3c1.4,0,2.6-1.1,2.7-2.5c0.1-1.4-1.1-2.6-2.5-2.7
		c-1.4-0.1-2.6,1.1-2.7,2.5c0,0,0,0,0,0.1C190.4,91.1,191.5,92.2,193,92.3z"/>
	<path class="st0" d="M43,27.1v34.9l30.3-17.4L43,27.1z"/>
	<path class="st0" d="M10.2,44.5l30.3,17.4V27.1L10.2,44.5z"/>
	<path class="st0" d="M43,100.9l30.3-17.4L43,66.1V100.9z"/>
	<path class="st0" d="M10.2,83.5l30.3,17.4V66.1L10.2,83.5z"/>
	<path class="st0" d="M74.5,46.6v34.8L44.2,64L74.5,46.6z"/>
	<path class="st0" d="M39.4,64L9.1,81.4L9,46.6L39.4,64z"/>
</g>
</svg>
