<?xml version="1.0" encoding="utf-8"?>
<!-- Generator: Adobe Illustrator 27.7.0, SVG Export Plug-In . SVG Version: 6.00 Build 0)  -->
<svg version="1.1" id="Lager_1" xmlns="http://www.w3.org/2000/svg" xmlns:xlink="http://www.w3.org/1999/xlink" x="0px" y="0px"
	 viewBox="0 0 208 128" style="enable-background:new 0 0 208 128;" xml:space="preserve">
<style type="text/css">
	.st0{fill:#FFFFFF;}
</style>
<g>
	<path class="st0" d="M49.5,30.7c-1.7,0.2-3.3,0.6-4.9,1.4c-2,0.9-3.3,1.8-4.7,3.4c-2.7,2.8-4.1,6.3-4.1,10.3
		c0,5.7,2.8,10.5,7.7,13.2c2.4,1.3,4.8,1.9,7.7,1.9c4.5,0,8.5-1.6,11.5-4.7c3.8-3.9,5.2-9.9,3.5-15.2c-1.9-5.8-6.7-9.6-13-10.3
		C51.4,30.5,51.3,30.5,49.5,30.7z M53.5,36.9c1.5,0.4,2.9,1.2,4.1,2.4c1.8,1.8,2.5,3.8,2.5,6.5c0,2.8-0.8,4.8-2.6,6.6
		c-1.7,1.7-3.7,2.5-6.1,2.5c-2.4,0-4.4-0.8-6.1-2.5c-1.8-1.7-2.7-4-2.7-6.6c0-1.8,0.2-2.9,1-4.4c1-2.1,3.2-4,5.6-4.5
		C50.4,36.6,52.3,36.6,53.5,36.9z"/>
	<path class="st0" d="M8.7,45.8v14.8l8.4-0.1c9.4-0.1,9.7-0.1,12.2-1.3c1.7-0.8,3.1-2.2,3.7-3.8c0.3-0.9,0.4-1.3,0.4-3
		c0-1.7-0.1-2.2-0.4-3c-0.6-1.4-2-2.8-3.6-3.6l-1.2-0.6l0.8-0.6c2.6-1.8,3.6-5.3,2.4-8.6c-0.5-1.3-2.2-3.1-3.7-3.7
		c-2.1-1-2.5-1-11.1-1.1l-8-0.1V45.8z M23.9,37.3c1.1,0.6,1.6,1.3,1.6,2.5s-0.5,2-1.6,2.5c-0.8,0.4-1,0.4-4.9,0.5L15,42.9v-3.1v-3.1
		l4.1,0.1C23,36.9,23.1,36.9,23.9,37.3z M24.9,48.6c2,0.7,2.8,2.6,1.9,4.4c-0.3,0.6-0.6,0.8-1.3,1.2c-1,0.5-1,0.5-5.7,0.5L15,54.7
		v-3.2v-3.3l4.7,0.1C22.8,48.4,24.5,48.5,24.9,48.6z"/>
	<path class="st0" d="M67.6,31.2c0,0.1,0.6,0.9,1.4,1.9l1.3,1.7l0.1,12.8l0.1,12.8l3.2,0.1l3.2,0l0-9.1l0.1-9.1l6.9,9l6.9,9l2.9,0.1
		l2.9,0V45.8V31l-3.2,0l-3.2,0.1L90,40L90,48.9L83.2,40L76.4,31H72C69.6,31,67.6,31.1,67.6,31.2z"/>
	<path class="st0" d="M99.8,31.2c0,0.1,0.6,0.9,1.4,1.9l1.3,1.7l0.1,12.8l0.1,12.8l3.2,0.1l3.2,0l0-9.1l0.1-9.1l6.9,9l6.9,9l2.9,0.1
		l2.9,0V45.8V31l-3.2,0l-3.2,0.1l-0.1,8.9l-0.1,8.9l-6.8-8.9l-6.8-8.9h-4.4C101.8,31,99.8,31.1,99.8,31.2z"/>
	<path class="st0" d="M134.8,45.8v14.7h3.2h3.2V45.8V31H138h-3.2V45.8z"/>
	<path class="st0" d="M147.4,31.2c-0.1,0.1-0.1,6.7-0.1,14.7l0.1,14.5l11.2,0.1l11.2,0l0-2.9l-0.1-2.9l-7.9-0.1l-7.9,0v-3v-3l6.8,0
		l6.8-0.1l0.1-2.9l0-2.9h-6.9H154v-2.9V37l7.8,0l7.8-0.1V34v-2.9l-11-0.1C149.8,31,147.5,31.1,147.4,31.2z"/>
	<path class="st0" d="M173.7,45.7v14.7h3.2h3.2l0-7.5l0.1-7.5l5.6,7.4c3.1,4.1,5.7,7.5,5.9,7.5c0.1,0.1,1.9,0.1,3.9,0l3.7-0.1
		l-3.4-4.5c-1.9-2.5-3.6-4.8-3.8-5.1l-0.4-0.5l1.3-0.7c3.3-1.6,5.1-4.7,5.2-8.7c0-4.8-2.5-8.1-7.4-9.4c-1-0.3-2.2-0.3-9.1-0.4
		l-8-0.1V45.7z M189.2,37.4c1.4,0.7,2,1.4,2.3,2.8c0.4,2-0.4,3.7-2.2,4.6c-0.8,0.4-1,0.4-4.9,0.5l-4.1,0.1v-4.2v-4.2l4.1,0.1
		C188.1,37,188.4,37.1,189.2,37.4z"/>
	<path class="st0" d="M114,67.2c-4.3,0.7-7.6,3.1-8.6,6.3c-0.7,2.2-0.4,4.9,0.7,6.7c1.2,1.9,2.9,2.9,8.3,4.5
		c2.2,0.7,4.4,1.4,4.8,1.6c1.4,0.7,1.9,2,1.3,3.4c-0.6,1.4-2.5,2.2-5.3,2.2c-3.1,0-6.3-1-9.4-3.1c-0.6-0.4-1.2-0.8-1.3-0.8
		c-0.1,0-0.1,1.5-0.1,3.4v3.4l0.7,0.4c2.2,1.4,6.3,2.3,10.1,2.3c6.7,0,11.2-3,11.8-7.9c0.5-3.7-1.2-6.8-4.7-8.5
		c-0.8-0.4-3.1-1.2-5.1-1.7c-2-0.6-3.9-1.2-4.3-1.4c-2.1-1.1-2.1-3.4,0-4.5c2.6-1.4,7.2-0.7,10.9,1.6l0.7,0.5V72v-3.5l-1.1-0.4
		c-0.6-0.2-1.7-0.5-2.4-0.6C119.9,67.3,115,67,114,67.2z"/>
	<path class="st0" d="M8.7,82.3v14.7h3.2h3.2l0-9l0.1-9l6.9,9l6.9,9l2.9,0l2.9-0.1V82.3V67.7l-3.2-0.1l-3.2,0l0,9l-0.1,9l-6.8-8.9
		l-6.8-8.9l-3-0.1l-3,0V82.3z"/>
	<path class="st0" d="M39.9,82.3v14.7H51h11.1v-3v-3h-7.9h-7.9v-3v-3h6.9h6.9v-3v-3h-6.9h-6.9v-2.9v-2.9h7.8H62v-3v-3H50.9H39.9
		V82.3z"/>
	<path class="st0" d="M63.7,67.9c0,0.2,8.8,28.8,9,29c0.1,0.1,1.6,0.2,3.4,0.2h3.3l1.2-3.8c0.7-2.1,1.7-5.2,2.2-6.9
		c0.5-1.7,1-3.1,1-3c0.1,0.1,1,2.9,3.1,9.6l1.3,4.1h3.3H95l4.5-14.5c2.5-8,4.5-14.6,4.5-14.7c0-0.2-0.8-0.2-3.2-0.2
		c-2.9,0-3.2,0-3.3,0.3c-0.1,0.2-1.3,4.5-2.8,9.6c-1.5,5.1-2.8,9.4-2.8,9.6c-0.1,0.3,0,0.7-3.4-10.6l-2.7-8.9h-3.4
		c-1.9,0-3.5,0-3.5,0.1c0,0,0.5,1.5,1,3.2l1,3.2l-2.1,7c-1.1,3.8-2.1,6.9-2.2,6.8c-0.1-0.1-4.6-15.4-5.8-19.7l-0.2-0.6h-3.5
		C64.4,67.6,63.7,67.7,63.7,67.9z"/>
</g>
</svg>
