<?xml version="1.0" encoding="utf-8"?>
<!-- Generator: Adobe Illustrator 27.7.0, SVG Export Plug-In . SVG Version: 6.00 Build 0)  -->
<svg version="1.1" id="Lager_1" xmlns="http://www.w3.org/2000/svg" xmlns:xlink="http://www.w3.org/1999/xlink" x="0px" y="0px"
	 viewBox="0 0 208 128" style="enable-background:new 0 0 208 128;" xml:space="preserve">
<style type="text/css">
	.st0{fill:#FFFFFF;}
</style>
<path class="st0" d="M157.6,104.2c-4.5,4.1-9.6,7.4-20,13.4c-0.4,0.2-0.7,0.4-1,0.4c-0.2,0-0.2-0.2-0.1-0.5
	c5.4-14.9,12.3-34.4,12.3-55.3c0-25.3-10-42.7-14.1-51.4c-0.2-0.5-0.5-1.1-0.1-1.1c0.2,0,0.9,0.2,2.1,1.1c3.3,2.2,7.7,6.3,9.5,8.4
	c7.1,12.4,11.8,29.2,11.8,42c0,13.4-5,32.1-9.8,42.5c4.8-2.8,6.5-4,10.8-8.3c0.1-0.1,0.5-0.5,0.7-0.5s0.4,0.4,0.4,1
	C160,98,158.9,102.2,157.6,104.2L157.6,104.2z M68.7,26.2c0.4-0.6,0.9-1.3,1.1-1.3c0.2,0,0.4,0.6,0.5,1.3c1.3,6.2,1.9,11.8,1.9,20.5
	c0,17.4-2.5,33.5-7,48.4c-5.9-7.9-7.9-21.5-7.4-32.1C58.4,48.9,63.4,34.1,68.7,26.2L68.7,26.2z M103.8,33.8
	c-0.4,10.4-3.6,23.1-9.1,30.1c0.9-13,1.5-33,3-49.4c0-0.5,0.2-0.7,0.4-0.7c0.2,0,0.4,0.1,0.5,0.2C102.7,20.5,104.1,26.5,103.8,33.8z
	 M133,66.1c0,3.6-0.1,7.1-0.4,10.6c-3.4,0.9-6.8,1.5-10.3,2c1.4-9,2.2-17.9,2.6-26.5c0.4-10.9-0.5-23.9-0.9-32.1
	c0-0.9-0.1-1.3,0.1-1.3s0.4,0.4,0.6,1.1C130.8,35.2,133,52.1,133,66.1z M91.7,5.3c-3.5,24.3-5,37.8-5.9,59.2
	c-1,24.5-0.5,45.3,0.5,55.8c0.1,1.1,0.2,1.6,0.4,1.9c0.1,0.2,0.7,0.5,1.1,0.6c2,0.6,3.4,1.1,5.7,1.8c0.6,0.1,1.3,0.1,1.5-0.1
	c0.1-0.1,0.1-0.4,0.1-0.9c-1-13.6-1.5-30.8-1-44.8c10.5-12.3,18.1-26.9,19.1-43.5c0.9-14.5-3.9-25.7-8.5-32.1
	c-0.2-0.4-0.4-0.6-0.9-0.7c-0.5-0.1-0.9-0.1-1.4-0.1c-3,0.1-7.1,0.9-8.9,1.4c-0.9,0.2-1.4,0.4-1.6,0.6C91.8,4.4,91.8,4.6,91.7,5.3
	L91.7,5.3z M82.2,47.8c0-11.5-1.3-24.4-5.7-34c-0.1-0.2-0.4-0.5-0.6-0.6c-0.2-0.1-0.6-0.1-0.9,0c-2,1-4.2,2.2-6.5,3.7
	C56.8,27.8,48,46.2,48,66.2c0,15.3,5.1,31,20,44.3c0.5,0.4,0.9,0.6,1.3,0.6c0.2,0,0.5-0.1,0.7-0.9C77.3,91,82.2,69.5,82.2,47.8
	L82.2,47.8z M103.6,125.5c0.1,0.2,0.7,0.4,3.1,0.4c0.9,0,2.5,0,4-0.1c0.5,0,0.9-0.2,1-0.4c0.2-0.2,0.5-0.7,0.6-1.3
	c3.3-11.6,6.3-23.8,8.4-35.9h0.1c3.5,0,7-0.2,10.4-0.9c-2.1,12.7-5.9,24.5-10.6,35.9c-0.1,0.2-0.2,0.5-0.1,0.6
	c0.1,0.2,0.9,0.1,1.4,0c0.7-0.1,2.4-0.6,3.5-1c1.1-0.4,2-0.7,2.4-1c0.4-0.2,0.7-0.9,1.1-1.5c8.8-15.8,13.9-35.8,13.9-54.9
	c0-21.6-6.3-42.8-16.1-59.3c-1.1-1.1-2.8-1.8-7.6-2.8c-0.6-0.1-1.4-0.1-1.9,0c-0.4,0.1-0.4,0.7-0.4,1.1c-0.2,16.4,0.4,33-0.6,47.8
	c-0.5,7.6-1.6,16.9-3.3,27c-3.7,0.1-7.4-0.1-10.4-0.5c-0.4,0-0.9-0.1-1.1,0.1c-0.2,0.2-0.6,0.7-0.9,1.3c-0.7,1.5-1.4,2.8-1.4,4
	c0,0.6,0.7,0.9,1.1,1c3.9,1.1,7.2,1.9,11.2,2.4c-2.4,14-5.3,25.5-7.7,36.4C103.6,124.6,103.5,125.3,103.6,125.5z"/>
</svg>
