<?xml version="1.0" encoding="utf-8"?>
<!-- Generator: Adobe Illustrator 27.7.0, SVG Export Plug-In . SVG Version: 6.00 Build 0)  -->
<svg version="1.1" id="Lager_1" xmlns="http://www.w3.org/2000/svg" xmlns:xlink="http://www.w3.org/1999/xlink" x="0px" y="0px"
	 viewBox="0 0 208 128" style="enable-background:new 0 0 208 128;" xml:space="preserve">
<style type="text/css">
	.st0{fill:none;}
	.st1{fill:#FFFFFF;}
</style>
<rect x="8.7" y="41.1" class="st0" width="190.6" height="45.8"/>
<g>
	<path class="st1" d="M180.1,47.4h6.4c3.1,0,5.1,1.4,5.1,4.1v0.1c0,2.4-1.8,4.1-4.9,4.1h-6.5l11.5,14.9h7.7l-7.8-10.1
		c3.9-1.4,6.6-4.4,6.6-9.2v-0.1c0-2.7-0.9-5-2.5-6.6c-1.9-1.9-4.8-2.9-8.5-2.9h-13.4v28.9h6.4V47.4z M122.4,41.7v17.8l-13.7-17.8
		h-8.9l3,3.9v25.1h6.3v-18l13.8,18h5.8V41.7H122.4z M90.2,41.7v17.8L76.5,41.7h-8.9l3,3.9v25.1h6.3v-18l13.8,18h5.8V41.7H90.2z
		 M147.4,41.7h22v5.6h-15.7v5.9h13.8v5.6h-13.8v6.1h15.9v5.6h-22.3V41.7L147.4,41.7z M134.8,41.7h6.4v28.9h-6.4V41.7z M60.3,56.2
		L60.3,56.2c0-5-3.7-9.2-8.9-9.2s-8.8,4-8.8,9v0.1c0,5,3.7,9.1,8.9,9.1C56.7,65.2,60.3,61.2,60.3,56.2L60.3,56.2z M36,56.2L36,56.2
		c0-8.3,6.6-15.1,15.6-15.1c9,0,15.5,6.7,15.5,14.9v0.1c0,8.2-6.6,15-15.6,15C42.4,71.1,36,64.4,36,56.2L36,56.2z M22.7,65
		c2.8,0,4.5-1,4.5-3.1v-0.1c0-2-1.5-3.1-4.8-3.1h-7.4V65L22.7,65z M21,53.4c2.8,0,4.6-0.9,4.6-3.1v-0.1c0-1.9-1.5-3-4.2-3h-6.3v6.1
		H21L21,53.4z M8.8,41.7h13.6c3.3,0,6,0.9,7.6,2.6c1.3,1.3,2,2.9,2,4.9v0.1c0,3.3-1.8,5.1-3.8,6.2c3.4,1.3,5.5,3.2,5.5,7.1v0.1
		c0,5.3-4.4,7.9-10.9,7.9H8.8V41.7L8.8,41.7z M17.1,78.6c0,0.5-0.1,1-0.3,1.5c-0.2,0.4-0.5,0.8-0.9,1c-0.4,0.3-0.8,0.5-1.2,0.6
		c-0.4,0.1-0.9,0.2-1.4,0.2H12V85c0,0.2,0,0.3,0.1,0.4c0.1,0.1,0.2,0.2,0.4,0.3c0.1,0,0.3,0.1,0.5,0.1c0.2,0,0.4,0,0.6,0.1v0.5H8.9
		V86c0.1,0,0.3,0,0.5-0.1c0.2,0,0.3-0.1,0.5-0.1c0.1-0.1,0.3-0.2,0.3-0.3c0.1-0.1,0.1-0.3,0.1-0.5v-7.6c0-0.2,0-0.3-0.1-0.5
		c0-0.2-0.2-0.3-0.4-0.3c-0.2-0.1-0.4-0.1-0.6-0.1c-0.2,0-0.4,0-0.5-0.1V76h4.9c1,0,1.8,0.2,2.4,0.7C16.7,77.1,17.1,77.8,17.1,78.6z
		 M14.8,80.4c0.2-0.3,0.3-0.5,0.4-0.7c0.1-0.3,0.1-0.5,0.1-0.7c0-0.3,0-0.6-0.1-0.9c-0.1-0.3-0.2-0.5-0.4-0.8
		c-0.2-0.2-0.4-0.4-0.7-0.5c-0.3-0.1-0.7-0.2-1.1-0.2H12v4.6h0.8c0.5,0,1-0.1,1.3-0.3C14.4,80.8,14.6,80.6,14.8,80.4L14.8,80.4z
		 M26,86.3l-2.4,0.2l-0.1-0.1v-0.9h0l-0.4,0.4c-0.2,0.1-0.3,0.3-0.5,0.4c-0.2,0.1-0.4,0.2-0.6,0.3c-0.3,0.1-0.6,0.1-0.9,0.1
		c-0.6,0-1.2-0.2-1.5-0.6c-0.4-0.4-0.5-1-0.5-1.8v-3.5c0-0.2,0-0.3-0.1-0.4c-0.1-0.1-0.2-0.2-0.3-0.3c-0.1-0.1-0.2-0.1-0.4-0.1
		c-0.2,0-0.3,0-0.4-0.1v-0.5l2.5-0.2l0.1,0.1v5.1c0,0.5,0.1,0.9,0.4,1.2c0.1,0.1,0.2,0.2,0.4,0.3c0.2,0.1,0.3,0.1,0.5,0.1
		c0.3,0,0.5,0,0.7-0.1c0.2-0.1,0.4-0.2,0.5-0.3c0.1-0.1,0.3-0.2,0.4-0.3c0.1-0.1,0.2-0.2,0.2-0.3v-4.1c0-0.2,0-0.3-0.1-0.4
		c-0.1-0.1-0.2-0.2-0.3-0.3c-0.1-0.1-0.2-0.1-0.4-0.1c-0.2,0-0.4,0-0.6,0v-0.5l2.7-0.2l0.1,0.1V85c0,0.2,0,0.3,0.1,0.4
		c0.1,0.1,0.2,0.2,0.3,0.3c0.1,0.1,0.2,0.1,0.3,0.1c0.1,0,0.3,0,0.4,0V86.3z M34,82.8c0,1.1-0.4,2-1.1,2.7c-0.7,0.7-1.5,1.1-2.4,1.1
		c-0.4,0-0.8-0.1-1.2-0.2c-0.4-0.1-0.8-0.3-1.1-0.5l-0.5,0.9l-0.5-0.1c0-0.4,0-0.8,0.1-1.3c0-0.5,0-1,0-1.5v-7.2
		c0-0.2,0-0.4-0.1-0.5c-0.1-0.1-0.2-0.3-0.3-0.4c-0.1-0.1-0.3-0.1-0.5-0.2c-0.2,0-0.4-0.1-0.5-0.1v-0.5l2.7-0.2l0.1,0.1V80h0.1
		c0.3-0.3,0.6-0.6,1-0.7c0.4-0.2,0.7-0.3,1.1-0.3c0.9,0,1.7,0.3,2.3,1.1C33.7,80.8,34,81.7,34,82.8z M32.4,82.9c0-0.4,0-0.7-0.1-1.1
		c-0.1-0.4-0.2-0.7-0.4-1c-0.2-0.3-0.4-0.5-0.7-0.7c-0.3-0.2-0.6-0.3-1-0.3c-0.4,0-0.7,0.1-0.9,0.2c-0.3,0.1-0.5,0.3-0.7,0.5v4.3
		c0,0.1,0.1,0.3,0.2,0.4c0.1,0.2,0.2,0.3,0.4,0.4c0.2,0.1,0.3,0.3,0.5,0.3c0.2,0.1,0.4,0.1,0.7,0.1c0.6,0,1.1-0.3,1.5-0.9
		C32.2,84.7,32.4,83.9,32.4,82.9z M38.1,86.5h-3.6V86c0.1,0,0.2,0,0.4,0c0.1,0,0.2,0,0.3-0.1c0.1,0,0.2-0.1,0.3-0.2
		c0.1-0.1,0.1-0.3,0.1-0.4v-8.5c0-0.2,0-0.4-0.1-0.5c-0.1-0.1-0.2-0.3-0.3-0.4c-0.1-0.1-0.3-0.1-0.5-0.2c-0.2,0-0.4-0.1-0.6-0.1
		v-0.5l2.8-0.2l0.1,0.1v10c0,0.1,0,0.3,0.1,0.4c0.1,0.1,0.2,0.2,0.3,0.3c0.1,0.1,0.2,0.1,0.3,0.1c0.1,0,0.2,0,0.4,0.1L38.1,86.5
		L38.1,86.5z M42.5,86.5h-3.6V86c0.1,0,0.2,0,0.4,0c0.1,0,0.2,0,0.3-0.1c0.1,0,0.2-0.1,0.3-0.2c0.1-0.1,0.1-0.3,0.1-0.4v-4.5
		c0-0.2,0-0.3-0.1-0.4c-0.1-0.1-0.2-0.2-0.3-0.3c-0.1-0.1-0.2-0.1-0.4-0.2c-0.2-0.1-0.4-0.1-0.5-0.1v-0.5l2.6-0.2l0.1,0.1v5.9
		c0,0.2,0,0.3,0.1,0.4c0.1,0.1,0.2,0.2,0.3,0.3c0.1,0,0.2,0.1,0.3,0.1c0.1,0,0.2,0,0.4,0.1L42.5,86.5L42.5,86.5z M41.5,76.2
		c0,0.1,0,0.3-0.1,0.4c0,0.1-0.1,0.2-0.2,0.3c-0.2,0.2-0.4,0.3-0.7,0.3c-0.1,0-0.3,0-0.4-0.1c-0.1,0-0.2-0.1-0.3-0.2
		c-0.1-0.1-0.2-0.2-0.2-0.3c0-0.1-0.1-0.2-0.1-0.4c0-0.1,0-0.3,0.1-0.4c0-0.1,0.1-0.2,0.2-0.3c0.2-0.2,0.4-0.3,0.7-0.3
		c0.1,0,0.3,0,0.4,0.1c0.1,0,0.2,0.1,0.3,0.2c0.1,0.1,0.2,0.2,0.2,0.3C41.5,76,41.5,76.1,41.5,76.2z M46.4,86.7
		c-1.1,0-1.9-0.3-2.5-1c-0.6-0.7-0.9-1.6-0.9-2.8c0-0.5,0.1-1,0.3-1.5c0.2-0.5,0.4-0.9,0.7-1.2c0.3-0.3,0.7-0.6,1.1-0.9
		c0.4-0.2,0.9-0.3,1.4-0.3c0.7,0,1.3,0.2,1.8,0.5c0.4,0.3,0.7,0.8,0.7,1.4c0,0.3-0.1,0.5-0.2,0.7c-0.1,0.2-0.3,0.3-0.6,0.3
		c-0.3,0-0.5-0.1-0.7-0.2c-0.2-0.2-0.3-0.3-0.3-0.5c0-0.2,0-0.4,0.1-0.7c0.1-0.2,0.1-0.4,0.1-0.5c-0.1-0.2-0.2-0.3-0.4-0.3
		c-0.2-0.1-0.4-0.1-0.6-0.1c-0.2,0-0.5,0.1-0.7,0.2c-0.2,0.1-0.4,0.3-0.6,0.6c-0.2,0.3-0.3,0.6-0.4,1c-0.1,0.4-0.2,0.9-0.2,1.5
		c0,0.9,0.2,1.7,0.6,2.2c0.4,0.6,1,0.9,1.6,0.9c0.5,0,0.9-0.1,1.2-0.3c0.4-0.3,0.7-0.6,0.9-1l0.5,0.3c-0.3,0.6-0.8,1-1.3,1.4
		C47.5,86.5,46.9,86.7,46.4,86.7z M57,86.3c-0.2,0.1-0.4,0.1-0.6,0.2c-0.2,0-0.4,0.1-0.6,0.1c-0.4,0-0.7-0.1-0.9-0.3
		c-0.2-0.2-0.4-0.5-0.4-0.8h0c-0.3,0.3-0.7,0.6-1.1,0.8c-0.4,0.2-0.9,0.3-1.3,0.3c-0.5,0-1-0.2-1.4-0.5c-0.2-0.2-0.3-0.4-0.4-0.6
		C50.1,85.3,50,85,50,84.8c0-0.3,0-0.5,0.1-0.8c0.1-0.2,0.2-0.4,0.4-0.6c0.1-0.2,0.3-0.3,0.5-0.4c0.2-0.1,0.4-0.2,0.6-0.3
		c0.2-0.1,0.7-0.3,1.4-0.5c0.7-0.2,1.2-0.4,1.4-0.5V81c0-0.1,0-0.2,0-0.4c0-0.2-0.1-0.4-0.2-0.5c-0.1-0.2-0.2-0.3-0.4-0.5
		c-0.2-0.1-0.4-0.2-0.8-0.2c-0.2,0-0.4,0-0.6,0.1c-0.2,0.1-0.4,0.2-0.4,0.3c0,0.1,0,0.3,0.1,0.4c0,0.2,0.1,0.4,0.1,0.5
		c0,0.2-0.1,0.3-0.2,0.5c-0.2,0.2-0.4,0.2-0.7,0.2c-0.3,0-0.4-0.1-0.5-0.3c-0.1-0.2-0.2-0.4-0.2-0.6c0-0.2,0.1-0.4,0.3-0.7
		c0.2-0.2,0.4-0.4,0.6-0.6c0.2-0.1,0.5-0.3,0.8-0.3c0.3-0.1,0.6-0.2,0.9-0.2c0.4,0,0.8,0,1.1,0.1c0.3,0.1,0.6,0.2,0.9,0.4
		c0.3,0.2,0.4,0.4,0.6,0.8c0.1,0.3,0.2,0.7,0.2,1.2c0,0.7,0,1.3,0,1.9c0,0.5,0,1.1,0,1.8c0,0.2,0,0.3,0.1,0.5
		c0.1,0.1,0.2,0.2,0.3,0.3c0.1,0,0.2,0.1,0.4,0.1H57L57,86.3L57,86.3z M54.4,82.5c-0.4,0.1-0.8,0.3-1.1,0.4
		c-0.3,0.1-0.6,0.3-0.9,0.4c-0.2,0.2-0.4,0.4-0.6,0.6c-0.2,0.2-0.2,0.5-0.2,0.8c0,0.4,0.1,0.7,0.3,0.9c0.2,0.2,0.5,0.3,0.8,0.3
		c0.4,0,0.7-0.1,0.9-0.3c0.3-0.2,0.5-0.4,0.7-0.6L54.4,82.5z M61.8,86.2c-0.3,0.1-0.6,0.3-0.9,0.3c-0.3,0.1-0.6,0.1-1.1,0.1
		c-0.6,0-1.1-0.2-1.3-0.5c-0.3-0.3-0.4-0.8-0.4-1.3v-5h-1.3v-0.7h1.4V77h1.4v2.3h2.1v0.7h-2.1V84c0,0.3,0,0.6,0,0.8
		c0,0.2,0.1,0.4,0.2,0.5c0.1,0.2,0.2,0.3,0.4,0.3c0.2,0.1,0.4,0.1,0.6,0.1c0.1,0,0.3,0,0.5,0c0.2,0,0.4-0.1,0.5-0.1L61.8,86.2
		L61.8,86.2L61.8,86.2z M66.2,86.5h-3.6V86c0.1,0,0.2,0,0.4,0c0.1,0,0.2,0,0.3-0.1c0.1,0,0.2-0.1,0.3-0.2c0.1-0.1,0.1-0.3,0.1-0.4
		v-4.5c0-0.2,0-0.3-0.1-0.4c-0.1-0.1-0.2-0.2-0.3-0.3c-0.1-0.1-0.2-0.1-0.4-0.2c-0.2-0.1-0.4-0.1-0.5-0.1v-0.5l2.6-0.2l0.1,0.1v5.9
		c0,0.2,0,0.3,0.1,0.4c0.1,0.1,0.2,0.2,0.3,0.3c0.1,0,0.2,0.1,0.3,0.1c0.1,0,0.2,0,0.4,0.1L66.2,86.5z M65.2,76.2
		c0,0.1,0,0.3-0.1,0.4c0,0.1-0.1,0.2-0.2,0.3c-0.2,0.2-0.4,0.3-0.7,0.3c-0.1,0-0.3,0-0.4-0.1c-0.1,0-0.2-0.1-0.3-0.2
		c-0.1-0.1-0.2-0.2-0.2-0.3c0-0.1-0.1-0.2-0.1-0.4c0-0.1,0-0.3,0.1-0.4c0-0.1,0.1-0.2,0.2-0.3c0.2-0.2,0.4-0.3,0.7-0.3
		c0.1,0,0.3,0,0.4,0.1c0.1,0,0.2,0.1,0.3,0.2c0.1,0.1,0.2,0.2,0.2,0.3C65.2,76,65.2,76.1,65.2,76.2L65.2,76.2z M73.8,82.8
		c0,0.5-0.1,1-0.3,1.5c-0.1,0.5-0.4,0.9-0.7,1.3c-0.4,0.4-0.7,0.7-1.2,0.9c-0.5,0.2-1,0.3-1.5,0.3c-0.5,0-0.9-0.1-1.3-0.3
		c-0.4-0.2-0.8-0.4-1.1-0.8c-0.3-0.3-0.6-0.8-0.8-1.2c-0.2-0.5-0.3-1.1-0.3-1.6c0-1.1,0.4-2.1,1-2.8c0.7-0.7,1.6-1.1,2.7-1.1
		c1,0,1.9,0.3,2.6,1C73.5,80.7,73.8,81.6,73.8,82.8L73.8,82.8z M72.3,82.8c0-0.4,0-0.8-0.1-1.2c-0.1-0.4-0.2-0.7-0.4-1
		c-0.2-0.3-0.4-0.5-0.6-0.7c-0.3-0.2-0.6-0.3-1-0.3s-0.7,0.1-1,0.3c-0.3,0.2-0.5,0.4-0.7,0.8c-0.2,0.3-0.3,0.7-0.4,1
		c-0.1,0.4-0.1,0.8-0.1,1.1c0,0.5,0,0.9,0.1,1.3c0.1,0.4,0.2,0.8,0.4,1.1c0.2,0.3,0.4,0.6,0.6,0.8c0.3,0.2,0.6,0.3,1,0.3
		c0.6,0,1.1-0.3,1.5-0.9C72,84.7,72.3,83.8,72.3,82.8z M82.6,86.5H79V86c0.1,0,0.3,0,0.4,0c0.1,0,0.2,0,0.4-0.1
		c0.1,0,0.2-0.1,0.3-0.2c0.1-0.1,0.1-0.3,0.1-0.4v-3.8c0-0.5-0.1-0.9-0.4-1.2c-0.1-0.1-0.2-0.2-0.4-0.3c-0.2-0.1-0.3-0.1-0.5-0.1
		c-0.3,0-0.5,0-0.7,0.1c-0.2,0.1-0.4,0.2-0.6,0.3c-0.2,0.1-0.3,0.2-0.4,0.4C77,80.9,77,80.9,76.9,81v4.2c0,0.1,0,0.3,0.1,0.4
		c0.1,0.1,0.2,0.2,0.3,0.3c0.1,0.1,0.2,0.1,0.4,0.1c0.1,0,0.3,0,0.4,0.1v0.5h-3.6v-0.5c0.1,0,0.2,0,0.4,0c0.1,0,0.2,0,0.3-0.1
		c0.1,0,0.3-0.1,0.3-0.2c0.1-0.1,0.1-0.3,0.1-0.4v-4.5c0-0.2,0-0.3-0.1-0.5c-0.1-0.1-0.2-0.3-0.3-0.3c-0.1-0.1-0.2-0.1-0.4-0.1
		c-0.2,0-0.3,0-0.4-0.1v-0.5l2.5-0.2l0.1,0.1v1h0c0.1-0.1,0.3-0.3,0.4-0.4c0.2-0.2,0.4-0.3,0.5-0.4c0.2-0.1,0.4-0.2,0.7-0.3
		c0.3-0.1,0.5-0.1,0.9-0.1c0.7,0,1.2,0.2,1.6,0.7c0.3,0.4,0.5,1,0.5,1.7v3.8c0,0.1,0,0.3,0.1,0.4c0.1,0.1,0.2,0.2,0.3,0.3
		c0.1,0.1,0.2,0.1,0.3,0.1c0.1,0,0.2,0,0.4,0L82.6,86.5L82.6,86.5z M88.3,82.9c0.2,0.2,0.4,0.4,0.5,0.6c0.1,0.2,0.2,0.5,0.2,0.9
		c0,0.7-0.3,1.2-0.8,1.6c-0.5,0.4-1.2,0.6-2,0.6c-0.4,0-0.8-0.1-1.2-0.2c-0.4-0.2-0.6-0.3-0.8-0.4L84,86.5h-0.6l-0.1-2.5h0.5
		c0,0.2,0.1,0.4,0.3,0.7c0.1,0.3,0.3,0.5,0.5,0.7c0.2,0.2,0.4,0.4,0.7,0.5c0.3,0.2,0.6,0.2,0.9,0.2c0.5,0,0.9-0.1,1.1-0.3
		c0.3-0.2,0.4-0.5,0.4-0.9c0-0.2,0-0.4-0.1-0.5c-0.1-0.2-0.2-0.3-0.4-0.4c-0.2-0.1-0.4-0.2-0.6-0.3c-0.3-0.1-0.5-0.2-0.8-0.3
		c-0.3-0.1-0.5-0.2-0.8-0.3c-0.3-0.1-0.5-0.3-0.7-0.4c-0.2-0.2-0.4-0.4-0.5-0.6c-0.2-0.3-0.2-0.5-0.2-0.9c0-0.6,0.2-1.1,0.7-1.5
		c0.4-0.4,1.1-0.6,1.8-0.6c0.3,0,0.6,0,0.9,0.1c0.3,0.1,0.5,0.2,0.7,0.3l0.2-0.4h0.5l0.1,2.3H88c-0.1-0.5-0.3-0.9-0.7-1.3
		c-0.4-0.3-0.8-0.5-1.3-0.5c-0.4,0-0.7,0.1-1,0.3c-0.2,0.2-0.4,0.4-0.4,0.7c0,0.2,0,0.4,0.1,0.6c0.1,0.2,0.2,0.3,0.4,0.4
		c0.2,0.1,0.4,0.2,0.6,0.3c0.2,0.1,0.5,0.2,0.8,0.3c0.3,0.1,0.6,0.2,0.9,0.3C87.9,82.5,88.1,82.7,88.3,82.9z"/>
</g>
</svg>
