<?xml version="1.0" encoding="utf-8"?>
<!-- Generator: Adobe Illustrator 27.7.0, SVG Export Plug-In . SVG Version: 6.00 Build 0)  -->
<svg version="1.1" id="Lager_1" xmlns="http://www.w3.org/2000/svg" xmlns:xlink="http://www.w3.org/1999/xlink" x="0px" y="0px"
	 viewBox="0 0 208 128" style="enable-background:new 0 0 208 128;" xml:space="preserve">
<style type="text/css">
	.st0{fill:#FFFFFF;}
</style>
<g>
	<path class="st0" d="M21.8,77.2c-0.1,0-0.2,0-0.3,0c-1-0.2-1.9-0.5-2.9-0.9c-1-0.3-1.9-0.9-2.7-1.4c-0.8-0.5-1.6-1.1-2.4-2
		c-0.6-0.6-0.6-1.5,0-2c0.6-0.6,1.5-0.6,2.1,0c0.7,0.7,1.3,1.1,1.9,1.6c0.7,0.5,1.4,0.9,2.1,1.1c0.1,0,0.1,0,0.2,0.1
		c0.8,0.3,1.6,0.6,2.4,0.8c0.8,0.2,1.3,1,1.1,1.7C23.1,76.7,22.4,77.2,21.8,77.2z"/>
	<path class="st0" d="M10.5,66c-0.7,0-1.3-0.5-1.4-1.1c-0.2-1-0.3-2-0.3-3.1c0-1.1,0.1-2.2,0.3-3.1c0.2-1,0.6-2,1-2.9
		c0.4-1,1-1.8,1.5-2.6c0.4-0.7,1.3-0.9,2.1-0.5c0.7,0.4,0.9,1.3,0.5,2c-0.5,0.7-0.9,1.5-1.2,2.2c-0.3,0.8-0.6,1.6-0.8,2.4
		c-0.2,0.7-0.2,1.6-0.2,2.5c0,0.9,0.1,1.7,0.2,2.5c0.2,0.8-0.3,1.6-1.1,1.7C10.8,66,10.6,66,10.5,66z"/>
	<path class="st0" d="M19,50.1c-0.5,0-1-0.2-1.3-0.7c-0.4-0.7-0.2-1.6,0.5-2c0.2-0.1,0.8-0.4,2.2-0.7c2-0.4,4.1-0.6,6.6-0.4
		c0.8,0.1,1.4,0.7,1.4,1.6c-0.1,0.8-0.7,1.4-1.6,1.4c-2.2-0.2-4,0-5.7,0.3c-1,0.2-1.4,0.4-1.4,0.4C19.5,50.1,19.3,50.1,19,50.1z"/>
	<path class="st0" d="M33.4,48.8c-0.7,0-1.3-0.5-1.5-1.1c-0.2-0.8,0.3-1.6,1.1-1.7c1.3-0.2,2.1-0.5,2.1-0.5c0.7-0.2,1.6,0.1,1.9,0.9
		c0.2,0.7-0.1,1.6-0.8,1.9c-0.1,0-0.9,0.3-2.5,0.7C33.6,48.8,33.5,48.8,33.4,48.8z"/>
	<path class="st0" d="M33.6,56.1c-0.8,0-1.5-0.7-1.5-1.5c0-0.8,0.7-1.5,1.5-1.5c0.7,0,4.4-0.1,7-1.3c0.7-0.3,1.6-0.1,2,0.7
		c0.3,0.7,0.1,1.6-0.7,2C38.8,56,34.7,56.1,33.6,56.1z"/>
	<path class="st0" d="M33.6,70.1c-0.8,0-1.5-0.7-1.5-1.5s0.7-1.5,1.5-1.5c1.2,0,4.4-0.1,7.4-0.9c0.8-0.2,1.6,0.2,1.8,1
		c0.2,0.8-0.2,1.6-1,1.8C38.6,69.9,35.3,70.1,33.6,70.1z"/>
	<path class="st0" d="M27.4,70.3h-2.9c-2.2,0-4.4-0.9-6.1-2.5c-1.6-1.6-2.5-3.8-2.5-6c0-2.2,0.9-4.4,2.5-6c1.6-1.6,3.8-2.5,6.1-2.5
		h2.9c0.9,0,1.6,0.7,1.6,1.6c0,0.9-0.7,1.6-1.6,1.6h-2.9c-1.4,0-2.7,0.5-3.8,1.6c-1,1-1.6,2.4-1.6,3.8c0,1.4,0.5,2.7,1.6,3.8
		c1,1,2.4,1.6,3.8,1.6h2.9c0.9,0,1.6,0.7,1.6,1.6S28.3,70.3,27.4,70.3z"/>
	<path class="st0" d="M32.9,63.2h-7.6c-0.8,0-1.5-0.7-1.5-1.5s0.7-1.5,1.5-1.5h7.6c0.8,0,1.5,0.7,1.5,1.5S33.7,63.2,32.9,63.2z"/>
	<path class="st0" d="M38.8,62.9c-0.8,0-1.5-0.7-1.5-1.5c0-0.8,0.7-1.5,1.5-1.5c0,0,2.7,0,4.8-0.9c0.7-0.3,1.6,0.1,1.9,0.8
		c0.3,0.7-0.1,1.6-0.8,1.9C42.1,62.8,39,62.9,38.8,62.9z"/>
	<path class="st0" d="M29.6,77.4c-0.5,0-0.8,0-0.9,0c-0.8,0-1.5-0.7-1.4-1.5c0-0.8,0.7-1.4,1.5-1.4c0,0,3.8,0.1,6.6-0.4
		c0.8-0.2,1.6,0.4,1.7,1.2c0.2,0.8-0.4,1.6-1.2,1.7C33.6,77.4,31,77.4,29.6,77.4z"/>
	<path class="st0" d="M55.2,60.5c0-8,6-14.3,14.4-14.3c5,0,9.5,2.5,11.8,6.5l-4.7,2.7c-1.3-2.5-4-3.9-7.1-3.9c-5.4,0-9,3.8-9,9
		c0,5.2,3.5,9,9,9c3.1,0,5.9-1.5,7.1-3.9l4.7,2.7c-2.3,3.9-6.8,6.5-11.8,6.5C61.2,74.8,55.2,68.5,55.2,60.5z"/>
	<path class="st0" d="M83.6,64.4c0-5.9,4.6-10.4,10.4-10.4s10.4,4.5,10.4,10.4S99.8,74.8,94,74.8C88.3,74.8,83.6,70.2,83.6,64.4z
		 M99.4,64.4c0-3.2-2.3-5.4-5.3-5.4c-3,0-5.3,2.2-5.3,5.4c0,3.2,2.3,5.4,5.3,5.4C97,69.8,99.4,67.6,99.4,64.4z"/>
	<path class="st0" d="M128.1,54.6v18.7c0,6.5-5.1,9.3-10.3,9.3c-4.2,0-7.6-1.6-9.4-4.8l4.4-2.5c0.8,1.6,2.1,2.8,5.2,2.8
		c3.2,0,5.2-1.7,5.2-4.8v-2.1c-1.4,1.9-3.5,2.9-6.3,2.9c-5.6,0-9.9-4.5-9.9-10c0-5.5,4.2-10,9.9-10c2.8,0,4.9,1.1,6.3,2.9v-2.5
		L128.1,54.6L128.1,54.6z M123.1,64.1c0-3.1-2.3-5.3-5.5-5.3c-3.2,0-5.5,2.2-5.5,5.3c0,3.1,2.3,5.4,5.5,5.4
		C120.8,69.5,123.1,67.2,123.1,64.1z"/>
	<path class="st0" d="M151.1,62.2v12H146V62.8c0-2.7-1.6-4-3.9-4c-2.5,0-4.4,1.5-4.4,4.9v10.6h-5V54.7h5.1v2.2
		c1.1-1.8,3.2-2.8,5.9-2.8C147.8,54.1,151.1,57,151.1,62.2z"/>
	<path class="st0" d="M154.8,49.2c0-1.7,1.4-3.1,3.1-3.1c1.7,0,3.1,1.5,3.1,3.1c0,1.7-1.4,3.1-3.1,3.1
		C156.3,52.3,154.8,50.9,154.8,49.2z M155.4,54.6h5.1v19.6h-5.1V54.6z"/>
	<path class="st0" d="M172,59.5v8.2c0,2.1,1.6,2.1,4.4,2v4.6c-7.1,0.8-9.5-1.3-9.5-6.6v-8.2h-3.4v-4.9h3.4v-3.9L172,49v5.5h4.4v4.9
		L172,59.5L172,59.5z"/>
	<path class="st0" d="M178.4,64.4c0-5.9,4.6-10.4,10.4-10.4c5.8,0,10.3,4.5,10.3,10.4s-4.7,10.4-10.4,10.4
		C183,74.8,178.4,70.2,178.4,64.4z M194.2,64.4c0-3.2-2.3-5.4-5.3-5.4c-3,0-5.3,2.2-5.3,5.4c0,3.2,2.3,5.4,5.3,5.4
		C191.8,69.8,194.2,67.6,194.2,64.4z"/>
</g>
</svg>
