<?xml version="1.0" encoding="utf-8"?>
<!-- Generator: Adobe Illustrator 27.7.0, SVG Export Plug-In . SVG Version: 6.00 Build 0)  -->
<svg version="1.1" id="Lager_1" xmlns="http://www.w3.org/2000/svg" xmlns:xlink="http://www.w3.org/1999/xlink" x="0px" y="0px"
	 viewBox="0 0 208 128" style="enable-background:new 0 0 208 128;" xml:space="preserve">
<style type="text/css">
	.st0{fill:none;}
	.st1{fill:#FFFFFF;}
</style>
<rect x="8.7" y="41.1" class="st0" width="190.6" height="45.8"/>
<g>
	<path class="st1" d="M171.5,40.3c-5.5,0.6-11,2.5-14.6,5.2c-1.8,1.3-2.8,2.4-3.8,3.9c-1.5,2.4-1.5,1.9-1.5,13.9
		c0,6.1,0,11.3,0.2,12c1.1,6.8,10.7,12.2,22,12.7c12,0.5,22.4-4.2,25-11.3c0.5-1.2,0.5-1.5,0.5-12.2c0-6.1-0.1-11.4-0.2-11.8
		c-0.6-2.6-2.5-5.2-5.3-7.2C188.5,41.4,179.7,39.4,171.5,40.3z M182,41c9.1,1.7,15.6,6.2,16.8,11.8c0.4,1.8,0.2,2-0.7,0.4
		c-1-1.9-3.5-4.3-5.7-5.7c-9.9-5.8-25-5.7-34.6,0.4c-1.7,1.1-4.1,3.6-5.1,5.2l-0.8,1.4l0.1-1.3c0.1-0.8,0.4-1.8,0.9-2.9
		c2.4-4.8,8.7-8.3,17.1-9.7C172.8,40.4,179.1,40.5,182,41z M181,44c7.9,1.2,14.4,4.8,16.8,9.4c1.3,2.4,1.3,4.6,0,2.5
		c-2.4-4-8-7.3-15.1-8.7c-3.5-0.7-9.4-0.8-13-0.2c-4.5,0.7-7.8,1.9-11,3.7c-1.8,1-5.3,4.4-5.8,5.5c-0.4,0.9-0.7,0.9-0.7-0.1
		c0-1.1,1.2-3.5,2.5-4.9c3.3-3.7,8.7-6.1,16.5-7.3C172.7,43.6,179,43.7,181,44z M181.3,47.3c7.9,1.2,14.2,4.8,16.5,9.3
		c0.5,0.9,0.5,1.1,0.3,1.6l-0.3,0.6l-1.5-1.6c-2.4-2.6-5-4.2-9-5.6c-6.9-2.4-16.1-2.5-23-0.3c-4.9,1.6-8.7,4.1-11,7.2
		c-0.2,0.3-0.3,0.2-0.5-0.3c-0.2-0.6-0.2-0.8,0.3-1.7c0.3-0.6,1-1.6,1.6-2.2C159.9,48.5,170.9,45.7,181.3,47.3z M179.9,50.3
		c5.9,0.7,10.9,2.6,14.4,5.4c1.3,1.1,3.3,3.2,3.3,3.6c0,0.1-0.2,0.4-0.4,0.7l-0.4,0.5L195,59c-8.2-6.9-24-8.2-34.7-2.8
		c-2.3,1.1-3.4,1.9-5,3.3l-1.2,1.1l-0.3-0.5c-0.2-0.3-0.3-0.7-0.3-0.8c0-0.2,0.6-1,1.3-1.8C160,51.9,169.8,49.1,179.9,50.3z
		 M182.1,53.7c4.3,0.9,8.4,2.5,11.1,4.3c1.3,0.9,3,2.5,3,2.8c0,0.5-1.1,1.3-1.4,1.1c-2.9-2.1-4.8-3.1-8.1-4.2
		c-4.1-1.4-10.6-2.1-15.1-1.5c-5.9,0.7-10.3,2.2-14.2,4.8l-1.6,1.1l-0.6-0.6c-0.6-0.5-0.6-0.6-0.3-1c0.6-0.8,3.4-2.9,5.3-3.9
		c2.8-1.4,7.1-2.7,10.7-3.2C173,53.1,180.3,53.4,182.1,53.7z M180.7,56.7c4,0.5,7.5,1.6,10.6,3.3c1.6,0.9,3.5,2.2,3.5,2.4
		c0,0.1-0.4,0.4-0.8,0.8l-0.8,0.6l-1.8-1c-4.9-2.6-10.5-3.7-17.3-3.5c-5.8,0.2-10.6,1.4-14.6,3.7l-1.4,0.8l-0.8-0.6
		c-0.5-0.3-0.8-0.6-0.8-0.7s0.4-0.5,0.8-0.8c3-2.4,7.8-4.2,12.8-4.9C172.6,56.4,177.9,56.4,180.7,56.7z M152.8,59.6
		c-0.1,0.3-0.2,0.5-0.3,0.5c-0.2,0-0.3-1.4-0.1-1.6C152.6,58.3,152.9,59,152.8,59.6z M198.8,59.4c0,0.6-0.4,0.8-0.5,0.3
		c-0.2-0.6,0.1-1.5,0.3-1.1C198.7,58.8,198.8,59.1,198.8,59.4z M178.6,59.7c2.9,0.2,5.8,0.8,8.5,1.7c2,0.7,5.5,2.3,5.5,2.6
		c0,0.3-3.4,1.9-5.6,2.7c-7.3,2.4-15.3,2.5-22.7,0.1c-2.3-0.7-5.6-2.3-5.7-2.7c-0.1-0.4,4-2.3,6.3-3
		C169.7,59.7,173.7,59.3,178.6,59.7z M153.9,60.9c0,0.1-0.2,0.5-0.4,0.7l-0.4,0.5l-0.3-0.6c-0.2-0.5-0.2-0.8,0-1.3l0.2-0.6l0.4,0.5
		C153.7,60.4,153.9,60.7,153.9,60.9z M198.2,60.4c0.2,0.4,0.2,0.6,0,1c-0.3,0.6-0.5,0.6-0.9-0.1c-0.2-0.4-0.2-0.6,0-1
		C197.6,59.8,197.9,59.8,198.2,60.4z M155,63.1c-0.6,0.6-0.6,0.6-1,0.2c-0.5-0.5-0.5-0.9-0.1-1.6l0.4-0.5l0.7,0.7l0.7,0.7L155,63.1z
		 M197.2,61.7c0.4,0.6,0.3,1.2-0.2,1.6c-0.3,0.2-0.4,0.2-0.8-0.2c-0.7-0.6-0.7-0.7,0-1.4C196.7,61.1,196.7,61.1,197.2,61.7z
		 M152.7,62c0.2,0.4,0,1.2-0.3,1.2c-0.1,0-0.2-0.3-0.2-0.8C152.2,61.6,152.5,61.4,152.7,62z M198.8,62.3c0,0.3-0.1,0.6-0.2,0.8
		c-0.3,0.4-0.5-0.5-0.3-1.1C198.4,61.5,198.8,61.7,198.8,62.3z M156.8,63.4c0.3,0.2,0.6,0.5,0.6,0.6c0,0.1-0.3,0.4-0.8,0.8l-0.8,0.6
		l-0.7-0.7l-0.7-0.7l0.6-0.6c0.3-0.4,0.7-0.6,0.9-0.5C156.1,62.9,156.5,63.2,156.8,63.4z M196.1,63.7c0.2,0.5,0.2,0.6-0.3,1.1
		c-0.3,0.3-0.6,0.5-0.6,0.5c-0.1,0-0.5-0.3-1-0.6l-0.8-0.6l0.8-0.6C195.1,62.7,195.6,62.7,196.1,63.7z M153.9,64
		c0,0.1-0.2,0.4-0.4,0.7l-0.4,0.5l-0.3-0.6c-0.2-0.5-0.2-0.7,0-1.2l0.3-0.6l0.4,0.5C153.7,63.6,153.9,63.9,153.9,64z M198.2,64.5
		c-0.2,0.7-0.4,0.7-0.8,0.2c-0.4-0.5-0.4-0.9,0.1-1.4c0.3-0.4,0.4-0.4,0.6,0.1C198.3,63.8,198.3,64.1,198.2,64.5z M164.5,67.2
		c2.7,0.8,4.9,1.3,8.2,1.5c6.5,0.5,13-0.7,18.1-3.3c1.1-0.6,2.2-1,2.3-1c0.1,0,0.5,0.3,0.9,0.6c0.6,0.5,0.7,0.6,0.5,0.9
		c-0.6,0.7-3,2.1-5,3c-8.6,3.8-20.1,3.7-28.6-0.3c-2.1-1-4.6-2.6-4.6-3c0-0.1,0.4-0.5,0.8-0.8l0.8-0.6l2.3,1.1
		C161.4,66.1,163.4,66.9,164.5,67.2z M155.3,65.3c0.2,0.2,0,0.5-0.4,1l-0.6,0.6l-0.4-0.5c-0.5-0.6-0.5-0.9-0.1-1.5
		c0.3-0.5,0.4-0.5,0.8-0.2C154.9,64.9,155.2,65.1,155.3,65.3z M197.2,65c0.4,0.7,0.4,0.7-0.1,1.4l-0.4,0.5l-0.5-0.5
		c-0.7-0.6-0.7-0.8-0.1-1.5C196.6,64.3,196.7,64.3,197.2,65z M152.7,65.2c0.2,0.4,0,1.2-0.3,1.2c-0.1,0-0.2-0.3-0.2-0.8
		C152.2,64.8,152.5,64.6,152.7,65.2z M198.8,65.6c0,0.3-0.1,0.6-0.2,0.8c-0.2,0.3-0.2,0.2-0.3-0.3c-0.2-0.7,0-1.3,0.3-1.1
		C198.7,65,198.8,65.3,198.8,65.6z M157,66.8c2.6,1.9,6.6,3.6,11.2,4.6c2,0.4,2.9,0.5,7.2,0.5c4.4,0,5.2-0.1,7.3-0.5
		c4.4-0.9,8.2-2.5,11.1-4.5l1.4-1l0.5,0.5c0.3,0.3,0.5,0.6,0.5,0.9c0,0.7-3,2.9-5.7,4.3c-4.6,2.3-9.1,3.2-15.1,3.2
		c-4.1,0-7-0.4-10.4-1.4c-3.8-1.2-7.7-3.3-9.7-5.4l-0.8-0.8l0.6-0.6c0.3-0.3,0.6-0.6,0.7-0.6C155.8,65.9,156.4,66.3,157,66.8z
		 M153.9,67.2c0,0.1-0.2,0.4-0.4,0.7l-0.4,0.5l-0.3-0.6c-0.2-0.5-0.2-0.7,0-1.2l0.3-0.6l0.4,0.5C153.7,66.8,153.9,67.1,153.9,67.2z
		 M198.2,66.7c0.1,0.4,0.1,0.7,0,1.1c-0.2,0.5-0.3,0.5-0.6,0.2c-0.5-0.4-0.5-0.8-0.1-1.4C197.7,66,197.9,66,198.2,66.7z M155.3,68.6
		c2.6,2.6,8.3,5.2,13.6,6.2c3.3,0.6,10.2,0.5,13.5-0.1c5.4-1,10.1-3.2,13.2-6.1l1-1l0.4,0.5c0.2,0.3,0.4,0.6,0.4,0.8
		c0,0.5-2.8,3.3-4.5,4.4c-7,4.7-18.3,6-28,3.3c-2.5-0.7-6.3-2.5-8.2-4c-1.6-1.2-3.4-3.3-3.4-3.8c0-0.3,0.6-1.1,0.9-1.1
		C154.4,67.7,154.9,68.1,155.3,68.6z M198.8,68.9c0,0.3-0.1,0.5-0.2,0.6c-0.3,0.2-0.5-0.5-0.3-1.1c0.1-0.5,0.2-0.5,0.3-0.3
		C198.7,68.3,198.8,68.6,198.8,68.9z M152.7,68.4c0.2,0.4,0,1.2-0.3,1.2c-0.1,0-0.2-0.3-0.2-0.8C152.2,68.1,152.5,67.8,152.7,68.4z
		 M157.9,73.8c2.7,1.7,5.2,2.8,8.8,3.6c9,2.2,19.3,0.8,25.9-3.4c2-1.3,3.7-2.7,4.4-3.8c0.6-0.9,0.8-1,1.2-0.3c0.3,0.7-0.5,2.2-2,3.9
		c-6.8,7.5-22.7,9.7-34.4,4.9c-2.4-1-4.6-2.5-6.5-4.3c-2.1-2.1-3-3.6-2.6-4.4c0.2-0.5,0.3-0.5,1.9,1.2
		C155.7,72,157.1,73.2,157.9,73.8z M153.1,72.1c1.3,2.6,5.2,5.5,9.7,7.2c3.8,1.5,6.3,1.9,11.6,2.1c6.2,0.2,9.8-0.4,14.4-2.3
		c4.1-1.7,7.3-4.1,9.1-6.8c0.6-0.9,0.9-1.2,1-0.9c0.4,1.1-1,4-2.9,6c-5.8,5.9-17.4,8.5-28.2,6.2c-7-1.5-12.6-5-14.7-9.3
		c-0.7-1.4-1-3.2-0.6-3.2C152.5,71.1,152.8,71.6,153.1,72.1z M152.7,74.7c1.8,3.5,6.2,6.6,11.5,8.4c4,1.3,5.8,1.5,11,1.5
		c5.2,0,6.9-0.2,10.7-1.3c2.5-0.7,6.3-2.5,8-3.9c1.8-1.3,3.6-3.3,4.2-4.7c0.3-0.6,0.6-1.1,0.7-1.1c0.3,0,0,1.8-0.5,2.9
		c-1.9,4.8-7.5,8.5-15.6,10.3c-2,0.4-2.9,0.5-7.3,0.5c-4.5,0-5.3-0.1-7.4-0.5c-5.8-1.3-10.7-3.7-13.4-6.8c-1.3-1.4-2.5-3.8-2.7-5.3
		c-0.1-0.6-0.1-1.1,0-1.1C152.1,73.7,152.4,74.2,152.7,74.7z"/>
	<path class="st1" d="M8.7,64.6v20.1l9.9-0.1c9.5-0.1,9.9-0.1,11.5-0.6c7.2-2.2,11.5-6.9,13.4-14.7c0.2-0.8,0.3-2.5,0.3-4.7
		c0-3.7-0.3-5.3-1.4-8.3c-0.5-1.4-2-3.8-3.2-5.2c-2.1-2.6-5.9-4.8-9.7-5.8c-2.2-0.6-2.2-0.6-11.5-0.7l-9.3-0.1V64.6z M26.7,53.2
		c5.1,1.3,7.9,5.4,7.9,11.6c0,4-1,6.9-3.2,8.9c-2.5,2.4-4.1,2.8-9.6,2.9h-4.1l-0.1-11.9l0-11.9h3.7C24.3,52.8,25.3,52.9,26.7,53.2z"
		/>
	<path class="st1" d="M56.1,45.2c-0.1,0.3-1.5,4.1-3,8.5c-4.1,11.4-4.9,13.7-5.7,16c-1.3,3.6-5.3,14.9-5.3,15c0,0.1,2,0.1,4.5,0.1
		h4.5l0.4-1.1c0.2-0.6,0.9-2.5,1.4-4.2l1-3.1l6.5,0l6.5,0.1l1.4,4.2l1.4,4.1h4.6c2.7,0,4.6-0.1,4.6-0.2c0-0.1-0.1-0.5-0.2-0.8
		c-0.3-0.8-2.8-7.9-4.7-13.2c-0.8-2.3-2.4-6.9-3.6-10.3c-1.2-3.3-2.9-8.2-3.8-10.9l-1.7-4.8h-4.3h-4.3L56.1,45.2z M62.6,62.9
		c1,3,1.8,5.6,1.8,5.8c0,0.2-1.1,0.2-3.9,0.2c-3,0-3.9-0.1-3.8-0.3c0.4-1,3.4-10.4,3.6-11.2c0.2-0.7,0.3-0.8,0.4-0.5
		C60.7,57.2,61.6,59.9,62.6,62.9z"/>
	<path class="st1" d="M73.9,45c0.2,0.3,1.7,3,3.4,6.1c1.7,3.1,4.6,8.5,6.5,12l3.5,6.4v7.6v7.6h4.4h4.4V77v-7.7l5.5-10.2
		c3-5.6,6-11.1,6.7-12.3c0.6-1.1,1.2-2.1,1.2-2.2c0-0.1-2.1-0.1-4.7-0.1h-4.7l-2.7,5.2c-1.5,2.9-3.4,6.5-4.2,8.1l-1.4,2.8l-3.1-6.1
		c-1.7-3.3-3.6-7-4.1-8.1l-1-2h-4.9h-4.9L73.9,45z"/>
	<path class="st1" d="M117.4,47.4c-0.6,1.6-1.9,5.5-3.1,8.7c-1.1,3.2-2.4,6.8-2.8,7.9c-0.4,1.1-1.7,4.7-2.8,7.9
		c-1.1,3.2-2.4,6.8-2.8,7.9c-0.4,1.1-0.9,2.7-1.3,3.5l-0.6,1.5h4.6h4.6l1.4-4.1l1.4-4.2l6.4-0.1c5,0,6.5,0,6.6,0.2
		c0.1,0.2,0.6,1.5,1,3c0.5,1.5,1.1,3.3,1.3,3.9l0.4,1.3h4.6c2.5,0,4.6,0,4.6-0.1c0,0-0.6-1.7-1.3-3.7c-0.7-2-2-5.6-2.8-7.9
		c-0.8-2.3-2.5-7-3.7-10.4c-1.2-3.4-2.6-7.4-3.2-8.8c-0.5-1.5-1.5-4.2-2.1-5.9l-1.2-3.2l-4.3-0.1l-4.3,0L117.4,47.4z M124.7,63.2
		c1,3,1.8,5.6,1.8,5.7c0,0.1-1.7,0.2-3.9,0.2h-3.9l0.1-0.5c0.2-0.6,3.6-11,3.7-11.4c0.1-0.3,0.1-0.2,0.2,0.1
		C122.9,57.4,123.7,60.1,124.7,63.2z"/>
</g>
</svg>
