<?xml version="1.0" encoding="utf-8"?>
<!-- Generator: Adobe Illustrator 27.7.0, SVG Export Plug-In . SVG Version: 6.00 Build 0)  -->
<svg version="1.1" id="Lager_1" xmlns="http://www.w3.org/2000/svg" xmlns:xlink="http://www.w3.org/1999/xlink" x="0px" y="0px"
	 viewBox="0 0 208 128" style="enable-background:new 0 0 208 128;" xml:space="preserve">
<style type="text/css">
	.st0{fill:#FFFFFF;}
</style>
<g>
	<path class="st0" d="M107.7,11.3c-1.5,0.3-3.4,1.4-4.4,2.6c-0.3,0.3-0.5,0.6-0.4,0.6c0.1,0.1,6,3.3,6.1,3.3c0,0,0.8-1.4,1.6-3
		c1.8-3.4,1.7-3.2,0.3-3.5C110,11,108.8,11,107.7,11.3z"/>
	<path class="st0" d="M113.2,13c-1,1.7-2.9,5.4-2.8,5.5c0.2,0.2,5.7,3.2,5.8,3.2c0.1,0,0.2-0.4,0.3-0.9c0.3-1.2,0.3-3.1,0-4
		c-0.4-1.3-1.5-3.1-2.4-3.9C113.5,12.4,113.5,12.4,113.2,13z"/>
	<path class="st0" d="M101.7,16.2c-0.4,1.5-0.4,3.1,0,4.4c0.4,1.4,1.8,3.3,2.8,4l0.3,0.2l1.5-3l1.5-3l-2.9-1.5
		c-1.6-0.9-2.9-1.6-3-1.6C101.9,15.8,101.8,16,101.7,16.2z"/>
	<path class="st0" d="M108.4,21.5c-1.6,3.2-2,4.3-2,4.4c0.1,0.2,1.5,0.4,2.2,0.4c2,0,4-0.7,5.4-1.9c0.9-0.7,1.5-1.5,1.3-1.6
		c-0.1-0.1-1.4-0.8-3.1-1.6l-2.9-1.5L108.4,21.5z"/>
	<path class="st0" d="M104.3,25.8c-3.4,2.5-7.8,9.6-9.9,15.9c-0.8,2.5-2,8.1-1.8,8.3c0,0,0.7,0.3,1.5,0.7c4.2,1.7,4.8,2,7.5,3.9
		l1.6,1.1l0.9-0.6c0.5-0.3,1-0.7,1.1-0.8c0.2-0.1,0.2-0.2-0.5-2.5c-1.3-4.1-1.8-6.6-2-10c-0.1-1.7-0.1-2.5,0-3.8
		c0.3-3,1.1-7.2,2.1-10.9c0.3-0.9,0.4-1.6,0.4-1.7C105.1,25.3,104.8,25.5,104.3,25.8z"/>
	<path class="st0" d="M56.1,43.3c-0.1,0-0.3,0.1-0.3,0.1c0,0.5,0.8,6.5,0.8,6.5c0.1,0.1,6.7-0.6,6.8-0.7c0.1-0.1-0.4-1.2-0.9-2.1
		c-0.8-1.4-2.6-2.8-4.3-3.5C57.7,43.4,56.6,43.2,56.1,43.3z"/>
	<path class="st0" d="M53.3,43.6c-2.1,0.9-3.8,2.7-4.5,4.8c-0.2,0.7-0.5,2.5-0.5,2.6c0,0,6.6-0.9,6.7-1c0,0-0.1-1.5-0.6-5.5
		C54.3,43.2,54.4,43.2,53.3,43.6z"/>
	<path class="st0" d="M149.3,44.2c-0.3,0.1-1.2,0.4-1.8,0.7c-1,0.5-1.3,0.7-2,1.4c-0.8,0.8-1.5,1.9-1.6,2.4c-0.1,0.3,0,0.3,0.4,0.4
		c0.2,0.1,1.7,0.5,3.3,0.9c1.6,0.4,2.9,0.7,2.9,0.7c0.1-0.1,1.5-6.4,1.5-6.6c0-0.1-0.2-0.2-1.1-0.2C150.5,44,149.7,44.1,149.3,44.2z
		"/>
	<path class="st0" d="M152.9,47.5c-0.4,1.8-0.7,3.2-0.7,3.2c0.1,0.1,6.6,1.6,6.7,1.5c0.1-0.1,0-1.9-0.2-2.7c-0.5-1.8-2-3.7-3.9-4.9
		c-0.4-0.2-0.7-0.4-0.8-0.4C153.7,44.3,153.5,45,152.9,47.5z"/>
	<path class="st0" d="M129.5,48c-6,0.6-10.3,1.6-15.8,3.8c-9.3,3.7-18.6,10.8-24.7,18.9c-4.3,5.7-7.1,12.5-7.9,18.4l-0.1,0.6h13.3
		h13.3l0.2-1.4c2.3-12.5,9-23.9,18.2-31.1c3.5-2.7,8.3-4.7,15.6-6.5c0.9-0.2,1.4-0.4,1.7-0.5c0.4-0.2,0.4-0.2,0.2-0.4
		c-0.4-0.4-3.3-1.2-6.6-1.7C135.7,48,131.1,47.9,129.5,48z"/>
	<path class="st0" d="M71.6,48.1c-2.8,0.2-5.2,0.7-6.8,1.2c-1.5,0.5-1.7,0.8-0.5,1c1.5,0.3,3.9,0.9,4.9,1.3c4,1.3,9.6,4.2,12.8,6.4
		c1.9,1.4,5.1,4.6,7.4,7.7l1,1.4l3.1-3.1c3.3-3.3,4.6-4.4,7-6.1c0.8-0.6,1.5-1.1,1.5-1.2c0-0.2-2.6-1.9-4.5-2.9
		c-2.6-1.3-4-1.9-7-2.9c-3.9-1.3-7.5-2.1-11.1-2.5C78,48.1,72.8,48,71.6,48.1z"/>
	<path class="st0" d="M60.2,51.1c-1.7,0.3-3.1,0.5-3.1,0.5c0,0,1,6.6,1,6.7c0.1,0.1,1.2-0.4,2-0.9c1.5-1,2.6-2.4,3.2-4.1
		c0.2-0.5,0.5-2.3,0.5-2.6C63.8,50.5,63.6,50.6,60.2,51.1z"/>
	<path class="st0" d="M143.5,51c0,1.3,0.5,3.1,1.2,4.2c0.8,1.3,2.9,3.1,3.8,3.3l0.3,0.1l0.7-3.2c0.4-1.8,0.7-3.2,0.6-3.3
		c0,0-1.4-0.4-3.1-0.8c-1.7-0.4-3.2-0.7-3.3-0.8C143.5,50.5,143.5,50.6,143.5,51z"/>
	<path class="st0" d="M52,52.2l-3.3,0.5l0,0.3c0,0.5,0.6,1.6,1.2,2.4c0.7,0.9,1.5,1.5,2.7,2.1c1.3,0.6,2,0.9,3,1l0.8,0.1v-0.3
		c0-0.3-0.7-5-0.9-6.2c0-0.2-0.1-0.4-0.2-0.4C55.3,51.7,53.8,52,52,52.2z"/>
	<path class="st0" d="M151.7,52.4c-0.1,0.2-1.3,6.3-1.3,6.5c0,0.1,0.2,0.1,0.7,0.1c1.7,0,4.3-1.1,5.5-2.3c0.6-0.6,1.5-2,1.8-2.6
		c0.1-0.2,0.3-0.2-3.3-1c-1.6-0.4-3.1-0.7-3.1-0.7C151.8,52.3,151.7,52.4,151.7,52.4z"/>
	<path class="st0" d="M116.3,70.3c-2.2,3.6-4.1,7.4-5,10.4c-0.6,1.8-1.3,4.6-1.8,7.1l-0.4,1.9h8.5c8,0,8.5,0,8.4-0.2
		c0-0.1-0.2-1.2-0.4-2.4c-0.5-2.8-0.9-4.2-1.5-5.9c-0.8-2.2-2-4.5-3.9-7.5c-0.9-1.4-3-4.3-3.1-4.4C117,69.3,116.7,69.7,116.3,70.3z"
		/>
	<path class="st0" d="M136.4,94.2c-0.9,0.3-1.4,1.3-1.1,2.2c0.4,1.3,2,1.7,3,0.7c0.4-0.4,0.4-0.4,0.4-1.2c0-0.7,0-0.8-0.3-1.2
		c-0.2-0.2-0.4-0.4-0.5-0.5C137.5,94,136.8,94,136.4,94.2z"/>
	<path class="st0" d="M141.3,94.2c-1.5,0.5-1.6,2.5-0.2,3.2c0.8,0.4,1.8,0.1,2.3-0.6c0.2-0.2,0.2-0.5,0.2-1s-0.1-0.8-0.2-1
		C142.9,94.2,142.1,93.9,141.3,94.2z"/>
	<path class="st0" d="M8.8,99c-0.2,0.2-0.2,1.3-0.1,8.8c0,8.3,0,8.6,0.3,8.8c0.2,0.2,0.3,0.2,1.5,0.2c0.9,0,1.3,0,1.4-0.1
		c0.1-0.1,0.1-1.1,0.2-2.5l0-2.4l0.6-1c0.3-0.5,0.7-1,0.7-1c0.1,0,0.8,1.4,1.6,3.2c0.8,1.7,1.6,3.3,1.7,3.4c0.2,0.2,0.3,0.2,1.7,0.2
		c1.4,0,1.6-0.1,1.6-0.2c0-0.1-1-2.4-2.2-5.2c-1.2-2.7-2.2-5-2.2-5.1c0-0.1,0.9-1.7,2-3.6c1.5-2.6,2-3.5,1.9-3.6
		c-0.1-0.1-0.4-0.2-1.6-0.2c-1.3,0-1.5,0-1.7,0.2c-0.1,0.1-1.1,1.6-2.1,3.3c-1.1,1.7-2,3.1-2.1,3.1c-0.1,0-0.1-0.7-0.1-3.2
		c0-3.1,0-3.2-0.2-3.3c-0.1-0.1-0.8-0.1-1.4-0.1C9.1,98.7,9,98.7,8.8,99z"/>
	<path class="st0" d="M37.6,98.8c-0.1,0.1-0.1,2.2-0.1,8.9c0,4.8,0,8.9,0.1,9c0.1,0.1,0.3,0.2,1.4,0.2c0.9,0,1.4,0,1.5-0.1
		c0.1-0.1,0.1-1,0.1-3.2c0-1.7,0-3.2,0.1-3.3c0.1-0.3,0.1-0.3,1.1-0.3c0.7,0,1.1,0,1.1,0.1c0.1,0.1,0.5,1.6,1,3.4
		c0.5,1.8,0.9,3.3,1,3.3c0.2,0.2,2.7,0.1,2.8,0c0.2-0.2,0.2-0.6-0.7-4.1l-0.9-3.4l0.3-0.2c0.5-0.4,1.4-1.3,1.6-1.8
		c0.5-1,0.7-2.9,0.4-4.4c-0.3-2.1-1.9-3.5-4.2-3.9C43,98.7,37.8,98.6,37.6,98.8z M43.8,102c0.5,0.3,0.9,0.8,1,1.3c0,0.2,0,0.8,0,1.4
		c0,0.8-0.1,1-0.4,1.4c-0.5,0.6-0.9,0.8-2.4,0.8c-0.8,0-1.3,0-1.4-0.1c-0.1-0.1-0.1-0.8-0.1-2.3c0-2.8-0.1-2.6,1.6-2.6
		C43,101.8,43.5,101.8,43.8,102z"/>
	<path class="st0" d="M52.2,98.8L52,98.9l0,8.8l0,8.8l1.5,0l1.5,0l0.1-0.3c0.1-0.2,0.1-2.3,0.1-5.3v-5l2.6,5.3l2.6,5.3h1.4
		c0.9,0,1.5,0,1.6-0.1c0.1-0.1,0.1-2.2,0.1-8.9c0-8.5,0-8.7-0.2-8.8c-0.3-0.2-2.5-0.2-2.8,0c-0.1,0.1-0.2,0.9-0.2,5.3l-0.1,5.2
		l-1.8-3.6c-1-2-2.2-4.3-2.6-5.1c-0.4-0.9-0.9-1.6-0.9-1.7C54.8,98.7,52.6,98.7,52.2,98.8z"/>
	<path class="st0" d="M67.6,98.8c-0.2,0.2-0.2,17.7,0,17.9c0.2,0.2,7.6,0.2,7.8,0c0.1-0.1,0.2-2.3,0.1-2.7c-0.1-0.2-0.4-0.2-2.3-0.2
		c-1.2,0-2.3-0.1-2.4-0.1c-0.1-0.1-0.2-0.5-0.2-2c0-1.2,0-2.1,0.1-2.3l0.1-0.3h2.2c1.6,0,2.3,0,2.4-0.1c0.2-0.2,0.2-2.5,0-2.7
		c-0.1-0.1-0.8-0.1-2.3-0.1s-2.2,0-2.3-0.1c-0.1-0.1-0.1-0.7-0.1-2c0-1.7,0-1.9,0.2-2.1c0.2-0.2,0.6-0.2,2.5-0.2l2.2,0l0-1.3
		c0-1.1,0-1.3-0.2-1.5C75.1,98.6,67.8,98.6,67.6,98.8z"/>
	<path class="st0" d="M107,98.8c-0.3,0.1-0.3,0.3-0.1,0.4c0.1,0,0.1,3.1,0.1,8.7c0,6.6,0,8.7,0.1,8.8c0.2,0.2,7.6,0.2,7.8,0
		c0.1-0.1,0.1-0.6,0.1-1.5c0-0.9,0-1.4-0.1-1.5c-0.1-0.1-0.8-0.1-2.3-0.1s-2.2,0-2.3-0.1c-0.1-0.1-0.1-1.9-0.1-7.3
		c0-5.5,0-7.2-0.1-7.3C109.8,98.7,107.4,98.7,107,98.8z"/>
	<path class="st0" d="M122.5,99l-0.3,0.3v8.7c0,6.6,0,8.7,0.1,8.8c0.2,0.2,2.9,0.2,3.1,0c0.1-0.1,0.1-1,0.1-3.5c0-3.2,0-3.3,0.2-3.4
		c0.1-0.1,1.1-0.1,2.3-0.1c1.5,0,2.2,0,2.3-0.1c0.2-0.2,0.2-2.4,0-2.7c-0.1-0.1-0.5-0.2-2.4-0.2c-1.9,0-2.2,0-2.3-0.2
		c0-0.1-0.1-1.2-0.1-2.4c0-2.1,0-2.2,0.2-2.4c0.1-0.1,1.1-0.1,2.3-0.1c1.5,0,2.2,0,2.3-0.1c0.2-0.2,0.2-2.4,0-2.7
		c-0.1-0.2-0.7-0.2-3.9-0.2h-3.7L122.5,99z"/>
	<path class="st0" d="M138.4,98.8c-2.4,0.4-3.8,1.7-4.2,3.7c-0.1,0.5-0.1,2.2-0.1,5.6c0,4.8,0,5,0.3,5.6c0.4,0.9,0.9,1.5,1.7,2.1
		c1,0.7,2.1,1,3.5,1c2.6,0,4.4-1.1,5.2-3c0.2-0.6,0.3-0.8,0.3-5.7c0-4.3,0-5.1-0.1-5.8c-0.6-2.1-2.3-3.4-4.9-3.6
		C139.5,98.7,138.8,98.8,138.4,98.8z M140.6,101.9c0.2,0.1,0.4,0.5,0.6,0.7l0.3,0.5v4.5c0,4.4,0,4.6-0.3,5.1
		c-0.8,1.6-3.3,1.4-3.8-0.4c-0.2-0.6-0.2-8.6,0-9.3c0.3-1.1,0.9-1.5,2.1-1.4C140,101.6,140.3,101.7,140.6,101.9z"/>
	<path class="st0" d="M149,98.8c-0.2,0.1-0.2,0.7-0.2,9l0,8.8h1.6h1.6l0.1-3.3c0-2.8,0.1-3.3,0.2-3.4c0.3-0.2,2-0.1,2.2,0
		c0.1,0.1,0.5,1.6,1,3.4l0.9,3.3l1.5,0c1.4,0,1.5,0,1.6-0.2c0.1-0.2-0.1-1.1-0.8-3.8c-0.5-1.9-0.9-3.5-0.9-3.5c0,0,0.3-0.3,0.6-0.7
		c0.3-0.4,0.8-0.9,1-1.3c0.3-0.6,0.3-0.7,0.3-2.7c0-2,0-2.1-0.3-2.8c-0.6-1.2-1.8-2.2-3.3-2.6C155,98.7,149.3,98.6,149,98.8z
		 M155.2,102c0.8,0.4,1.1,1.1,1.1,2.2c0,0.9-0.2,1.4-0.6,1.9c-0.5,0.5-1,0.7-2.4,0.6l-1.2,0l0-2.4c0-2.9-0.1-2.7,1.5-2.6
		C154.4,101.8,154.8,101.8,155.2,102z"/>
	<path class="st0" d="M163.3,98.8c0,0.1-0.1,4.1-0.1,8.9c0,8,0,8.8,0.2,9c0.2,0.2,0.5,0.2,3.9,0.2c3.2,0,3.7,0,3.9-0.2
		c0.1-0.1,0.2-0.4,0.2-1.4c0-0.7-0.1-1.3-0.1-1.4c-0.1-0.2-0.3-0.2-2.3-0.2c-1.6,0-2.3,0-2.4-0.1c-0.1-0.1-0.1-1.9-0.1-7.4
		c0-7,0-7.2-0.2-7.3C166,98.7,163.4,98.7,163.3,98.8z"/>
	<path class="st0" d="M192.8,98.8c-1.9,0.3-3.3,1.2-3.9,2.7l-0.3,0.7v5.5v5.5l0.3,0.7c0.9,2,3,3,5.7,2.8c1.2-0.1,2.2-0.4,3-1
		c0.7-0.5,1.1-1,1.5-1.9c0.2-0.6,0.2-0.9,0.3-3.7c0-2.8,0-3.1-0.2-3.2c-0.3-0.2-5-0.2-5.2,0c-0.1,0.1-0.1,0.6-0.1,1.6
		c0,1.6-0.1,1.5,1.3,1.6l0.7,0v1.3c0,1.2,0,1.4-0.2,1.7c-0.4,0.6-0.9,0.8-1.8,0.8c-0.9,0-1.4-0.3-1.8-1l-0.3-0.5l0-4.1
		c0-2.2,0-4.3,0.1-4.6c0.1-0.7,0.5-1.2,1.1-1.5c1.1-0.5,2.6-0.1,3,0.9c0.1,0.1,0.1,0.6,0.1,0.9c0,1.1,0,1.1,1.8,1.1h1.6l0.1-0.3
		c0.1-0.6,0-2.4-0.3-3.1c-0.3-0.8-1.1-1.7-1.8-2.1C196.1,98.9,194.3,98.6,192.8,98.8z"/>
	<path class="st0" d="M26.9,99.2c-0.1,0.3-4.1,16.8-4.1,17.1c0,0.3,0.4,0.4,1.8,0.4c0.9,0,1.4,0,1.4-0.2c0.1-0.1,0.2-0.6,0.4-1.2
		l0.2-1h2.1h2l0.1,0.4c0.1,0.2,0.2,0.7,0.3,1.1l0.2,0.7h1.4c1.3,0,1.4,0,1.5-0.2c0-0.1-0.9-4.1-2.1-8.8L29.9,99l-1.5,0
		C27,98.9,27,98.9,26.9,99.2z M29.1,108c0.4,1.7,0.8,3.1,0.8,3.2c0.1,0.2-0.1,0.2-1.6,0.2s-1.7,0-1.6-0.2c0-0.1,0.4-1.6,0.8-3.3
		c0.4-1.7,0.8-3.1,0.8-3.1C28.3,105,28.7,106.4,29.1,108z"/>
	<path class="st0" d="M78.7,99.1c-0.1,0.2,4,16.5,4.3,17.3l0.1,0.3l1.6,0c1.3,0,1.6-0.1,1.7-0.2c0.2-0.4,4.4-17.2,4.3-17.3
		c-0.1-0.2-0.3-0.2-1.5-0.2c-1.2,0-1.5,0.1-1.6,0.2c0,0.1-0.7,2.8-1.4,6c-0.7,3.2-1.4,5.9-1.4,6c0,0-0.7-2.6-1.5-5.9
		c-0.9-4.1-1.4-6-1.6-6.1C81.6,98.9,78.8,98.8,78.7,99.1z"/>
	<path class="st0" d="M96.2,99c-0.2,0.3-4.2,17.3-4.2,17.5c0,0.1,0.3,0.2,1.5,0.2H95l0.2-0.5c0.1-0.3,0.3-0.8,0.4-1.2l0.2-0.7l2.1,0
		l2.1,0l0.2,1c0.1,0.6,0.3,1.1,0.4,1.1c0.1,0.1,0.6,0.1,1.4,0.1c1.2,0,1.3,0,1.3-0.3c0-0.2-4-17.1-4.2-17.3
		C99.1,98.9,96.3,98.9,96.2,99z M98.5,108.3c0.4,1.7,0.7,3.1,0.7,3.1s-0.7,0.1-1.6,0.1c-1.2,0-1.6,0-1.6-0.2c0-0.1,0.3-1.6,0.8-3.3
		c0.5-2,0.8-3.1,0.9-2.9C97.7,105.2,98.1,106.7,98.5,108.3z"/>
	<path class="st0" d="M178.5,99.2c0,0.1-1,4.1-2.2,8.7c-2,8.2-2,8.4-1.8,8.6c0.2,0.1,0.6,0.2,1.5,0.2c0.7,0,1.4,0,1.5-0.1
		c0.1,0,0.3-0.5,0.4-1.2l0.3-1.1h2h2l0.1,0.4c0.1,0.2,0.2,0.7,0.3,1.1l0.2,0.7l1.4,0c1.2,0,1.4,0,1.5-0.2c0.1-0.2-3.8-16.5-4.1-17.3
		c-0.1-0.2-0.1-0.3-1.5-0.3C178.6,98.9,178.6,98.9,178.5,99.2z M180.8,108.3c0.4,1.7,0.7,3.1,0.7,3.1s-0.7,0.1-1.6,0.1
		c-1.6,0-1.6,0-1.5-0.3c0-0.1,0.4-1.6,0.7-3.3c0.5-2.1,0.7-3,0.8-2.8C180,105.2,180.4,106.7,180.8,108.3z"/>
</g>
</svg>
