<?xml version="1.0" encoding="utf-8"?>
<!-- Generator: Adobe Illustrator 27.7.0, SVG Export Plug-In . SVG Version: 6.00 Build 0)  -->
<svg version="1.1" id="Lager_1" xmlns="http://www.w3.org/2000/svg" xmlns:xlink="http://www.w3.org/1999/xlink" x="0px" y="0px"
	 viewBox="0 0 208 128" style="enable-background:new 0 0 208 128;" xml:space="preserve">
<style type="text/css">
	.st0{fill:#FFFFFF;}
</style>
<g>
	<path class="st0" d="M66.4,54.1v18.1h11.4v3.2H63.1V54.1H66.4z"/>
	<path class="st0" d="M82.6,52.4c1.6,0,2.1,0.6,2.1,1.8c0,1.3-0.5,1.9-2.1,1.9s-2.1-0.6-2.1-1.9C80.5,52.9,80.9,52.4,82.6,52.4z
		 M84.1,59v16.4H81V59H84.1z"/>
	<path class="st0" d="M87.4,59h3.3v-0.6c0-4.7,1.4-6.1,5.5-6.1c1.1,0,2.2,0.1,3,0.2v2.7c-0.8-0.1-1.8-0.2-2.7-0.2
		c-2.1,0-2.7,0.9-2.7,3.2V59h4.8v2.8h-4.8v13.6h-3.2V61.8h-3.3V59z"/>
	<path class="st0" d="M101.3,67.2c0-6.2,2.2-8.7,7.7-8.7c5.5,0,7.6,2.4,7.6,8.7v1.4h-12.2c0.2,3.3,1.4,4.4,4.8,4.4
		c2.3,0,3.7-0.5,4.1-1.9h3.3c-0.6,3.4-2.9,4.8-7.4,4.8C103.5,75.9,101.3,73.4,101.3,67.2z M113.3,65.9c-0.2-3.4-1.3-4.5-4.3-4.5
		c-3,0-4.4,1.1-4.6,4.5H113.3z"/>
	<path class="st0" d="M123.3,59v2.9c0.9-1.9,2.6-2.9,5.4-2.9h1.6v3h-1.6c-3.5,0-4.9,1-4.9,3.9v9.5h-3.1V59H123.3z"/>
	<path class="st0" d="M134.8,59v-3.3h3.2V59h5.2v2.8H138v7.8c0,2.3,0.6,3.2,2.7,3.2c0.9,0,1.9-0.1,2.7-0.2v2.7
		c-0.8,0.1-1.9,0.2-3,0.2c-4,0-5.5-1.4-5.5-6.1v-7.7h-3.3V59H134.8z"/>
	<path class="st0" d="M147.8,52.4c1.6,0,2.1,0.6,2.1,1.8c0,1.3-0.5,1.9-2.1,1.9s-2.1-0.6-2.1-1.9C145.7,52.9,146.2,52.4,147.8,52.4z
		 M149.4,59v16.4h-3.2V59H149.4z"/>
	<path class="st0" d="M154,70.8V52.4h3.2v18.4c0,1,0.5,1.6,1.6,1.6c0.8,0,1.6,0,2.2-0.1v3c-0.7,0.1-1.5,0.2-2.2,0.2
		C155.4,75.6,154,74.2,154,70.8z"/>
	<path class="st0" d="M165.7,52.4c1.6,0,2.1,0.6,2.1,1.8c0,1.3-0.5,1.9-2.1,1.9c-1.6,0-2.1-0.6-2.1-1.9
		C163.6,52.9,164.1,52.4,165.7,52.4z M167.3,59v16.4h-3.2V59H167.3z"/>
	<path class="st0" d="M173.3,59v-3.3h3.2V59h5.2v2.8h-5.2v7.8c0,2.3,0.6,3.2,2.7,3.2c0.9,0,1.9-0.1,2.7-0.2v2.7
		c-0.8,0.1-1.9,0.2-3,0.2c-4,0-5.5-1.4-5.5-6.1v-7.7H170V59H173.3z"/>
	<path class="st0" d="M189.6,75.7L182.8,59h3.5l4.9,12.9L196,59h3.5l-9,23h-3.6L189.6,75.7z"/>
	<path class="st0" d="M40.6,81.5c-4-0.1-7.5-2.3-9.5-5.5c1-1.8,1.5-3.8,1.5-6c0-1-0.1-2-0.3-2.9c2.2,2.1,5.1,3.4,8.3,3.4
		c0.9,1.6,1.4,3.5,1.4,5.5C42,78.1,41.5,79.9,40.6,81.5z M20.3,46.5c4,0.1,7.5,2.3,9.5,5.5c-1,1.8-1.5,3.8-1.5,6c0,1,0.1,2,0.3,2.9
		c-2.2-2.1-5.1-3.4-8.3-3.4c-0.9-1.6-1.4-3.5-1.4-5.5C18.9,50,19.4,48.1,20.3,46.5L20.3,46.5z M21.1,69.4c1.9-2.7,4.9-4.5,8.4-4.9
		c-0.4,0.5-0.8,1.1-1.3,1.5C26.3,68,23.8,69.2,21.1,69.4z M30.5,65.2c0.7,1.5,1.1,3.1,1.1,4.8c0,1.7-0.4,3.4-1.1,4.8
		c-0.7-1.5-1.1-3.1-1.1-4.8C29.4,68.3,29.8,66.7,30.5,65.2z M29.5,63.4c-3.5-0.3-6.5-2.2-8.4-4.9C24.5,58.9,27.6,60.7,29.5,63.4z
		 M20.3,70.6c3.2-0.1,6.1-1.4,8.3-3.4c-0.2,0.9-0.3,1.9-0.3,2.9c0,2.2,0.6,4.2,1.5,6c-2,3.2-5.5,5.4-9.5,5.5
		c-0.9-1.6-1.4-3.5-1.4-5.5S19.5,72.2,20.3,70.6L20.3,70.6z M31.5,64.6c3.5,0.3,6.5,2.2,8.4,4.9C36.4,69.1,33.4,67.3,31.5,64.6z
		 M31.6,58c0,1.7-0.4,3.4-1.1,4.8c-0.7-1.5-1.1-3.1-1.1-4.8c0-1.7,0.4-3.4,1.1-4.8C31.2,54.6,31.6,56.2,31.6,58L31.6,58z M19.7,58.5
		c1.6,2.6,4.1,4.6,7.1,5.5c-3,0.9-5.5,2.9-7.1,5.5c-4-0.1-7.5-2.3-9.5-5.5C12.2,60.8,15.7,58.6,19.7,58.5L19.7,58.5z M34.1,64
		c3-0.9,5.5-2.9,7.1-5.5c4,0.1,7.5,2.3,9.5,5.5c-2,3.2-5.5,5.4-9.5,5.5C39.6,66.9,37.1,64.9,34.1,64L34.1,64z M31.5,63.4
		c1.9-2.7,4.9-4.5,8.4-4.9C38,61.3,35,63.1,31.5,63.4z M40.6,57.4c-3.2,0.1-6.1,1.4-8.3,3.4c0.2-0.9,0.3-1.9,0.3-2.9
		c0-2.2-0.6-4.2-1.5-6c2-3.2,5.5-5.4,9.5-5.5c0.9,1.6,1.4,3.5,1.4,5.5C42,53.9,41.5,55.8,40.6,57.4L40.6,57.4z M19.2,70.5
		c-0.8,1.7-1.3,3.5-1.3,5.5c0,2,0.4,3.8,1.2,5.5C13.2,81.1,8.5,76.1,8.5,70c0-1.8,0.4-3.5,1.1-5C11.7,68.2,15.2,70.3,19.2,70.5
		L19.2,70.5z M30.5,77.1c2.1,3.1,5.5,5.2,9.5,5.5c-2.1,3-5.6,5-9.5,5s-7.4-2-9.5-5C24.9,82.3,28.4,80.2,30.5,77.1L30.5,77.1z
		 M51.4,62.9c-2.1-3.1-5.6-5.2-9.5-5.5c0.8-1.7,1.3-3.5,1.3-5.5c0-2-0.4-3.8-1.2-5.5C47.8,47,52.5,51.9,52.5,58
		C52.5,59.7,52.1,61.4,51.4,62.9L51.4,62.9z M19.1,46.5c-0.8,1.7-1.2,3.5-1.2,5.5c0,2,0.5,3.9,1.3,5.5c-4,0.3-7.4,2.4-9.5,5.5
		c-0.7-1.5-1.1-3.2-1.1-5c0-3.2,1.3-6.1,3.4-8.1C13.8,47.9,16.3,46.7,19.1,46.5z M30.5,40.4c3.9,0,7.4,2,9.5,5
		c-4,0.3-7.4,2.4-9.5,5.5c-2.1-3.1-5.5-5.2-9.5-5.5C23.1,42.4,26.5,40.4,30.5,40.4z M52.5,70c0,6-4.7,11-10.6,11.5
		c0.8-1.7,1.2-3.5,1.2-5.5c0-2-0.5-3.9-1.3-5.5c4-0.3,7.4-2.4,9.5-5.5C52.1,66.6,52.5,68.3,52.5,70L52.5,70z"/>
</g>
</svg>
