<?xml version="1.0" encoding="utf-8"?>
<!-- Generator: Adobe Illustrator 27.7.0, SVG Export Plug-In . SVG Version: 6.00 Build 0)  -->
<svg version="1.1" id="Lager_1" xmlns="http://www.w3.org/2000/svg" xmlns:xlink="http://www.w3.org/1999/xlink" x="0px" y="0px"
	 viewBox="0 0 208 128" style="enable-background:new 0 0 208 128;" xml:space="preserve">
<style type="text/css">
	.st0{fill-rule:evenodd;clip-rule:evenodd;fill:#FFFFFF;}
</style>
<path class="st0" d="M8.7,78.5V40.4c0-0.1,0-0.1,0-0.2c0-0.1,0.1-0.1,0.1-0.2c0.1-0.1,0.2-0.1,0.3-0.1h5.7c0.1,0,0.1,0,0.2,0
	c0.1,0,0.1,0.1,0.2,0.1l19.9,26.4V40.4c0-0.1,0.1-0.2,0.1-0.3c0.1-0.1,0.2-0.1,0.3-0.1h5.8c0.1,0,0.2,0.1,0.3,0.1
	c0.1,0.1,0.1,0.2,0.1,0.3v38.2c0,0.1-0.1,0.2-0.1,0.3c-0.1,0.1-0.2,0.1-0.3,0.1h-5.1c-0.1,0-0.1,0-0.2,0c-0.1,0-0.1-0.1-0.2-0.1
	L15.4,51.6v26.9c0,0.1,0,0.2-0.1,0.3C15.2,79,15.1,79,15,79H9.2c-0.1,0-0.2,0-0.3-0.1C8.7,78.8,8.7,78.7,8.7,78.5z M103.3,70.8V40.4
	c0-0.1,0-0.2,0.1-0.3c0.1-0.1,0.2-0.1,0.3-0.1h5.8c0.1,0,0.3,0.1,0.4,0.2c0.1,0.1,0.1,0.2,0.1,0.3v9.1h5.7c0.1,0,0.3,0.1,0.4,0.2
	c0.1,0.1,0.1,0.2,0.1,0.3v4.9c0,0.1-0.1,0.2-0.1,0.3c-0.1,0.1-0.2,0.1-0.3,0.1h-5.7v14.5c0,2.2,0.8,3.8,2.8,3.8c1,0,1.9-0.2,2.8-0.6
	c0.1,0,0.2,0,0.2,0c0.1,0,0.2,0,0.2,0.1c0.1,0.1,0.2,0.2,0.2,0.4v4.5c0,0.1,0,0.2-0.1,0.2c0,0.1-0.1,0.1-0.2,0.2
	c-1.6,0.9-3,1.1-5.1,1.1C106,79.5,103.3,77.3,103.3,70.8z M45.3,64.4v-0.1c0-8.4,6-15.4,14.4-15.4c9.4,0,14.1,7.4,14.1,15.9
	c0,0.5,0,1-0.1,1.5c0,0.1-0.1,0.2-0.2,0.3c-0.1,0.1-0.2,0.1-0.3,0.1H52c0.7,4.8,4.1,7.5,8.5,7.5c3.1,0,5.4-1.1,7.7-3.2
	c0.1-0.1,0.2-0.1,0.4-0.1c0.1,0,0.2,0.1,0.3,0.1l3.3,2.9c0.1,0.1,0.1,0.2,0.2,0.3c0,0.1,0,0.1,0,0.2s-0.1,0.1-0.1,0.2
	c-2.8,3.1-6.5,5.2-11.8,5.2C51.9,79.7,45.3,73.5,45.3,64.4z M67.1,62.2c-0.4-4.4-3-7.8-7.5-7.8c-4.1,0-7,3.2-7.7,7.8H67.1L67.1,62.2
	z M94.2,49.7l-6.7,9.7l-6.6-9.7c0-0.1-0.1-0.1-0.2-0.2c-0.1,0-0.1-0.1-0.2-0.1h-6.2c-0.1,0-0.2,0-0.3,0.1c-0.1,0-0.1,0.1-0.2,0.2
	c0,0.1-0.1,0.2,0,0.3c0,0.1,0,0.2,0.1,0.2L83.7,64L73.5,78.2c-0.1,0.1-0.1,0.2-0.1,0.3c0,0.1,0,0.2,0.1,0.3c0,0.1,0.1,0.1,0.2,0.2
	c0.1,0,0.2,0.1,0.2,0.1h6c0.1,0,0.2,0,0.3-0.1c0.1,0,0.1-0.1,0.1-0.1l7.1-10.3l7.1,10.3c0,0.1,0.1,0.1,0.2,0.2
	c0.1,0,0.1,0.1,0.2,0.1h6.2c0.1,0,0.2,0,0.2-0.1c0.1,0,0.1-0.1,0.2-0.2c0-0.1,0.1-0.2,0.1-0.3c0-0.1,0-0.2-0.1-0.3L91.1,63.9
	l9.8-13.7c0.1-0.1,0.1-0.2,0.1-0.3c0-0.1,0-0.2-0.1-0.3c0-0.1-0.1-0.1-0.2-0.2c-0.1,0-0.2-0.1-0.2-0.1h-6c-0.1,0-0.2,0-0.2,0.1
	C94.3,49.6,94.2,49.6,94.2,49.7L94.2,49.7z M117.4,64.3v0.1c0,8.4,6.6,15.3,15.6,15.3c9.1,0,15.8-7,15.8-15.4v-0.1
	c0-8.4-6.7-15.3-15.7-15.3C124.1,48.9,117.4,55.9,117.4,64.3z M142.1,64.4v-0.1c0-5.2-3.7-9.5-9.1-9.5c-5.4,0-8.9,4.2-8.9,9.4v0.1
	c0,5.1,3.7,9.4,9,9.4C138.7,73.7,142.1,69.5,142.1,64.4z M152.5,49.5c-0.1,0-0.3,0.1-0.4,0.1c-0.1,0.1-0.1,0.2-0.1,0.3v28.5
	c0,0.1,0.1,0.3,0.1,0.3c0.1,0.1,0.2,0.1,0.3,0.1h5.9c0.1,0,0.2-0.1,0.3-0.1c0.1-0.1,0.1-0.2,0.1-0.3V67.8c0-7.7,4-11,9.7-11.1
	c0.1,0,0.2,0,0.2-0.1c0.1,0,0.1-0.1,0.2-0.2c0-0.1,0.1-0.1,0.1-0.2c0-0.1,0-0.2,0-0.2l-0.9-2.1l0-0.1l0,0v0l-1.6-3.9
	c0-0.1-0.1-0.2-0.2-0.2c-0.1-0.1-0.2-0.1-0.4,0c-3.4,0.8-5.7,3.2-7.1,6.6V50c0-0.1-0.1-0.2-0.1-0.3c-0.1-0.1-0.2-0.1-0.3-0.1
	L152.5,49.5L152.5,49.5z M192.5,49.6c0.1-0.1,0.2-0.1,0.3-0.1h6c0.1,0,0.2,0,0.2,0.1c0.1,0,0.1,0.1,0.2,0.1c0,0.1,0.1,0.1,0.1,0.2
	c0,0.1,0,0.2,0,0.2l-11.5,29.6c-2.4,6.1-5,8.3-9.7,8.3c-2.3,0-4.6-0.5-6.6-1.6c-0.1-0.1-0.2-0.2-0.2-0.3c0-0.1,0-0.2,0-0.3l1.9-4.1
	c0-0.1,0.1-0.1,0.1-0.2c0,0,0.1-0.1,0.2-0.1c0.1,0,0.2,0,0.4,0c1.1,0.6,2.3,0.9,3.5,0.9c1.9,0,3.1-0.8,4.2-3.4l-12-28.9
	c0-0.1,0-0.2,0-0.2c0-0.1,0-0.2,0.1-0.2c0-0.1,0.1-0.1,0.2-0.1c0.1,0,0.1-0.1,0.2-0.1h6.2c0.1,0,0.2,0,0.3,0.1
	c0.1,0.1,0.1,0.1,0.2,0.2l8.1,21.6l7.6-21.6C192.4,49.7,192.5,49.7,192.5,49.6L192.5,49.6z"/>
</svg>
