<?xml version="1.0" encoding="utf-8"?>
<!-- Generator: Adobe Illustrator 27.7.0, SVG Export Plug-In . SVG Version: 6.00 Build 0)  -->
<svg version="1.1" id="Lager_1" xmlns="http://www.w3.org/2000/svg" xmlns:xlink="http://www.w3.org/1999/xlink" x="0px" y="0px"
	 viewBox="0 0 208 128" style="enable-background:new 0 0 208 128;" xml:space="preserve">
<style type="text/css">
	.st0{fill:#FFFFFF;}
</style>
<g>
	<path class="st0" d="M55.6,45c-2.1,1.5-4.6,5.8-6,10.1c-0.3,1-0.6,1.8-0.6,1.8s-0.3-0.4-0.7-1c-1.5-2.6-3.8-4.5-6.9-6
		c-4.9-2.4-5.3-2.5-9.1-2.5c-2.5,0-3.1,0.1-4.2,0.4c-5.3,1.5-9.4,5.7-10.9,11.1c-0.3,1.2-0.4,1.9-0.4,3.8c0,1.3,0.1,2.8,0.2,3.5
		c0.2,1.1,0.2,1.3-0.1,2.9c-0.5,2.3-1.6,5.7-2.5,7.5c-1.3,2.8-2.8,4.3-4.8,5.2c-0.5,0.2-1,0.5-1,0.5c0,0.1,0.2,0.4,0.5,0.6
		c2.2,2.2,6.2-3.3,8-10.8c0.2-0.9,0.4-1.8,0.5-2.2l0.2-0.7l0.5,1.4c1.2,3.5,3.4,6.3,6.5,8.2c3,1.8,6.5,2.5,9.9,1.9
		c1.9-0.3,5.5-1.4,6.9-2.1c4.3-2.1,7.3-5.8,8.5-10.6c0.6-2.3,0.6-5-0.1-7.6l-0.4-1.9l0.8-2.5c0.5-1.4,1.2-3.2,1.6-4
		c1.5-2.9,3.7-5.2,5.7-5.9c0.9-0.3,1-0.6,0.4-1.1C57.5,44.3,56.5,44.3,55.6,45z M32.6,48.6c0,0.1-0.4,0.2-0.9,0.3
		c-3.6,0.5-8.5,3.8-10.9,7.5c-0.8,1.2-2.2,4.3-2.6,5.7c-0.4,1.5-0.6,0.8-0.3-1.2c0.5-3.3,1.9-5.9,4.4-8.4c2-1.9,3.9-2.9,6.6-3.6
		C30.6,48.4,32.6,48.3,32.6,48.6z M38,49.8c1.3,0.3,2.6,1.1,4.1,2.5c1.3,1.2,1.3,1.3-0.1,0.4c-2.1-1.4-6.3-2.9-8.6-3l-0.9,0l0.8-0.1
		C34.3,49.5,36.7,49.6,38,49.8z M37.5,51.7c0.8,0.2,2.4,1,2.4,1.2c0,0-0.4-0.1-0.9-0.3c-0.5-0.2-1.3-0.5-1.7-0.6
		c-0.4-0.2-0.8-0.3-0.8-0.4C36.5,51.4,36.5,51.4,37.5,51.7z M35.6,52.6c4.5,1,8.5,4.6,10.1,9.2c0.7,2.1,0.3,5.5-1,8.2
		c-1.6,3.2-4.1,5.4-7.8,6.7c-1.1,0.4-1.6,0.5-3,0.5c-2,0-3.4-0.3-5.2-1.2c-2.4-1.1-4.2-2.7-5.6-4.9c-0.7-1.1-1-1.8-1.4-3.2
		c-0.6-1.8-0.6-5.3,0-7.1c0.9-2.7,2.3-4.9,4.3-6.5C28.1,52.4,31.8,51.8,35.6,52.6z M47,55.8c0.4,0.6,0.9,1.5,1.2,2l0.4,0.9l-0.3,1.3
		c-0.4,1.5-0.5,1.8-0.5,1c0-1.5-1.3-5-2.4-6.7c-0.7-1.1-0.7-1.1,0.1-0.3C45.9,54.5,46.6,55.3,47,55.8z M49.6,63.7
		c0.2,4.6-1.2,7.9-4.4,11.2c-1.6,1.6-2.4,2-1.2,0.6c1.8-2.1,2.9-4.8,4.2-10.3c0.4-1.5,0.7-3.1,0.8-3.5
		C49.2,60.5,49.5,61.4,49.6,63.7z M20.4,67.7c-0.1,0.1-0.1,0-0.1-0.2c0-0.2,0-0.3,0.1-0.2C20.4,67.4,20.4,67.6,20.4,67.7z
		 M20.6,68.4c-0.1,0.1-0.1,0.1-0.1-0.1c0-0.2,0-0.3,0.1-0.2C20.6,68.1,20.6,68.3,20.6,68.4z M19,68.6c-0.1,0.1-0.1,0.1-0.1-0.1
		c0-0.2,0-0.3,0.1-0.2C19.1,68.3,19.1,68.5,19,68.6z M21.7,70.8c0.3,0.5,0.6,1.1,0.8,1.4l0.3,0.6l-0.4-0.5c-0.5-0.6-1.4-2.4-1.6-3.1
		c-0.1-0.5-0.1-0.5,0.2,0.1C21.2,69.7,21.5,70.4,21.7,70.8z M24.3,76.3c2.3,1.7,3.1,2.1,4.5,2.7l1,0.4L29,79.4
		c-1.6-0.2-4.2-1.7-6-3.3c-1-1-1.7-1.9-1-1.4C22.1,74.8,23.2,75.6,24.3,76.3z M42.6,75.6c0,0.2-2.5,2.1-3.6,2.6
		c-1.1,0.6-1.6,0.7-2.8,0.9c-1.6,0.2-3.8,0-5.2-0.4c-0.8-0.3-0.8-0.3,1.3-0.3c2.8,0,5.7-0.6,7.7-1.5c0.8-0.4,1.7-0.8,1.9-1
		C42.3,75.6,42.6,75.4,42.6,75.6z"/>
	<path class="st0" d="M111.2,47.6c-1.6,0.3-4.3,1.3-5.7,2.1c-2.6,1.5-5,4.3-6.2,7c-1.1,2.4-1.5,4.5-1.5,7.5c0,6.8,3.2,12.2,8.9,15
		c4.8,2.4,11.1,2.3,15.9-0.1c1.8-0.9,3-1.8,4.5-3.4c2.8-3.1,4.2-6.9,4.2-11.7c0-7.1-3.6-12.8-9.7-15.4c-2.2-0.9-3.3-1.1-6.5-1.2
		C113.5,47.4,111.7,47.5,111.2,47.6z M117,51.7c5.8,1,9.5,5.5,9.8,11.9c0.3,6.4-3.5,11.6-9.3,12.9c-8.9,1.9-16.1-4.8-15-14
		c0.4-3.9,2.2-7.1,5-8.9c1.5-1,2.5-1.4,4.3-1.8C113.5,51.4,115.1,51.4,117,51.7z"/>
	<path class="st0" d="M66,48c-0.3,0.1-0.3,31.9,0,32.2c0.2,0.2,3.3,0.3,3.8,0.1c0.2-0.1,0.3-1.3,0.3-12.1c0-7.1,0.1-12,0.2-12
		S71,57,71.7,58c0.7,0.9,1.6,2.2,2,2.8c0.4,0.6,3.1,4.3,6,8.2c6.8,9.3,7.4,10.2,7.9,10.6c0.8,0.7,2.7,1,3.8,0.8l0.4-0.1v-16
		c0-13.5,0-16-0.2-16.2c-0.2-0.1-0.9-0.2-2.1-0.2L87.6,48L87.5,60c0,6.7-0.1,12.1-0.2,12.1c-0.1,0-2.2-2.8-3.3-4.3
		c-0.1-0.2-1-1.4-2-2.7c-2.8-3.8-3.2-4.4-3.8-5.2c-3.4-4.9-8-11-8.5-11.3C69,48,66.8,47.7,66,48z"/>
	<path class="st0" d="M137.5,48.1c-0.1,0.1-0.1,7.4-0.1,16.2l0.1,15.9l2,0.1c1.7,0,2,0,2.2-0.3c0.2-0.3,0.2-2.6,0.1-12.2
		c-0.1-8.3-0.1-11.9,0.1-11.8c0.1,0.1,1.2,1.6,2.5,3.3c1.3,1.7,2.9,4,3.6,5c0.8,1,3.4,4.7,5.9,8.2c2.5,3.5,4.8,6.5,5.2,6.8
		c0.7,0.7,1.7,1,3.1,0.9l1.1-0.1V64.1V48l-1.9-0.1c-1.3,0-2,0-2.2,0.2c-0.2,0.2-0.2,2.1-0.2,12.1v11.9l-1.5-2
		c-0.8-1.1-4.6-6.3-8.4-11.5c-3.8-5.2-7.1-9.7-7.4-9.9c-0.3-0.2-0.8-0.5-1.1-0.6C139.7,47.8,137.6,47.8,137.5,48.1z"/>
	<path class="st0" d="M181.5,48c-0.1,0.1-0.5,0.9-0.9,1.8c-1.2,3-2.1,5.2-2.9,7c-0.4,0.9-1,2.3-1.3,3.1c-2.9,7.1-4.3,10.5-4.7,11.3
		c-1.7,3.9-3.4,8.3-3.4,8.6c0.1,0.3,0.2,0.4,1.2,0.4c1.6,0.1,2.4-0.2,3.3-1c0.6-0.6,0.9-1.1,2-3.8c0.7-1.7,1.3-3.3,1.5-3.6l0.3-0.5
		h7.4h7.4l1.2,3c0.6,1.6,1.4,3.3,1.6,3.7c0.8,1.6,2.3,2.3,4.3,2.2c1.2-0.1,1.2-0.2,0.5-1.9c-0.6-1.5-5.2-12.5-5.7-13.6
		c-0.7-1.7-1.8-4.2-3.7-8.8c-2.6-6.3-2.8-6.7-3.1-7.4l-0.3-0.6l-2.2-0.1C182.7,47.9,181.6,48,181.5,48z M184.1,53.9
		c0.1,0.3,0.9,2.3,1.7,4.3c3,7.3,3.4,8.4,3.5,8.7l0.1,0.4h-5.6c-3.1,0-5.6-0.1-5.6-0.1c0-0.3,5.5-13.8,5.6-13.8
		C183.9,53.4,184,53.6,184.1,53.9z"/>
</g>
</svg>
