<?xml version="1.0" encoding="utf-8"?>
<!-- Generator: Adobe Illustrator 27.7.0, SVG Export Plug-In . SVG Version: 6.00 Build 0)  -->
<svg version="1.1" id="Lager_1" xmlns="http://www.w3.org/2000/svg" xmlns:xlink="http://www.w3.org/1999/xlink" x="0px" y="0px"
	 viewBox="0 0 208 128" style="enable-background:new 0 0 208 128;" xml:space="preserve">
<style type="text/css">
	.st0{fill:#FFFFFF;}
</style>
<g>
	<path class="st0" d="M22.2,77.1c0,2.4,1.1,3.5,3.5,3.7l1.4,0.2v1.8H8.7V81l1.4-0.2c2.4-0.2,3.5-1.3,3.5-3.7v-25
		c0-2.4-1.1-3.5-3.5-3.7l-1.4-0.2v-1.8h21c8,0,13.1,3.8,13.1,9.8c0,6.3-5.1,10.6-13,10.6h-9.3V68h1.6V77.1z M26,64.6
		c5,0,7.9-3.2,7.9-8.3c0-4.6-2.7-7.5-7.9-7.5h-5.5v1.1h1.6v14.6H26V64.6z"/>
	<path class="st0" d="M60.6,77.6v-1.8L59,77.9c-2.6,3.4-5.3,5.5-9.1,5.5c-4.3,0-6.7-2.2-6.7-6.1c0-4,3.4-5.5,7.9-6.9l7.7-2.6v-3.4
		c0-2.9-1.4-5-4.6-5c-3,0-4.5,1.4-4.5,3h1.3c0.5,3.2-1,4.8-3.2,4.8c-2.1,0-3.4-1.6-3.4-3.5c0-4,4.6-7.2,11.1-7.2
		c7.2,0,10.6,3.4,10.6,9.1v11.7c0,1.3,0.8,2.1,1.9,2.1c0.6,0,1.3-0.2,2.1-0.8l0.2,0.2c-1.3,2.9-4,4.3-6.4,4.3
		c-2.7,0-4.5-1.1-4.8-3.4L60.6,77.6z M53.6,79.2c1.9,0,3.8-1.1,5.1-2.9v-6.6l-4.5,1.6c-2.9,1-4.2,2.4-4.2,4.5
		C50.1,77.9,51.2,79.2,53.6,79.2z"/>
	<path class="st0" d="M72.8,60.5l-1.9-1l11.7-3v3.8c-0.3,0.5-1.4,2.7-1.8,3.2v2.6c2.2-6.1,5.8-9.1,9.5-9.1c3.2,0,5,1.9,5,4.3
		c0,2.2-1.6,3.5-3.4,3.5c-1.8,0-3.2-1.3-3.2-2.9c0-0.6,0.3-1.3,0.5-1.4H90v-1c-2.9-0.3-5.5,2.1-7.4,6.4v12c0,1.9,0.8,3,2.6,3.2h1.1
		v1.6H71.5v-1.6l1.1-0.2c1.8-0.2,2.6-1.3,2.6-3.2V63.8C75.2,62.2,74.9,61.6,72.8,60.5z"/>
	<path class="st0" d="M112.9,77.6v-1.8l-1.6,2.1c-2.6,3.4-5.3,5.5-9.1,5.5c-4.3,0-6.7-2.2-6.7-6.1c0-4,3.4-5.5,7.9-6.9l7.7-2.6v-3.4
		c0-2.9-1.4-5-4.6-5c-3,0-4.5,1.4-4.5,3h1.3c0.5,3.2-1,4.8-3.2,4.8c-2.1,0-3.4-1.6-3.4-3.5c0-4,4.6-7.2,11.1-7.2
		c7.2,0,10.6,3.4,10.6,9.1v11.7c0,1.3,0.8,2.1,1.9,2.1c0.6,0,1.3-0.2,2.1-0.8l0.2,0.2c-1.3,2.9-4,4.3-6.4,4.3
		c-2.7,0-4.5-1.1-4.8-3.4L112.9,77.6z M105.8,79.2c1.9,0,3.8-1.1,5.1-2.9v-6.6l-4.5,1.6c-2.9,1-4.2,2.4-4.2,4.5
		C102.3,77.9,103.6,79.2,105.8,79.2z"/>
	<path class="st0" d="M137.4,83.2c-2.6,0-4.8-0.3-6.7-1.3l-4,1.3V51.5c0-1.6-0.5-2.2-2.7-3.4l-1.6-0.8l11.7-2.7v14.3l-1.9,2.6v1.8
		l1.3-1.6c3.2-4.3,5.9-5,8.7-5c6.1,0,10.4,4.8,10.4,11.9C152.5,77.1,146.2,83.2,137.4,83.2z M134.1,63.2v16.2c1.3,1,2.7,1.4,4.2,1.4
		c4.2,0,7.1-4.3,7.1-10.6c0-5.6-2.2-9.6-6.3-9.6C137.3,60.6,135.3,61.6,134.1,63.2z"/>
	<path class="st0" d="M185.5,48.1l-1.6-0.8l11.7-2.7v33.3c0,2.1,0.8,3,2.4,3.2l1.3,0.2v1.6h-14.7v-1.6l1.3-0.2
		c1.6-0.2,2.4-1.1,2.4-3.2V51.5C188.2,49.9,187.8,49.2,185.5,48.1z"/>
	<path class="st0" d="M183.9,56.3c0-0.5-0.2-1.1-0.6-1.4c-0.3-0.3-1-0.6-1.4-0.6c-0.6,0-1.1,0.2-1.4,0.6l-13,13.6
		c-0.8,0.8-0.8,2.1,0,2.9c0.3,0.3,1,0.6,1.4,0.6c0.6,0,1.1-0.2,1.4-0.6l3.7-3.8c3.8,4.2,4.7,7.9,2.7,9.9c-2.6,2.6-7.2,1-12.3-4.3
		c-4.5-4.5-5.6-8.5-3.5-10.6c2.1-2.1,5.5-1.4,9.5,1.6l5.3-5.6c-5.1-3.4-11.7-2.7-16.4,1.9c-5.3,5.3-5.1,13.5,0.3,18.9
		c5.3,5.3,13.5,5.5,18.8,0c4.8-4.8,5.1-12.2,1-17.5l4-4.2C183.8,57.4,183.9,56.9,183.9,56.3z"/>
</g>
</svg>
