<?xml version="1.0" encoding="utf-8"?>
<!-- Generator: Adobe Illustrator 27.7.0, SVG Export Plug-In . SVG Version: 6.00 Build 0)  -->
<svg version="1.1" id="Lager_1" xmlns="http://www.w3.org/2000/svg" xmlns:xlink="http://www.w3.org/1999/xlink" x="0px" y="0px"
	 viewBox="0 0 208 128" style="enable-background:new 0 0 208 128;" xml:space="preserve">
<style type="text/css">
	.st0{fill:#FFFFFF;}
</style>
<g>
	<path class="st0" d="M36.3,94.7l13.1,13.7V80.3L36.3,94.7z M51.4,66.9v41.5l41.9-41.5H51.4z M97.1,33.7v13.2l6.3-6.6L97.1,33.7z
		 M81.1,48.6L95,63.5V33.7L81.1,48.6z M51.4,19.6v45.3h42.1L51.4,19.6z M8.7,19.6h40.7V64L8.7,19.6z"/>
	<path class="st0" d="M183.1,75.6c0,1.7-0.7,2.9-2,2.9c-1.5,0-2-1.4-2-2.9c0-1.7,0.7-3,2-3S183.1,73.9,183.1,75.6z M187.1,82.1v-0.5
		h-5.1v0.5h1.7v3c0,1.5-0.3,2.4-0.8,2.9c-0.5,0.5-1,0.7-1.7,0.7c-1.5,0-2.5-1.2-2.5-3.2c0-1.4,0-3.2,1.5-3.2h0.7v-0.5H180
		c-1.2,0-2-0.3-2-1.5c0-1,0.7-1.5,1.9-1.5h1.2c2.2,0,4.1-1.4,4.1-3.2c0-1.2-0.5-1.7-0.7-2c0.2-0.3,0.3-0.8,0.8-0.8
		c0.3,0,0.5,0.2,0.5,0.5c0,0.5,0.2,0.7,0.7,0.7c0.3,0,0.7-0.2,0.7-0.7c0-0.7-0.7-1-1.4-1c-1,0-1.4,0.5-1.7,1.2
		c-0.7-0.5-1.5-1.2-3-1.2c-1.9,0-4.1,1.2-4.1,3.4c0,1.9,1.5,2.7,2.5,2.9v0.2c-1.9,0-2.9,0.7-2.9,1.7c0,1.2,1.2,1.7,2.9,1.7v0.2
		c-1.5,0.2-2.9,1.4-2.9,3.4c0,2.4,2.4,3.7,4.6,3.7c1.4,0,2.5-0.5,3.4-1.4c0.8-0.8,1.4-1.9,1.4-3.4v-2h1.2V82.1z M171.3,79.3
		c0,0.8-0.3,1.5-0.7,1.9c-0.3,0.3-0.8,0.7-1.4,0.7c-1.2,0-1.7-0.8-1.7-2.2c0-0.8,0.2-1.5,0.7-2c0.3-0.3,0.8-0.5,1.9-0.5
		c0.3,0,1,0,1.4,0v2.2H171.3z M175.1,82l-0.2-0.3c-0.2,0.2-0.7,0.3-1.2,0.3c-0.7,0-0.7-0.3-0.7-1v-5.4c0-1.2-0.2-1.7-0.7-2.2
		c-0.7-0.7-1.7-1-3.2-1c-2.2,0-3.7,0.8-3.7,2.2c0,0.7,0.5,1,1,1c0.7,0,1-0.3,1-0.8s-0.2-0.7-0.2-1.2c0-0.5,0.7-0.8,1.7-0.8
		c1.7,0,2,1,2,2.5v0.7c0,0.3,0,0.5-0.2,0.7c-0.2,0.2-0.3,0.2-0.7,0.2h-0.5c-1.7,0-2.9,0.3-3.7,1c-0.5,0.5-0.7,1-0.7,1.9
		c0,1.9,1.4,2.7,3.2,2.7c1.7,0,2.5-1.2,2.9-1.7c0,1,0.3,1.7,1.9,1.7C174.3,82.3,175,82,175.1,82z M163.5,82.1v-0.5h-1.7V65.4h-3.7
		v0.5h1.7v15.7h-1.7v0.5H163.5z M157.2,74.2c0-1.2-1-2-2.2-2c-0.7,0-1.4,0.3-1.9,0.7c-0.5,0.5-0.8,1.4-1,2c0,0,0-0.8,0-1.2v-1.2
		h-3.5V73h1.7v8.8h-1.7v0.5h5.6v-0.5h-1.9v-5.1c0-1.4,0.7-4.1,2.4-4.1c0.5,0,0.7,0.3,0.7,0.7c0,0.3-0.3,0.8-0.3,1.2
		c0,0.5,0.3,0.8,1,0.8C157.1,75.4,157.2,74.9,157.2,74.2z M144.6,77.2c0,3.2-0.7,4.7-2.7,4.7c-2,0-2.7-1.5-2.7-4.7
		c0-3.4,0.7-4.7,2.7-4.7C143.9,72.5,144.6,74,144.6,77.2z M146.7,77.4c0-2.9-2.2-5.2-4.9-5.2c-2.7,0-4.9,2.4-4.9,5.2
		s2.2,5.1,4.9,5.1C144.6,82.5,146.7,80.1,146.7,77.4z M141,68.1c0-0.5-0.5-1-1-1c-0.7,0-1,0.5-1,1c0,0.5,0.5,1,1,1
		C140.5,69.1,141,68.6,141,68.1z M144.9,68.1c0-0.5-0.5-1-1-1c-0.5,0-1,0.5-1,1c0,0.5,0.5,1,1,1C144.4,69.1,144.9,68.6,144.9,68.1z
		 M136.8,67.3c0-0.8-0.8-1.9-2.4-1.9c-1.5,0-2.5,1-3.2,2.4c-0.5,1.2-0.8,2.4-0.8,4.4v0.3h-1.7V73h1.7v8.8h-1.7v0.5h5.4v-0.5h-1.7V73
		h1.4l1,1.7h0.2v-2.2h-2.5v-2.7c0-1.2,0-2.9,0.8-3.5c0.3-0.3,0.7-0.5,1.2-0.5c0.7,0,0.8,0.3,0.8,0.7c0,0.3-0.2,0.7-0.2,1
		c0,0.5,0.3,0.8,0.8,0.8S136.8,68,136.8,67.3z"/>
	<path class="st0" d="M196.6,47.7c0,3.5-0.2,4.5-1,5.4c-0.7,0.7-1.5,1-2.5,1c-1,0-2-0.3-2.5-1c-0.8-1-1-1.9-1-5.4
		c0-3.5,0.2-4.5,1-5.4c0.7-0.7,1.5-1,2.5-1c1,0,2,0.3,2.5,1C196.4,43.1,196.6,44.1,196.6,47.7z M199.3,47.7c0-3.4,0-5.2-1.7-7.1
		c-1.2-1.2-2.7-1.9-4.6-1.9s-3.4,0.7-4.6,1.9c-1.7,1.7-1.7,3.7-1.7,7.1c0,3.4,0,5.2,1.7,7.1c1.2,1.2,2.7,1.9,4.6,1.9
		s3.4-0.7,4.6-1.9C199.3,52.9,199.3,50.9,199.3,47.7z M181.4,44c0,1.7-1.2,2.7-3,2.7h-3.9v-5.4h3.9C180,41.3,181.4,42.3,181.4,44z
		 M184.6,56.2l-4.1-7.7c2-0.5,3.5-2.2,3.5-4.5c0-3-2.2-5-5.4-5h-6.8v17.5h2.7V49h3.4l3.7,7.4h2.9V56.2z M165.7,51.2
		c0,1.5-1,2.7-2.9,2.7h-4.2v-5.4h4.2C164.7,48.7,165.7,49.7,165.7,51.2z M165.5,43.8c0,1.7-1.2,2.5-2.9,2.5h-3.9v-5h3.9
		C164.3,41.3,165.5,42.1,165.5,43.8z M168.4,51.4c0-2.2-1.4-3.5-2.7-4c1.2-0.5,2.4-1.9,2.4-3.7c0-2.9-2-4.7-5.2-4.7h-6.8v17.5h7.1
		C166.2,56.2,168.4,54.6,168.4,51.4z M152,56.2V38.9h-2.7l-5.1,10.8l-5.1-10.8h-2.7v17.5h2.7V44.8l4.2,8.4h2l4.1-8.4v11.6h2.5V56.2z
		 M132.6,38.9h-2.7v17.5h2.7V38.9z M127.5,41.3v-2.4h-12.3v2.4h4.9v15h2.7v-15H127.5z"/>
</g>
</svg>
