<?xml version="1.0" encoding="utf-8"?>
<!-- Generator: Adobe Illustrator 27.7.0, SVG Export Plug-In . SVG Version: 6.00 Build 0)  -->
<svg version="1.1" id="Lager_1" xmlns="http://www.w3.org/2000/svg" xmlns:xlink="http://www.w3.org/1999/xlink" x="0px" y="0px"
	 viewBox="0 0 208 128" style="enable-background:new 0 0 208 128;" xml:space="preserve">
<style type="text/css">
	.st0{fill:#FFFFFF;}
</style>
<g>
	<g>
		<path class="st0" d="M66.1,36.5c-1.7,0.3-3.2,1.3-4.2,2.9c-0.5,0.8-0.9,1.6-1.1,2.4c-0.4,1.5-0.2,2.6,1,5.2c0.9,2.1,1.4,3.3,1.8,5
			c0.4,1.7,0.8,4.3,0.8,5.7c0,0.6,0,0.8-0.2,1.1c-0.6,1.4-2.3,1.7-7,1.1c-3.5-0.4-6.5-0.3-9.7,0.3c-4,0.8-7.8,2.5-11.4,5.1
			c-0.9,0.6-1,0.8-1,1.2c0,1.1,1.6,2.3,4.3,3.4c2.2,0.9,5.4,1.8,6.4,1.8c0.3,0,0.4,0,0.7-0.3c2-1.6,5.6-3.2,11.6-5.1
			c1-0.3,3.6-1.1,5.7-1.7c6-1.7,6.5-1.9,7.4-2.6c1-0.7,1.5-2,1.4-3.2c-0.2-1.7-0.4-2.1-3.2-5.5c-2.7-3.4-3.7-4.8-4.4-6.3
			c-0.6-1.2-0.7-1.6-0.7-2.6c0.1-1.9,0.9-2.9,2.9-3.6c0.3-0.1,1.2-0.3,1.9-0.5c1.6-0.4,1.7-0.4,1.9-0.8c0.3-0.7,0.1-1.6-0.7-2.2
			C69.3,36.7,67.3,36.3,66.1,36.5z"/>
		<path class="st0" d="M74.9,36.6c-2.1,0.3-2.9,0.5-3,0.6c-0.2,0.2-0.2,0.6,0,0.7c0.2,0.2,0.4,0.1,2.4-0.2c1.9-0.4,2.5-0.4,4.8-0.4
			c2.1,0,2.3,0,2.3-0.5c0-0.1-0.1-0.2-0.1-0.3c-0.1,0-1.1-0.1-2.8-0.1C76.2,36.5,75.7,36.5,74.9,36.6z"/>
		<path class="st0" d="M78,38.6c-1.3,0.1-3.8,0.3-4.7,0.3c-0.8,0-0.9,0-1,0.3c-0.2,0.5,0.3,0.8,1.1,0.7c0.3,0,1.1-0.1,1.9-0.1
			c1.7-0.1,3.6-0.3,4-0.4c0.3-0.1,0.5-0.3,0.4-0.6c0-0.1-0.3-0.3-0.5-0.3C79.1,38.5,78.6,38.6,78,38.6z"/>
		<path class="st0" d="M45.2,43.6c-2.4,0.2-5.6,0.6-9.2,1.2C24.9,46.8,9.8,50.8,8.8,52c-0.2,0.3-0.2,0.5,0,0.8
			c0.3,0.4,0.2,0.4,5.3,0.5c9.6,0.2,15.8,0.3,17,0.5c0.6,0.1,0.9,0.3,1.4,0.7c0.9,0.9,1.5,2.1,2.6,5.3c0.6,1.8,0.7,2.1,1.1,2.1
			c0.4,0,1.1-0.2,3.1-1.1c4.4-1.8,6.9-2.6,9.7-3c0.9-0.1,1.3-0.2,3.5-0.2c1.5,0,2.7,0,3.2,0.1c3.3,0.4,3.5,0.4,3.6,0.1
			c0.1-0.4-0.3-1.4-1.2-3.2c-2.6-5.2-6-9.6-8.2-10.6C49.1,43.7,47.2,43.5,45.2,43.6z"/>
		<path class="st0" d="M70,91.6c9-4.4,16.6-10.6,21.3-17.4c1.6-2.3,2.9-4.8,3.2-6.3c0.3-1.1,0.1-2.3-0.4-3.1c-0.8-1.3-2.4-1.8-5.7-2
			c-1.3-0.1-1.4-0.1-3,0c-3.9,0.2-9.1,1.1-14.8,2.5c-8.9,2.3-16.4,4.5-20.1,5.9c-2.6,1-3.7,1.8-3.4,2.4c0.2,0.4,0.8,0.5,4.4,1.1
			c5.9,0.9,8.5,1.4,11,2.2c1.1,0.4,2.5,1,3.1,1.5c0.9,0.6,1.5,1.5,1.8,2.5c0.2,0.6,0.2,2,0,2.8c-0.4,1.7-1.5,4.3-3.2,7"/>
		<path class="st0" d="M31.1,67.7c-1.1,0.4-2.5,1.3-3.1,1.9c-0.8,0.8-0.6,1.8,0.4,2c0.3,0.1,0.5-0.1,1.5-0.9c0.7-0.6,1.5-1,2.3-1.2
			c0.7-0.2,1.1-0.4,1.2-0.7c0.1-0.4-0.3-1-1-1.3C32.1,67.4,31.8,67.4,31.1,67.7z"/>
		<path class="st0" d="M33.9,70.5c-1.1,0.4-2.8,1.3-3.3,1.8C30,73,30.2,73.8,31,74.2c0.7,0.3,2.1,0.2,2.7-0.1
			c0.2-0.1,0.8-0.6,1.3-1.1c0.9-0.8,1.7-1.5,2.1-1.7c0.1-0.1,0.1-0.1,0-0.2c-0.1-0.1-0.9-0.4-1.6-0.5C34.7,70.4,34.4,70.4,33.9,70.5
			z"/>
		<path class="st0" d="M39.4,72.2c-0.8,0.2-3.1,1.5-3.7,2.1c-0.3,0.3-0.3,0.4-0.3,0.7c0,0.5,0.2,0.8,0.7,1.1
			c0.3,0.1,0.5,0.2,1.1,0.2l0.8,0l0.7-0.4c1.3-0.6,3.3-2.1,3.7-2.6c0.1-0.2,0.1-0.2,0-0.4c-0.2-0.3-1.3-0.8-2.2-0.9
			C39.9,72.1,39.6,72.2,39.4,72.2z"/>
		<path class="st0" d="M19.9,72.3c-0.2,0.2-0.2,0.4,0,0.7c0.1,0.2,0.3,0.2,1.4,0.4l1.3,0.3l0.4,0.6c0.2,0.3,0.4,0.6,0.3,0.6
			c0,0-0.5-0.1-1.1-0.2c-2.1-0.4-3.4-0.6-4.5-0.6c-1.1,0-1.2,0-1.4,0.1c-0.2,0.1-0.2,0.2-0.2,0.4c0,0.2,0.1,0.3,0.2,0.4
			c0.2,0.2,0.2,0.2,2,0.3c1.8,0.2,1.9,0.2,4.3,0.7l2.4,0.6l1.3-0.4c1.9-0.6,2.7-0.9,3-1.1c0.2-0.2,0.1-0.5-0.1-0.8
			c-0.2-0.2-0.3-0.2-0.6-0.2c-0.2,0-1,0.3-1.7,0.5c-0.8,0.3-1.4,0.5-1.4,0.5c0,0-0.1-0.1-0.2-0.3c-0.5-1-1.3-1.9-1.9-2.2
			c-0.6-0.3-1.4-0.5-2.3-0.5C20.1,72.2,20.1,72.2,19.9,72.3z"/>
		<path class="st0" d="M33,77.4c-0.5,0.2-3,1.2-5.5,2.2c-2.6,1-4.7,1.9-4.7,1.8c0,0-0.4-0.7-0.9-1.6c-0.5-0.9-1-1.6-1-1.7
			c-0.1-0.1-0.5-0.2-1.5-0.3c-1.9-0.2-2-0.2-2.2,0.1c-0.2,0.3-0.3,0.7-0.1,0.9c0.1,0.1,0.6,0.2,1.3,0.3c0.7,0.1,1.3,0.2,1.3,0.2
			c0.1,0,0.2,0.2,0.5,0.8c0.2,0.4,0.4,0.8,0.4,0.8c0,0-0.8-0.1-1.8-0.3c-2.1-0.4-3.8-0.6-4.1-0.6c-0.5,0-0.8,0.5-0.5,0.9
			c0.1,0.2,0.2,0.2,1.4,0.3c2.1,0.3,3.2,0.5,4,0.7c1.5,0.5,3,0.9,3.3,0.9c0.5,0,3.2-1,8.1-3.1c4-1.7,3.9-1.6,3.9-1.9
			c0-0.3-0.1-0.5-0.3-0.6C33.9,77,33.8,77,33,77.4z"/>
	</g>
	<g>
		<path class="st0" d="M110.3,55.1c0,0.4-0.1,0.8-0.3,1.1c-0.2,0.3-0.5,0.6-1,0.8c0.6,0.1,1,0.4,1.3,0.9s0.5,0.9,0.5,1.4
			c0,0.8-0.3,1.5-0.8,2c-0.5,0.6-1.3,0.8-2.2,0.8h-4v-9.5h3.7c0.8,0,1.5,0.2,2,0.7C110,53.7,110.3,54.3,110.3,55.1z M105.6,56.4h1.8
			c0.3,0,0.6-0.1,0.7-0.3c0.2-0.2,0.3-0.5,0.3-0.8c0-0.3-0.1-0.6-0.3-0.8c-0.2-0.2-0.5-0.3-0.8-0.3h-1.8V56.4z M107.7,57.8h-2.1v2.6
			h2.2c0.4,0,0.7-0.1,0.9-0.4c0.2-0.3,0.3-0.6,0.3-0.9c0-0.3-0.1-0.6-0.3-0.9C108.4,58,108.1,57.8,107.7,57.8z"/>
		<path class="st0" d="M112,57.3c0-1.4,0.5-2.5,1.4-3.5c0.9-1,2.1-1.4,3.4-1.4c1.4,0,2.5,0.5,3.4,1.4c0.9,1,1.4,2.1,1.4,3.5
			c0,1.3-0.5,2.5-1.4,3.5c-0.9,1-2.1,1.4-3.4,1.4s-2.5-0.5-3.4-1.4C112.5,59.8,112,58.7,112,57.3z M114.7,55.1
			c-0.6,0.6-0.9,1.4-0.9,2.2s0.3,1.6,0.9,2.2c0.6,0.6,1.3,0.9,2.2,0.9c0.9,0,1.6-0.3,2.2-0.9c0.6-0.6,0.9-1.4,0.9-2.2
			s-0.3-1.6-0.9-2.2c-0.6-0.6-1.3-0.9-2.2-0.9C116,54.1,115.3,54.5,114.7,55.1z"/>
		<path class="st0" d="M126.3,57.3l4.5,4.8h-2.3l-3.2-3.5v3.5h-1.8v-9.5h1.8V56l2.6-3.5h2.1L126.3,57.3z"/>
		<path class="st0" d="M131.8,62.1v-9.5h5.8v1.6h-4.1v2.5h3.2v1.6h-3.2v3.9H131.8z"/>
		<path class="st0" d="M139.9,53.8c0.9-1,2.1-1.4,3.4-1.4c1.4,0,2.5,0.5,3.4,1.4c0.9,1,1.4,2.1,1.4,3.5c0,1.3-0.5,2.5-1.4,3.5
			c-0.9,1-2.1,1.4-3.4,1.4s-2.5-0.5-3.4-1.4c-0.9-1-1.4-2.1-1.4-3.5C138.5,55.9,138.9,54.8,139.9,53.8z M143.3,60.4
			c0.9,0,1.6-0.3,2.2-0.9c0.6-0.6,0.9-1.4,0.9-2.2s-0.3-1.6-0.9-2.2s-1.3-0.9-2.2-0.9c-0.9,0-1.6,0.3-2.2,0.9
			c-0.6,0.6-0.9,1.4-0.9,2.2s0.3,1.6,0.9,2.2C141.7,60.1,142.5,60.4,143.3,60.4z M142.1,51.1c0.3,0,0.5-0.1,0.7-0.3
			c0.2-0.2,0.3-0.4,0.3-0.6s-0.1-0.5-0.3-0.6c-0.2-0.2-0.4-0.3-0.7-0.3c-0.3,0-0.5,0.1-0.7,0.3c-0.2,0.2-0.3,0.4-0.3,0.6
			c0,0.3,0.1,0.5,0.3,0.6C141.6,51,141.9,51.1,142.1,51.1z M144.5,51.1c0.3,0,0.5-0.1,0.7-0.3c0.2-0.2,0.3-0.4,0.3-0.6
			c0-0.3-0.1-0.5-0.3-0.6c-0.2-0.2-0.4-0.3-0.7-0.3s-0.5,0.1-0.7,0.3c-0.2,0.2-0.3,0.4-0.3,0.6c0,0.3,0.1,0.5,0.3,0.6
			C144,51,144.3,51.1,144.5,51.1z"/>
		<path class="st0" d="M154.4,58.6l2.4,3.5h-2.1l-2.2-3.4h-0.7v3.4H150v-9.5h3.8c1,0,1.7,0.3,2.3,0.9c0.5,0.6,0.8,1.3,0.8,2.2
			c0,0.7-0.2,1.4-0.6,2C155.8,58.1,155.2,58.5,154.4,58.6z M153.7,54.1h-2v3h1.9c0.4,0,0.8-0.1,1-0.4c0.2-0.3,0.3-0.6,0.3-1
			c0-0.4-0.1-0.7-0.3-1C154.4,54.2,154.1,54.1,153.7,54.1z"/>
		<path class="st0" d="M158.7,62.1v-9.5h1.8v8h3.7v1.6H158.7z"/>
		<path class="st0" d="M171.7,62.1l-0.9-2.3h-3.6l-0.9,2.3h-1.9l3.6-9.5h1.9l3.6,9.5H171.7z M169,54.6l-1.2,3.6h2.4L169,54.6z"/>
		<path class="st0" d="M182.3,53.9L181,55c-0.6-0.6-1.3-0.9-2.2-0.9c-0.9,0-1.6,0.3-2.2,0.9c-0.6,0.6-0.9,1.4-0.9,2.3
			c0,0.9,0.3,1.7,0.9,2.3c0.6,0.6,1.3,1,2.2,1c0.7,0,1.3-0.2,1.8-0.6c0.5-0.4,0.8-0.8,0.8-1.4h-2.6v-1.5h4.7c0,1.7-0.4,3-1.2,3.8
			c-0.8,0.8-2,1.3-3.4,1.3c-1.4,0-2.5-0.5-3.4-1.4c-0.9-1-1.4-2.1-1.4-3.5c0-1.4,0.5-2.5,1.4-3.5c0.9-1,2.1-1.4,3.4-1.4
			C180.3,52.4,181.4,52.9,182.3,53.9z"/>
		<path class="st0" d="M185,62.1v-9.5h5.9v1.6h-4.1v2.5h3.6v1.6h-3.6v2.3h4.3v1.6H185z"/>
		<path class="st0" d="M192.2,54.1v-1.6h7.2v1.6h-2.7v7.9h-1.8v-7.9H192.2z"/>
		<path class="st0" d="M103,70.7v-1.6h7.2v1.6h-2.7v7.9h-1.8v-7.9H103z"/>
		<path class="st0" d="M116.2,75.2l2.4,3.5h-2.1l-2.2-3.4h-0.7v3.4h-1.8v-9.5h3.8c1,0,1.7,0.3,2.3,0.9c0.5,0.6,0.8,1.3,0.8,2.2
			c0,0.7-0.2,1.4-0.6,2C117.6,74.7,117,75.1,116.2,75.2z M115.5,70.7h-2v3h1.9c0.4,0,0.8-0.1,1-0.4c0.2-0.3,0.3-0.6,0.3-1
			c0-0.4-0.1-0.7-0.3-1C116.2,70.9,115.9,70.7,115.5,70.7z"/>
		<path class="st0" d="M126.5,78.7l-0.9-2.3H122l-0.9,2.3h-1.9l3.6-9.5h1.9l3.6,9.5H126.5z M123.8,71.2l-1.2,3.6h2.4L123.8,71.2z"/>
		<path class="st0" d="M136.6,69.1v9.5H135l-3.7-6.3v6.3h-1.8v-9.5h1.6l3.6,6.2v-6.2H136.6z"/>
		<path class="st0" d="M145,78.7l-0.9-2.3h-3.6l-0.9,2.3h-1.9l3.6-9.5h1.9l3.6,9.5H145z M142.3,71.2l-1.2,3.6h2.4L142.3,71.2z"/>
		<path class="st0" d="M155.1,69.1v9.5h-1.6l-3.7-6.3v6.3H148v-9.5h1.6l3.6,6.2v-6.2H155.1z"/>
	</g>
</g>
</svg>
