<?xml version="1.0" encoding="utf-8"?>
<!-- Generator: Adobe Illustrator 27.7.0, SVG Export Plug-In . SVG Version: 6.00 Build 0)  -->
<svg version="1.1" id="Lager_1" xmlns="http://www.w3.org/2000/svg" xmlns:xlink="http://www.w3.org/1999/xlink" x="0px" y="0px"
	 viewBox="0 0 208 128" style="enable-background:new 0 0 208 128;" xml:space="preserve">
<style type="text/css">
	.st0{fill:#FFFFFF;}
	.st1{fill-rule:evenodd;clip-rule:evenodd;fill:#FFFFFF;}
</style>
<g>
	<path class="st0" d="M66.3,65.9c0,2.8-1.6,4.4-4.2,4.4c-2.7,0-4.3-1.6-4.3-4.4v-8.7h-2.7v8.9c0,4.9,3.8,6.7,7,6.7
		c5.2,0,7-3.6,7-6.7v-8.9h-2.7L66.3,65.9L66.3,65.9z M84.9,57.1h-3.5l-5.8,6h-1.9V49.7h-2.7v22.8h2.7v-6.7h1.9l5.9,6.7H85l-7-8.1
		L84.9,57.1z"/>
	<path class="st0" d="M97.3,59c-1.3-1.4-3.1-2.2-5.3-2.2c-4.4,0-7.7,3.4-7.7,7.9c0,4.6,3.3,8,7.7,8c2.2,0,4-0.8,5.3-2.2v1.9h2.7
		V57.1h-2.7V59z M97.4,64.8c0,3.1-2.2,5.4-5.2,5.4c-3,0-5.2-2.3-5.2-5.4s2.2-5.4,5.2-5.4C95.3,59.4,97.4,61.7,97.4,64.8z M110,56.9
		c-1.2,0-3.3,0.3-4.8,2.1v-1.8h-2.7v15.3h2.7v-8.6c0-2.6,1.8-4.4,4.4-4.4c2.6,0,4.1,1.6,4.1,4.3v8.7h2.7V63
		C116.5,59.3,113.9,56.9,110,56.9z M132.5,57.1h-4.3v-2.4c0-2.1,0.8-3.1,2.6-3.1c1.4,0,2.6,0.6,3,0.8l0.2,0.1l1-2.3l-0.1-0.1
		c-1.2-0.8-2.7-1.2-4.2-1.2c-3.3,0-5.2,2.1-5.2,5.7v17.7h2.7V59.6h4.3V57.1z M51.9,60h-4.4v7.1c0,2.1,0.8,3.1,2.6,3.1
		c1.4,0,2.6-0.6,3-0.8l0.2-0.1l1,2.3l-0.2,0.1c-1.2,0.8-2.7,1.2-4.2,1.2c-3.3,0-5.2-2.1-5.2-5.7V49.7h2.7v7.8h4.4L51.9,60L51.9,60z
		 M144,55.4c1.1,0,1.9-0.8,1.9-1.8c0-1.1-0.8-1.9-1.9-1.9s-1.8,0.8-1.8,1.9C142.2,54.5,143,55.4,144,55.4z M137.6,55.4
		c1.1,0,1.9-0.8,1.9-1.8c0-1.1-0.8-1.9-1.9-1.9c-1.1,0-1.9,0.8-1.9,1.9C135.8,54.5,136.6,55.4,137.6,55.4z M140.8,56.9
		c-4.6,0-8,3.4-8,7.9c0,4.6,3.4,8,8,8c4.6,0,8-3.4,8-8S145.4,56.9,140.8,56.9z M146.1,64.8c0,3.1-2.3,5.4-5.3,5.4
		c-3.1,0-5.3-2.3-5.3-5.4s2.2-5.4,5.3-5.4C143.8,59.4,146.1,61.8,146.1,64.8z M157.4,56.9c-1.7,0-3.2,0.7-4.3,2v-1.7h-2.7v15.3h2.7
		V64c0-2.7,1.6-4.5,3.8-4.5c0.9,0,1.8,0.2,2.5,0.6l0.2,0.1l0.7-2.7l-0.2-0.1C159.4,57.1,158.5,56.9,157.4,56.9z M179.3,59
		c-1.3-1.4-3.1-2.2-5.3-2.2c-4.4,0-7.7,3.4-7.7,7.9c0,4.6,3.3,8,7.7,8c2.2,0,4-0.8,5.3-2.2v1.9h2.7V57.1h-2.7V59z M179.5,64.8
		c0,3.1-2.2,5.4-5.2,5.4c-3,0-5.2-2.3-5.2-5.4s2.2-5.4,5.2-5.4C177.4,59.4,179.5,61.7,179.5,64.8z M161.6,49.7h2.7v22.8h-2.7V49.7z
		 M196.6,57.1V59c-1.3-1.4-3-2.2-5.2-2.2c-4.4,0-7.6,3.3-7.6,7.8s3.2,7.9,7.6,7.9c2.2,0,3.9-0.8,5.2-2.2v1c0,3.2-2,5.2-5.4,5.2
		c-1.9,0-3.7-0.6-5.2-1.7l-0.2-0.1l-1.2,2.2l0.1,0.1c1.6,1.3,3.9,2.1,6.4,2.1c5,0,8.1-3,8.1-7.8V57.1H196.6z M196.8,64.7
		c0,3.1-2.2,5.3-5.1,5.3c-2.9,0-5.1-2.2-5.1-5.3c0-3.1,2.2-5.3,5.1-5.3C194.6,59.4,196.8,61.6,196.8,64.7z"/>
	<path class="st1" d="M29.5,49.4c0,0-6.4-0.5-9.2-0.5c-4.4,0-8,2.1-9.8,4.7c-1.3,1.8-1.8,4.9-1.8,4.9s0.8-0.8,2.8-1.2
		c4-0.6,10.4,0,13.2,0.5C27.8,57.2,29.6,53.7,29.5,49.4z"/>
	<path class="st1" d="M33.1,50.3c0.8,0.6,1.4,1.4,1.9,2.5c0.6,1.2,0.7,3.1,0.7,3.8c0,0.1-0.1,0.2-0.2,0.2h-3.7
		c-0.1,0-0.2-0.1-0.2-0.2v-6.9C31.5,49.6,32.5,49.8,33.1,50.3z"/>
	<path class="st1" d="M33.6,69L33.6,69c-1.2,0-2.1-0.9-2.1-2.1v-9c0-0.1,0.1-0.2,0.2-0.2h3.7c0.1,0,0.2,0.1,0.2,0.2v9
		C35.7,68.1,34.8,69,33.6,69z"/>
	<path class="st1" d="M39.3,78.3c-1.6-2.3-5.7-8.2-5.7-8.2c-0.6,0.4-1.4,0.6-2.5,0.5c-2.1-0.1-3.7-1.9-3.7-3.9v-7.8h-2.7v8.5
		c0,1.1,0.3,2.1,0.9,2.9c1,1.5,2.7,2.6,4.6,2.6c1,2.2,2.9,5.3,3.4,6.1c0.1,0.1,0.1,0.1,0.2,0.1h5.1C39.2,79,39.5,78.6,39.3,78.3z"/>
</g>
</svg>
