<svg width="348" height="349" viewBox="0 0 348 349" fill="none" xmlns="http://www.w3.org/2000/svg">
<path d="M181.858 325.668C269.119 325.668 339.858 255.686 339.858 169.36C339.858 83.0326 269.119 13.0508 181.858 13.0508C94.5972 13.0508 23.8582 83.0326 23.8582 169.36C23.8582 255.686 94.5972 325.668 181.858 325.668Z" fill="black"/>
<path d="M341.347 149.034L341.254 154.107C341.24 155.799 341.062 157.484 340.973 159.172C340.819 162.552 340.369 165.906 340.012 169.269C339.07 175.966 337.944 182.649 336.262 189.221L335.67 191.693L334.995 194.147L333.623 199.047L332.078 203.904L331.302 206.331L330.442 208.734L328.717 213.538L326.835 218.291C326.225 219.882 325.558 221.453 324.868 223.015L322.821 227.711C317.14 240.144 310.509 252.213 302.975 263.833C295.388 275.429 286.718 286.622 276.155 296.436C270.884 301.371 265.142 305.887 258.993 309.931C252.78 313.928 246.168 317.404 239.241 320.318C232.292 323.147 225.093 325.456 217.718 327.222C210.332 328.886 202.818 330.054 195.238 330.719C180.07 331.932 164.784 331.076 149.905 328.18C135.084 325.193 120.795 320.395 107.441 313.922C105.631 313.138 103.954 312.144 102.218 311.243L97.0512 308.473L92.0692 305.447C90.4142 304.431 88.7212 303.461 87.1572 302.333C83.9882 300.13 80.7212 298.033 77.7422 295.621L73.1792 292.107L68.8372 288.377C63.0772 283.373 57.6792 278.049 52.6732 272.435C51.4312 271.026 50.2662 269.563 49.0602 268.129L47.2652 265.967C46.6592 265.253 46.0692 264.527 45.5312 263.768L42.2132 259.277C41.6642 258.525 41.0972 257.786 40.5642 257.025L39.0462 254.701C30.8192 242.358 24.4312 229.111 20.0422 215.292C15.756 201.497 13.2757 187.304 12.6514 172.998C12.2854 163.478 12.6681 153.946 13.7964 144.473C15.0374 135.014 16.9901 125.641 19.6412 116.417C25.1342 98.0291 33.2352 80.2055 44.7352 64.0414C50.4852 55.9329 57.1862 48.3953 64.7252 41.5561C72.3462 34.7607 80.8222 28.7758 89.9822 23.7191C99.1302 18.7137 108.801 14.5134 118.858 11.1772L120.732 10.537L122.632 9.96129L126.431 8.8105C128.971 8.06719 131.547 7.4282 134.104 6.73526C136.693 6.14968 139.268 5.5073 141.869 4.97066L145.778 4.19457L147.733 3.80702L149.7 3.47796C170.7 -0.198954 192.21 -0.966119 213.472 1.20354C234.672 3.5563 255.662 9.10052 274.329 18.8173C293.092 28.6054 308.602 42.6753 319.268 59.5852C324.574 67.9232 328.956 76.7041 332.353 85.8031C335.737 94.836 338.455 104.057 340.491 113.407C342.564 122.721 344.09 132.1 345.29 141.492C346.487 150.883 347.359 160.33 347.691 169.82C348.345 188.766 346.869 208.038 341.046 226.569C335.323 245.227 324.785 262.427 310.275 276.789C295.957 291.166 278.698 302.969 259.425 311.564C221.099 328.775 175.981 333.751 134.195 324.621L130.289 323.743L126.418 322.745C123.826 322.114 121.298 321.293 118.742 320.555C113.686 318.93 108.667 317.192 103.81 315.136C94.0562 311.106 84.7522 306.257 76.0242 300.655C67.3012 295.068 59.1462 288.805 51.6542 281.938C44.1862 275.059 37.3832 267.628 31.3182 259.724C16.2881 240.193 6.27106 217.939 1.98206 194.551C-2.02234 171.092 0.0585642 147.126 8.06416 124.499C15.946 101.873 29.1792 81.0218 46.8672 63.3598C55.7002 54.5387 65.6252 46.6402 76.4502 39.8144C87.3362 33.0856 99.0012 27.4237 111.245 22.927C135.697 14.0578 161.594 8.77969 187.933 7.29699C201.262 6.59762 214.633 7.6732 227.608 10.4884C240.569 13.4539 252.924 18.2277 264.218 24.6336C275.457 31.0077 285.682 38.705 294.618 47.5191C303.546 56.2929 311.245 66.0046 317.548 76.4389C323.883 86.8544 328.735 97.9362 331.991 109.426C335.288 120.856 337.272 132.556 337.912 144.346C339.245 167.892 335.635 191.447 328.724 214.025C325.24 225.313 320.967 236.394 315.93 247.204C310.951 258.053 305.116 268.572 298.467 278.682C291.792 288.853 284.004 298.407 275.217 307.206C266.363 316.04 256.256 323.804 245.151 330.3C234.008 336.847 221.784 341.79 208.925 344.95C196.013 347.975 182.622 349.038 169.314 348.093C156.15 347.136 143.154 344.824 130.584 341.2C124.318 339.437 118.15 337.441 112.08 335.211C106.019 332.963 100.073 330.48 94.2442 327.762C82.5632 322.33 71.5782 315.781 61.4822 308.23C56.4602 304.414 51.7082 300.324 47.2542 295.981C46.1692 294.874 45.0112 293.822 43.9862 292.667L40.8812 289.225L39.3292 287.504L38.5542 286.644L37.8432 285.74L35.0042 282.124C20.0332 262.692 11.1969 239.881 7.96096 216.676C4.71406 193.379 6.85576 169.736 14.2536 147.208C14.7062 145.491 15.4036 143.838 16.0041 142.159L17.8518 137.133C19.2032 133.821 20.6652 130.54 22.1012 127.254L24.5202 122.422L25.7302 120.005C26.1222 119.196 26.5392 118.396 27.0032 117.616L29.6952 112.899L31.0412 110.541C31.4912 109.755 32.0152 109.005 32.4972 108.235C40.2142 95.9105 49.4132 84.3758 59.9312 73.8343C70.4012 63.3214 82.1772 53.9081 95.0322 45.7765C107.832 37.7654 121.62 31.0963 136.125 25.899C148.739 21.374 161.811 17.9454 175.161 15.6609C186.115 13.7827 197.223 12.7021 208.373 12.4297C224.187 11.962 240.006 13.1954 255.49 16.1031C256.548 16.2996 257.549 16.4425 258.465 16.6526L261.019 17.2383L264.961 18.1645C266.091 18.3966 267.203 18.6948 268.289 19.0569C268.526 19.2386 264.859 18.5763 257.609 17.1925C246.792 15.4247 235.849 14.3442 224.862 13.9591C216.809 13.7286 208.749 13.9032 200.718 14.4823C198.51 14.6546 196.247 14.7928 193.944 15.0118C191.649 15.2891 189.305 15.5723 186.912 15.8615C185.718 16.0183 184.502 16.1232 183.292 16.326L179.625 16.9358L175.886 17.5564C174.628 17.7661 173.354 17.9572 172.092 18.2507C145.358 23.3854 120.053 33.2689 97.6822 47.3136C75.0542 61.6806 55.8752 79.9482 41.2742 101.038C24.5882 124.84 14.3327 151.784 11.3181 179.738C8.53046 207.506 13.3845 236.069 26.7982 261.21C27.5622 262.811 28.5122 264.328 29.4282 265.86L32.1872 270.451L35.2522 274.881L36.7832 277.096C37.3142 277.823 37.9012 278.515 38.4572 279.226L41.8332 283.467C42.9732 284.871 44.2662 286.169 45.4742 287.525C47.8962 290.235 50.4722 292.834 53.1912 295.31C64.1182 305.227 76.5732 313.7 90.1802 320.474C103.793 327.278 118.198 332.733 133.138 336.742C140.58 338.747 148.156 340.333 155.82 341.49C163.456 342.611 171.182 343.174 178.92 343.172C186.621 343.122 194.296 342.373 201.826 340.936C209.339 339.438 216.66 337.255 223.673 334.421C237.742 328.678 250.618 320.845 261.753 311.256C267.349 306.478 272.561 301.354 277.352 295.923C282.137 290.467 286.564 284.765 290.608 278.849C298.677 266.94 305.564 254.423 311.188 241.44C316.938 228.497 321.577 215.182 325.065 201.61C328.482 188.059 330.472 174.252 331.008 160.369L331.12 157.772L331.106 155.176L331.067 149.982C331.078 148.25 330.889 146.526 330.81 144.798C330.691 143.071 330.632 141.341 330.466 139.619C329.815 132.732 328.7 125.888 327.124 119.122C326.716 117.436 326.343 115.741 325.909 114.061L324.399 109.066C323.894 107.402 323.422 105.728 322.803 104.101L321.925 101.645L320.961 99.2135C318.376 92.7298 315.242 86.431 311.587 80.3716C307.56 73.6423 302.918 67.2211 297.708 61.1742C292.49 55.0817 286.693 49.4037 280.379 44.2044C274.067 38.9971 267.226 34.3248 259.946 30.2479C252.682 26.1988 244.965 22.8378 236.919 20.2194C232.918 18.9178 228.839 17.816 224.701 16.9193C222.624 16.5215 220.564 16.0547 218.467 15.7627C217.422 15.6032 216.383 15.4194 215.334 15.2786L212.181 14.8889C203.738 14.0013 195.222 13.7985 186.739 14.2827C178.268 14.7576 169.838 15.6923 161.494 17.0816C153.164 18.4423 144.959 20.1061 136.955 22.1356C124.168 25.3296 111.76 29.6325 99.9102 34.9831C88.1022 40.3485 77.0692 46.9778 67.0552 54.7245C57.0442 62.5113 48.0732 71.3048 40.3202 80.9307C36.4372 85.7433 32.8472 90.7398 29.5652 95.898C26.3142 101.076 23.3752 106.405 20.7612 111.862C18.1319 117.317 15.8681 122.906 13.9815 128.601C12.0809 134.292 10.5343 140.072 9.34866 145.914C8.20306 151.762 7.43816 157.664 7.05766 163.59C6.65266 169.514 6.69066 175.456 7.17146 181.376C8.09886 193.233 10.6734 204.942 14.836 216.232C18.9682 227.547 24.5362 238.403 31.4312 248.588C45.2142 269.054 64.0012 286.47 86.3872 299.531C97.5262 306.031 109.537 311.254 122.136 315.075C128.422 317.002 134.842 318.565 141.353 319.753C147.865 320.956 154.448 321.828 161.071 322.364C187.691 324.387 214.481 321.073 239.484 312.664C251.939 308.493 263.807 303.041 274.849 296.418C280.351 293.104 285.617 289.489 290.616 285.59C295.635 281.715 300.373 277.558 304.801 273.145C311.387 266.611 317.192 259.481 322.122 251.871C326.973 244.225 330.867 236.126 333.733 227.719C339.515 210.862 341.452 193.012 341.244 175.234C341.141 166.332 340.512 157.418 339.543 148.521C338.563 139.621 337.308 130.736 335.631 121.94C332.268 104.372 327.195 86.9955 318.685 71.019C314.483 63.0428 309.291 55.5132 303.205 48.5739C297.094 41.691 290.012 35.5405 282.137 30.2777L279.149 28.3459C278.171 27.68 277.155 27.0591 276.106 26.4854C274.01 25.3327 271.934 24.1503 269.824 23.0179L263.295 19.9185C261.095 18.9259 258.81 18.0816 256.573 17.1542C247.466 13.6948 238.012 11.0147 228.338 9.14983C218.637 7.27234 208.773 6.14253 198.855 5.77293C188.928 5.36644 178.981 5.60706 169.093 6.49293C149.299 8.22885 129.925 12.6872 111.656 19.7103C95.4542 25.9672 80.7232 34.9054 68.2402 46.0525C55.9232 57.2808 46.2132 70.7153 38.6532 85.0046C36.7712 88.5836 34.9532 92.201 33.3932 95.9078L31.0052 101.451C30.2542 103.312 29.5932 105.203 28.8822 107.079L27.8322 109.897C27.4872 110.838 27.2192 111.799 26.9082 112.75L25.1022 118.467C24.5632 120.388 24.0862 122.322 23.5752 124.249L22.8192 127.142C22.5902 128.11 22.4092 129.087 22.2012 130.06L20.9892 135.901L20.0722 141.785L19.6172 144.727L19.3122 147.684L18.7102 153.601L18.4191 159.534L18.2785 162.502L18.2912 165.471L18.3259 171.409L18.6686 177.339C18.7341 178.327 18.7639 179.318 18.8581 180.303L19.1912 183.257C19.4252 185.224 19.6092 187.197 19.8832 189.161L20.8762 195.029C21.0572 196.004 21.1732 196.99 21.4062 197.958L22.0702 200.865C23.7792 208.628 26.1042 216.273 29.0282 223.741C30.6062 227.433 32.0482 231.177 33.9342 234.753L35.2732 237.464C35.7142 238.369 36.1552 239.275 36.6812 240.145L39.6992 245.424C40.6522 247.209 41.8662 248.869 42.9532 250.589L44.6252 253.15L45.4612 254.43L46.3712 255.67L50.0282 260.618L50.9432 261.855L51.9332 263.045L53.9122 265.426C64.4652 278.156 77.0962 289.4 91.3842 298.783C93.1482 299.975 95.0252 301.025 96.8402 302.153C98.6692 303.264 100.478 304.404 102.406 305.374L108.101 308.412C110.025 309.383 112.016 310.246 113.97 311.169L116.912 312.533C117.896 312.983 118.926 313.346 119.93 313.757L125.991 316.157C128.047 316.876 130.13 317.534 132.199 318.227L135.306 319.255C136.356 319.558 137.42 319.824 138.476 320.111L144.824 321.805L151.266 323.171C153.423 323.584 155.603 323.902 157.77 324.273C158.852 324.474 159.949 324.588 161.042 324.72L164.324 325.113C173.093 326.06 181.94 326.289 190.755 325.795C208.341 324.793 225.821 320.87 241.399 313.535C245.293 311.715 249.062 309.69 252.687 307.47C256.337 305.277 259.827 302.878 263.137 300.289C266.475 297.722 269.62 294.954 272.672 292.105C275.665 289.205 278.601 286.249 281.317 283.123C292.3 270.699 301.18 256.783 308.957 242.455C316.787 228.149 323.092 213.216 327.789 197.854C332.453 182.514 334.971 166.717 335.283 150.824C335.432 142.9 334.895 134.978 333.677 127.128C332.42 119.288 330.503 111.544 327.942 103.962C325.342 96.3937 322.033 89.0347 318.051 81.9624L316.541 79.3203L315.786 78.0002L314.951 76.7193L311.604 71.5996L307.953 66.6513C307.368 65.8117 306.683 65.0355 306.026 64.2423L304.044 61.8673L302.461 59.9764L300.758 58.1731L297.361 54.569L293.729 51.1678L291.916 49.468L289.994 47.8728L286.145 44.6966C284.814 43.6891 283.44 42.7298 282.093 41.7455C280.744 40.7621 279.399 39.7751 277.969 38.8917L275.86 37.5269L273.695 36.2363C262.169 29.4429 249.491 24.357 236.149 21.1746C223.015 18.036 209.465 16.4984 195.869 16.6035C175.904 16.7305 156.132 20.0953 137.514 26.534C134.467 27.5896 131.462 28.7174 128.528 29.9768L124.108 31.8111C123.365 32.1042 122.643 32.4324 121.932 32.7813L119.787 33.7987C108.448 39.1257 97.7132 45.421 87.7312 52.5951C77.9812 59.5986 68.8792 67.2935 60.5162 75.6064C52.3522 83.688 44.8402 92.277 38.0372 101.308C36.4632 103.335 35.1172 105.301 33.7942 107.083C33.1402 107.979 32.5112 108.841 31.9082 109.668L30.2582 112.093C28.1482 115.184 26.3882 117.697 25.1262 119.702C22.5462 123.682 21.3032 125.305 21.5022 124.58C22.9082 121.4 24.5312 118.299 26.3622 115.295C28.0032 112.616 29.8912 109.279 32.4762 105.517C34.9552 101.697 38.0252 97.4039 41.6882 92.636C43.0182 90.9702 44.3492 89.3017 45.6832 87.6306C46.9892 85.9407 48.4652 84.3588 49.8512 82.7135C52.6072 79.4078 55.6432 76.287 58.6062 73.0948C60.1112 71.5174 61.7182 70.0141 63.2742 68.468L65.6312 66.1636C66.4352 65.4106 67.2692 64.6809 68.0882 63.9377C69.7372 62.4604 71.3872 60.9813 73.0392 59.5004C74.7602 58.0811 76.4832 56.66 78.2072 55.238C85.1932 49.5609 92.6192 44.3322 100.429 39.5902L103.36 37.786C104.342 37.1902 105.373 36.6596 106.378 36.0933L112.459 32.7542C116.654 30.7371 120.768 28.5637 125.133 26.8063C142.483 19.2546 161.176 14.4641 180.369 12.65C199.686 10.7156 219.236 11.9875 238.036 16.4014C253.655 20.0924 268.385 26.3076 281.497 34.7393C288.058 39.0212 294.151 43.8472 299.697 49.1518L301.797 51.1249L303.763 53.2034C305.056 54.6021 306.424 55.9499 307.652 57.3942L311.298 61.7566L312.203 62.8516L313.042 63.986L314.72 66.2574L316.397 68.5297C316.968 69.2808 317.435 70.0874 317.959 70.8636L321.016 75.5698C322.836 78.8094 324.806 81.9874 326.372 85.3333L327.611 87.8164L328.229 89.0579L328.776 90.3253L330.963 95.396C331.671 97.0922 332.25 98.8285 332.898 100.543L333.845 103.124L334.655 105.739C336.869 112.697 338.524 119.787 339.607 126.955L340.346 132.332C340.54 134.128 340.659 135.932 340.818 137.73C340.888 138.629 340.978 139.529 341.031 140.428L341.117 143.126C341.157 144.925 341.269 146.724 341.247 148.521C341.278 148.682 341.308 148.834 341.347 149.034Z" fill="#91FF6A"/>
<path d="M249.643 226.466C251.677 228.502 252.819 231.263 252.819 234.143C252.819 237.022 251.677 239.784 249.643 241.82C247.61 243.856 244.852 245 241.976 245C239.1 245 236.342 243.856 234.308 241.82L181.91 189.354L129.511 241.82C127.477 243.856 124.719 245 121.843 245C118.968 245 116.209 243.856 114.176 241.82C112.142 239.784 111 237.022 111 234.143C111 231.263 112.142 228.502 114.176 226.466L166.575 174L114.176 121.534C112.142 119.498 111 116.737 111 113.857C111 110.978 112.142 108.216 114.176 106.18C116.209 104.144 118.968 103 121.843 103C124.719 103 127.477 104.144 129.511 106.18L181.91 158.646L234.308 106.18C236.342 104.144 239.1 103 241.976 103C244.852 103 247.61 104.144 249.643 106.18C251.677 108.216 252.819 110.978 252.819 113.857C252.819 116.737 251.677 119.498 249.643 121.534L197.245 174L249.643 226.466Z" fill="#91FF6A"/>
</svg>
