<svg width="285" height="283" viewBox="0 0 285 283" fill="none" xmlns="http://www.w3.org/2000/svg">
<path d="M143.541 250.24H140.331V247H143.541V250.24Z" fill="#91FF6A"/>
<path d="M116.109 243.877C121.207 245.134 125.129 249.777 123.414 256.739C121.698 263.701 116.008 265.975 110.852 264.705C106.046 263.52 103.08 259.761 103.663 255.64L106.808 256.416C106.606 258.992 108.513 261.285 111.513 262.025C115.532 263.015 119.157 260.973 120.384 255.992C121.612 251.012 119.374 247.432 115.383 246.448C112.266 245.68 108.981 246.848 108.328 249.499C108.134 250.285 108.522 250.968 109.367 251.176L113.794 252.267L113.191 254.714L108.006 253.436C106.404 253.041 104.791 251.315 105.329 249.13L107.109 241.906L109.848 242.581L109 246.018C110.413 244.049 113.226 243.167 116.109 243.877Z" fill="#91FF6A"/>
<path d="M98.7983 238.281L89.0391 256.875L77.112 250.615L78.3946 248.172L87.5591 252.981L90.3614 247.642L82.9501 243.752L84.2328 241.309L91.644 245.198L94.753 239.275L85.2964 234.311L86.579 231.867L98.7983 238.281Z" fill="#91FF6A"/>
<path d="M72.8502 221.453L60.7548 235.106L65.6725 239.462L63.8423 241.528L51.6715 230.746L53.5018 228.68L58.4195 233.037L70.5148 219.384L72.8502 221.453Z" fill="#91FF6A"/>
<path d="M43.9419 180.639L24.3066 188.085L23.2002 185.168L42.8355 177.721L43.9419 180.639Z" fill="#91FF6A"/>
<path d="M38.2272 162.154L17.3803 164.685L16.9609 161.231L31.7944 149.245L15.7422 151.194L15.3662 148.097L36.2131 145.566L36.6289 148.991L21.8288 161.002L37.8512 159.057L38.2272 162.154Z" fill="#91FF6A"/>
<path d="M43.0452 105.121L25.9905 98.6529L23.6607 104.796L21.0801 103.817L26.846 88.6139L29.4266 89.5926L27.0968 95.7357L44.1515 102.204L43.0452 105.121Z" fill="#91FF6A"/>
<path d="M55.4233 81.7962C52.015 86.7341 45.7399 87.7978 40.6539 84.2872C35.5679 80.7765 34.3373 74.5321 37.7456 69.5942C41.137 64.681 47.412 63.6173 52.4981 67.128C57.5841 70.6386 58.8147 76.883 55.4233 81.7962ZM53.1519 80.2284C55.5207 76.7965 54.4691 72.3525 50.6916 69.745C46.9141 67.1376 42.3859 67.7302 40.0171 71.1621C37.6483 74.5939 38.6828 79.0627 42.4603 81.6701C46.2378 84.2775 50.7831 83.6602 53.1519 80.2284Z" fill="#91FF6A"/>
<path d="M72.282 62.7639C68.6891 65.9469 64.4138 66.007 61.2308 62.4142L52.1792 52.197L54.4247 50.2076L63.536 60.4922C65.5254 62.7377 68.1863 62.6649 70.4318 60.6755C72.6998 58.6663 73.0929 56.0335 71.1035 53.788L61.9922 43.5035L64.2377 41.5141L73.2893 51.7313C76.4723 55.3241 75.8973 59.561 72.282 62.7639Z" fill="#91FF6A"/>
<path d="M93.8214 47.9955C89.04 50.505 83.0915 49.629 79.7455 43.2538C76.3995 36.8785 79.1108 31.4575 83.8392 28.9759C88.0628 26.7592 92.7482 27.5526 95.1629 30.927L92.2675 32.4466C90.8055 30.4357 87.8047 30.0116 85.0952 31.4337C81.4826 33.3298 80.1759 37.1665 82.5878 41.762C84.9997 46.3575 88.8996 47.4617 92.5122 45.5656C95.2748 44.1156 96.6571 41.3912 95.8061 39.0596L98.5952 37.5958C100.107 41.4441 98.1247 45.7369 93.8214 47.9955Z" fill="#91FF6A"/>
<path d="M117.514 17.2967L120.543 16.5501L125.569 36.9398L122.54 37.6865L120.285 28.5402L110.178 31.0315L112.432 40.1778L109.403 40.9244L104.377 20.5347L107.406 19.788L109.517 28.3517L119.625 25.8604L117.514 17.2967Z" fill="#91FF6A"/>
<path d="M140.338 32.76H143.548V36H140.338V32.76Z" fill="#91FF6A"/>
<path d="M168.323 39.521C163.226 38.2646 159.303 33.6209 161.019 26.6593C162.735 19.6976 168.424 17.4232 173.58 18.6939C178.386 19.8785 181.353 23.6377 180.77 27.7579L177.624 26.9826C177.826 24.4061 175.92 22.1132 172.92 21.3737C168.9 20.383 165.276 22.425 164.048 27.406C162.82 32.3869 165.059 35.9666 169.049 36.9502C172.166 37.7184 175.451 36.5506 176.104 33.8999C176.298 33.1134 175.91 32.4308 175.066 32.2226L170.638 31.1313L171.241 28.6845L176.426 29.9625C178.028 30.3573 179.642 32.0837 179.103 34.2683L177.323 41.4921L174.585 40.8173L175.432 37.3801C174.02 39.3494 171.207 40.2318 168.323 39.521Z" fill="#91FF6A"/>
<path d="M185.634 45.1139L195.394 26.5193L207.321 32.7791L206.038 35.223L196.874 30.4131L194.071 35.7524L201.482 39.6421L200.2 42.086L192.789 38.1962L189.68 44.1199L199.136 49.0832L197.854 51.5271L185.634 45.1139Z" fill="#91FF6A"/>
<path d="M211.583 61.9397L223.678 48.2868L218.761 43.9301L220.591 41.8642L232.762 52.6466L230.931 54.7125L226.014 50.3558L213.918 64.0086L211.583 61.9397Z" fill="#91FF6A"/>
<path d="M240.491 102.756L260.127 95.3093L261.233 98.2265L241.598 105.673L240.491 102.756Z" fill="#91FF6A"/>
<path d="M246.206 121.243L267.053 118.711L267.472 122.166L252.639 134.151L268.691 132.202L269.067 135.299L248.22 137.831L247.804 134.406L262.604 122.394L246.582 124.34L246.206 121.243Z" fill="#91FF6A"/>
<path d="M241.387 178.274L258.442 184.742L260.772 178.599L263.353 179.577L257.587 194.781L255.006 193.802L257.336 187.659L240.281 181.191L241.387 178.274Z" fill="#91FF6A"/>
<path d="M229.009 201.598C232.418 196.66 238.693 195.597 243.779 199.107C248.865 202.618 250.095 208.862 246.687 213.8C243.296 218.714 237.021 219.777 231.935 216.267C226.849 212.756 225.618 206.512 229.009 201.598ZM231.281 203.166C228.912 206.598 229.964 211.042 233.741 213.649C237.519 216.257 242.047 215.664 244.416 212.232C246.784 208.801 245.75 204.332 241.972 201.724C238.195 199.117 233.65 199.734 231.281 203.166Z" fill="#91FF6A"/>
<path d="M212.15 220.629C215.743 217.446 220.019 217.386 223.202 220.978L232.253 231.196L230.008 233.185L220.896 222.9C218.907 220.655 216.246 220.728 214.001 222.717C211.733 224.726 211.34 227.359 213.329 229.605L222.44 239.889L220.195 241.878L211.143 231.661C207.96 228.068 208.535 223.832 212.15 220.629Z" fill="#91FF6A"/>
<path d="M190.611 235.397C195.393 232.888 201.341 233.764 204.687 240.139C208.033 246.514 205.322 251.935 200.594 254.417C196.37 256.633 191.685 255.84 189.27 252.466L192.165 250.946C193.627 252.957 196.628 253.381 199.338 251.959C202.95 250.063 204.257 246.226 201.845 241.631C199.433 237.035 195.533 235.931 191.921 237.827C189.158 239.277 187.776 242.001 188.627 244.333L185.838 245.797C184.326 241.948 186.308 237.656 190.611 235.397Z" fill="#91FF6A"/>
<path d="M166.918 266.096L163.889 266.843L158.864 246.453L161.893 245.706L164.147 254.852L174.255 252.361L172 243.215L175.03 242.468L180.055 262.858L177.026 263.605L174.915 255.041L164.808 257.532L166.918 266.096Z" fill="#91FF6A"/>
</svg>
