<svg width="329" height="327" viewBox="0 0 329 327" fill="none" xmlns="http://www.w3.org/2000/svg">
<path d="M165.425 288.24H162.215V285H165.425V288.24Z" fill="#91FF6A"/>
<path d="M129.755 279.582L134.24 291.347L137.95 288.955L139.659 282.023L142.717 282.777L137.692 303.166L134.633 302.412L136.945 293.033L125.691 300.208L121.875 299.268L131.633 293.022L126.056 278.67L129.755 279.582Z" fill="#91FF6A"/>
<path d="M108.175 270.41C113.488 273.199 115.3 279.3 112.428 284.772C109.556 290.244 103.506 292.218 98.1928 289.43C92.9066 286.655 91.0943 280.554 93.9663 275.082C96.8383 269.61 102.889 267.636 108.175 270.41ZM106.892 272.854C103.2 270.916 98.9151 272.496 96.782 276.56C94.649 280.624 95.783 285.048 99.4754 286.986C103.168 288.924 107.479 287.358 109.612 283.294C111.745 279.23 110.585 274.792 106.892 272.854Z" fill="#91FF6A"/>
<path d="M89.8563 259.181L75.9307 274.9L73.3259 272.592L76.4812 253.785L65.7585 265.888L63.4231 263.819L77.3487 248.101L79.931 250.388L76.8181 269.193L87.5209 257.112L89.8563 259.181Z" fill="#91FF6A"/>
<path d="M65.3049 233.024L50.2937 243.385L54.0259 248.792L51.7544 250.36L42.5177 236.979L44.7891 235.411L48.5213 240.818L63.5325 230.456L65.3049 233.024Z" fill="#91FF6A"/>
<path d="M48.991 200.492L44.7108 204.265L47.8703 212.596L53.576 212.581L54.7143 215.583L32.1535 215.316L31.1322 212.623L47.8421 197.462L48.991 200.492ZM44.9454 212.582L42.5199 206.186L35.2894 212.586L44.9454 212.582Z" fill="#91FF6A"/>
<path d="M43.6326 172.636L34.2223 181.002L37.7741 183.623L44.862 182.762L45.2417 185.889L24.3948 188.42L24.0151 185.293L33.6047 184.129L22.905 176.151L22.4313 172.249L31.7319 179.159L43.1733 168.854L43.6326 172.636Z" fill="#91FF6A"/>
<path d="M44.2119 150.043L26.1049 147.844L25.313 154.366L22.5731 154.034L24.533 137.892L27.2729 138.225L26.481 144.747L44.588 146.946L44.2119 150.043Z" fill="#91FF6A"/>
<path d="M53.5737 114.872L47.868 114.858L44.7084 123.189L48.9887 126.962L47.8504 129.964L31.1405 114.803L32.1618 112.11L54.7226 111.843L53.5737 114.872ZM42.5282 121.239L44.9537 114.844L35.2977 114.839L42.5282 121.239Z" fill="#91FF6A"/>
<path d="M84.2609 73.5439C79.7698 77.5227 73.4226 77.0537 69.3245 72.4279C65.2264 67.8021 65.526 61.4447 70.017 57.4659C74.4856 53.5071 80.8329 53.976 84.931 58.6018C89.0291 63.2276 88.7295 69.5851 84.2609 73.5439ZM82.4307 71.478C85.552 68.7128 85.5944 64.1462 82.5507 60.7105C79.507 57.2749 74.9685 56.7666 71.8473 59.5318C68.726 62.297 68.6611 66.8835 71.7048 70.3192C74.7485 73.7549 79.3094 74.2433 82.4307 71.478Z" fill="#91FF6A"/>
<path d="M108.265 56.9899C104.068 59.1926 100.06 58.0772 97.8264 54.337L100.509 52.9289C101.977 55.2081 104.352 55.9262 106.982 54.546C109.32 53.3191 110.546 51.5237 109.486 49.5049C107.144 45.0422 98.0065 53.2599 94.4096 46.4065C92.8481 43.4314 94.3778 40.0197 98.1233 38.0539C101.922 36.0602 105.682 36.8987 107.706 40.1734L105.023 41.5815C103.833 39.7665 101.69 39.2988 99.4059 40.4978C97.1746 41.6689 96.3496 43.3893 97.1722 44.9566C99.5423 49.4724 108.566 40.908 112.288 48.0005C114.073 51.4006 112.249 54.8986 108.265 56.9899Z" fill="#91FF6A"/>
<path d="M135.433 46.7153C130.83 47.8496 127.206 45.8076 125.932 41.6414L128.874 40.9163C129.753 43.4804 131.888 44.7462 134.772 44.0355C137.335 43.4037 138.955 41.9538 138.41 39.7401C137.204 34.8465 126.365 40.6387 124.513 33.1237C123.708 29.8613 126.01 26.9148 130.117 25.9025C134.283 24.8759 137.733 26.5899 138.914 30.2537L135.972 30.9788C135.251 28.9319 133.283 27.9649 130.778 28.5823C128.331 29.1854 127.118 30.6584 127.542 32.377C128.762 37.3288 139.573 31.1727 141.49 38.9499C142.409 42.6784 139.802 45.6384 135.433 46.7153Z" fill="#91FF6A"/>
<path d="M162.222 39.76H165.432V43H162.222V39.76Z" fill="#91FF6A"/>
<path d="M198.568 47.8676L194.083 36.1024L190.373 38.494L188.665 45.4265L185.606 44.6727L190.632 24.2829L193.69 25.0368L191.378 34.4161L202.633 27.2409L206.448 28.1814L196.69 34.4275L202.267 48.7793L198.568 47.8676Z" fill="#91FF6A"/>
<path d="M220.148 57.037C214.836 54.2487 213.023 48.1476 215.895 42.6755C218.767 37.2034 224.818 35.2291 230.131 38.0174C235.417 40.7918 237.229 46.8929 234.357 52.365C231.485 57.8371 225.435 59.8114 220.148 57.037ZM221.431 54.5932C225.123 56.5311 229.408 54.9514 231.541 50.8872C233.675 46.8229 232.54 42.3992 228.848 40.4613C225.156 38.5234 220.844 40.0891 218.711 44.1533C216.578 48.2176 217.739 52.6553 221.431 54.5932Z" fill="#91FF6A"/>
<path d="M238.467 68.2678L252.392 52.5491L254.997 54.8568L251.842 73.6644L262.565 61.5609L264.9 63.6299L250.974 79.3486L248.392 77.0608L251.505 58.2558L240.802 70.3368L238.467 68.2678Z" fill="#91FF6A"/>
<path d="M263.019 94.4253L278.03 84.0638L274.298 78.6568L276.569 77.089L285.806 90.4707L283.534 92.0385L279.802 86.6315L264.791 96.993L263.019 94.4253Z" fill="#91FF6A"/>
<path d="M279.332 126.958L283.613 123.185L280.453 114.854L274.747 114.868L273.609 111.866L296.17 112.134L297.191 114.827L280.481 129.987L279.332 126.958ZM283.378 114.867L285.804 121.263L293.034 114.863L283.378 114.867Z" fill="#91FF6A"/>
<path d="M284.691 154.811L294.101 146.446L290.549 143.825L283.461 144.685L283.082 141.558L303.928 139.027L304.308 142.154L294.719 143.318L305.418 151.297L305.892 155.198L296.591 148.289L285.15 158.593L284.691 154.811Z" fill="#91FF6A"/>
<path d="M284.111 177.406L302.218 179.605L303.01 173.083L305.75 173.416L303.79 189.557L301.05 189.224L301.842 182.702L283.735 180.504L284.111 177.406Z" fill="#91FF6A"/>
<path d="M274.75 212.577L280.455 212.591L283.615 204.26L279.335 200.487L280.473 197.486L297.183 212.646L296.161 215.339L273.601 215.606L274.75 212.577ZM285.795 206.21L283.37 212.605L293.026 212.61L285.795 206.21Z" fill="#91FF6A"/>
<path d="M244.063 253.903C248.554 249.925 254.901 250.394 258.999 255.019C263.097 259.645 262.798 266.003 258.306 269.981C253.838 273.94 247.491 273.471 243.393 268.845C239.294 264.22 239.594 257.862 244.063 253.903ZM245.893 255.969C242.772 258.734 242.729 263.301 245.773 266.737C248.817 270.172 253.355 270.681 256.476 267.915C259.598 265.15 259.662 260.564 256.619 257.128C253.575 253.692 249.014 253.204 245.893 255.969Z" fill="#91FF6A"/>
<path d="M220.059 270.457C224.256 268.255 228.263 269.37 230.497 273.11L227.814 274.518C226.347 272.239 223.971 271.521 221.341 272.901C219.004 274.128 217.778 275.924 218.837 277.942C221.179 282.405 230.317 274.187 233.914 281.041C235.475 284.016 233.946 287.428 230.2 289.393C226.402 291.387 222.641 290.549 220.618 287.274L223.301 285.866C224.49 287.681 226.633 288.148 228.918 286.95C231.149 285.778 231.974 284.058 231.151 282.491C228.781 277.975 219.758 286.539 216.035 279.447C214.251 276.047 216.074 272.549 220.059 270.457Z" fill="#91FF6A"/>
<path d="M192.891 280.734C197.493 279.6 201.117 281.642 202.391 285.808L199.449 286.533C198.57 283.969 196.435 282.703 193.551 283.414C190.988 284.046 189.368 285.495 189.913 287.709C191.12 292.603 201.958 286.81 203.811 294.326C204.615 297.588 202.313 300.534 198.206 301.547C194.041 302.573 190.59 300.859 189.409 297.196L192.351 296.47C193.072 298.517 195.04 299.484 197.545 298.867C199.992 298.264 201.205 296.791 200.781 295.072C199.561 290.12 188.75 296.277 186.833 288.499C185.914 284.771 188.521 281.811 192.891 280.734Z" fill="#91FF6A"/>
</svg>
