<svg width="1500" height="998" viewBox="0 0 1500 998" fill="none" xmlns="http://www.w3.org/2000/svg">
<rect width="1500" height="998" fill="#C1E3D7"/>
<path d="M1083.01 595.055H456.005C443.998 595.055 434.255 585.312 434.255 573.305V170.633C434.255 158.626 443.998 148.883 456.005 148.883H1082.97C1094.98 148.883 1104.72 158.626 1104.72 170.633V573.305C1104.72 585.312 1095.02 595.055 1083.01 595.055Z" fill="white"/>
<path d="M1083.01 595.937H456.005C443.538 595.937 433.372 585.772 433.372 573.304V170.633C433.372 158.166 443.538 148 456.005 148H1082.97C1095.44 148 1105.6 158.166 1105.6 170.633V573.304C1105.6 585.772 1095.48 595.937 1083.01 595.937ZM456.005 149.765C444.497 149.765 435.137 159.125 435.137 170.633V573.304C435.137 584.813 444.497 594.173 456.005 594.173H1082.97C1094.48 594.173 1103.84 584.813 1103.84 573.304V170.633C1103.84 159.125 1094.48 149.765 1082.97 149.765H456.005Z" fill="black"/>
<path d="M501.884 580.632C501.386 580.632 501.002 580.248 501.002 579.749C501.002 579.251 501.386 578.867 501.884 578.867L1072.61 575.453C1072.73 575.453 1072.84 575.453 1072.92 575.53C1076.37 576.872 1079.83 576.527 1082.63 574.609C1085.93 572.346 1087.92 568.049 1087.88 563.484L1086.92 448.863C1086.92 448.364 1087.31 447.98 1087.8 447.98C1088.3 447.98 1088.69 448.364 1088.69 448.863L1089.65 563.484C1089.68 568.663 1087.38 573.458 1083.62 576.067C1080.4 578.292 1076.41 578.714 1072.46 577.256L501.884 580.632Z" fill="black"/>
<path d="M1086.92 346.863C1086.42 346.863 1086.04 346.479 1086.04 345.98L1084.62 178.076C1084.58 171.823 1079.44 166.683 1073.15 166.683L816.48 165.839C815.981 165.839 815.598 165.455 815.598 164.957C815.598 164.458 815.981 164.074 816.48 164.074L1073.15 164.918C1080.36 164.957 1086.31 170.826 1086.35 178.076L1087.77 345.98C1087.8 346.479 1087.42 346.863 1086.92 346.863Z" fill="black"/>
<path d="M447.834 340.723C447.336 340.723 446.952 340.339 446.952 339.84V208.915C446.952 208.417 447.336 208.033 447.834 208.033C448.333 208.033 448.716 208.417 448.716 208.915V339.84C448.716 340.339 448.333 340.723 447.834 340.723Z" fill="black"/>
<path d="M1046.49 381.35C1044.61 354.69 1018.22 335.97 987.606 339.537C964.782 342.223 946.024 356.531 938.735 374.676C901.065 368.768 883.457 341.992 883.266 341.685C882.959 341.187 882.575 340.726 882.23 340.343C888.368 318.17 890.17 293.85 885.721 271.907C873.906 213.714 821.582 189.739 781.84 183.985C778.196 183.026 752.916 183.026 749.272 183.985C709.569 189.739 657.206 213.714 645.391 271.907C640.941 293.85 642.783 318.17 648.882 340.343C648.498 340.726 648.153 341.187 647.846 341.685C647.655 341.954 630.047 368.768 592.377 374.676C585.088 356.531 566.33 342.223 543.505 339.537C512.855 335.97 486.502 354.651 484.622 381.35C482.742 408.011 506.027 432.523 536.677 436.129C567.327 439.697 593.681 421.015 595.561 394.316C595.561 394.201 595.561 394.086 595.561 393.971C628.014 388.485 647.578 369.228 655.557 359.638C663.919 379.701 675.85 396.388 689.544 405.402C705.848 416.182 717.471 411.348 727.368 427.46C730.36 432.332 734.043 440.464 737.687 506.905C739.221 535.1 739.452 549.37 748.006 557.656C752.494 561.991 758.095 563.563 762.315 564.1C762.43 564.215 767.915 564.331 768.337 564.292C768.567 564.292 768.721 564.215 768.836 564.1C773.055 563.563 778.656 561.991 783.144 557.656C791.699 549.37 791.929 535.061 793.463 506.905C797.108 440.464 800.79 432.332 803.782 427.46C813.679 411.348 825.303 416.182 841.606 405.402C855.262 396.349 867.192 379.662 875.593 359.638C883.572 369.228 903.136 388.485 935.589 393.971C935.589 394.086 935.589 394.201 935.589 394.316C937.469 420.977 963.861 439.697 994.473 436.129C1025.08 432.562 1048.41 408.049 1046.49 381.35Z" fill="white"/>
<path d="M766.573 565.251C765.077 565.251 763.082 565.213 762.161 565.021V565.059C758.018 564.522 752.072 562.949 747.316 558.384C739.068 550.405 738.339 536.864 737.035 512.352L736.766 507.058C733.007 438.469 729.133 432.178 726.601 428.035C720.808 418.598 714.556 416.603 706.615 414.072C701.436 412.422 695.605 410.581 689.046 406.208C675.926 397.538 663.996 381.657 655.288 361.364C646.159 372.028 627.055 389.367 596.366 394.776C595.446 406.515 589.73 417.256 580.293 425.081C568.785 434.595 552.827 438.968 536.524 437.05C505.49 433.405 481.783 408.433 483.701 381.35C484.545 369.497 490.261 358.602 499.813 350.7C511.283 341.186 527.241 336.813 543.582 338.731C565.793 341.34 585.088 355.035 592.914 373.755C629.664 367.732 646.926 341.532 647.079 341.263C647.309 340.88 647.616 340.496 647.885 340.151C641.517 316.789 640.289 292.507 644.509 271.754C649.88 245.208 663.958 223.611 686.322 207.576C703.623 195.186 725.91 186.478 749.08 183.141C753.07 182.143 777.966 182.143 781.994 183.141C805.125 186.516 827.413 195.186 844.752 207.576C867.116 223.573 881.194 245.17 886.565 271.754C890.784 292.507 889.557 316.751 883.189 340.151C883.496 340.496 883.764 340.88 883.995 341.263C884.148 341.532 901.449 367.694 938.16 373.716C945.985 354.996 965.281 341.263 987.492 338.693C1003.83 336.775 1019.79 341.148 1031.26 350.661C1040.81 358.564 1046.53 369.458 1047.37 381.312C1049.29 408.394 1025.58 433.405 994.55 437.011C978.208 438.929 962.25 434.556 950.78 425.043C941.344 417.217 935.628 406.476 934.707 394.738C904.019 389.329 884.954 371.99 875.785 361.326C867.116 381.619 855.147 397.5 842.028 406.169C835.468 410.504 829.599 412.384 824.459 414.033C816.557 416.565 810.304 418.56 804.473 427.997C801.903 432.178 798.067 438.469 794.307 507.019L794.039 512.313C792.735 536.826 792.006 550.367 783.758 558.346C779.117 562.834 773.286 564.445 769.143 564.982C768.913 565.097 768.682 565.174 768.376 565.213C768.337 565.251 767.57 565.251 766.573 565.251ZM762.506 563.333C763.159 563.41 767.723 563.525 768.222 563.486C768.337 563.371 768.529 563.333 768.682 563.294C772.557 562.796 778.119 561.338 782.492 557.08C790.241 549.561 790.932 537.094 792.236 512.198L792.504 506.904C795.995 443.149 799.448 432.753 802.938 427.038C809.076 417.025 815.943 414.877 823.883 412.345C828.947 410.734 834.663 408.931 841.031 404.712C854.112 396.042 866.08 379.931 874.673 359.331C874.788 359.062 875.057 358.832 875.363 358.794C875.67 358.756 875.977 358.871 876.169 359.101C884.8 369.497 904.019 387.756 935.628 393.127C936.012 393.203 936.318 393.549 936.357 393.932V394.239C937.162 405.632 942.648 416.066 951.816 423.662C962.941 432.868 978.4 437.088 994.281 435.247C1024.39 431.718 1047.41 407.589 1045.57 381.388C1044.76 369.995 1039.28 359.561 1030.11 351.966C1018.99 342.759 1003.53 338.54 987.645 340.381C965.779 342.951 946.868 356.531 939.464 374.982C939.311 375.366 938.927 375.596 938.505 375.519C900.413 369.573 882.614 342.414 882.422 342.145C882.153 341.723 881.808 341.302 881.463 340.918C881.233 340.688 881.156 340.381 881.271 340.074C887.716 316.827 888.943 292.66 884.762 272.061C870.76 202.973 802.286 187.821 781.61 184.828C781.572 184.828 781.533 184.828 781.495 184.828C778.042 183.946 752.84 183.946 749.387 184.828C749.349 184.828 749.31 184.828 749.272 184.828C728.634 187.821 660.122 202.973 646.12 272.061C641.939 292.66 643.166 316.827 649.611 340.074C649.688 340.381 649.611 340.688 649.419 340.918C649.074 341.302 648.729 341.685 648.46 342.145C648.268 342.414 630.469 369.573 592.377 375.519C591.993 375.596 591.571 375.366 591.418 374.982C584.014 356.531 565.103 342.951 543.237 340.381C527.356 338.54 511.896 342.759 500.772 351.966C491.604 359.561 486.118 369.995 485.312 381.388C483.471 407.55 506.449 431.718 536.601 435.247C552.482 437.088 567.941 432.868 579.066 423.662C588.234 416.066 593.72 405.632 594.525 394.239V393.932C594.564 393.51 594.87 393.203 595.254 393.127C626.863 387.795 646.082 369.535 654.713 359.101C654.905 358.871 655.212 358.756 655.519 358.794C655.825 358.832 656.094 359.024 656.209 359.331C664.802 379.931 676.77 396.042 689.851 404.712C696.219 408.931 701.935 410.734 706.999 412.345C714.939 414.877 721.806 417.064 727.943 427.038C731.434 432.753 734.887 443.149 738.378 506.904L738.646 512.198C739.989 537.056 740.641 549.561 748.39 557.08C752.763 561.338 758.325 562.796 762.2 563.294C762.43 563.294 762.468 563.333 762.506 563.333Z" fill="black"/>
<path d="M1078.71 374.942C1077.91 370.186 1074.26 367.155 1070.58 368.153C1070.47 368.191 1063.64 369.956 1055.74 368.805C1044.99 367.232 1036.98 355.263 1037.21 341.377V341.185C1037.4 332.477 1038.05 323.654 1038.89 314.563C1039.32 309.998 1039.74 305.395 1040.12 300.484C1040.31 298.029 1040.47 295.459 1040.51 292.659C1040.43 289.743 1040.47 286.751 1040.08 283.874C1039.55 278.005 1038.09 272.328 1036.29 266.919C1035.25 264.31 1034.33 261.587 1033.03 259.247L1031.15 255.603C1030.46 254.452 1029.77 253.378 1029.04 252.265C1023.32 243.442 1016.3 236.691 1008.9 231.781C1001.49 226.87 993.86 223.456 986.149 220.925C984.231 220.311 982.313 219.85 980.395 219.313L977.518 218.546L974.641 217.971L968.887 216.858C966.854 216.59 964.59 216.36 962.48 216.245C954.041 216.014 946.177 217.242 938.582 218.968C930.948 220.694 923.583 223.073 916.409 225.835C909.198 228.597 902.139 231.55 895.158 234.849C888.214 238.148 881.348 241.716 874.558 245.36C867.768 249.043 861.093 252.994 854.457 257.022C847.092 261.587 839.842 266.267 832.63 271.215C825.648 276.01 817.362 276.893 809.92 273.402C797.952 267.725 782.492 264.31 765.575 264.31C748.697 264.31 733.199 267.725 721.23 273.402C713.788 276.931 705.503 276.049 698.521 271.215C691.348 266.267 684.059 261.587 676.694 257.022C670.057 252.994 663.383 249.043 656.593 245.36C649.803 241.678 642.936 238.148 635.993 234.849C629.012 231.55 621.953 228.597 614.741 225.835C607.53 223.073 600.164 220.694 592.569 218.968C584.935 217.242 577.071 216.014 568.67 216.245C566.56 216.36 564.297 216.551 562.264 216.858L556.51 217.971L553.633 218.546L550.756 219.313C548.838 219.85 546.92 220.311 545.002 220.925C537.33 223.456 529.657 226.87 522.254 231.781C514.889 236.691 507.83 243.404 502.153 252.265C501.462 253.378 500.734 254.49 500.043 255.603L498.163 259.247C496.859 261.625 495.938 264.349 494.903 266.919C493.1 272.289 491.642 277.967 491.105 283.874C490.721 286.79 490.76 289.743 490.683 292.659C490.721 295.459 490.875 298.029 491.067 300.484C491.45 305.395 491.872 309.998 492.294 314.563C493.1 323.654 493.79 332.516 493.982 341.185V341.377C494.251 355.225 486.272 367.194 475.531 368.766C467.59 369.956 460.723 368.153 460.608 368.153C456.887 367.155 453.243 370.186 452.476 374.942C451.67 379.699 454.049 384.379 457.731 385.415C458.23 385.568 463.178 386.873 469.93 386.873C470.62 386.873 471.349 386.873 472.117 386.834C476.528 386.642 478.523 393.854 474.917 397.153C472.999 398.918 471.158 400.376 469.585 401.22L469.508 401.258C467.206 402.485 465.71 405.516 466.132 408.661C466.669 412.881 469.892 415.221 472.807 414.147C476.643 412.728 480.517 411.117 484.162 408.546C487.806 406.015 491.297 402.869 494.327 399.033C497.358 395.197 499.966 390.862 502.076 386.182C504.186 381.502 505.759 376.592 507.063 371.605C508.367 366.618 509.25 361.593 509.825 356.568C510.439 351.542 510.822 346.556 511.014 341.607C511.206 336.659 511.283 331.748 511.206 326.915C511.129 322.082 510.937 317.286 510.746 312.568C510.554 307.888 510.324 303.246 510.209 298.873C510.132 296.687 510.132 294.615 510.17 292.774C510.362 291.086 510.324 289.36 510.669 287.71C511.053 284.335 512.05 281.189 513.201 278.082C513.93 276.624 514.428 275.051 515.311 273.67L516.5 271.522L517.881 269.527C521.602 264.195 526.55 259.899 532.036 256.446C537.56 252.994 543.697 250.424 550.065 248.544C551.676 248.084 553.326 247.777 554.937 247.355L557.354 246.78L559.847 246.358L564.834 245.552C566.407 245.399 567.75 245.284 569.246 245.168C575.307 245.053 581.866 246.051 588.503 247.624C601.775 250.846 615.278 255.909 628.59 261.74C649.151 270.678 669.597 281.227 689.851 292.237C694.57 294.807 698.176 299.871 699.749 306.124C705.809 330.329 725.028 393.164 749.579 409.007C754.527 412.191 757.289 419.134 756.215 426.116C752.034 452.661 749.31 492.288 749.31 520.598C749.31 566.899 756.637 565.403 765.652 565.403C774.667 565.403 781.994 566.899 781.994 520.598C781.994 492.249 779.27 452.584 775.05 426.039C773.938 419.096 776.7 412.229 781.648 409.045C807.772 392.243 823.538 329.37 830.75 304.934C832.284 299.717 835.43 295.498 839.458 293.311C860.326 281.88 881.463 270.947 902.676 261.702C915.987 255.871 929.529 250.807 942.763 247.585C949.361 246.012 955.959 245.015 962.02 245.13C963.516 245.207 964.897 245.322 966.432 245.514L971.419 246.319L973.912 246.741L976.329 247.317C977.94 247.7 979.589 248.046 981.2 248.506C987.568 250.386 993.706 252.956 999.23 256.408C1004.75 259.899 1009.7 264.195 1013.39 269.489L1014.77 271.484L1015.96 273.632C1016.84 275.013 1017.34 276.586 1018.07 278.044C1019.18 281.112 1020.21 284.296 1020.6 287.672C1020.94 289.322 1020.94 291.048 1021.1 292.736C1021.13 294.577 1021.13 296.648 1021.06 298.835C1020.94 303.208 1020.71 307.811 1020.52 312.53C1020.33 317.248 1020.14 322.005 1020.06 326.877C1020.02 331.71 1020.06 336.62 1020.25 341.569C1020.44 346.517 1020.87 351.504 1021.44 356.529C1022.02 361.555 1022.9 366.58 1024.2 371.567C1025.47 376.554 1027.04 381.464 1029.19 386.144C1031.3 390.824 1033.91 395.197 1036.94 398.995C1039.97 402.831 1043.46 405.976 1047.1 408.508C1050.75 411.078 1054.62 412.689 1058.46 414.109C1061.37 415.183 1064.6 412.843 1065.13 408.623C1065.52 405.478 1064.02 402.409 1061.72 401.22L1061.64 401.181C1060.07 400.376 1058.23 398.88 1056.31 397.115C1052.74 393.816 1054.74 386.604 1059.11 386.796C1059.84 386.834 1060.57 386.834 1061.3 386.834C1068.05 386.834 1073 385.53 1073.5 385.377C1077.18 384.379 1079.52 379.699 1078.71 374.942Z" fill="white"/>
<path d="M767.148 566.322C766.88 566.322 766.611 566.322 766.381 566.322H765.537H764.693C761.394 566.361 757.98 566.361 755.256 563.599C750.385 558.765 748.313 545.914 748.313 520.635C748.313 491.251 751.229 451.471 755.256 425.999C756.292 419.478 753.722 412.803 749.004 409.773C720.847 391.59 700.976 315.022 698.79 306.352C697.293 300.33 693.841 295.496 689.314 293.041C665.377 279.998 645.929 270.332 628.129 262.544C613.015 255.946 599.934 251.343 588.157 248.504C580.792 246.74 574.578 245.973 569.131 246.088C567.788 246.164 566.522 246.279 564.757 246.433L557.354 247.622L554.975 248.198C554.362 248.351 553.748 248.504 553.134 248.619C552.137 248.85 551.139 249.08 550.142 249.348C543.467 251.305 537.483 253.913 532.343 257.136C526.474 260.818 521.794 265.153 518.418 269.986L517.037 271.943L515.886 274.014C515.311 274.897 514.927 275.779 514.543 276.776C514.313 277.313 514.083 277.85 513.853 278.349C512.817 281.226 511.781 284.372 511.398 287.709C511.168 288.821 511.091 289.857 511.014 290.97C510.976 291.583 510.937 292.159 510.861 292.773C510.822 294.499 510.822 296.532 510.899 298.757C510.976 301.941 511.129 305.201 511.283 308.654L511.436 312.452C511.628 316.671 511.82 321.697 511.897 326.798C511.935 331.977 511.897 336.811 511.705 341.567C511.513 346.477 511.129 351.503 510.516 356.605C509.863 362.052 508.943 367.039 507.715 371.757C506.257 377.435 504.608 382.268 502.69 386.488C500.503 391.321 497.857 395.694 494.826 399.53C492.946 401.909 490.798 404.134 488.42 406.167C488.036 406.474 487.499 406.435 487.192 406.052C486.885 405.668 486.924 405.131 487.307 404.824C489.609 402.868 491.68 400.719 493.483 398.418C496.437 394.697 499.007 390.439 501.117 385.759C502.997 381.616 504.608 376.897 506.027 371.335C507.217 366.655 508.137 361.783 508.751 356.413C509.365 351.388 509.748 346.362 509.94 341.529C510.132 336.811 510.209 332.016 510.132 326.875C510.055 321.773 509.863 316.786 509.672 312.567L509.518 308.769C509.365 305.317 509.211 302.056 509.135 298.834C509.058 296.57 509.058 294.499 509.096 292.696C509.173 292.044 509.211 291.468 509.25 290.893C509.326 289.78 509.403 288.591 509.633 287.44C510.017 283.988 511.091 280.727 512.203 277.697C512.203 277.658 512.242 277.659 512.242 277.62C512.472 277.121 512.702 276.584 512.932 276.086C513.354 275.088 513.776 274.091 514.39 273.132L515.541 271.06C515.541 271.022 515.579 271.022 515.579 270.984L516.96 268.989C520.451 263.964 525.323 259.476 531.384 255.678C536.677 252.379 542.815 249.694 549.643 247.699C550.679 247.392 551.715 247.162 552.712 246.932C553.326 246.778 553.94 246.663 554.515 246.51L556.97 245.934L564.489 244.707C566.33 244.515 567.635 244.4 569.016 244.323C574.655 244.208 581.022 245.014 588.503 246.778C600.356 249.655 613.514 254.297 628.743 260.933C646.581 268.72 666.068 278.426 690.043 291.468C694.992 294.154 698.751 299.409 700.362 305.892C708.188 337.079 727.407 393.776 749.809 408.276C755.065 411.691 757.98 419.056 756.829 426.268C752.84 451.624 749.924 491.327 749.924 520.635C749.924 545.071 751.919 557.96 756.33 562.371C758.555 564.596 761.356 564.596 764.54 564.558H765.384H766.228C769.45 564.596 772.212 564.596 774.437 562.371C778.887 557.96 780.843 545.109 780.843 520.635C780.843 491.289 777.928 451.586 773.938 426.229C772.787 418.941 775.588 411.767 780.92 408.353C804.32 393.316 819.319 340.8 827.374 312.567C828.218 309.651 828.947 307.004 829.638 304.703C831.249 299.294 834.548 294.844 838.767 292.581C864.009 278.771 883.534 269.027 902.063 260.933C917.292 254.297 930.449 249.655 942.303 246.778C949.822 245.014 956.189 244.17 961.79 244.323C963.209 244.4 964.514 244.515 966.278 244.707L973.797 245.934L976.29 246.548C976.904 246.701 977.518 246.855 978.132 246.97C979.129 247.2 980.165 247.43 981.201 247.737C988.029 249.732 994.166 252.417 999.46 255.716C1005.52 259.552 1010.39 264.04 1013.88 269.066L1015.26 271.06C1015.26 271.099 1015.3 271.099 1015.3 271.137L1016.49 273.285C1017.07 274.168 1017.53 275.203 1017.95 276.201C1018.18 276.738 1018.41 277.237 1018.64 277.735C1018.64 277.774 1018.68 277.774 1018.68 277.812C1019.79 280.804 1020.83 284.103 1021.25 287.632C1021.48 288.706 1021.56 289.857 1021.63 290.97C1021.67 291.545 1021.71 292.12 1021.75 292.696C1021.82 294.576 1021.79 296.647 1021.75 298.91C1021.67 302.133 1021.52 305.432 1021.36 308.922L1021.21 312.643C1021.02 316.863 1020.83 321.888 1020.75 326.952C1020.71 332.131 1020.75 336.926 1020.94 341.606C1021.13 346.439 1021.52 351.464 1022.13 356.49C1022.78 361.86 1023.67 366.732 1024.85 371.412C1026.27 377.013 1027.89 381.731 1029.8 385.836C1031.91 390.516 1034.48 394.774 1037.44 398.495C1040.16 401.985 1043.54 405.131 1047.41 407.816C1050.98 410.348 1054.89 411.959 1058.57 413.302C1059.57 413.647 1060.61 413.532 1061.57 412.956C1062.95 412.113 1063.87 410.501 1064.1 408.507C1064.44 405.821 1063.22 403.059 1061.18 401.985C1059.61 401.141 1057.77 399.76 1055.58 397.766C1053.13 395.502 1053.05 391.858 1054.09 389.48C1055.04 387.14 1056.89 385.797 1059.03 385.912C1066.74 386.257 1072.58 384.685 1073.15 384.531C1076.41 383.611 1078.48 379.391 1077.79 375.056C1077.41 372.678 1076.22 370.683 1074.53 369.609C1073.34 368.842 1072.04 368.612 1070.73 368.957C1070.66 368.995 1063.64 370.798 1055.51 369.609C1044.27 367.959 1036.02 355.799 1036.25 341.299V341.107C1036.44 332.131 1037.17 322.962 1037.94 314.408C1038.05 313.18 1038.17 311.915 1038.28 310.649C1038.59 307.311 1038.89 303.897 1039.16 300.33C1039.39 297.453 1039.51 294.998 1039.55 292.542C1039.55 291.929 1039.51 291.277 1039.51 290.624C1039.47 288.399 1039.43 286.098 1039.13 283.873C1038.66 278.733 1037.44 273.247 1035.37 267.109C1035.14 266.496 1034.87 265.843 1034.6 265.191C1033.87 263.273 1033.1 261.279 1032.14 259.591L1030.26 255.908C1029.77 255.102 1029.23 254.22 1028.69 253.376L1028.23 252.647C1022.98 244.477 1016.26 237.687 1008.36 232.431C1001.65 227.981 994.281 224.452 985.842 221.652C984.576 221.268 983.272 220.923 982.044 220.578C981.392 220.424 980.779 220.233 980.126 220.041L977.249 219.274L968.657 217.586C966.739 217.317 964.514 217.125 962.365 217.01C955.192 216.819 947.903 217.624 938.697 219.696C931.792 221.23 924.58 223.493 916.64 226.524C909.236 229.324 902.101 232.355 895.426 235.5C889.173 238.454 882.652 241.791 874.865 246.011C867.615 249.962 860.671 254.105 854.802 257.634C846.9 262.506 839.765 267.148 833.013 271.789C825.648 276.853 817.055 277.659 809.422 274.014C797.146 268.183 781.533 264.999 765.46 264.999C749.387 264.999 733.774 268.183 721.499 274.014C713.865 277.659 705.234 276.815 697.907 271.789C691.156 267.148 684.059 262.544 676.118 257.634C670.249 254.105 663.306 249.924 656.056 246.011C648.269 241.791 641.709 238.454 635.494 235.5C628.82 232.355 621.685 229.324 614.319 226.524C606.379 223.493 599.167 221.268 592.262 219.696C583.055 217.624 575.767 216.78 568.555 217.01C566.445 217.125 564.22 217.317 562.264 217.586L553.671 219.274L550.833 220.041C550.18 220.233 549.567 220.386 548.915 220.578C547.649 220.923 546.344 221.268 545.078 221.652C536.639 224.414 529.274 227.943 522.561 232.431C514.658 237.687 507.945 244.477 502.69 252.647L502.191 253.453C501.654 254.297 501.117 255.102 500.618 255.985L498.777 259.591C497.818 261.317 497.051 263.312 496.322 265.23C496.054 265.882 495.823 266.534 495.555 267.186C493.522 273.285 492.294 278.771 491.834 283.873C491.527 286.136 491.489 288.438 491.45 290.663C491.45 291.315 491.412 291.967 491.412 292.619C491.45 294.998 491.565 297.453 491.796 300.33C492.064 303.897 492.371 307.311 492.678 310.649C492.793 311.915 492.908 313.18 493.023 314.408C493.79 322.962 494.519 332.092 494.711 341.107V341.299C494.864 348.741 492.716 355.837 488.688 361.208C488.381 361.592 487.844 361.668 487.461 361.4C487.077 361.093 487 360.556 487.269 360.172C491.067 355.109 493.1 348.396 492.946 341.337V341.145C492.755 332.207 492.026 323.078 491.258 314.561C491.143 313.296 491.028 312.068 490.913 310.802C490.606 307.465 490.299 304.051 490.031 300.445C489.801 297.529 489.686 295.036 489.647 292.581C489.647 291.89 489.686 291.238 489.686 290.586C489.724 288.323 489.762 285.944 490.069 283.643C490.53 278.464 491.796 272.825 493.905 266.534C494.174 265.843 494.442 265.191 494.673 264.539C495.44 262.583 496.207 260.55 497.243 258.708L499.084 255.102C499.621 254.182 500.158 253.338 500.695 252.494L501.194 251.688C506.603 243.326 513.469 236.344 521.563 230.974C528.392 226.409 535.91 222.841 544.503 220.002C545.807 219.581 547.15 219.235 548.416 218.89C549.068 218.737 549.682 218.545 550.334 218.353L553.249 217.586L561.957 215.86C563.99 215.591 566.292 215.361 568.478 215.246C575.844 215.016 583.286 215.86 592.646 217.969C599.627 219.542 606.916 221.805 614.972 224.874C622.414 227.713 629.587 230.743 636.3 233.927C642.553 236.881 649.112 240.257 656.938 244.477C664.227 248.428 671.208 252.609 677.077 256.177C685.018 261.087 692.191 265.728 698.943 270.37C705.771 275.05 713.712 275.817 720.809 272.48C733.314 266.572 749.195 263.273 765.537 263.273C781.879 263.273 797.76 266.534 810.266 272.48C817.324 275.817 825.303 275.05 832.131 270.37C838.883 265.728 846.056 261.087 853.997 256.177C859.866 252.609 866.847 248.466 874.136 244.477C881.962 240.257 888.521 236.92 894.774 233.927C901.487 230.743 908.661 227.713 916.103 224.874C924.12 221.805 931.447 219.542 938.428 217.969C947.788 215.86 955.23 215.016 962.557 215.246C964.744 215.361 967.045 215.591 969.04 215.86L977.748 217.547L980.702 218.353C981.354 218.545 981.968 218.698 982.62 218.89C983.886 219.235 985.228 219.581 986.494 220.002C995.125 222.841 1002.61 226.409 1009.47 230.974C1017.57 236.344 1024.43 243.326 1029.84 251.688L1030.3 252.456C1030.84 253.338 1031.41 254.182 1031.95 255.064L1033.83 258.747C1034.83 260.55 1035.6 262.583 1036.36 264.539C1036.63 265.191 1036.86 265.843 1037.13 266.496C1039.24 272.863 1040.51 278.464 1040.97 283.681C1041.27 285.944 1041.31 288.323 1041.35 290.586C1041.35 291.238 1041.39 291.89 1041.39 292.542C1041.35 295.074 1041.23 297.568 1041 300.445C1040.74 304.012 1040.43 307.465 1040.12 310.802C1040.01 312.068 1039.89 313.296 1039.78 314.561C1039.01 323.078 1038.28 332.207 1038.09 341.145V341.299C1037.86 354.687 1045.68 366.348 1055.85 367.844C1063.6 368.995 1070.27 367.231 1070.35 367.231C1072.12 366.77 1073.96 367.077 1075.57 368.075C1077.64 369.417 1079.14 371.834 1079.6 374.711C1080.44 379.89 1077.79 385.03 1073.69 386.181C1073.07 386.334 1067.05 387.984 1059.03 387.6C1057.69 387.523 1056.46 388.482 1055.77 390.094C1055.01 391.935 1055.01 394.735 1056.85 396.423C1058.88 398.303 1060.61 399.645 1061.99 400.336C1064.71 401.794 1066.36 405.246 1065.9 408.66C1065.59 411.192 1064.37 413.263 1062.53 414.376C1061.11 415.22 1059.53 415.412 1058.04 414.874C1054.24 413.455 1050.21 411.806 1046.49 409.159C1042.46 406.358 1039.01 403.098 1036.17 399.492C1033.14 395.656 1030.49 391.283 1028.31 386.449C1026.39 382.23 1024.74 377.396 1023.28 371.719C1022.05 366.962 1021.13 362.014 1020.48 356.566C1019.87 351.464 1019.45 346.401 1019.29 341.529C1019.1 336.811 1019.02 331.977 1019.1 326.798C1019.18 321.697 1019.37 316.671 1019.56 312.452L1019.71 308.731C1019.87 305.24 1020.02 301.979 1020.1 298.757C1020.17 296.494 1020.17 294.46 1020.14 292.696C1020.1 292.159 1020.02 291.583 1019.98 290.97C1019.91 289.857 1019.83 288.821 1019.64 287.786C1019.25 284.372 1018.22 281.226 1017.18 278.349C1016.91 277.812 1016.72 277.313 1016.49 276.776C1016.07 275.817 1015.69 274.897 1015.15 274.091L1013.96 271.943L1012.58 269.986C1009.2 265.153 1004.52 260.818 998.655 257.136C993.514 253.913 987.53 251.305 980.855 249.348C979.896 249.08 978.861 248.85 977.863 248.619C977.249 248.466 976.636 248.351 976.022 248.198L973.605 247.622L966.202 246.433C964.475 246.241 963.209 246.164 961.867 246.088C956.458 245.973 950.243 246.778 942.878 248.504C931.14 251.343 918.059 255.946 902.906 262.544C884.417 270.6 864.929 280.344 839.726 294.115C835.929 296.187 832.898 300.215 831.441 305.201C830.75 307.503 830.021 310.112 829.177 313.027C821.045 341.452 805.931 394.39 781.994 409.773C777.314 412.765 774.782 419.401 775.818 425.884C779.846 451.355 782.761 491.174 782.761 520.596C782.761 545.876 780.689 558.727 775.818 563.56C773.286 566.169 770.179 566.322 767.148 566.322Z" fill="black"/>
<path d="M633.308 167.525H459.304V187.281H633.308V167.525Z" fill="black"/>
<path d="M712.062 779.532C711.909 779.532 711.717 779.494 711.564 779.379C649.88 737.221 625.674 682.557 625.444 682.02C625.252 681.559 625.444 681.061 625.904 680.869C626.365 680.677 626.863 680.869 627.055 681.329C627.285 681.866 651.299 736.07 712.561 777.96C712.945 778.228 713.06 778.765 712.791 779.187C712.638 779.379 712.331 779.532 712.062 779.532Z" fill="black"/>
<path d="M661.043 767.448C660.851 767.448 660.697 767.41 660.544 767.295C660.391 767.18 645.507 756.4 629.127 737.066C614.013 719.19 594.487 690.151 587.275 653.133C587.198 652.673 587.505 652.213 587.966 652.098C588.426 652.021 588.886 652.328 589.001 652.788C602.696 722.873 661.004 765.415 661.58 765.837C661.963 766.106 662.078 766.681 661.772 767.065C661.618 767.333 661.35 767.448 661.043 767.448Z" fill="black"/>
<path d="M1073.15 623.825C1072.96 623.825 1072.77 623.749 1072.61 623.634C1072.23 623.327 1072.15 622.79 1072.46 622.406L1076.6 616.997C1076.91 616.614 1077.45 616.537 1077.83 616.844C1078.21 617.151 1078.29 617.688 1077.98 618.071L1073.84 623.48C1073.69 623.71 1073.42 623.825 1073.15 623.825Z" fill="black"/>
<path d="M1063.48 636.446C1063.29 636.446 1063.1 636.37 1062.95 636.255C1062.56 635.948 1062.49 635.411 1062.79 635.027L1066.94 629.618C1067.24 629.235 1067.78 629.158 1068.16 629.465C1068.55 629.772 1068.62 630.309 1068.32 630.692L1064.17 636.101C1064.02 636.331 1063.75 636.446 1063.48 636.446Z" fill="black"/>
<path d="M1066.78 624.669C1066.59 624.669 1066.4 624.592 1066.25 624.477L1060.84 620.334C1060.45 620.027 1060.38 619.49 1060.68 619.106C1060.99 618.723 1061.53 618.646 1061.91 618.953L1067.32 623.096C1067.7 623.403 1067.78 623.94 1067.47 624.324C1067.32 624.554 1067.05 624.669 1066.78 624.669Z" fill="black"/>
<path d="M1079.4 634.337C1079.21 634.337 1079.02 634.26 1078.87 634.145L1073.46 630.002C1073.07 629.695 1073 629.158 1073.3 628.774C1073.61 628.391 1074.15 628.314 1074.53 628.621L1079.94 632.764C1080.32 633.071 1080.4 633.608 1080.09 633.991C1079.9 634.222 1079.67 634.337 1079.4 634.337Z" fill="black"/>
<path d="M426.122 401.104C417.184 407.894 415.113 423.123 429.996 424.772C434.216 425.233 438.474 425.118 442.655 424.427C444.113 424.197 445.571 423.89 446.914 423.315C450.558 421.819 453.396 418.404 454.164 414.492C454.969 410.617 453.703 406.359 450.903 403.559C449.675 402.293 448.141 401.334 446.568 400.49C442.502 398.38 437.784 397.344 433.219 398.035C430.61 398.419 428.194 399.531 426.122 401.104Z" fill="black"/>
<path d="M451.939 413.226C450.174 413.456 448.371 413.341 446.722 412.689C443.768 411.576 441.582 409.121 439.625 406.628C426.928 390.478 415.535 369.993 430.227 350.967C439.702 338.691 459.074 333.551 473.498 339.305C476.068 340.341 482.397 342.834 484.699 349.01C487.116 355.455 483.586 361.861 481.668 365.352C478.715 370.761 473.421 373.523 471.618 379.43C468.511 389.634 467.206 406.59 456.312 411.883C454.931 412.535 453.435 413.034 451.939 413.226Z" fill="black"/>
<path d="M534.414 779.874L529.235 791.191C529.466 792.15 530.003 793.109 531.038 794.298C536.524 800.551 551.408 795.564 554.937 794.375C568.018 789.963 569.667 784.554 581.406 780.411C589.5 777.573 596.75 777.266 601.43 777.458C600.893 776.307 599.896 774.504 598.131 772.893C595.599 770.591 591.303 768.328 584.244 768.289C570.128 768.213 534.414 779.874 534.414 779.874Z" fill="black"/>
<path d="M579.104 832.66C579.104 832.66 603.08 841.905 603.041 826.138C603.041 825.64 583.324 761.961 583.324 761.961L555.091 777.267L579.104 832.66Z" fill="white"/>
<path d="M592.492 836.228C586.048 836.228 579.219 833.62 578.797 833.466C578.567 833.39 578.414 833.198 578.299 833.006L554.323 777.575C554.131 777.153 554.323 776.654 554.707 776.463L582.94 761.157C583.171 761.042 583.439 761.003 583.708 761.118C583.938 761.233 584.13 761.425 584.206 761.655C603.962 825.449 603.962 825.948 603.962 826.101C603.962 829.784 602.734 832.546 600.241 834.234C598.093 835.691 595.331 836.228 592.492 836.228ZM579.756 831.932C581.905 832.699 593.643 836.612 599.244 832.776C601.2 831.433 602.159 829.285 602.197 826.216C601.622 824.03 589.538 784.787 582.864 763.228L556.28 777.613L579.756 831.932Z" fill="black"/>
<path d="M576.15 849.12H635.571C637.182 849.12 638.41 847.701 638.218 846.128L637.758 842.752C636.645 839.76 634.459 837.267 631.658 835.732L599.435 818.432C599.435 818.432 589.04 820.657 589.922 831.551C589.922 831.551 582.94 824.838 576.457 829.518C576.457 829.518 573.925 837.919 574.156 847.202C574.156 848.276 575.076 849.12 576.15 849.12Z" fill="white"/>
<path d="M635.533 850.001H576.15C574.616 850.001 573.312 848.735 573.273 847.201C573.081 837.879 575.498 829.593 575.613 829.248C575.652 829.056 575.767 828.903 575.92 828.788C581.022 825.067 586.393 827.867 588.963 829.67C589.308 819.773 599.09 817.548 599.205 817.548C599.397 817.51 599.627 817.548 599.819 817.625L632.042 834.926C635.072 836.537 637.374 839.184 638.563 842.406C638.601 842.483 638.601 842.521 638.601 842.598L639.062 845.974C639.177 846.971 638.87 848.007 638.218 848.774C637.527 849.579 636.568 850.001 635.533 850.001ZM577.224 830.054C576.802 831.588 574.846 839.069 575.038 847.163C575.038 847.776 575.537 848.237 576.15 848.237H635.571C636.07 848.237 636.568 848.007 636.914 847.623C637.259 847.239 637.412 846.741 637.336 846.204L636.914 842.905C635.878 840.143 633.845 837.841 631.236 836.46L599.32 819.313C597.671 819.773 590.075 822.343 590.804 831.435C590.842 831.78 590.651 832.125 590.305 832.317C589.96 832.471 589.577 832.394 589.308 832.164C589.04 831.934 582.902 826.179 577.224 830.054Z" fill="black"/>
<path d="M618.922 837.801C618.884 837.801 618.846 837.801 618.769 837.801C603.156 835.346 593.911 827.137 593.528 826.792C593.182 826.485 593.144 825.909 593.451 825.564C593.758 825.219 594.333 825.181 594.679 825.487C594.755 825.564 603.962 833.697 618.999 836.037C619.498 836.113 619.805 836.574 619.728 837.034C619.728 837.494 619.344 837.801 618.922 837.801Z" fill="black"/>
<path d="M635.993 846.165H576.265C575.767 846.165 575.383 845.781 575.383 845.283C575.383 844.784 575.767 844.4 576.265 844.4H635.993C636.492 844.4 636.875 844.784 636.875 845.283C636.875 845.743 636.492 846.165 635.993 846.165Z" fill="black"/>
<path d="M452.399 796.679C447.144 795.528 437.093 793.265 434.868 786.398C433.18 781.181 436.786 775.734 437.63 774.506C447.796 759.239 481.4 754.904 500.427 769.865C510.477 777.767 517.267 791.654 513.699 796.065C511.551 798.75 506.986 796.18 495.862 795.183C475.07 793.418 469.776 800.515 452.399 796.679Z" fill="black"/>
<path d="M455.314 768.252C454.471 768.789 465.327 835.076 465.327 835.076L487 837.723L486.041 773.853L455.314 768.252Z" fill="white"/>
<path d="M487 838.567C486.962 838.567 486.924 838.567 486.885 838.567L465.211 835.92C464.828 835.882 464.521 835.575 464.444 835.191C464.406 835.038 461.682 818.428 459.112 801.971C453.818 768.137 454.125 767.945 454.816 767.485C455.008 767.37 455.238 767.331 455.43 767.37L486.195 772.97C486.617 773.047 486.924 773.392 486.924 773.814L487.883 837.685C487.883 837.953 487.768 838.184 487.576 838.337C487.422 838.491 487.23 838.567 487 838.567ZM466.094 834.271L486.118 836.726L485.197 774.62L456.197 769.326C456.657 775.426 462.181 810.372 466.094 834.271Z" fill="black"/>
<path d="M522.139 849.118H462.45C462.45 849.118 460.263 834.272 463.677 827.674L465.518 829.746C466.477 830.82 468.127 830.896 469.201 829.937C471.579 827.789 475.722 824.337 479.328 822.687C486.31 819.503 509.71 835.308 518.648 840.678C520.758 841.944 522.062 844.246 522.062 846.701V849.118H522.139Z" fill="white"/>
<path d="M522.139 849.999H462.45C462.028 849.999 461.644 849.692 461.567 849.231C461.491 848.618 459.381 834.041 462.91 827.251C463.025 826.982 463.294 826.829 463.562 826.79C463.831 826.752 464.137 826.867 464.329 827.059L466.171 829.13C466.477 829.476 466.899 829.668 467.36 829.706C467.82 829.744 468.28 829.591 468.626 829.245C471.388 826.752 475.415 823.453 478.983 821.842C484.891 819.157 499.774 827.864 514.505 837.033C516.27 838.145 517.842 839.104 519.108 839.871C521.487 841.291 522.944 843.899 522.944 846.661V849.001C523.021 849.615 522.637 849.999 522.139 849.999ZM463.217 848.234H521.256V846.738C521.256 844.59 520.106 842.557 518.264 841.444C516.998 840.677 515.387 839.68 513.623 838.567C503.726 832.391 485.313 820.921 479.75 823.491C476.221 825.103 472.001 828.632 469.853 830.588C469.163 831.202 468.28 831.547 467.321 831.47C466.401 831.432 465.518 831.01 464.905 830.32L463.946 829.245C461.797 835.076 462.872 845.395 463.217 848.234Z" fill="black"/>
<path d="M519.338 845.356H463.715C463.217 845.356 462.833 844.973 462.833 844.474C462.833 843.975 463.217 843.592 463.715 843.592H519.338C519.837 843.592 520.221 843.975 520.221 844.474C520.221 844.934 519.837 845.356 519.338 845.356Z" fill="black"/>
<path d="M494.289 838.182C494.174 838.182 494.02 838.144 493.905 838.106L476.681 829.398C476.259 829.168 476.068 828.669 476.298 828.209C476.528 827.787 477.065 827.595 477.487 827.825L494.711 836.533C495.133 836.763 495.325 837.262 495.095 837.722C494.941 838.029 494.634 838.182 494.289 838.182Z" fill="black"/>
<path d="M601.469 777.42C589.999 740.978 578.414 704.535 566.714 668.169C550.948 619.106 535.028 570.119 518.878 521.209C493.829 524.163 437.861 505.098 443.691 530.032C446.607 542.385 446.3 545.146 445.993 549.711C443.576 585.655 439.817 611.357 439.932 620.333C440.047 628.312 440.354 652.249 439.817 684.971C439.74 690.303 439.587 696.019 439.357 702.885C438.129 737.487 435.827 745.926 435.636 774.083C435.597 778.034 435.636 781.87 435.674 785.591C448.448 783.098 462.987 782.407 478.446 785.898C490.683 788.66 492.064 791.46 503.035 792.956C506.641 793.455 510.017 793.608 513.239 793.532C504.224 673.118 504.877 645.498 504.877 645.498C508.291 672.235 512.587 700.162 517.842 729.086C521.717 750.338 525.898 770.86 530.348 790.693C543.352 786.857 554.784 780.105 570.32 777.228C578.452 775.847 588.81 775.195 601.469 777.42Z" fill="white"/>
<path d="M511.781 794.528C508.866 794.528 505.951 794.337 502.959 793.915C496.859 793.109 493.714 791.882 490.069 790.501C487.116 789.388 483.817 788.122 478.293 786.856C464.751 783.787 450.481 783.711 435.866 786.549C435.597 786.588 435.329 786.549 435.137 786.358C434.945 786.204 434.83 785.936 434.83 785.706C434.792 781.639 434.753 777.88 434.792 774.159C434.907 758.891 435.597 749.416 436.441 738.445C437.132 729.239 437.937 718.805 438.513 702.923C438.743 696.287 438.896 690.609 438.973 685.009C439.318 662.99 439.357 641.239 439.088 620.371C439.05 616.036 439.855 607.942 441.006 596.703C442.272 584.12 443.883 568.469 445.149 549.672L445.187 549.366C445.494 545.031 445.686 542.192 442.886 530.224C441.927 526.196 442.502 522.974 444.574 520.634C450.673 513.844 468.357 516.03 487.077 518.37C498.624 519.79 510.554 521.286 518.801 520.327C519.223 520.288 519.607 520.518 519.722 520.94C535.795 569.62 551.868 619.067 567.558 667.9C579.181 704.112 590.881 740.862 602.313 777.151C602.389 777.458 602.351 777.765 602.121 777.995C601.929 778.225 601.622 778.34 601.315 778.264C590.689 776.384 580.332 776.384 570.512 778.187C561.113 779.913 553.211 783.097 545.539 786.166C540.514 788.199 535.718 790.117 530.617 791.613C530.386 791.69 530.118 791.651 529.926 791.536C529.734 791.421 529.581 791.191 529.504 790.961C524.939 770.438 520.719 749.685 516.998 729.315C512.894 706.721 509.211 683.781 506.066 660.957C506.679 679.83 508.559 718.92 514.121 793.531C514.121 793.761 514.045 793.991 513.891 794.183C513.738 794.375 513.508 794.452 513.277 794.49C512.779 794.49 512.28 794.528 511.781 794.528ZM456.772 782.713C464.214 782.713 471.541 783.519 478.638 785.13C484.277 786.396 487.653 787.7 490.645 788.851C494.212 790.194 497.281 791.383 503.15 792.188C506.258 792.61 509.25 792.802 512.28 792.764C503.419 674.46 503.994 645.881 503.994 645.574C503.994 645.114 504.378 644.73 504.838 644.73C505.298 644.73 505.682 645.037 505.759 645.497C509.326 673.347 513.699 701.466 518.725 729.047C522.369 749.109 526.512 769.479 531 789.695C535.718 788.237 540.168 786.473 544.887 784.555C552.636 781.447 560.615 778.225 570.205 776.461C579.795 774.696 589.884 774.619 600.203 776.307C588.925 740.44 577.378 704.151 565.908 668.399C550.296 619.796 534.299 570.579 518.303 522.13C509.902 522.974 498.202 521.516 486.885 520.096C469.431 517.948 451.363 515.685 445.878 521.784C444.19 523.664 443.768 526.273 444.574 529.802C447.451 542.039 447.22 544.993 446.914 549.442L446.875 549.749C445.609 568.546 443.998 584.235 442.732 596.856C441.581 608.019 440.776 616.075 440.814 620.333C441.083 641.239 441.044 662.99 440.699 685.009C440.622 690.609 440.469 696.325 440.2 702.962C439.625 718.843 438.82 729.315 438.129 738.522C437.285 749.455 436.556 758.93 436.48 774.121C436.441 777.496 436.48 780.949 436.518 784.593C443.346 783.327 450.136 782.713 456.772 782.713Z" fill="black"/>
<path d="M504.915 644.463C504.455 644.463 504.033 644.079 504.033 643.619L502.421 584.582C502.421 584.275 502.575 584.006 502.805 583.853L510.477 578.559C510.861 578.29 511.436 578.367 511.705 578.789C511.973 579.173 511.896 579.748 511.475 580.017L504.186 585.042L505.759 643.619C505.797 644.041 505.414 644.463 504.915 644.463Z" fill="black"/>
<path d="M440.009 468.543C429.728 456.958 419.447 445.373 409.167 433.826C404.372 449.055 390.37 486.15 396.546 530.265C401.264 564.022 437.707 585.351 447.527 596.283C449.944 593.56 451.977 590.376 453.665 587C450.788 581.822 446.492 574.073 441.236 564.636C431.147 546.606 429.153 543.154 428.309 541.543C422.478 530.457 420.828 509.934 440.009 468.543Z" fill="black"/>
<path d="M439.779 542.001C446.914 546.912 452.131 541.925 482.359 536.784C507.14 532.565 517.574 533.562 524.901 524.432C528.929 519.369 530.195 513.576 530.617 509.433C527.97 496.813 525.361 484.077 522.791 471.188C519.262 453.465 515.963 435.934 512.779 418.595C495.171 417.061 480.211 417.751 468.856 418.94C454.049 420.475 442.848 423.122 438.283 424.273C427.081 427.073 417.453 430.487 409.167 433.824C417.568 446.023 426.007 458.26 434.408 470.459C431.723 478.975 428.577 492.631 429.651 509.395C430.572 523.665 431.378 536.209 439.779 542.001Z" fill="black"/>
<path d="M575.038 415.719C573.849 420.053 571.624 426.344 567.328 433.058C563.338 439.234 554.899 452.43 544.618 452.737C534.031 453.043 526.282 430.526 512.817 418.596C511.091 420.207 501.079 435.666 503.956 454.578C507.293 476.443 532.841 489.448 550.449 486.532C572.43 482.888 592.3 452.698 585.089 415.066L575.038 415.719Z" fill="black"/>
<path d="M573.465 400.565L578.797 382.766C579.181 381.538 580.37 380.732 581.636 380.886C583.094 381.039 584.129 382.344 583.976 383.801L583.209 391.09L590.305 396.767C592.492 398.532 593.336 401.447 592.454 404.094L590.075 411.114C588.886 414.643 585.664 417.06 581.981 417.252L579.488 417.367C575.652 417.559 572.122 415.295 570.703 411.728L569.015 407.508C567.979 404.861 569.36 401.908 572.046 400.987L573.465 400.565Z" fill="white"/>
<path d="M579.104 418.287C575.076 418.287 571.432 415.832 569.936 412.073L568.248 407.853C567.634 406.357 567.711 404.708 568.363 403.25C569.054 401.792 570.281 400.68 571.816 400.181L572.736 399.874L577.953 382.497C578.452 380.847 580.063 379.811 581.751 380.003C583.669 380.233 585.088 381.96 584.858 383.878L584.129 390.706L590.842 396.115C593.297 398.071 594.295 401.408 593.259 404.401L590.881 411.421C589.577 415.295 586.086 417.942 581.981 418.134L579.488 418.249C579.411 418.287 579.258 418.287 579.104 418.287ZM581.367 381.729C580.6 381.729 579.871 382.228 579.641 382.995L574.309 400.795C574.232 401.063 574.002 401.293 573.734 401.37L572.353 401.83C571.278 402.176 570.435 402.943 569.936 403.979C569.476 405.014 569.437 406.127 569.859 407.201L571.547 411.421C572.813 414.643 575.997 416.676 579.488 416.523L581.981 416.407C585.357 416.254 588.196 414.067 589.27 410.884L591.648 403.864C592.415 401.562 591.686 399.03 589.768 397.496L582.672 391.818C582.441 391.627 582.326 391.32 582.365 391.051L583.132 383.763C583.247 382.804 582.518 381.921 581.559 381.806C581.482 381.729 581.444 381.729 581.367 381.729Z" fill="black"/>
<path d="M573.465 400.566L579.641 401.334C579.641 401.334 580.562 406.359 576.687 406.244L573.465 400.566Z" fill="white"/>
<path d="M576.764 407.164C576.726 407.164 576.687 407.164 576.649 407.164C576.15 407.164 575.767 406.742 575.805 406.282C575.805 405.821 576.227 405.438 576.687 405.438C576.726 405.438 576.764 405.438 576.802 405.438C577.455 405.438 577.915 405.246 578.26 404.862C578.836 404.172 578.912 402.983 578.874 402.177L573.388 401.487C572.89 401.41 572.583 400.988 572.621 400.489C572.698 399.99 573.12 399.684 573.619 399.722L579.795 400.489C580.178 400.528 580.485 400.834 580.562 401.218C580.6 401.525 581.06 404.325 579.641 405.975C579.104 406.512 578.222 407.164 576.764 407.164Z" fill="black"/>
<path d="M583.631 402.37C583.592 402.37 583.515 402.37 583.477 402.37C583.017 402.294 582.672 401.833 582.748 401.373L584.244 392.55C584.321 392.09 584.781 391.745 585.242 391.821C585.702 391.898 586.047 392.358 585.971 392.819L584.474 401.642C584.436 402.064 584.053 402.37 583.631 402.37Z" fill="black"/>
<path d="M588.042 404.478C588.004 404.478 587.927 404.478 587.889 404.478C587.428 404.401 587.083 403.94 587.198 403.442L588.464 396.422C588.541 395.961 589.001 395.616 589.5 395.731C589.96 395.808 590.305 396.268 590.19 396.767L588.924 403.787C588.848 404.171 588.464 404.478 588.042 404.478Z" fill="black"/>
<path d="M524.517 475.715C524.134 475.715 523.75 475.447 523.673 475.025L516.653 444.068C516.538 443.608 516.845 443.109 517.306 443.032C517.766 442.917 518.265 443.224 518.341 443.684L525.361 474.641C525.476 475.102 525.169 475.6 524.709 475.677C524.671 475.715 524.594 475.715 524.517 475.715Z" fill="black"/>
<path d="M441.313 601.653C440.968 601.653 440.622 601.461 440.507 601.116C440.316 600.656 440.546 600.157 441.006 599.965C461.913 591.487 458.844 544.572 458.805 544.074C458.767 543.575 459.151 543.153 459.611 543.153C460.071 543.115 460.532 543.498 460.532 543.959C460.685 545.953 463.716 592.638 441.62 601.615C441.543 601.653 441.428 601.653 441.313 601.653Z" fill="black"/>
<path d="M487.269 417.676C480.939 416.64 476.375 411.001 476.72 404.556L477.257 394.582C483.279 394.122 488.305 391.245 488.266 389.327C488.266 388.406 486.041 379.353 484.66 375.594C485.811 374.635 487.231 372.026 484.737 370.415C482.205 368.804 476.566 358.6 476.566 358.6C469.585 350.506 467.59 361.899 462.373 362.858C458.767 363.51 456.811 365.697 458.192 370.415C459.534 375.134 456.964 372.755 454.317 371.413C451.67 370.07 449.867 371.106 451.325 375.402C452.783 379.699 458.076 382.269 458.076 382.269L460.57 387.217L455.276 411.461C454.279 416.064 450.98 419.785 446.568 421.358L439.28 423.967L477.64 444.029L496.169 419.095L487.269 417.676Z" fill="white"/>
<path d="M477.602 444.949C477.449 444.949 477.334 444.911 477.18 444.834L438.82 424.771C438.513 424.618 438.321 424.273 438.359 423.927C438.398 423.582 438.628 423.275 438.935 423.16L446.223 420.552C450.366 419.056 453.435 415.603 454.394 411.268L459.611 387.331L457.386 382.92C456.235 382.306 451.824 379.736 450.443 375.708C449.599 373.215 449.714 371.488 450.75 370.568C451.248 370.107 452.476 369.532 454.663 370.644C455.161 370.913 455.66 371.181 456.12 371.45C456.581 371.719 457.233 372.102 457.655 372.256C457.616 371.987 457.54 371.488 457.309 370.683C456.581 368.228 456.696 366.195 457.616 364.699C458.46 363.318 459.995 362.397 462.181 362.013C463.754 361.745 465.097 360.134 466.439 358.599C468.05 356.758 469.7 354.84 471.963 354.84C473.613 354.84 475.339 355.876 477.18 358.024C477.219 358.062 477.257 358.101 477.295 358.177C479.52 362.205 483.471 368.573 485.159 369.647C486.579 370.529 486.924 371.68 486.962 372.486C487.039 373.752 486.387 374.979 485.658 375.823C487.039 379.851 489.11 388.214 489.11 389.326C489.149 391.896 483.855 394.735 478.062 395.387L477.564 404.594C477.257 410.578 481.477 415.833 487.384 416.792L496.245 418.25C496.552 418.288 496.821 418.519 496.936 418.787C497.051 419.056 497.013 419.401 496.821 419.631L478.293 444.565C478.139 444.834 477.871 444.949 477.602 444.949ZM441.466 424.158L477.372 442.954L494.596 419.784L487.154 418.557C480.364 417.444 475.492 411.422 475.838 404.517L476.375 394.543C476.413 394.121 476.758 393.738 477.18 393.699C483.318 393.2 487.384 390.362 487.384 389.326C487.346 388.444 485.236 379.698 483.855 375.9C483.74 375.555 483.817 375.133 484.123 374.902C484.699 374.404 485.313 373.445 485.274 372.601C485.236 372.025 484.929 371.565 484.277 371.143C481.707 369.494 476.643 360.479 475.876 359.098C474.418 357.448 473.152 356.566 472.04 356.566C470.544 356.566 469.24 358.101 467.82 359.712C466.286 361.476 464.751 363.279 462.565 363.701C460.915 364.008 459.764 364.622 459.189 365.581C458.537 366.617 458.499 368.189 459.074 370.146C459.573 371.872 459.726 373.138 458.921 373.79C458 374.48 456.811 373.828 455.315 372.946C454.893 372.678 454.432 372.409 453.934 372.179C452.821 371.642 452.169 371.642 451.939 371.872C451.632 372.14 451.479 373.176 452.131 375.094C453.435 378.969 458.383 381.424 458.422 381.424C458.575 381.5 458.729 381.654 458.805 381.807L461.299 386.756C461.376 386.948 461.414 387.14 461.376 387.331L456.082 411.575C455.008 416.485 451.555 420.437 446.799 422.124L441.466 424.158Z" fill="black"/>
<path d="M475.032 395.733C469.393 395.733 466.938 390.555 466.9 390.516C466.708 390.094 466.9 389.557 467.322 389.366C467.782 389.174 468.281 389.366 468.472 389.787C468.587 390.018 471.081 395.158 476.988 393.777C477.449 393.662 477.947 393.969 478.063 394.429C478.178 394.889 477.871 395.388 477.41 395.503C476.566 395.657 475.761 395.733 475.032 395.733Z" fill="black"/>
<path d="M838.998 468.043C842.872 554.7 889.825 593.866 936.817 622.943L934.592 635.257C886.757 661.764 838.384 721.415 839.496 800.093L1071.5 797.139C1069.97 737.066 1015.53 661.304 975.983 636.369L974.871 622.943C1037.51 586.04 1064.37 535.673 1071.12 468.235L838.998 468.043Z" fill="white"/>
<path d="M839.496 800.974C838.998 800.974 838.614 800.591 838.614 800.092C838.115 763.88 848.242 728.434 867.921 697.631C884.723 671.354 908.085 648.99 933.787 634.681L935.858 623.365C887.294 593.213 841.913 553.433 838.115 468.081C838.115 467.851 838.192 467.62 838.345 467.429C838.499 467.237 838.729 467.16 838.998 467.16L1071.12 467.39C1071.35 467.39 1071.62 467.505 1071.77 467.697C1071.92 467.889 1072 468.119 1072 468.388C1068.47 503.679 1059.53 532.834 1044.73 557.538C1029 583.776 1006.44 605.335 975.792 623.48L976.827 635.909C997.082 648.798 1020.17 673.886 1038.74 703.155C1059.72 736.26 1071.69 769.672 1072.38 797.177C1072.38 797.407 1072.31 797.637 1072.15 797.79C1072 797.944 1071.77 798.059 1071.54 798.059L839.496 800.974ZM839.918 468.925C843.984 553.165 889.097 592.369 937.277 622.214C937.584 622.406 937.738 622.751 937.661 623.134L935.436 635.448C935.398 635.717 935.244 635.947 935.014 636.062C890.784 660.575 839.573 717.962 840.379 799.21L1070.62 796.294C1069.7 769.25 1057.88 736.567 1037.28 704.075C1019.02 675.305 995.394 649.642 975.561 637.136C975.331 636.983 975.178 636.753 975.139 636.484L974.027 623.058C973.989 622.713 974.18 622.406 974.449 622.214C1033.26 587.536 1062.83 540.314 1070.16 469.155L839.918 468.925Z" fill="black"/>
<path d="M1072.04 468.273H838.576C831.057 468.273 824.996 462.174 824.996 454.693V443.3C824.996 435.782 831.095 429.721 838.576 429.721H1072.04C1079.56 429.721 1085.62 435.82 1085.62 443.3V454.693C1085.62 462.174 1079.52 468.273 1072.04 468.273Z" fill="white"/>
<path d="M1072.04 469.118H838.576C830.597 469.118 824.114 462.635 824.114 454.656V443.263C824.114 435.284 830.597 428.801 838.576 428.801H1072.04C1080.02 428.801 1086.5 435.284 1086.5 443.263V454.656C1086.5 462.635 1080.02 469.118 1072.04 469.118ZM838.576 430.527C831.556 430.527 825.84 436.243 825.84 443.263V454.656C825.84 461.676 831.556 467.392 838.576 467.392H1072.04C1079.06 467.392 1084.77 461.676 1084.77 454.656V443.263C1084.77 436.243 1079.06 430.527 1072.04 430.527H838.576Z" fill="black"/>
<path d="M958.376 621.333C1001.3 598.317 1025.39 574.188 1034.14 544.65H869.686C887.831 578.216 940.001 613.009 952.66 621.103C954.425 622.177 956.573 622.292 958.376 621.333Z" fill="black"/>
<path d="M1057.81 758.318L853.191 757.205C848.243 771.475 847.053 785.017 846.593 798.596L1065.67 806.537C1065.67 794.568 1061.22 770.708 1057.81 758.318Z" fill="black"/>
<path d="M1072.46 835.73H837.003C831.594 835.73 827.221 831.357 827.221 825.948V806.96C827.221 801.551 831.594 797.178 837.003 797.178H1072.46C1077.87 797.178 1082.24 801.551 1082.24 806.96V825.948C1082.28 831.357 1077.87 835.73 1072.46 835.73Z" fill="white"/>
<path d="M1072.46 836.612H837.003C831.134 836.612 826.339 831.817 826.339 825.948V806.959C826.339 801.09 831.134 796.295 837.003 796.295H1072.46C1078.33 796.295 1083.13 801.09 1083.13 806.959V825.948C1083.16 831.817 1078.37 836.612 1072.46 836.612ZM837.003 798.021C832.093 798.021 828.103 802.011 828.103 806.921V825.909C828.103 830.819 832.093 834.809 837.003 834.809H1072.46C1077.37 834.809 1081.36 830.819 1081.36 825.909V806.921C1081.36 802.011 1077.37 798.021 1072.46 798.021H837.003Z" fill="black"/>
<path d="M972.646 663.3C972.646 673.888 965.319 682.519 956.228 682.519C947.175 682.519 939.81 673.926 939.81 663.3C939.81 652.674 955 638.02 956.42 638.135C956.42 638.135 972.646 652.713 972.646 663.3Z" fill="black"/>
<path d="M1048.33 746.235C1047.99 746.235 1047.64 746.043 1047.53 745.698C1031.76 706.915 1011.39 677.953 985.152 657.123C984.768 656.816 984.692 656.279 984.998 655.896C985.305 655.512 985.842 655.435 986.226 655.742C1012.69 676.764 1033.29 705.956 1049.14 745.046C1049.33 745.506 1049.1 746.005 1048.64 746.196C1048.56 746.196 1048.45 746.235 1048.33 746.235Z" fill="white"/>
<path d="M867.116 539.28C866.771 539.28 866.464 539.089 866.31 538.743C857.909 519.371 852.232 498.81 849.47 477.52C849.393 477.021 849.739 476.599 850.237 476.522C850.698 476.446 851.158 476.791 851.235 477.29C853.997 498.388 859.597 518.796 867.96 538.014C868.152 538.475 867.96 538.973 867.5 539.165C867.346 539.242 867.231 539.28 867.116 539.28Z" fill="white"/>
<path d="M843.141 845.739L906.321 844.857C910.77 845.01 914.415 841.328 914.146 836.839L907.356 710.249C907.126 706.068 903.635 702.807 899.454 702.884L810.304 704.495L843.141 845.739Z" fill="white"/>
<path d="M843.141 846.622C842.719 846.622 842.373 846.354 842.297 845.932L809.498 704.726C809.422 704.458 809.498 704.189 809.652 703.997C809.805 703.806 810.074 703.652 810.342 703.652L899.492 702.041C899.531 702.041 899.607 702.041 899.646 702.041C904.249 702.041 908.047 705.609 908.277 710.25L915.067 836.84C915.182 839.219 914.3 841.52 912.65 843.246C911.001 844.934 908.699 845.893 906.321 845.778L843.141 846.622ZM811.455 705.417L843.869 844.858L906.359 844.014C908.315 844.052 910.08 843.362 911.423 842.019C912.765 840.676 913.456 838.873 913.341 836.955L906.551 710.365C906.359 706.683 903.328 703.844 899.646 703.844C899.607 703.844 899.569 703.844 899.531 703.844L811.455 705.417Z" fill="black"/>
<path d="M880.811 847.773H743.019C739.068 847.773 736.153 844.551 736.575 840.6L749.809 708.14C750.193 704.189 753.722 700.967 757.712 700.967H895.503C899.454 700.967 902.369 704.189 901.948 708.14L888.713 840.6C888.291 844.589 884.762 847.773 880.811 847.773Z" fill="white"/>
<path d="M900.106 726.398H747.968L749.809 708.138C750.193 704.187 753.722 700.965 757.712 700.965H895.503C899.454 700.965 902.37 704.187 901.948 708.138L900.106 726.398Z" fill="white"/>
<path d="M900.106 727.281H747.968C747.738 727.281 747.469 727.166 747.316 726.974C747.162 726.782 747.086 726.552 747.086 726.284L748.927 708.024C749.349 703.651 753.3 700.045 757.673 700.045H895.465C897.613 700.045 899.569 700.889 900.95 702.423C902.331 703.958 902.983 706.029 902.792 708.177L900.95 726.437C900.912 726.936 900.528 727.281 900.106 727.281ZM748.927 725.516H899.301L901.027 708.062C901.18 706.374 900.72 704.84 899.646 703.651C898.61 702.5 897.114 701.848 895.465 701.848H757.673C754.144 701.848 750.998 704.725 750.653 708.216L748.927 725.516Z" fill="black"/>
<path d="M880.811 848.655H743.019C740.871 848.655 738.915 847.811 737.534 846.276C736.153 844.742 735.501 842.671 735.693 840.522L748.927 708.063C749.349 703.69 753.3 700.084 757.673 700.084H895.465C897.613 700.084 899.569 700.928 900.95 702.462C902.331 703.997 902.983 706.068 902.791 708.216L889.557 840.676C889.135 845.087 885.184 848.655 880.811 848.655ZM757.673 701.849C754.144 701.849 750.998 704.726 750.653 708.216L737.419 840.676C737.265 842.364 737.726 843.898 738.8 845.087C739.835 846.238 741.332 846.89 742.981 846.89H880.772C884.302 846.89 887.447 844.013 887.792 840.522L901.027 708.063C901.18 706.375 900.72 704.841 899.646 703.652C898.61 702.501 897.114 701.849 895.465 701.849H757.673Z" fill="black"/>
<path d="M777.045 799.056H760.205C758.019 799.056 756.446 797.291 756.676 795.143L758.364 778.149C758.594 775.963 760.512 774.236 762.699 774.236H779.539C781.725 774.236 783.298 776.001 783.068 778.149L781.38 795.143C781.15 797.291 779.194 799.056 777.045 799.056Z" fill="black"/>
<path d="M809.153 799.056H792.313C790.126 799.056 788.554 797.291 788.784 795.143L790.472 778.149C790.702 775.963 792.62 774.236 794.806 774.236H811.647C813.833 774.236 815.406 776.001 815.176 778.149L813.488 795.143C813.258 797.291 811.302 799.056 809.153 799.056Z" fill="black"/>
<path d="M841.223 799.056H824.382C822.196 799.056 820.623 797.291 820.853 795.143L822.541 778.149C822.771 775.963 824.689 774.236 826.876 774.236H843.716C845.903 774.236 847.475 776.001 847.245 778.149L845.557 795.143C845.327 797.291 843.409 799.056 841.223 799.056Z" fill="black"/>
<path d="M873.331 799.056H856.49C854.304 799.056 852.731 797.291 852.961 795.143L854.649 778.149C854.879 775.963 856.797 774.236 858.984 774.236H875.824C878.011 774.236 879.583 776.001 879.353 778.149L877.665 795.143C877.435 797.291 875.517 799.056 873.331 799.056Z" fill="black"/>
<path d="M773.823 831.239H756.983C754.796 831.239 753.223 829.475 753.454 827.326L755.141 810.333C755.372 808.146 757.29 806.42 759.476 806.42H776.316C778.503 806.42 780.076 808.185 779.846 810.333L778.158 827.326C777.928 829.475 776.01 831.239 773.823 831.239Z" fill="black"/>
<path d="M805.931 831.239H789.091C786.904 831.239 785.331 829.475 785.561 827.326L787.249 810.333C787.479 808.146 789.397 806.42 791.584 806.42H808.424C810.611 806.42 812.184 808.185 811.954 810.333L810.266 827.326C810.036 829.475 808.079 831.239 805.931 831.239Z" fill="black"/>
<path d="M838.039 831.239H821.199C819.012 831.239 817.439 829.475 817.669 827.326L819.357 810.333C819.587 808.146 821.505 806.42 823.692 806.42H840.532C842.719 806.42 844.292 808.185 844.061 810.333L842.374 827.326C842.143 829.475 840.187 831.239 838.039 831.239Z" fill="black"/>
<path d="M780.268 766.794H763.427C761.241 766.794 759.668 765.029 759.898 762.881L761.586 745.887C761.816 743.701 763.734 741.975 765.921 741.975H782.761C784.948 741.975 786.52 743.739 786.29 745.887L784.602 762.881C784.372 765.029 782.416 766.794 780.268 766.794Z" fill="black"/>
<path d="M812.376 766.794H795.535C793.349 766.794 791.776 765.029 792.006 762.881L793.694 745.887C793.924 743.701 795.842 741.975 798.029 741.975H814.869C817.056 741.975 818.628 743.739 818.398 745.887L816.71 762.881C816.48 765.029 814.524 766.794 812.376 766.794Z" fill="black"/>
<path d="M844.445 766.794H827.605C825.418 766.794 823.845 765.029 824.076 762.881L825.763 745.887C825.994 743.701 827.912 741.975 830.098 741.975H846.939C849.125 741.975 850.698 743.739 850.468 745.887L848.78 762.881C848.55 765.029 846.632 766.794 844.445 766.794Z" fill="black"/>
<path d="M876.553 766.794H859.712C857.526 766.794 855.953 765.029 856.183 762.881L857.871 745.887C858.101 743.701 860.019 741.975 862.206 741.975H879.046C881.233 741.975 882.806 743.739 882.575 745.887L880.888 762.881C880.657 765.029 878.739 766.794 876.553 766.794Z" fill="black"/>
<path d="M769.987 715.541C766.419 715.541 763.236 714.122 760.934 711.59C758.594 709.02 757.52 705.567 757.865 701.923C758.594 694.519 765.115 688.535 772.442 688.535C772.711 688.535 773.017 688.535 773.286 688.574C773.785 688.612 774.13 689.034 774.092 689.494C774.053 689.993 773.631 690.338 773.171 690.3C772.941 690.3 772.672 690.261 772.442 690.261C765.997 690.261 760.243 695.555 759.63 702.038C759.323 705.184 760.243 708.137 762.238 710.362C764.195 712.511 766.957 713.7 769.987 713.738C770.486 713.738 770.869 714.122 770.869 714.62C770.831 715.157 770.447 715.541 769.987 715.541Z" fill="black"/>
<path d="M788.86 715.578C785.293 715.578 782.109 714.159 779.807 711.627C777.467 709.057 776.393 705.604 776.738 701.96C777.467 694.557 783.988 688.572 791.315 688.572C791.584 688.572 791.891 688.572 792.159 688.611C792.658 688.649 793.003 689.071 792.965 689.531C792.926 690.03 792.505 690.375 792.044 690.337C791.814 690.337 791.546 690.298 791.315 690.298C784.871 690.298 779.117 695.592 778.503 702.075C778.196 705.221 779.117 708.175 781.111 710.399C783.068 712.548 785.83 713.737 788.86 713.775C789.359 713.775 789.743 714.159 789.743 714.657C789.743 715.195 789.359 715.578 788.86 715.578Z" fill="black"/>
<path d="M807.772 715.656C804.205 715.656 801.021 714.237 798.719 711.705C796.379 709.135 795.305 705.683 795.65 702.038C796.379 694.635 802.9 688.65 810.227 688.65C810.496 688.65 810.803 688.65 811.071 688.689C811.57 688.727 811.915 689.149 811.877 689.609C811.838 690.108 811.416 690.453 810.956 690.415C810.726 690.415 810.457 690.377 810.227 690.377C803.783 690.377 798.029 695.67 797.415 702.153C797.108 705.299 798.029 708.253 800.023 710.478C801.98 712.626 804.742 713.815 807.772 713.853C808.271 713.853 808.654 714.237 808.654 714.736C808.654 715.234 808.233 715.656 807.772 715.656Z" fill="black"/>
<path d="M826.646 715.693C823.078 715.693 819.894 714.274 817.593 711.742C815.253 709.172 814.178 705.72 814.524 702.075C815.253 694.672 821.774 688.688 829.101 688.688C829.369 688.688 829.676 688.687 829.945 688.726C830.443 688.764 830.789 689.186 830.75 689.647C830.712 690.145 830.29 690.49 829.83 690.452C829.599 690.452 829.369 690.414 829.101 690.414C822.656 690.414 816.902 695.707 816.288 702.19C815.981 705.336 816.902 708.29 818.897 710.515C820.853 712.663 823.615 713.852 826.646 713.89C827.144 713.89 827.528 714.274 827.528 714.773C827.528 715.31 827.144 715.693 826.646 715.693Z" fill="black"/>
<path d="M845.558 715.732C841.99 715.732 838.806 714.313 836.504 711.781C834.164 709.211 833.09 705.759 833.436 702.114C834.164 694.711 840.686 688.727 848.013 688.727C848.281 688.727 848.588 688.727 848.857 688.765C849.355 688.803 849.701 689.225 849.662 689.686C849.624 690.184 849.24 690.53 848.741 690.491C848.511 690.491 848.243 690.453 848.013 690.453C841.568 690.453 835.814 695.747 835.2 702.23C834.893 705.375 835.814 708.329 837.809 710.554C839.765 712.702 842.527 713.891 845.558 713.93C846.056 713.93 846.44 714.313 846.44 714.812C846.44 715.349 846.056 715.732 845.558 715.732Z" fill="black"/>
<path d="M864.469 715.809C860.902 715.809 857.718 714.389 855.416 711.857C853.076 709.287 852.002 705.835 852.347 702.191C853.076 694.787 859.597 688.803 866.924 688.803C867.231 688.803 867.5 688.803 867.768 688.841C868.267 688.879 868.612 689.301 868.574 689.762C868.535 690.26 868.113 690.606 867.653 690.567C867.423 690.567 867.154 690.529 866.924 690.529C860.48 690.529 854.726 695.823 854.112 702.306C853.805 705.451 854.726 708.405 856.72 710.63C858.677 712.778 861.439 713.967 864.469 714.006C864.968 714.006 865.351 714.389 865.351 714.888C865.351 715.387 864.929 715.809 864.469 715.809Z" fill="black"/>
<path d="M882.268 715.848C878.701 715.848 875.517 714.428 873.215 711.897C870.875 709.326 869.801 705.874 870.147 702.23C870.875 694.826 877.397 688.842 884.724 688.842H884.762C889.442 688.842 893.508 691.297 895.58 695.325C895.81 695.747 895.618 696.284 895.196 696.514C894.774 696.744 894.237 696.552 894.007 696.13C892.242 692.678 888.79 690.606 884.762 690.606H884.724C878.279 690.606 872.525 695.9 871.911 702.383C871.604 705.529 872.525 708.482 874.52 710.707C876.476 712.856 879.238 714.045 882.268 714.083C882.767 714.083 883.151 714.467 883.151 714.965C883.151 715.464 882.767 715.848 882.268 715.848Z" fill="black"/>
</svg>
