<svg width="1500" height="998" viewBox="0 0 1500 998" fill="none" xmlns="http://www.w3.org/2000/svg">
<rect width="1500" height="998" fill="#F5F5FA"/>
<path d="M1184.65 596.391C1162.26 595.79 1142.74 583.703 1131.74 565.809C1137.14 555.894 1140.22 544.534 1140.22 532.471C1140.22 526.919 1139.55 521.525 1138.32 516.343C1150.47 527.787 1166.7 534.947 1184.58 535.402C1189.55 544.486 1192.38 554.898 1192.38 565.96C1192.38 577.022 1189.58 587.338 1184.65 596.391ZM1071.85 401.574C1094.24 402.175 1113.76 414.262 1124.76 432.156C1119.36 442.071 1116.28 453.424 1116.28 465.487C1116.28 471.046 1116.95 476.44 1118.18 481.622C1106.03 470.178 1089.8 463.018 1071.93 462.569C1066.96 453.479 1064.13 443.066 1064.13 432.005C1064.13 420.997 1066.93 410.633 1071.86 401.58L1071.85 401.574ZM1075.84 529.201C1086.42 514.219 1103.25 503.964 1122.53 502.253C1120.4 505.269 1118.05 508.121 1115.45 510.724C1105.1 521.045 1091.24 527.835 1075.84 529.201ZM1128.25 505.615C1132.06 513.794 1134.25 522.872 1134.25 532.471C1134.25 542.071 1132.06 551.148 1128.25 559.334C1124.44 551.154 1122.25 542.077 1122.25 532.471C1122.25 522.866 1124.44 513.794 1128.25 505.615ZM1122.53 495.712C1103.25 494.001 1086.43 483.74 1075.84 468.764C1095.12 470.475 1111.94 480.736 1122.53 495.712ZM1071.92 535.402C1089.8 534.947 1106.03 527.787 1118.18 516.343C1116.95 521.525 1116.28 526.925 1116.28 532.477C1116.28 544.54 1119.36 555.894 1124.76 565.809C1113.76 583.703 1094.24 595.79 1071.86 596.391C1066.93 587.331 1064.13 576.967 1064.13 565.96C1064.13 554.953 1066.96 544.486 1071.93 535.402H1071.92ZM1133.97 502.247C1153.25 503.958 1170.07 514.219 1180.66 529.195C1161.38 527.483 1144.55 517.223 1133.97 502.247ZM1134.25 465.487C1134.25 475.087 1132.06 484.164 1128.25 492.344C1124.44 484.164 1122.25 475.087 1122.25 465.487C1122.25 455.888 1124.44 446.81 1128.25 438.631C1132.06 446.81 1134.25 455.894 1134.25 465.493V465.487ZM1068.52 468.552C1077.42 482.999 1091.44 493.976 1108.04 498.976C1091.44 503.976 1077.42 514.959 1068.52 529.407C1046.14 528.849 1026.63 516.816 1015.59 498.982C1026.62 481.143 1046.14 469.116 1068.52 468.558V468.552ZM1148.47 498.976C1165.06 493.976 1179.08 482.999 1187.99 468.552C1210.36 469.11 1229.88 481.143 1240.92 498.976C1229.88 516.81 1210.37 528.843 1188 529.401C1179.09 514.953 1165.07 503.976 1148.47 498.97L1148.47 498.976ZM1133.97 495.712C1144.54 480.73 1161.37 470.475 1180.66 468.764C1170.07 483.746 1153.24 494.001 1133.97 495.712ZM1184.57 462.563C1166.69 463.018 1150.46 470.172 1138.31 481.622C1139.54 476.44 1140.22 471.04 1140.22 465.487C1140.22 453.424 1137.14 442.071 1131.73 432.156C1142.74 414.262 1162.26 402.175 1184.65 401.58C1189.58 410.633 1192.37 421.003 1192.37 432.005C1192.37 443.066 1189.55 453.479 1184.57 462.569V462.563ZM1065.28 535.263C1060.72 544.534 1058.15 554.953 1058.15 565.96C1058.15 576.798 1060.63 587.058 1065.05 596.221C1032.07 593.63 1006 566.063 1006 532.477C1006 522.629 1008.3 513.327 1012.3 504.984C1024.09 522.119 1043.31 533.758 1065.28 535.263H1065.28ZM1128.24 571.537C1139.91 588.782 1159.08 600.553 1181.04 602.21C1169.46 618.951 1150.12 629.965 1128.25 629.965C1106.38 629.965 1087.04 618.958 1075.46 602.21C1097.41 600.553 1116.58 588.776 1128.25 571.537H1128.24ZM1244.19 492.987C1232.41 475.857 1213.19 464.213 1191.22 462.708C1195.78 453.436 1198.34 443.012 1198.34 432.005C1198.34 420.997 1195.86 410.912 1191.44 401.75C1224.43 404.347 1250.5 431.914 1250.5 465.493C1250.5 475.342 1248.2 484.644 1244.2 492.987H1244.19ZM1065.06 401.744C1060.64 410.906 1058.16 421.167 1058.16 431.998C1058.16 442.83 1060.73 453.43 1065.28 462.702C1043.31 464.207 1024.09 475.845 1012.3 492.981C1008.31 484.638 1006 475.342 1006 465.487C1006 447.848 1013.19 431.847 1024.8 420.257C1035.29 409.79 1049.4 402.976 1065.06 401.744ZM1128.25 368C1150.13 368 1169.46 379.007 1181.05 395.755C1159.09 397.411 1139.92 409.189 1128.25 426.434C1116.58 409.189 1097.41 397.417 1075.46 395.755C1087.04 379.007 1106.38 368 1128.25 368ZM1250.5 532.477C1250.5 566.057 1224.44 593.63 1191.44 596.227C1195.86 587.064 1198.34 576.804 1198.34 565.966C1198.34 554.953 1195.78 544.534 1191.22 535.263C1213.19 533.758 1232.41 522.113 1244.19 504.984C1248.19 513.327 1250.49 522.629 1250.49 532.477H1250.5Z" fill="#619F83"/>
<path d="M364 456.025H290V494.425H348V512.825H290V569.625H268.6V437.625H364V456.025ZM421.319 571.625C411.319 571.625 402.519 569.558 394.919 565.425C387.319 561.292 381.385 555.358 377.119 547.625C372.985 539.758 370.919 530.425 370.919 519.625C370.919 508.825 372.985 499.558 377.119 491.825C381.385 483.958 387.252 477.958 394.719 473.825C402.185 469.692 410.652 467.625 420.119 467.625C429.852 467.625 438.119 469.625 444.919 473.625C451.719 477.625 456.919 483.092 460.519 490.025C464.119 496.958 465.919 504.825 465.919 513.625C465.919 516.025 465.852 518.292 465.719 520.425C465.585 522.558 465.385 524.425 465.119 526.025H384.719V509.625H455.719L445.119 512.825C445.119 503.758 442.852 496.825 438.319 492.025C433.785 487.092 427.585 484.625 419.719 484.625C413.985 484.625 408.985 485.958 404.719 488.625C400.452 491.292 397.185 495.292 394.919 500.625C392.652 505.825 391.519 512.225 391.519 519.825C391.519 527.292 392.719 533.625 395.119 538.825C397.519 544.025 400.919 547.958 405.319 550.625C409.719 553.292 414.919 554.625 420.919 554.625C427.585 554.625 432.985 553.358 437.119 550.825C441.252 548.292 444.519 544.758 446.919 540.225L463.919 548.225C461.519 553.025 458.252 557.225 454.119 560.825C450.119 564.292 445.319 566.958 439.719 568.825C434.119 570.692 427.985 571.625 421.319 571.625ZM492.944 569.625V469.625H511.144L513.144 487.625C515.81 481.092 519.744 476.158 524.944 472.825C530.277 469.358 536.81 467.625 544.544 467.625C546.544 467.625 548.544 467.825 550.544 468.225C552.544 468.492 554.21 468.958 555.544 469.625L552.544 488.425C551.077 487.892 549.41 487.492 547.544 487.225C545.81 486.825 543.41 486.625 540.344 486.625C536.21 486.625 532.144 487.758 528.144 490.025C524.144 492.158 520.81 495.425 518.144 499.825C515.61 504.225 514.344 509.825 514.344 516.625V569.625H492.944ZM599.878 440.225V539.625C599.878 544.558 601.145 548.158 603.678 550.425C606.345 552.692 609.878 553.825 614.278 553.825C617.878 553.825 621.011 553.292 623.678 552.225C626.345 551.025 628.811 549.425 631.078 547.425L635.878 563.025C632.811 565.692 629.011 567.825 624.478 569.425C620.078 570.892 615.145 571.625 609.678 571.625C603.945 571.625 598.678 570.692 593.878 568.825C589.078 566.958 585.345 563.958 582.678 559.825C580.011 555.558 578.611 550.025 578.478 543.225V446.225L599.878 440.225ZM634.278 469.625V486.425H559.278V469.625H634.278ZM666.244 452.825C661.577 452.825 657.977 451.692 655.444 449.425C653.044 447.025 651.844 443.692 651.844 439.425C651.844 435.158 653.044 431.892 655.444 429.625C657.977 427.358 661.577 426.225 666.244 426.225C670.777 426.225 674.244 427.358 676.644 429.625C679.177 431.892 680.444 435.158 680.444 439.425C680.444 443.692 679.177 447.025 676.644 449.425C674.244 451.692 670.777 452.825 666.244 452.825ZM676.844 469.625V569.625H655.444V469.625H676.844ZM731.127 424.625V541.625C731.127 546.558 731.993 549.958 733.727 551.825C735.46 553.692 738.327 554.625 742.327 554.625C744.727 554.625 746.727 554.492 748.327 554.225C750.06 553.825 752.193 553.158 754.727 552.225L752.327 568.225C750.06 569.292 747.46 570.092 744.527 570.625C741.593 571.292 738.66 571.625 735.727 571.625C726.793 571.625 720.193 569.358 715.927 564.825C711.793 560.158 709.727 553.025 709.727 543.425V424.625H731.127ZM885.231 569.625H862.631L850.031 535.025H794.631L782.031 569.625H760.031L809.831 437.625H835.431L885.231 569.625ZM800.631 517.625H844.031L822.431 456.025L800.631 517.625ZM930.039 437.625V569.625H908.639V437.625H930.039Z" fill="#09042D"/>
</svg>
