<svg width="1544" height="326" viewBox="0 0 1544 326" fill="none" xmlns="http://www.w3.org/2000/svg">
<path d="M257.4 89.9L270.4 90.1L305.6 54.9L307.3 40C279.3 15.1 242.5 0 202.3 0C129.4 0 67.9 49.6 49.6 116.8C53.4 114.1 61.6 116.1 61.6 116.1L131.9 104.6C131.9 104.6 135.5 98.6 137.3 99C153.4 81.4 176.5 70.3 202.2 70.3C223.1 70.3 242.3 77.6 257.4 89.9Z" fill="#91FF6A"/>
<path d="M354.9 116.9C346.7 86.8 329.9 60.2 307.2 40L257.3 89.8C277.3 105.9 290.1 130.6 290.1 158.2V167C314.3 167 334.1 186.7 334.1 211C334.1 235.2 314.4 254.9 290.1 254.9H202.2L193.4 263.7V316.5L202.2 325.3H290.1C353.1 325.3 404.4 274 404.4 211C404.3 172 384.7 137.6 354.9 116.9Z" fill="#91FF6A"/>
<path d="M114.3 325.2H202.1V254.9H114.3C107.8 254.9 101.7 253.5 96.2 251L83.5 254.9L48.3 290L45.2 301.9C64.5 316.5 88.4 325.2 114.3 325.2Z" fill="#91FF6A"/>
<path d="M114.3 96.6992C51.3 96.6992 0 147.999 0 210.999C0 248.099 17.8 281.099 45.3 301.999L96.3 250.999C81 244.099 70.4 228.799 70.4 210.999C70.4 186.799 90.1 166.999 114.3 166.999C132.1 166.999 147.4 177.599 154.3 192.899L205.3 141.899C184.4 114.499 151.4 96.6992 114.3 96.6992Z" fill="#91FF6A"/>
<path d="M563 321.622V185.01H610.264C616.415 185.01 622.08 185.981 627.584 188.085C632.925 190.189 637.781 192.941 641.827 196.664C645.874 200.387 649.111 204.757 651.539 209.937C653.967 215.116 655.1 220.782 655.1 226.932C655.1 233.083 653.967 238.587 651.539 243.766C649.111 248.946 646.036 253.316 641.827 257.039C637.781 260.762 633.087 263.675 627.584 265.618C622.08 267.56 616.415 268.693 610.264 268.693H584.528V321.622H563ZM610.75 248.136C614.311 248.136 617.548 247.489 620.3 246.356C623.051 245.223 625.479 243.442 627.422 241.5C629.364 239.396 630.821 237.13 631.792 234.702C632.763 232.112 633.249 229.684 633.249 227.094C633.249 224.343 632.763 221.753 631.792 219.325C630.821 216.735 629.364 214.469 627.422 212.527C625.479 210.584 623.213 208.966 620.3 207.671C617.548 206.376 614.311 205.728 610.75 205.728H584.366V248.298L610.75 248.136Z" fill="white"/>
<path d="M725.996 310.129H724.863C722.112 313.852 718.389 317.089 714.018 320.165C709.486 323.078 703.983 324.697 697.023 324.697C692.005 324.697 687.473 323.888 683.103 322.269C678.732 320.65 675.009 318.384 671.772 315.633C668.535 312.881 666.107 309.482 664.165 305.597C662.384 301.712 661.413 297.504 661.413 292.648C661.413 287.63 662.384 283.26 664.326 279.375C666.269 275.491 669.02 272.091 672.581 269.502C676.142 266.75 680.189 264.808 685.045 263.351C689.901 261.894 695.08 261.247 700.746 261.247C706.897 261.247 712.238 261.894 716.446 263.027C720.655 264.16 723.73 265.293 725.996 266.426V262.865C725.996 260.114 725.349 257.524 724.216 255.096C723.083 252.668 721.302 250.564 719.198 248.945C717.094 247.164 714.666 245.87 712.076 244.898C709.324 243.927 706.573 243.442 703.659 243.442C698.965 243.442 694.757 244.413 691.034 246.193C687.311 247.974 683.912 251.049 680.998 255.096L664.165 244.089C668.697 237.938 674.2 233.406 680.836 230.331C687.473 227.255 694.919 225.637 703.335 225.637C717.256 225.637 727.939 229.036 735.546 235.996C743.154 242.794 746.877 252.668 746.877 265.455V322.269H725.996V310.129ZM725.996 282.774C723.245 281.156 720.007 279.861 716.608 278.728C713.209 277.757 709.324 277.271 704.792 277.271C698.156 277.271 692.976 278.728 688.93 281.803C685.045 284.879 682.941 288.602 682.941 292.81C682.941 295.076 683.426 297.18 684.397 298.799C685.369 300.579 686.664 302.036 688.282 303.331C689.901 304.626 691.681 305.597 693.786 306.245C695.89 306.892 697.994 307.216 700.098 307.216C703.497 307.216 706.735 306.568 709.972 305.273C713.047 303.979 715.799 302.198 718.065 299.932C720.331 297.666 722.112 295.076 723.568 292.163C725.349 289.249 725.996 286.012 725.996 282.774Z" fill="white"/>
<path d="M785.724 243.765H786.857C789.447 238.423 793.17 234.377 798.349 231.301C803.529 228.388 809.194 226.931 815.507 226.931C817.611 226.931 819.068 226.931 820.039 227.093C821.01 227.255 821.981 227.417 822.953 227.74V249.106C821.496 248.621 820.201 248.297 818.906 247.973C817.611 247.811 815.83 247.65 813.726 247.65C805.795 247.65 799.32 250.078 794.303 254.933C789.285 259.789 787.019 266.264 787.019 274.357V323.078H765.815V229.521H785.886L785.724 243.765ZM851.44 246.84H835.092V228.226H851.44V199.576H872.645V228.226H895.791V246.84H872.645V289.572C872.645 292 872.968 294.104 873.454 296.047C873.939 297.989 874.749 299.608 875.72 300.903C877.824 303.331 880.576 304.626 883.975 304.626C886.079 304.626 887.536 304.464 888.831 304.14C889.964 303.816 891.259 303.331 892.392 302.683L898.866 321.459C896.115 322.43 893.363 323.24 890.449 323.887C887.536 324.535 884.299 324.697 880.576 324.697C876.044 324.697 872.159 324.049 868.76 322.592C865.361 321.136 862.285 319.193 859.857 316.765C854.354 311.262 851.602 303.654 851.602 293.942L851.44 246.84Z" fill="white"/>
<path d="M930.754 240.689H931.886C934.638 236.157 938.685 232.596 943.864 229.52C949.044 226.607 954.871 224.988 961.346 224.988C973.162 224.988 982.064 228.549 987.891 235.509C993.718 242.631 996.632 252.02 996.632 263.674V321.459H975.428V266.587C975.428 258.494 973.485 252.667 969.763 249.43C966.04 246.192 961.022 244.574 955.033 244.574C951.31 244.574 948.073 245.383 945.321 246.84C942.57 248.297 940.142 250.401 938.037 252.991C935.933 255.58 934.476 258.656 933.505 261.893C932.534 265.292 932.048 268.853 932.048 272.414V321.297H910.844V227.74H930.915L930.754 240.689Z" fill="white"/>
<path d="M1101.52 299.288C1097.63 306.572 1091.97 312.561 1084.69 317.416C1077.4 322.272 1068.5 324.7 1057.98 324.7C1051.02 324.7 1044.54 323.405 1038.55 320.977C1032.57 318.549 1027.55 314.989 1023.18 310.618C1018.81 306.086 1015.41 300.906 1013.14 294.917C1010.71 288.929 1009.58 282.292 1009.58 275.008C1009.58 268.21 1010.71 261.897 1012.98 255.908C1015.25 249.919 1018.48 244.578 1022.69 240.046C1026.74 235.514 1031.76 231.953 1037.58 229.201C1043.41 226.611 1049.89 225.154 1057.01 225.154C1064.13 225.154 1070.77 226.287 1076.43 228.715C1082.1 231.143 1086.95 234.542 1090.84 238.751C1094.72 243.121 1097.8 248.301 1099.9 254.452C1102.01 260.602 1103.14 267.239 1103.14 274.523V276.303C1102.98 276.951 1102.98 277.436 1102.98 278.084C1102.81 278.569 1102.81 279.055 1102.81 279.54H1030.95C1031.27 284.073 1032.4 287.957 1034.18 291.195C1035.96 294.432 1038.23 297.184 1040.82 299.45C1043.41 301.554 1046.32 303.173 1049.56 304.144C1052.8 305.115 1055.87 305.6 1058.95 305.6C1065.1 305.6 1070.12 304.144 1074 301.23C1077.89 298.317 1081.12 294.756 1083.71 290.385L1101.52 299.288ZM1081.93 263.192C1081.61 261.25 1081.12 259.146 1080.15 256.88C1079.18 254.452 1077.73 252.347 1075.78 250.405C1073.84 248.463 1071.25 246.682 1068.18 245.387C1065.1 243.93 1061.22 243.283 1056.85 243.283C1050.69 243.283 1045.51 245.064 1041.14 248.786C1036.77 252.347 1033.86 257.203 1032.24 263.354H1081.93V263.192Z" fill="white"/>
<path d="M1117.06 228.064H1137.13V242.146H1138.26C1139.4 239.718 1141.01 237.452 1142.96 235.348C1144.9 233.243 1147.16 231.463 1149.59 230.006C1152.02 228.549 1154.61 227.254 1157.36 226.445C1160.11 225.474 1162.7 224.988 1165.29 224.988C1168.37 224.988 1170.96 225.312 1173.06 225.798C1175.17 226.445 1177.27 227.093 1179.05 228.226L1172.9 247.487C1171.44 246.84 1169.99 246.354 1168.21 246.031C1166.43 245.707 1164.48 245.545 1162.06 245.545C1158.66 245.545 1155.42 246.192 1152.67 247.649C1149.75 249.106 1147.33 251.048 1145.06 253.476C1142.96 255.904 1141.18 258.818 1140.04 262.055C1138.91 265.454 1138.26 268.853 1138.26 272.576V321.459H1117.06V228.064Z" fill="white"/>
<path d="M682.941 66.8478C682.941 83.3579 678.085 96.6307 668.211 106.504C657.204 118.159 642.637 123.986 624.67 123.986C606.703 123.986 592.945 117.997 580.967 106.181C568.989 94.3646 563.162 79.4732 563.162 62.1538C563.162 44.6726 569.151 29.943 580.967 18.127C592.945 6.14911 607.512 0.160156 624.67 0.160156C633.411 0.160156 641.666 1.77878 649.273 4.85418C657.043 7.92959 663.355 12.2999 668.373 17.9651L657.366 28.9719C653.805 24.6016 648.949 21.0405 643.122 18.6126C637.295 16.1846 631.144 14.8897 624.508 14.8897C611.559 14.8897 600.714 19.4219 591.65 28.3244C582.747 37.3887 578.377 48.7192 578.377 62.3157C578.377 75.9122 582.747 87.2426 591.65 96.307C600.552 105.209 611.559 109.742 624.508 109.742C636.324 109.742 646.198 106.504 653.967 99.868C661.737 93.2316 666.431 84.1672 667.564 72.513H624.508V58.2691H681.97C682.617 61.1826 682.941 64.0962 682.941 66.8478Z" fill="white"/>
<path d="M693.3 80.7683C693.3 68.3048 697.185 57.9455 705.116 49.8524C713.047 41.5973 723.083 37.5508 735.061 37.5508C747.039 37.5508 757.074 41.5973 764.844 49.8524C772.775 57.9455 776.821 68.3048 776.821 80.7683C776.821 93.2318 772.775 103.753 764.844 111.684C757.074 119.777 747.039 123.986 735.061 123.986C723.083 123.986 713.047 119.939 705.116 111.684C697.185 103.591 693.3 93.2318 693.3 80.7683ZM708.515 80.7683C708.515 89.5089 711.105 96.6309 716.123 101.972C721.14 107.314 727.453 110.066 735.061 110.066C742.506 110.066 748.819 107.314 753.999 101.972C759.016 96.469 761.606 89.5089 761.606 80.7683C761.606 72.0277 759.016 65.0676 753.999 59.7261C748.819 54.2227 742.506 51.471 735.061 51.471C727.615 51.471 721.302 54.2227 716.123 59.7261C711.105 65.2294 708.515 72.1896 708.515 80.7683Z" fill="white"/>
<path d="M786.048 80.7683C786.048 68.3048 789.932 57.9455 797.864 49.8524C805.795 41.5973 815.831 37.5508 827.808 37.5508C839.786 37.5508 849.822 41.5973 857.591 49.8524C865.523 57.9455 869.569 68.3048 869.569 80.7683C869.569 93.2318 865.523 103.753 857.591 111.684C849.822 119.777 839.786 123.986 827.808 123.986C815.831 123.986 805.795 119.939 797.864 111.684C790.094 103.591 786.048 93.2318 786.048 80.7683ZM801.425 80.7683C801.425 89.5089 804.015 96.6309 809.032 101.972C814.05 107.314 820.363 110.066 827.97 110.066C835.416 110.066 841.729 107.314 846.908 101.972C851.926 96.469 854.516 89.5089 854.516 80.7683C854.516 72.0277 851.926 65.0676 846.908 59.7261C841.729 54.2227 835.416 51.471 827.97 51.471C820.525 51.471 814.212 54.2227 809.032 59.7261C803.853 65.2294 801.425 72.1896 801.425 80.7683Z" fill="white"/>
<path d="M919.423 159.922C914.891 159.922 910.682 159.274 906.636 158.141C902.589 157.008 899.028 155.39 895.791 153.286C892.554 151.181 889.802 148.753 887.374 145.84C885.108 142.926 883.328 139.689 882.033 136.29L896.439 130.301C898.057 134.995 900.971 138.88 905.017 141.793C909.064 144.707 913.758 146.163 919.261 146.163C927.516 146.163 933.991 143.736 938.685 138.718C943.379 133.7 945.645 126.902 945.645 118.161V110.392H944.998C942.084 114.762 938.199 118.161 933.343 120.589C928.487 123.017 923.146 124.312 917.319 124.312C906.636 124.312 897.572 120.103 889.964 111.848C882.518 103.432 878.634 93.0723 878.634 81.0944C878.634 69.1165 882.357 58.7573 889.964 50.5023C897.572 42.0854 906.636 37.877 917.319 37.877C922.984 37.877 928.326 39.1718 933.343 41.5998C938.199 44.0277 942.084 47.4269 944.998 51.7972H945.645V40.4667H960.213V118.161C960.213 131.11 956.49 141.469 949.206 148.753C941.76 156.037 931.887 159.922 919.423 159.922ZM919.909 110.068C927.355 110.068 933.505 107.316 938.361 101.975C943.379 96.6333 945.807 89.5114 945.807 80.7707C945.807 72.0301 943.379 65.2319 938.361 59.7285C933.505 54.2252 927.355 51.4734 919.909 51.4734C912.463 51.4734 906.474 54.2252 901.456 59.7285C896.439 65.2319 894.011 72.192 894.011 80.7707C894.011 89.3495 896.439 96.4715 901.456 101.813C906.474 107.316 912.625 110.068 919.909 110.068Z" fill="white"/>
<path d="M994.204 2.75V121.396H978.989V2.75H994.204Z" fill="white"/>
<path d="M1048.43 123.986C1036.45 123.986 1026.74 119.939 1018.97 111.684C1011.2 103.591 1007.32 93.2318 1007.32 80.7683C1007.32 68.3048 1011.04 58.1074 1018.65 49.8524C1026.09 41.5973 1035.8 37.5508 1047.46 37.5508C1059.11 37.5508 1068.98 41.4355 1076.27 49.205C1083.39 56.9744 1086.95 67.981 1086.95 81.9013L1086.79 83.5199H1023.02C1023.18 91.4512 1025.93 97.9258 1030.95 102.782C1035.96 107.638 1042.12 110.066 1049.24 110.066C1058.95 110.066 1066.56 105.21 1072.06 95.4978L1085.66 102.134C1082.1 108.932 1076.92 114.274 1070.44 118.159C1063.97 122.043 1056.52 123.986 1048.43 123.986ZM1023.99 71.0565H1070.6C1070.12 65.3913 1067.85 60.6972 1063.81 56.9744C1059.6 53.2515 1054.09 51.471 1047.13 51.471C1041.31 51.471 1036.45 53.2515 1032.24 56.8125C1028.03 60.3735 1025.28 65.0676 1023.99 71.0565Z" fill="white"/>
<path d="M1192.32 123.987C1174.84 123.987 1160.11 117.998 1148.3 106.182C1136.64 94.3663 1130.82 79.6367 1130.82 61.9936C1130.82 44.3505 1136.64 29.621 1148.3 17.9668C1159.95 5.9889 1174.68 0 1192.32 0C1209.97 0 1224.7 6.47453 1235.87 19.4236L1224.86 30.1065C1216.44 19.9092 1205.44 14.7295 1192.16 14.7295C1178.89 14.7295 1168.05 19.0999 1159.14 28.0023C1150.4 36.743 1146.03 48.0735 1146.03 62.1556C1146.03 76.2377 1150.4 87.5681 1159.14 96.3087C1167.88 105.211 1178.89 109.582 1192.16 109.582C1205.92 109.582 1217.9 103.754 1228.1 92.1003L1239.1 102.945C1233.44 109.743 1226.64 114.923 1218.38 118.646C1210.45 122.207 1201.71 123.987 1192.32 123.987Z" fill="white"/>
<path d="M1268.24 2.75V121.396H1253.02V2.75H1268.24Z" fill="white"/>
<path d="M1281.35 80.7683C1281.35 68.3048 1285.23 57.9455 1293.17 49.8524C1301.1 41.5973 1311.13 37.5508 1323.11 37.5508C1335.09 37.5508 1345.12 41.5973 1352.89 49.8524C1360.82 57.9455 1364.87 68.3048 1364.87 80.7683C1364.87 93.2318 1360.82 103.753 1352.89 111.684C1345.12 119.777 1335.09 123.986 1323.11 123.986C1311.13 123.986 1301.1 119.939 1293.17 111.684C1285.23 103.591 1281.35 93.2318 1281.35 80.7683ZM1296.56 80.7683C1296.56 89.5089 1299.15 96.6309 1304.17 101.972C1309.19 107.314 1315.5 110.066 1323.11 110.066C1330.56 110.066 1336.87 107.314 1342.05 101.972C1347.07 96.469 1349.66 89.5089 1349.66 80.7683C1349.66 72.0277 1347.07 65.0676 1342.05 59.7261C1336.87 54.2227 1330.56 51.471 1323.11 51.471C1315.66 51.471 1309.35 54.2227 1304.17 59.7261C1299.15 65.2294 1296.56 72.1896 1296.56 80.7683Z" fill="white"/>
<path d="M1449.2 121.4H1434.63V110.07H1433.99C1431.72 114.116 1428.16 117.353 1423.3 119.943C1418.45 122.533 1413.43 123.99 1408.25 123.99C1398.38 123.99 1390.61 121.076 1385.27 115.411C1379.92 109.746 1377.17 101.653 1377.17 91.1315V40.1445H1392.39V90.1604C1392.71 103.433 1399.35 110.07 1412.46 110.07C1418.61 110.07 1423.63 107.642 1427.67 102.624C1431.72 97.6061 1433.83 91.779 1433.83 84.9807V40.1445H1449.04L1449.2 121.4Z" fill="white"/>
<path d="M1500.84 123.986C1490.15 123.986 1481.09 119.777 1473.48 111.36C1466.04 102.943 1462.15 92.5842 1462.15 80.7682C1462.15 68.9521 1465.87 58.5928 1473.48 50.1759C1481.09 41.7591 1490.15 37.5506 1500.84 37.5506C1506.83 37.5506 1512.17 38.8455 1517.18 41.4353C1522.04 44.0251 1525.93 47.4242 1528.51 51.4708H1529.16L1528.51 40.1404V2.75H1543.73V121.396H1529.16V110.065H1528.51C1525.93 114.274 1522.04 117.673 1517.18 120.101C1512.17 122.853 1506.83 123.986 1500.84 123.986ZM1503.26 110.065C1510.71 110.065 1516.86 107.314 1521.72 101.972C1526.73 96.6307 1529.16 89.5088 1529.16 80.7682C1529.16 72.0275 1526.73 65.2293 1521.72 59.7259C1516.86 54.2226 1510.71 51.4708 1503.26 51.4708C1495.82 51.4708 1489.83 54.2226 1484.81 59.7259C1479.79 65.2293 1477.37 72.1894 1477.37 80.7682C1477.37 89.3469 1479.79 96.4689 1484.81 101.81C1489.83 107.314 1495.98 110.065 1503.26 110.065Z" fill="white"/>
</svg>
