<svg width="508" height="498" viewBox="0 0 508 498" fill="none" xmlns="http://www.w3.org/2000/svg">
<path d="M326.975 487.133C312.175 480.533 276.975 355.533 276.975 355.533L307.675 348.033C307.675 348.033 332.775 350.233 339.975 343.033C347.175 335.733 388.375 285.533 388.375 285.533L490.175 453.433C490.175 453.433 403.775 521.133 326.975 487.133Z" fill="#91FF6A"/>
<path d="M49.7749 367.834L190.575 78.534L214.275 50.934L217.575 62.134C217.575 62.134 240.275 35.334 248.475 35.034C256.575 34.734 258.475 38.034 257.775 50.634C257.075 63.234 273.875 54.134 273.875 54.134C273.875 54.134 278.375 42.434 282.075 52.834C285.775 63.334 275.675 80.734 275.675 80.734L309.675 63.334L311.275 83.434L271.875 133.034L164.975 444.434C164.975 444.434 74.7749 435.834 49.7749 367.834Z" fill="#C6F9B2" stroke="#C6F9B2" stroke-miterlimit="10"/>
<path d="M390.875 7.03351L276.275 126.534L206.175 251.934C206.175 251.934 186.175 276.934 200.375 277.134C214.575 277.434 248.775 257.233 248.775 257.233L213.375 327.534L222.975 334.034L252.975 300.634L236.375 345.134L250.075 347.534L268.275 333.434L271.175 351.733L285.075 352.634L300.875 344.333L312.575 347.034L355.675 312.534L479.875 111.534L500.375 34.8335C500.275 35.0335 426.675 -16.1665 390.875 7.03351Z" fill="#91FF6A" stroke="#91FF6A" stroke-miterlimit="10"/>
<path d="M0.475098 114.333C0.475098 114.333 124.075 172.433 138.075 186.533C152.075 200.733 232.775 256.033 232.775 256.033C232.775 256.033 294.875 279.133 300.175 280.033C305.475 280.933 311.775 276.733 311.775 276.733L297.175 248.533L317.975 257.733C317.975 257.733 318.675 249.733 326.875 243.533C338.775 234.533 332.475 216.833 332.475 216.833L288.075 167.833C288.075 167.833 312.175 184.433 321.975 183.433C331.775 182.433 326.275 170.133 320.675 162.733C315.075 155.333 106.475 29.0332 106.475 29.0332C106.475 29.0332 6.3751 75.6332 0.475098 114.333Z" fill="white"/>
<path d="M382.675 7.63387C374.175 14.0339 365.875 20.6339 357.775 27.5339C349.775 34.4339 342.075 41.5339 334.575 48.9339C327.075 56.3339 319.775 64.0339 312.875 72.0339C305.875 79.9339 299.175 88.1339 292.775 96.6339C286.375 105.034 280.275 113.634 274.575 122.434C273.875 123.534 273.075 124.634 272.375 125.834C271.175 127.634 274.075 129.334 275.275 127.534C280.975 118.734 286.975 110.134 293.175 101.734C299.375 93.3339 305.975 85.2339 312.775 77.3339C319.575 69.4339 326.775 61.7339 334.075 54.2339C341.475 46.8339 349.075 39.6339 356.975 32.7339C364.775 25.8339 372.875 19.2339 381.175 12.9339C382.175 12.1339 383.275 11.3339 384.275 10.6339C384.975 10.1339 385.375 9.23386 384.875 8.33386C384.575 7.53386 383.475 7.03387 382.675 7.63387Z" fill="black"/>
<path d="M206.275 244.434C206.575 243.834 206.875 243.234 207.275 242.634C208.375 240.834 205.575 239.134 204.375 240.934C200.775 246.634 196.775 252.034 193.675 258.034C190.775 263.734 187.375 271.334 189.975 277.834C191.075 280.534 193.375 282.934 196.175 283.934C198.675 284.734 201.475 284.334 203.875 283.634C210.675 281.634 216.975 277.434 222.675 273.434C226.075 271.034 229.275 268.534 232.475 266.034C234.575 264.334 237.075 262.334 238.975 260.834C238.175 260.334 237.275 259.834 236.475 259.434C235.975 269.734 228.875 278.034 223.875 286.534C218.175 296.334 212.875 306.434 208.875 317.034C207.275 321.334 205.175 326.234 205.475 330.934C205.775 335.334 208.675 338.734 213.275 339.034C217.975 339.434 222.275 336.834 225.675 333.734C229.575 330.034 232.775 325.534 236.175 321.234C244.875 310.334 253.475 299.534 262.175 288.634C261.275 287.934 260.475 287.334 259.575 286.634C255.275 293.334 252.775 300.934 248.875 307.934C244.875 315.134 239.175 321.534 234.175 328.034C231.575 331.334 228.975 334.634 226.675 338.134C224.675 341.134 223.275 344.834 224.275 348.334C225.375 352.234 229.775 355.034 233.575 355.934C241.375 357.734 248.975 352.934 254.775 348.234C262.375 342.034 268.775 334.334 274.675 326.634C279.975 319.834 284.675 312.534 289.775 305.634C290.875 304.134 288.375 302.234 287.175 303.634C280.875 310.834 274.875 318.334 269.775 326.434C267.375 330.234 265.075 334.234 263.375 338.434C261.875 341.934 260.775 345.934 261.175 349.734C262.075 358.734 271.175 362.234 279.075 359.634C287.075 357.034 293.475 350.234 298.375 343.534C304.175 335.634 308.175 326.634 312.075 317.734C312.975 315.834 310.375 314.234 309.175 316.034C302.775 325.734 296.275 335.834 294.475 347.434C294.275 348.434 294.875 349.534 296.075 349.534C298.775 349.534 301.075 350.834 303.575 351.734C305.975 352.534 308.275 352.434 310.675 351.934C315.475 351.034 319.975 348.634 324.075 345.934C332.875 339.934 339.975 331.734 346.775 323.634C354.875 314.034 362.575 304.134 369.575 293.634C377.175 282.234 384.075 270.334 391.675 258.934C399.275 247.434 407.075 236.034 414.375 224.234C421.675 212.534 428.975 200.734 435.975 188.834C442.975 176.934 449.875 164.934 456.275 152.634C462.575 140.634 468.575 128.534 474.675 116.534C480.675 104.734 486.475 92.7341 491.175 80.4341C495.975 67.6341 499.275 54.2341 503.375 41.2341C504.475 37.9341 505.575 34.5341 506.675 31.2341C505.575 31.1341 504.475 30.9341 503.375 30.8341C503.375 31.2341 503.275 31.6341 503.275 31.9341C503.075 34.0341 506.475 34.0341 506.575 31.9341C506.575 31.5341 506.675 31.1341 506.675 30.8341C506.775 28.8341 503.975 28.7341 503.375 30.4341C498.975 43.4341 495.475 56.6341 491.275 69.7341C487.275 82.3341 481.875 94.4341 475.975 106.334C470.175 118.034 464.075 129.634 458.175 141.334C451.975 153.534 445.375 165.634 438.575 177.434C424.975 201.034 410.675 224.234 395.475 246.834C391.575 252.534 387.775 258.334 383.975 264.134C380.375 269.734 376.975 275.534 373.375 281.234C366.275 292.434 358.775 303.534 350.375 313.834C343.775 321.934 337.075 330.234 329.275 337.234C325.475 340.634 321.475 343.834 316.875 346.134C314.675 347.234 312.475 348.034 310.075 348.634C307.475 349.234 305.275 349.034 302.775 348.034C300.475 347.134 298.275 346.234 295.675 346.234C296.175 346.934 296.775 347.634 297.275 348.334C299.075 336.934 305.475 327.134 311.675 317.734C310.675 317.134 309.775 316.634 308.775 316.034C302.675 329.734 295.975 345.334 282.875 353.834C279.475 356.034 275.475 357.634 271.475 356.934C267.875 356.334 265.075 353.934 264.275 350.334C263.575 346.934 264.575 343.234 265.875 340.134C267.375 336.234 269.575 332.534 271.675 329.034C276.775 320.734 282.775 313.234 289.175 305.934C288.275 305.234 287.475 304.634 286.575 303.934C276.975 317.034 268.375 330.734 256.475 342.034C251.375 346.834 244.775 352.634 237.475 353.034C234.375 353.234 231.475 352.234 229.175 350.134C226.575 347.834 226.575 344.734 228.075 341.734C229.875 338.234 232.575 335.134 234.975 332.034C240.375 325.034 246.475 318.234 250.975 310.634C255.175 303.434 257.775 295.434 262.275 288.434C263.275 286.834 260.875 284.934 259.675 286.434C252.475 295.434 245.375 304.434 238.175 313.434C234.575 317.934 231.075 322.434 227.475 326.834C224.775 330.134 221.575 333.834 217.475 335.234C215.275 335.934 212.575 336.334 210.575 334.834C209.175 333.734 208.675 331.834 208.675 330.134C208.675 325.634 210.775 320.934 212.375 316.834C216.275 306.834 221.375 297.134 226.875 287.834C232.175 278.834 239.175 270.334 239.675 259.434C239.775 258.234 238.175 257.234 237.175 258.034C227.475 265.534 217.975 274.034 206.675 279.134C202.475 281.034 196.975 282.834 193.675 278.334C190.075 273.334 193.275 265.934 195.675 261.134C198.875 254.634 203.075 248.834 206.975 242.734C205.975 242.134 205.075 241.634 204.075 241.034C203.675 241.634 203.375 242.234 203.075 242.834C202.475 244.734 205.375 246.434 206.275 244.434Z" fill="black"/>
<path d="M105.575 30.4339C110.475 33.8339 115.175 37.4339 120.075 40.6339C125.175 43.9339 130.575 46.7339 135.875 49.6339C146.875 55.7339 157.875 61.8339 168.675 68.3339C189.575 80.8339 209.975 94.1339 231.075 106.234C251.075 117.734 271.375 128.934 290.475 141.834C300.175 148.434 309.575 155.434 318.475 163.034C322.575 166.534 325.975 171.134 328.475 175.834C329.375 177.534 330.775 180.334 329.975 182.234C329.775 182.734 329.075 183.234 328.275 183.434C325.975 183.934 323.875 183.234 321.875 182.334C311.675 177.434 301.975 171.434 291.175 167.734C288.475 166.834 285.775 166.134 283.075 165.534C281.475 165.234 280.275 167.034 281.475 168.334C285.375 172.634 290.875 174.834 295.275 178.534C300.075 182.734 304.875 186.934 309.675 191.234C317.375 198.234 324.475 205.834 329.375 215.034C331.475 218.934 333.375 223.334 333.775 227.834C333.975 230.634 333.475 235.634 330.075 236.434C326.975 237.134 323.375 234.334 320.975 232.634C317.875 230.334 315.075 227.734 312.175 225.234C307.375 221.134 301.875 217.834 296.675 214.234C289.975 209.534 283.275 204.834 276.675 200.134C276.075 201.134 275.575 202.034 274.975 203.034C286.075 208.334 297.575 213.734 307.075 221.834C313.575 227.334 319.675 233.934 323.675 241.434C325.375 244.734 327.075 248.734 326.275 252.434C325.975 254.034 325.275 255.734 323.675 256.434C322.075 257.134 320.175 256.834 318.575 256.334C314.675 255.234 311.075 253.134 307.575 251.034C302.075 247.734 296.575 244.534 291.075 241.134C278.175 233.034 265.475 224.534 253.375 215.234C252.775 216.234 252.275 217.134 251.675 218.134C263.775 227.234 277.975 233.134 288.975 243.734C296.175 250.634 304.275 257.234 308.975 266.134C310.675 269.334 312.175 274.034 309.475 277.134C306.975 279.934 301.975 279.534 298.575 279.134C289.575 278.034 280.575 274.434 272.475 270.334C256.475 262.434 240.675 254.234 224.575 246.334C217.175 242.734 209.975 239.034 203.175 234.434C196.675 229.934 190.475 225.034 184.175 220.134C170.875 209.734 156.775 200.534 142.575 191.534C128.175 182.434 114.175 172.734 99.675 163.934C84.975 155.134 69.575 147.534 55.075 138.434C47.975 134.034 40.675 130.234 33.275 126.534C26.375 123.034 19.975 119.034 12.375 117.334C8.875 116.534 5.175 116.134 1.575 116.134C-0.525 116.134 -0.525 119.434 1.575 119.434C9.375 119.634 16.775 121.534 23.675 125.134C31.075 129.034 38.775 132.634 46.075 136.734C49.875 138.834 53.475 141.334 57.175 143.534C60.975 145.834 64.775 148.034 68.575 150.234C76.175 154.534 83.975 158.534 91.475 162.934C106.575 171.634 120.975 181.534 135.675 191.034C150.375 200.434 165.275 209.634 179.075 220.334C185.375 225.234 191.675 230.334 198.175 234.934C204.875 239.734 211.875 243.834 219.375 247.434C235.875 255.434 252.075 263.834 268.475 271.934C277.275 276.334 286.575 280.334 296.375 282.034C300.575 282.734 305.475 283.134 309.375 281.234C313.275 279.234 314.675 274.934 314.075 270.834C313.275 265.734 310.175 261.234 306.975 257.334C303.475 253.034 299.575 249.134 295.575 245.334C291.275 241.334 287.075 237.234 282.275 233.834C276.075 229.334 269.275 225.734 262.775 221.634C259.575 219.634 256.375 217.534 253.275 215.234C251.575 213.934 249.875 216.834 251.575 218.134C263.175 227.034 275.275 235.234 287.675 243.034C293.575 246.734 299.475 250.234 305.475 253.734C309.275 255.934 313.075 258.234 317.275 259.434C321.075 260.534 325.475 260.334 327.875 256.734C330.175 253.234 329.775 248.534 328.475 244.734C325.475 235.834 318.675 228.134 311.975 221.834C301.775 212.234 288.975 206.034 276.475 200.034C274.575 199.134 273.075 201.634 274.775 202.934C280.975 207.334 287.275 211.734 293.475 216.134C296.675 218.334 299.875 220.634 303.175 222.834C305.275 224.234 307.475 225.634 309.375 227.234C312.475 229.834 315.475 232.634 318.775 235.034C321.775 237.234 325.475 239.734 329.275 239.634C333.275 239.534 335.875 236.134 336.675 232.534C337.775 228.034 336.475 223.234 334.875 219.034C331.075 209.434 324.775 201.134 317.475 193.934C312.075 188.634 306.275 183.734 300.575 178.734C297.875 176.334 295.175 174.134 292.175 172.134C289.175 170.234 286.175 168.434 283.875 165.834C283.375 166.734 282.775 167.734 282.275 168.634C294.075 171.034 304.575 176.934 315.075 182.434C319.375 184.634 323.875 187.634 328.975 186.534C331.575 185.934 333.475 184.134 333.575 181.334C333.775 178.534 332.375 175.734 331.075 173.334C329.575 170.534 327.675 167.934 325.675 165.434C323.875 163.234 321.975 161.334 319.775 159.534C315.175 155.634 310.375 151.834 305.575 148.234C286.475 133.934 265.775 122.034 245.175 110.234C234.675 104.234 224.175 98.3339 213.875 92.0339C202.975 85.4339 192.175 78.5339 181.275 71.8339C170.175 65.0339 158.875 58.5339 147.575 52.1339C141.875 48.9339 136.075 45.7339 130.375 42.6339C124.975 39.6339 119.775 36.3339 114.775 32.7339C112.275 30.9339 109.875 29.2339 107.375 27.4339C105.475 26.3339 103.775 29.2339 105.575 30.4339Z" fill="black"/>
<path d="M43.7749 358.533C47.8749 345.733 52.5749 333.133 57.7749 320.733C62.9749 308.433 68.6749 296.233 74.7749 284.333C81.0749 272.133 87.6749 260.033 94.5749 248.233C101.675 236.133 109.075 224.133 116.575 212.233C118.075 209.833 119.775 207.433 121.275 204.933C122.175 203.433 122.975 201.833 123.775 200.233C124.775 198.233 125.875 196.333 127.075 194.433C128.075 192.833 128.975 191.433 130.375 190.133C130.475 190.033 130.575 189.933 130.775 189.833C130.475 190.033 130.875 189.733 130.975 189.733C131.075 189.633 131.275 189.533 131.375 189.533C131.575 189.433 131.075 189.633 131.475 189.533C133.475 188.933 132.675 185.633 130.575 186.333C128.975 186.833 127.675 188.133 126.675 189.433C125.275 191.133 124.075 193.033 122.975 194.933C121.075 198.333 119.375 201.833 117.275 205.133C109.575 217.133 102.075 229.233 94.7749 241.533C87.6749 253.533 80.7749 265.733 74.2749 278.133C67.9749 290.233 62.0749 302.433 56.6749 314.933C51.2749 327.433 46.2749 340.133 42.0749 353.133C41.5749 354.733 40.9749 356.333 40.4749 358.033C39.8749 359.733 43.0749 360.633 43.7749 358.533Z" fill="black"/>
<path d="M183.975 79.0341C183.975 77.7341 185.175 76.3341 186.075 75.1341C186.975 74.0341 187.775 73.0341 188.475 71.7341C189.275 70.3341 190.075 68.9341 190.875 67.5341C192.075 65.5341 193.375 63.5341 194.675 61.6341C196.075 59.5341 197.775 57.1341 199.175 55.3341C200.775 53.3341 202.375 51.4341 204.175 49.6341C204.975 48.8341 205.775 48.0341 206.675 47.3341C206.675 47.3341 207.075 47.0341 206.775 47.2341C206.875 47.1341 206.975 47.0341 207.075 46.9341C207.275 46.8341 207.475 46.6341 207.675 46.5341C208.075 46.2341 208.575 45.9341 208.975 45.7341C209.175 45.6341 209.375 45.5341 209.475 45.4341C209.575 45.3341 209.675 45.3341 209.775 45.3341C209.775 45.3341 209.375 45.4341 209.675 45.3341C210.075 45.1341 210.475 45.0341 210.875 44.9341C210.975 44.9341 211.075 44.9341 211.175 44.8341C211.175 44.8341 210.775 44.8341 211.075 44.8341C211.275 44.8341 211.475 44.8341 211.675 44.8341C211.875 44.8341 212.375 44.9341 211.775 44.8341C211.975 44.8341 212.175 44.9341 212.375 44.9341C212.675 45.0341 212.775 45.1341 212.575 44.9341C212.775 45.0341 212.875 45.1341 213.075 45.2341C213.175 45.3341 213.575 45.6341 213.275 45.3341C213.475 45.5341 213.675 45.6341 213.775 45.8341C214.075 46.1341 214.375 46.5341 214.675 47.1341C214.875 47.5341 215.075 48.2341 215.275 48.9341C215.375 49.6341 215.475 50.2341 215.475 51.0341C215.475 51.9341 215.475 52.8341 215.375 53.7341C215.175 55.4341 214.775 57.2341 214.275 58.9341C213.375 62.0341 212.175 64.9341 210.675 67.7341C209.675 69.6341 212.575 71.3341 213.575 69.4341C218.775 59.5341 223.275 48.8341 231.375 40.9341C233.775 38.6341 236.275 36.3341 238.875 34.2341C241.775 31.9341 245.175 29.5341 248.575 28.4341C248.975 28.3341 249.375 28.2341 249.775 28.1341C249.975 28.1341 250.175 28.0341 250.375 28.0341C250.775 27.9341 250.375 28.0341 250.675 28.0341C251.075 28.0341 251.375 28.0341 251.775 28.0341C251.875 28.0341 252.275 28.1341 252.175 28.0341C252.075 28.0341 252.575 28.1341 252.675 28.1341C252.875 28.1341 252.975 28.2341 253.175 28.2341C253.575 28.3341 253.075 28.1341 253.375 28.3341C253.575 28.4341 253.675 28.5341 253.875 28.6341C253.975 28.7341 254.375 29.0341 254.075 28.7341C254.275 28.9341 254.475 29.1341 254.675 29.3341C254.975 29.6341 254.575 29.1341 254.775 29.4341C254.875 29.6341 254.975 29.7341 255.075 29.9341C255.175 30.0341 255.175 30.2341 255.275 30.3341C255.275 30.4341 255.475 30.9341 255.375 30.5341C255.475 30.8341 255.575 31.2341 255.675 31.5341C255.775 31.8341 255.775 32.1341 255.875 32.4341C255.875 32.5341 255.875 32.6341 255.875 32.7341C255.875 32.6341 255.875 32.4341 255.875 32.7341C255.875 32.9341 255.875 33.1341 255.975 33.3341C256.075 34.1341 255.975 34.9341 255.975 35.7341C255.975 36.6341 255.775 37.5341 255.775 38.1341C255.175 41.9341 253.975 45.7341 252.675 49.3341C251.475 52.7341 250.175 55.6341 248.775 58.9341C246.975 62.8341 245.075 66.6341 243.175 70.3341C241.675 73.1341 240.075 75.9341 238.775 78.8341C237.775 81.2341 237.175 83.7341 236.275 86.1341C235.875 87.0341 235.475 88.0341 234.875 88.8341C235.775 88.9341 236.575 89.0341 237.475 89.1341C237.375 89.0341 237.275 88.8341 237.175 88.7341C237.375 89.0341 237.175 88.8341 237.175 88.6341C237.175 88.4341 237.075 88.2341 237.175 88.5341C237.175 88.3341 237.175 88.2341 237.175 88.0341C237.175 87.9341 237.175 87.8341 237.175 87.7341C237.175 87.8341 237.075 88.0341 237.175 87.7341C237.175 87.5341 237.275 87.4341 237.275 87.2341C237.375 86.8341 237.575 86.3341 237.675 86.1341C238.275 84.6341 239.475 82.9341 240.475 81.4341C241.475 80.0341 242.375 78.9341 243.475 77.5341C244.775 75.9341 245.775 74.1341 246.975 72.4341C252.675 63.9341 258.875 55.7341 266.575 48.9341C268.575 47.2341 270.575 45.5341 272.675 44.0341C274.775 42.5341 276.875 40.8341 279.275 39.9341C279.675 39.7341 280.175 39.6341 280.675 39.4341C280.875 39.3341 281.075 39.3341 281.275 39.3341C281.675 39.2341 281.275 39.3341 281.575 39.3341C281.775 39.3341 281.875 39.3341 282.075 39.3341C282.175 39.3341 282.675 39.4341 282.275 39.3341C282.475 39.3341 282.575 39.4341 282.675 39.4341C282.775 39.4341 283.275 39.6341 282.975 39.5341C283.275 39.6341 283.475 39.8341 283.675 39.9341C283.375 39.7341 283.675 39.9341 283.775 40.0341C283.875 40.1341 284.075 40.3341 284.175 40.4341C283.975 40.1341 284.175 40.4341 284.275 40.5341C284.375 40.6341 284.475 40.8341 284.475 40.9341C284.575 41.1341 284.675 41.2341 284.675 41.4341C284.575 41.1341 284.675 41.5341 284.775 41.6341C284.875 41.9341 284.975 42.2341 285.075 42.6341C285.075 42.8341 285.175 43.0341 285.175 43.2341C285.175 43.5341 285.175 43.3341 285.175 43.2341C285.175 43.3341 285.175 43.4341 285.175 43.5341C285.275 44.3341 285.275 45.2341 285.275 46.0341C285.175 47.7341 284.875 49.4341 284.375 51.2341C282.775 56.7341 279.675 61.6341 276.875 66.5341C273.675 72.0341 270.875 77.6341 267.875 83.1341C266.375 85.8341 264.675 88.5341 263.175 91.2341C262.175 93.0341 261.275 94.9341 259.875 96.4341C259.675 96.7341 259.175 97.1341 259.075 97.2341C258.875 97.3341 258.675 97.5341 258.475 97.6341C258.275 97.7341 258.375 97.7341 258.075 97.7341C258.775 98.2341 259.475 98.8341 260.175 99.3341C260.175 97.8341 260.575 96.2341 261.275 94.7341C261.975 93.0341 263.075 91.3341 264.175 89.7341C266.675 86.3341 269.775 83.2341 272.975 80.4341C276.075 77.6341 279.275 75.0341 282.475 72.4341C285.775 69.7341 288.875 66.9341 292.275 64.4341C296.375 61.5341 300.875 58.8341 305.875 57.9341C306.975 57.7341 308.175 57.6341 309.275 57.6341C309.475 57.6341 309.775 57.6341 309.975 57.6341C310.075 57.6341 310.475 57.7341 310.275 57.6341C309.975 57.6341 310.475 57.6341 310.475 57.6341C310.575 57.6341 310.775 57.7341 310.875 57.7341C310.975 57.7341 311.275 57.9341 311.075 57.8341C310.775 57.7341 311.175 57.8341 311.275 57.9341C311.375 58.0341 311.475 58.0341 311.575 58.1341C311.875 58.2341 311.675 58.2341 311.575 58.1341C311.675 58.2341 311.875 58.4341 311.975 58.5341C312.075 58.6341 312.075 58.7341 312.175 58.8341C312.275 58.9341 312.275 59.0341 312.375 59.1341C312.475 59.3341 312.575 59.6341 312.575 59.8341C312.575 59.9341 312.675 60.0341 312.675 60.2341C312.675 60.6341 312.675 60.4341 312.675 60.2341C312.675 60.5341 312.775 60.8341 312.775 61.1341C312.775 61.7341 312.775 62.3341 312.675 62.8341C312.675 63.0341 312.675 63.1341 312.575 63.3341C312.575 63.0341 312.575 63.3341 312.575 63.5341C312.475 63.8341 312.475 64.2341 312.375 64.5341C312.075 65.9341 311.675 67.4341 311.175 68.7341C310.875 69.5341 310.675 70.2341 310.375 71.0341C310.075 71.8341 309.875 72.1341 309.575 73.0341C308.275 75.9341 306.775 78.7341 305.075 81.4341C304.375 82.5341 303.575 83.6341 302.775 84.7341C302.675 84.8341 302.575 84.9341 302.475 85.0341C302.375 85.2341 302.575 84.9341 302.575 84.9341C302.575 85.0341 302.475 85.0341 302.475 85.1341C302.275 85.3341 302.175 85.5341 301.975 85.7341C301.675 86.1341 301.375 86.4341 301.075 86.7341C300.975 86.8341 300.775 86.9341 300.675 87.1341C300.575 87.2341 300.575 87.2341 300.475 87.3341C300.275 87.5341 300.875 87.0341 300.575 87.2341C299.875 87.7341 299.475 88.7341 299.975 89.5341C300.375 90.2341 301.475 90.6341 302.275 90.1341C304.175 88.8341 305.575 86.7341 306.875 84.9341C308.675 82.2341 310.275 79.4341 311.775 76.5341C313.275 73.4341 314.575 70.3341 315.475 67.0341C316.175 64.4341 316.775 61.4341 315.975 58.7341C315.175 56.0341 313.075 54.5341 310.375 54.3341C305.075 53.8341 299.775 56.0341 295.275 58.6341C290.775 61.2341 286.675 64.6341 282.675 68.0341C279.675 70.6341 276.475 73.0341 273.475 75.6341C269.975 78.6341 266.475 81.8341 263.475 85.4341C260.775 88.6341 258.275 92.2341 257.375 96.3341C257.175 97.2341 257.075 98.2341 257.075 99.2341C257.075 100.334 258.175 101.134 259.175 100.834C261.575 100.234 263.075 98.1341 264.375 96.1341C265.775 93.9341 266.975 91.6341 268.375 89.3341C271.875 83.4341 274.875 77.4341 278.175 71.4341C281.275 65.7341 284.775 60.3341 287.175 54.2341C288.675 50.4341 289.475 46.2341 288.875 42.1341C288.375 38.7341 286.175 35.7341 282.475 35.6341C280.275 35.6341 278.075 36.5341 276.175 37.6341C273.575 39.1341 271.175 40.9341 268.875 42.8341C260.175 49.6341 252.975 58.1341 246.675 67.2341C245.075 69.5341 243.575 71.9341 241.975 74.3341C241.875 74.5341 241.675 74.7341 241.575 74.9341C241.575 74.9341 241.275 75.3341 241.375 75.2341C241.475 75.1341 241.175 75.5341 241.075 75.6341C240.475 76.4341 239.875 77.1341 239.275 77.9341C238.075 79.5341 236.875 81.2341 235.875 82.9341C234.975 84.5341 234.175 86.4341 234.175 88.2341C234.175 89.1341 234.475 89.9341 234.975 90.6341C235.575 91.4341 236.875 91.9341 237.575 90.9341C239.275 88.8341 240.075 86.2341 240.875 83.6341C241.275 82.4341 241.575 81.2341 242.075 80.1341C242.775 78.6341 243.575 77.2341 244.275 75.7341C246.675 71.0341 249.175 66.3341 251.375 61.6341C254.575 54.8341 257.575 47.7341 259.075 40.3341C259.775 36.9341 260.275 33.1341 259.075 29.8341C257.975 26.5341 255.075 24.3341 251.475 24.5341C247.475 24.7341 243.675 26.9341 240.475 29.1341C237.175 31.4341 234.175 34.0341 231.275 36.7341C227.575 40.2341 224.375 43.9341 221.675 48.2341C218.475 53.2341 215.875 58.5341 213.175 63.7341C212.475 65.0341 211.775 66.3341 211.075 67.7341C212.075 68.3341 212.975 68.8341 213.975 69.4341C215.475 66.6341 216.675 63.6341 217.675 60.6341C218.675 57.3341 219.475 53.8341 219.375 50.3341C219.175 47.3341 218.275 44.3341 215.775 42.5341C214.175 41.3341 212.075 41.2341 210.275 41.7341C208.175 42.3341 206.275 43.6341 204.575 45.0341C202.575 46.6341 200.875 48.5341 199.175 50.5341C195.575 54.7341 192.475 59.3341 189.475 64.0341C188.375 65.8341 187.275 67.6341 186.275 69.5341C185.575 70.7341 184.775 71.8341 183.975 72.8341C182.675 74.5341 181.175 76.4341 181.175 78.6341C180.575 81.1341 183.975 81.1341 183.975 79.0341Z" fill="black"/>
<path d="M205.175 327.734C195.175 339.734 188.875 354.234 183.275 368.634C180.475 375.834 177.775 383.234 174.875 390.434C173.475 393.834 172.075 397.234 170.475 400.634C168.575 404.734 166.975 409.034 165.375 413.334C164.475 415.734 163.575 418.034 162.575 420.334C161.575 422.634 160.375 424.834 159.275 427.134C158.375 429.034 157.575 430.934 157.075 433.034C156.675 434.634 156.275 436.634 155.175 437.834C153.675 439.434 156.075 441.734 157.575 440.234C159.975 437.634 159.875 433.934 161.275 430.834C162.175 428.834 163.175 426.934 164.175 424.934C165.175 422.834 166.075 420.634 166.975 418.534C168.675 414.334 170.075 410.134 171.775 405.934C173.275 402.234 175.075 398.634 176.575 395.034C182.575 380.734 187.275 365.934 194.075 351.934C197.775 344.334 202.075 336.834 207.475 330.334C208.075 329.634 208.175 328.634 207.475 327.934C206.975 327.134 205.775 327.034 205.175 327.734Z" fill="black"/>
<path d="M315.275 495.533C313.875 486.133 311.075 477.033 308.375 467.933C305.775 459.033 303.475 450.133 301.175 441.133C299.975 436.633 298.775 432.133 297.475 427.633C296.175 423.233 294.575 418.833 293.175 414.433C290.375 405.833 288.075 397.033 285.275 388.433C282.175 378.933 277.475 369.933 275.275 360.133C274.775 358.033 271.575 358.933 272.075 361.033C273.075 365.333 274.475 369.533 276.075 373.633C277.775 377.833 279.575 381.933 281.075 386.233C284.075 394.733 286.275 403.533 288.975 412.133C290.375 416.533 291.975 420.833 293.275 425.233C294.675 429.733 295.875 434.233 297.075 438.733C299.475 447.733 301.575 456.733 304.275 465.633C307.275 475.833 310.575 485.933 312.075 496.533C312.175 497.433 313.375 497.933 314.175 497.733C314.975 497.333 315.375 496.433 315.275 495.533Z" fill="black"/>
<path d="M474.575 447.334C467.975 436.334 461.375 425.234 454.775 414.234C448.175 403.234 441.675 392.234 435.075 381.334C428.475 370.334 421.875 359.234 415.275 348.234C411.975 342.734 408.675 337.234 405.475 331.734C402.375 326.534 399.375 321.234 395.975 316.234C389.775 306.934 382.575 298.234 377.475 288.234C376.875 287.034 376.275 285.834 375.775 284.534C375.375 283.734 374.175 283.534 373.475 283.934C372.575 284.434 372.475 285.434 372.875 286.234C377.375 296.534 384.475 305.434 390.775 314.534C394.075 319.334 397.075 324.234 400.075 329.234C403.375 334.734 406.675 340.234 409.875 345.734C416.475 356.734 423.075 367.834 429.675 378.834C436.275 389.834 442.875 400.934 449.475 411.934C456.075 422.934 462.575 433.934 469.175 444.834C469.975 446.234 470.875 447.634 471.675 449.034C472.775 450.834 475.675 449.134 474.575 447.334Z" fill="black"/>
<path d="M124.375 42.6331C126.875 44.7331 129.475 46.5331 132.175 48.2331C133.475 49.0331 134.775 49.6331 135.975 50.5331C136.575 51.0331 137.175 51.5331 137.875 51.9331C138.475 52.3331 139.175 52.5331 139.875 52.9331C140.975 53.6331 141.875 54.6331 142.875 55.5331C143.975 56.5331 145.175 57.4331 146.575 57.9331C147.375 58.2331 148.175 58.2331 148.975 58.5331C149.575 58.8331 150.075 59.2331 150.675 59.6331C151.975 60.5331 153.275 61.2331 154.675 61.8331C156.075 62.4331 157.375 63.1331 158.475 64.0331C159.675 65.0331 160.675 66.2331 161.975 67.1331C162.475 67.5331 163.075 67.8331 163.675 68.1331C163.975 68.3331 164.275 68.4331 164.575 68.6331C164.675 68.7331 164.775 68.7331 164.875 68.8331C164.975 68.9331 164.975 68.9331 165.075 69.0331C164.975 68.8331 164.875 68.7331 164.975 68.9331C164.875 69.6331 166.075 70.4331 166.575 70.6331C167.375 71.0331 168.175 71.2331 168.975 71.5331C171.975 72.6331 174.875 73.6331 177.775 74.9331C179.175 75.5331 180.775 76.0331 182.175 76.7331C183.275 77.3331 184.275 78.0331 185.175 78.9331C187.275 80.8331 189.475 83.6331 192.475 83.9331C192.975 84.0331 193.475 83.9331 193.975 84.2331C194.475 84.5331 194.875 85.1331 195.275 85.5331C196.275 86.6331 197.475 87.4331 198.675 88.2331C201.275 89.7331 203.975 90.8331 206.375 92.5331C209.075 94.4331 211.575 96.3331 214.675 97.5331C217.675 98.7331 220.775 99.4331 223.675 101.033C225.075 101.733 226.375 102.533 227.775 103.333C229.175 104.033 230.675 104.733 232.175 105.433C234.975 106.833 237.975 108.433 240.375 110.433C242.775 112.433 244.775 114.733 247.375 116.333C248.675 117.133 250.175 117.633 251.375 118.433C251.975 118.833 252.575 119.333 253.175 119.733C253.875 120.133 254.575 120.433 255.275 120.833C257.875 122.033 259.875 123.933 262.175 125.733C263.375 126.633 264.575 127.333 265.875 127.833C267.275 128.433 268.575 129.133 269.975 129.833C270.675 130.133 271.375 130.433 271.975 130.833C272.475 131.233 272.975 131.633 273.575 131.933C274.675 132.533 275.975 132.833 277.175 133.233C278.275 133.633 279.275 134.133 280.075 135.033C280.675 135.733 281.875 135.633 282.475 135.033C283.175 134.333 283.075 133.333 282.475 132.633C281.575 131.533 280.375 130.833 278.975 130.333C277.875 129.933 276.775 129.733 275.675 129.233C274.475 128.733 273.475 127.733 272.175 127.233C270.675 126.533 269.375 125.733 267.875 125.133C266.575 124.633 265.475 124.033 264.275 123.233C263.175 122.433 262.275 121.533 261.175 120.733C259.975 119.833 258.775 118.933 257.475 118.333C255.975 117.633 254.675 116.933 253.375 115.933C252.175 115.033 250.675 114.633 249.375 113.833C248.075 113.133 246.975 112.133 245.875 111.133C243.475 108.933 241.175 106.933 238.475 105.333C235.675 103.633 232.675 102.333 229.775 100.833C226.975 99.3331 224.275 97.6331 221.275 96.5331C218.175 95.4331 215.075 94.6331 212.275 92.8331C209.675 91.2331 207.375 89.1331 204.575 87.7331C202.175 86.4331 199.375 85.4331 197.475 83.3331C196.475 82.2331 195.475 81.1331 193.975 80.8331C193.375 80.7331 192.675 80.8331 192.075 80.5331C191.475 80.2331 190.875 79.8331 190.275 79.3331C188.175 77.6331 186.375 75.4331 183.975 74.1331C182.575 73.4331 181.075 72.9331 179.675 72.3331C178.175 71.7331 176.675 71.0331 175.175 70.4331C173.675 69.8331 172.175 69.4331 170.675 68.8331C169.975 68.5331 169.275 68.3331 168.575 68.1331C168.475 68.1331 168.275 68.0331 168.175 68.0331C168.075 68.0331 167.675 67.9331 167.975 68.0331C168.075 68.2331 168.075 68.1331 167.975 68.0331C167.875 67.6331 167.675 67.4331 167.475 67.1331C166.575 66.0331 165.075 65.5331 163.875 64.7331C162.675 63.9331 161.775 62.7331 160.575 61.8331C159.375 60.8331 158.075 60.0331 156.575 59.3331C155.175 58.7331 153.875 58.1331 152.575 57.2331C151.275 56.3331 150.075 55.5331 148.475 55.2331C147.075 54.9331 146.075 54.4331 145.075 53.4331C144.075 52.4331 143.075 51.4331 141.875 50.6331C140.675 49.8331 139.275 49.4331 138.175 48.4331C136.975 47.3331 135.675 46.6331 134.275 45.8331C132.875 45.0331 131.575 44.2331 130.275 43.3331C128.975 42.4331 127.775 41.5331 126.575 40.5331C125.875 39.9331 124.875 39.8331 124.175 40.5331C123.775 40.8331 123.675 42.0331 124.375 42.6331Z" fill="black"/>
<path d="M129.075 187.333C130.775 187.033 131.275 185.533 131.075 184.033C130.875 182.633 129.075 182.533 128.275 183.333C127.275 184.233 126.775 185.533 126.375 186.833C125.975 188.133 125.675 189.533 125.375 190.933C125.075 192.533 124.675 194.133 123.975 195.633C123.275 197.133 122.275 198.533 121.475 200.033C119.775 202.933 118.675 206.133 117.075 209.033C115.575 211.633 113.475 213.933 111.575 216.233C109.575 218.533 107.575 220.833 105.875 223.433C104.075 226.133 102.975 229.033 101.675 231.933C100.375 234.833 98.5751 237.433 96.8751 240.133C96.0751 241.433 95.2751 242.833 94.2751 244.033C93.3751 245.233 92.2751 246.333 91.3751 247.533C90.4751 248.733 89.7751 249.933 88.7751 251.033C87.6751 252.233 86.7751 253.333 85.8751 254.733C84.0751 257.633 82.3751 260.533 80.8751 263.633C79.3751 266.933 77.8751 270.233 76.3751 273.533C74.9751 276.633 73.6751 280.033 71.8751 282.933C70.9751 284.333 69.9751 285.633 69.0751 287.133C68.1751 288.533 67.4751 289.933 66.8751 291.433C65.4751 294.433 64.1751 297.433 62.4751 300.233C60.6751 303.033 59.8751 306.333 58.4751 309.233C56.8751 312.433 55.0751 315.533 53.2751 318.533C51.5751 321.533 49.7751 324.533 48.3751 327.633C46.9751 330.733 45.2751 334.133 45.2751 337.533C45.2751 338.233 45.3751 338.933 45.2751 339.633C45.1751 340.533 44.7751 341.333 44.4751 342.233C43.9751 343.833 43.4751 345.533 43.0751 347.233C42.6751 348.833 42.4751 350.433 41.8751 352.033C41.3751 353.333 40.9751 354.433 40.7751 355.833C40.6751 356.433 40.6751 356.533 40.5751 356.933C40.5751 356.933 40.4751 357.233 40.5751 357.033C40.4751 357.133 40.4751 357.133 40.5751 357.133C40.6751 357.133 40.4751 357.133 40.5751 357.133C40.4751 357.133 41.0751 356.933 40.5751 357.033C39.6751 357.133 39.1751 358.333 39.3751 359.133C39.6751 360.133 40.5751 360.433 41.4751 360.333C42.7751 360.133 43.5751 359.033 43.8751 357.933C44.0751 357.433 44.0751 356.833 44.1751 356.233C44.1751 356.133 44.2751 355.533 44.1751 355.833C44.1751 355.533 44.2751 355.233 44.3751 355.033C44.8751 353.533 45.4751 352.133 45.7751 350.633C46.0751 348.933 46.4751 347.133 46.9751 345.433C47.4751 343.833 48.1751 342.133 48.4751 340.533C48.7751 338.933 48.4751 337.333 48.8751 335.733C49.6751 332.533 51.2751 329.333 52.7751 326.333C56.0751 320.033 60.1751 314.233 62.7751 307.633C63.3751 306.133 63.8751 304.633 64.5751 303.233C65.3751 301.733 66.2751 300.433 67.0751 299.033C68.5751 296.033 69.6751 292.933 71.3751 290.033C72.9751 287.133 75.0751 284.633 76.4751 281.633C77.9751 278.333 79.4751 275.033 80.8751 271.833C82.3751 268.533 83.7751 265.233 85.4751 262.133C86.2751 260.633 87.1751 259.133 88.0751 257.633C88.8751 256.333 89.5751 255.133 90.6751 253.933C91.7751 252.733 92.6751 251.433 93.5751 250.133C94.3751 248.933 95.4751 247.933 96.3751 246.733C98.2751 244.233 99.7751 241.433 101.475 238.733C103.275 235.933 104.575 232.933 105.875 229.933C107.075 227.133 108.675 224.633 110.575 222.333C112.475 219.933 114.575 217.733 116.475 215.433C117.475 214.233 118.475 212.933 119.275 211.633C120.175 210.133 120.975 208.633 121.675 207.033C122.375 205.533 123.075 203.933 123.875 202.533C124.675 201.033 125.575 199.633 126.375 198.133C127.875 195.233 128.375 192.033 129.175 188.933C129.475 187.933 129.675 186.733 130.475 186.033C129.575 185.833 128.575 185.533 127.675 185.333C127.575 185.033 127.675 184.933 127.975 184.733C128.375 184.433 128.375 184.333 128.075 184.533C127.175 184.733 126.675 185.733 126.875 186.633C127.275 187.133 128.175 187.533 129.075 187.333Z" fill="black"/>
<path d="M208.875 327.833C208.875 326.933 208.875 325.933 208.875 325.033C207.775 325.033 206.675 325.033 205.575 325.033C205.775 326.733 204.875 328.333 204.175 329.833C203.275 331.733 202.275 333.633 201.275 335.533C199.375 339.433 197.275 343.233 194.975 346.833C193.875 348.633 192.275 350.033 190.775 351.533C189.175 353.033 188.075 354.633 187.075 356.533C186.075 358.533 184.975 360.333 184.075 362.433C183.175 364.433 182.375 366.433 181.475 368.333C180.575 370.433 179.575 372.533 178.775 374.733C177.975 376.833 177.375 378.933 176.675 381.033C175.875 383.233 174.975 385.333 174.275 387.633C173.675 389.633 173.275 391.833 172.775 393.833C172.475 394.833 172.275 395.833 171.775 396.833C171.275 397.833 170.775 398.733 170.575 399.833C170.075 401.833 169.675 403.933 169.275 406.033C168.775 408.233 168.275 410.333 167.375 412.433C166.575 414.333 165.575 416.133 164.575 417.833C162.575 421.333 160.775 424.933 159.675 428.833C159.275 430.333 158.775 431.933 158.175 433.233C157.975 433.533 157.875 433.933 157.675 434.233C157.575 434.433 157.275 434.933 157.275 434.933C157.175 435.033 157.075 435.133 156.975 435.233C156.975 435.233 156.575 435.633 156.675 435.533C156.875 435.433 156.475 435.633 156.475 435.633C156.375 435.733 156.275 435.733 156.175 435.733C156.375 435.633 156.375 435.633 156.175 435.733C154.175 436.433 154.975 439.633 157.075 438.933C159.975 438.033 161.275 434.733 162.175 432.033C162.575 430.733 162.975 429.433 163.375 428.033C163.875 426.333 164.575 424.733 165.375 423.233C167.375 419.333 169.775 415.733 171.275 411.633C172.075 409.433 172.375 407.133 172.975 404.933C173.475 402.933 173.675 400.833 174.575 398.933C175.575 396.933 176.175 394.733 176.675 392.533C177.175 390.333 177.775 388.133 178.575 386.033C180.175 381.733 181.475 377.233 183.275 372.933C184.975 368.833 186.675 364.633 188.775 360.733C189.275 359.733 189.875 358.833 190.375 357.833C190.875 356.933 191.275 356.033 191.875 355.233C193.275 353.533 195.075 352.233 196.475 350.533C197.975 348.633 199.075 346.433 200.275 344.333C201.575 342.233 202.775 340.033 203.875 337.833C204.975 335.533 206.175 333.333 207.275 331.033C208.175 329.133 209.275 326.933 208.975 324.733C208.875 323.833 208.275 323.033 207.275 323.033C206.375 323.033 205.575 323.833 205.575 324.733C205.575 325.633 205.575 326.633 205.575 327.533C205.475 329.933 208.875 329.933 208.875 327.833Z" fill="black"/>
<path d="M190.875 279.134C191.975 280.234 193.175 281.234 194.575 281.934C196.075 282.634 197.575 282.634 199.275 282.734C201.075 282.834 202.775 283.034 204.575 282.834C206.375 282.634 207.675 281.734 208.975 280.634C209.475 280.234 209.975 279.734 210.475 279.434C210.775 279.234 211.175 278.934 211.475 278.834C211.675 278.834 211.975 278.934 212.275 278.934C213.275 278.834 214.075 278.334 214.775 277.734C215.475 277.234 216.175 276.834 216.875 276.634C218.675 276.034 220.475 275.534 222.175 274.634C222.975 274.234 223.675 273.734 224.375 273.334C225.175 272.934 225.975 272.634 226.775 272.334C228.275 271.734 229.675 270.934 230.775 269.734C231.575 268.734 232.275 267.634 232.875 266.534C233.475 265.534 234.075 264.534 234.875 263.934C235.275 263.634 235.575 263.434 236.075 263.334C236.275 263.334 236.375 263.334 236.675 263.234C236.875 263.234 237.375 263.334 237.475 263.234C236.975 263.434 236.475 262.534 236.275 262.334C236.275 262.634 236.375 262.934 236.375 263.234C236.475 264.134 236.475 264.934 236.275 265.834C235.875 267.634 234.875 269.234 233.875 270.834C232.975 272.434 232.375 274.134 231.275 275.534C230.075 277.034 229.075 278.534 228.175 280.234C227.275 281.934 226.375 283.534 225.375 285.134C224.375 286.634 223.775 288.334 222.975 289.934C222.175 291.434 221.175 292.734 220.075 294.034C218.875 295.534 217.575 296.934 216.475 298.534C215.275 300.134 214.275 301.834 213.375 303.534C212.475 305.334 211.475 307.234 210.775 309.134C210.075 310.834 209.875 312.634 209.275 314.334C208.775 316.034 207.975 317.634 207.375 319.334C206.075 322.534 204.975 325.934 205.775 329.334C206.175 331.134 207.175 332.534 208.375 334.034C209.375 335.334 210.575 336.534 211.875 337.534C213.275 338.634 214.975 339.534 216.875 339.534C218.775 339.534 220.475 338.634 221.375 336.934C221.675 336.434 221.975 335.834 222.375 335.434C222.975 334.734 223.775 334.034 224.475 333.334C225.875 332.034 226.975 330.534 228.275 329.134C229.475 327.834 230.875 326.834 231.975 325.534C233.075 324.234 234.075 322.834 235.075 321.434C237.375 318.134 239.575 314.634 241.875 311.334C242.375 310.534 242.975 309.634 243.575 308.834C244.075 308.134 244.775 307.534 245.475 306.934C246.875 305.734 247.975 304.434 249.175 303.034C250.575 301.434 251.975 299.934 253.175 298.334C254.275 296.834 255.475 295.534 256.775 294.234C258.075 293.034 259.275 291.734 260.075 290.234C261.075 288.334 258.275 286.634 257.175 288.534C256.375 290.034 255.175 291.134 253.975 292.234C252.575 293.534 251.475 295.034 250.375 296.534C249.175 298.134 247.775 299.534 246.475 301.034C245.275 302.434 244.175 303.634 242.775 304.834C241.375 306.134 240.375 307.634 239.275 309.134C238.175 310.834 237.075 312.534 235.975 314.234C233.975 317.234 232.075 320.434 229.675 323.034C228.575 324.334 227.175 325.334 225.975 326.634C224.775 327.934 223.675 329.434 222.375 330.634C221.075 331.834 219.775 333.034 218.875 334.634C218.575 335.134 218.375 335.634 217.975 335.834C217.375 336.234 216.575 336.134 215.875 335.834C214.475 335.334 213.375 334.234 212.375 333.134C211.275 332.034 210.175 330.834 209.475 329.434C208.175 326.534 209.475 323.234 210.475 320.534C211.075 318.934 211.775 317.434 212.375 315.834C212.975 314.134 213.275 312.434 213.775 310.734C214.375 308.934 215.275 307.234 216.075 305.534C216.875 303.834 217.975 302.134 219.075 300.634C221.075 297.734 223.775 295.334 225.575 292.234C226.475 290.634 227.075 288.934 227.975 287.334C228.975 285.734 229.875 284.234 230.775 282.534C231.575 280.934 232.375 279.334 233.475 277.934C234.675 276.434 235.475 274.834 236.375 273.134C237.275 271.434 238.275 269.934 238.975 268.134C239.675 266.434 239.975 264.534 239.775 262.634C239.575 261.334 239.475 259.734 237.675 259.634C236.375 259.534 235.075 259.734 233.975 260.234C231.675 261.334 230.475 263.834 229.075 265.934C228.475 266.934 227.875 267.734 226.675 268.334C225.175 269.134 223.575 269.434 222.075 270.234C221.275 270.634 220.575 271.134 219.775 271.534C218.975 271.934 218.075 272.234 217.175 272.534C216.275 272.834 215.375 273.134 214.575 273.434C213.675 273.834 213.075 274.334 212.275 274.834C212.175 274.934 211.875 275.134 211.775 275.134C211.475 275.234 210.975 275.034 210.575 275.134C209.775 275.334 209.075 275.734 208.375 276.234C207.175 277.034 206.175 278.334 204.775 278.934C203.475 279.434 201.675 279.134 200.275 279.134C198.875 279.034 197.375 279.234 195.975 278.734C194.875 278.334 193.875 277.434 192.975 276.534C191.775 275.234 189.375 277.634 190.875 279.134Z" fill="black"/>
<path d="M226.375 344.533C226.575 344.533 226.775 344.633 226.975 344.633C226.575 344.233 226.175 343.833 225.775 343.433C225.975 344.133 225.975 344.833 226.075 345.533C226.175 346.233 226.375 346.833 226.575 347.433C227.075 348.833 227.875 350.033 228.975 350.933C231.075 352.633 234.275 353.733 236.975 353.533C238.275 353.433 239.575 352.933 240.775 352.733C241.975 352.533 243.175 352.433 244.175 351.633C245.375 350.833 246.475 350.133 247.875 349.633C249.175 349.233 250.475 349.033 251.775 348.633C253.275 348.233 254.675 347.633 255.875 346.633C256.875 345.833 257.575 344.733 258.375 343.733C259.375 342.533 260.475 341.533 261.375 340.433C262.375 339.233 263.175 338.033 264.175 336.833C266.075 334.633 268.375 332.733 270.475 330.833C271.575 329.833 272.675 328.833 273.575 327.633C274.475 326.533 275.175 325.233 275.975 324.033C276.375 323.433 276.875 322.833 277.375 322.433C277.975 322.033 278.575 321.733 279.175 321.233C279.775 320.633 280.275 319.933 280.375 319.133C280.475 318.433 280.375 317.633 280.575 316.933C280.875 315.633 281.975 314.233 282.875 313.233C283.975 311.933 285.175 310.733 286.375 309.533C285.575 308.733 284.775 307.933 283.975 307.133C283.575 307.533 283.075 308.033 282.675 308.433C281.175 309.933 283.475 312.333 285.075 310.833C285.475 310.433 285.975 309.933 286.375 309.533C287.875 308.033 285.575 305.633 283.975 307.133C281.975 309.133 279.875 311.133 278.375 313.633C277.575 314.933 277.175 316.133 277.075 317.633C277.075 318.033 277.075 318.433 276.875 318.733C276.575 319.133 275.875 319.333 275.475 319.733C273.275 321.333 272.375 323.933 270.575 325.933C268.675 328.033 266.475 329.833 264.375 331.733C263.375 332.633 262.375 333.633 261.475 334.733C260.575 335.833 259.775 337.033 258.775 338.133C257.875 339.233 256.775 340.233 255.775 341.333C254.975 342.233 254.375 343.333 253.475 344.133C251.675 345.833 248.675 345.833 246.475 346.633C245.075 347.133 243.675 347.733 242.575 348.633C242.175 348.933 241.775 349.233 241.375 349.333C241.275 349.333 240.875 349.433 240.875 349.433C240.775 349.433 240.275 349.533 240.075 349.533C238.775 349.733 237.375 350.333 236.075 350.333C234.775 350.333 233.375 349.933 232.275 349.333C231.075 348.733 230.075 348.033 229.575 346.833C229.275 346.233 229.075 345.633 228.975 345.033C228.875 344.233 228.875 343.433 228.575 342.633C228.375 342.133 227.975 341.633 227.375 341.433C227.175 341.433 226.975 341.333 226.775 341.333C225.875 341.133 224.975 341.633 224.675 342.533C224.975 343.333 225.475 344.333 226.375 344.533Z" fill="black"/>
<path d="M63.5751 147.933C65.4751 149.033 66.9751 150.833 68.8751 151.933C70.6751 153.033 71.9751 154.633 73.7751 155.833C74.6751 156.433 75.5751 156.833 76.5751 157.233C77.6751 157.733 78.6751 158.333 79.7751 158.933C81.7751 160.033 83.7751 160.933 85.9751 161.533C88.2751 162.133 90.5751 162.733 92.8751 163.433C93.9751 163.833 95.0751 164.133 96.1751 164.633C97.1751 165.033 97.8751 165.833 98.7751 166.233C99.6751 166.733 100.775 166.933 101.775 167.333C102.875 167.733 103.975 168.333 104.975 168.933C106.875 170.033 108.775 171.233 110.475 172.733C112.175 174.133 113.675 175.733 115.375 177.033C117.275 178.533 119.475 179.833 121.475 181.133C125.675 183.933 129.875 186.733 134.175 189.433C136.275 190.733 138.275 192.233 140.275 193.633C142.275 195.033 144.375 196.433 146.275 197.933C148.175 199.433 149.875 201.033 151.775 202.533C153.675 204.033 155.775 205.233 157.775 206.633C159.675 207.933 161.175 209.733 163.075 211.133C163.875 211.633 164.675 211.933 165.475 212.333C166.575 212.833 167.575 213.533 168.675 214.033C170.675 215.033 172.775 215.933 174.675 217.233C176.275 218.333 177.175 219.933 178.575 221.333C180.075 222.833 182.175 223.333 183.875 224.633C185.575 225.833 186.675 227.733 188.175 229.133C188.875 229.833 189.675 230.533 190.675 230.933C191.675 231.333 192.475 231.633 193.275 232.333C194.875 233.733 196.375 235.033 198.375 235.933C200.375 236.833 202.475 237.433 204.575 238.133C206.875 238.933 208.575 240.233 210.675 241.333C212.675 242.533 214.775 243.433 216.875 244.433C219.175 245.533 221.675 245.933 223.875 247.033C225.875 248.033 227.675 249.533 229.675 250.533C231.775 251.533 233.775 252.933 235.775 254.133C237.775 255.333 239.975 256.333 242.075 257.433C244.175 258.533 246.275 259.733 248.375 260.733C252.775 262.833 257.475 264.133 261.875 266.333C266.075 268.333 269.675 271.633 274.175 273.033C276.175 273.633 278.275 273.633 280.275 274.333C282.475 275.133 284.475 276.033 286.775 276.633C288.875 277.133 290.175 278.733 292.075 279.833C294.175 281.133 296.475 281.033 298.775 281.533C299.875 281.733 300.975 282.133 302.075 282.433C303.275 282.633 304.375 282.833 305.575 282.833C307.675 282.933 307.675 279.533 305.575 279.533C303.175 279.433 301.175 278.533 298.875 278.233C296.575 277.933 294.575 277.733 292.675 276.233C291.875 275.633 291.075 274.933 290.175 274.433C289.175 273.833 288.075 273.633 286.975 273.333C284.675 272.833 282.675 271.633 280.475 270.933C278.575 270.333 276.475 270.433 274.575 269.633C272.475 268.733 270.475 267.433 268.575 266.233C264.475 263.633 260.075 261.833 255.575 260.033C253.275 259.133 251.075 258.333 248.875 257.233C246.775 256.133 244.675 254.933 242.575 253.933C240.475 252.933 238.475 251.933 236.475 250.633C234.375 249.333 232.275 248.233 230.175 247.033C228.175 245.933 226.575 244.533 224.475 243.633C222.175 242.733 219.875 242.133 217.675 241.033C215.575 239.933 213.375 239.033 211.375 237.733C209.475 236.433 207.575 235.533 205.475 234.833C203.475 234.133 201.275 233.533 199.375 232.633C197.475 231.733 196.275 230.133 194.575 228.933C193.775 228.333 192.775 228.233 191.875 227.733C190.975 227.233 190.275 226.333 189.675 225.633C188.275 224.033 186.975 222.433 185.075 221.333C183.275 220.333 181.675 219.733 180.375 218.033C179.075 216.433 177.775 215.133 175.875 214.033C173.975 212.933 171.975 212.033 169.975 211.033C168.975 210.533 168.075 209.933 167.075 209.433C166.075 209.033 165.375 208.633 164.475 207.933C162.675 206.433 160.975 204.833 158.975 203.433C157.075 202.133 154.975 200.933 153.175 199.433C151.275 197.833 149.475 196.133 147.475 194.733C145.475 193.333 143.575 191.933 141.575 190.533C137.475 187.633 133.175 185.033 129.075 182.233C126.975 180.833 124.875 179.333 122.775 178.033C120.775 176.733 118.775 175.533 116.975 174.033C115.275 172.633 113.775 171.133 112.075 169.733C110.275 168.333 108.375 167.033 106.375 165.933C105.375 165.333 104.375 164.833 103.275 164.433C102.275 164.033 101.175 163.833 100.175 163.333C99.3751 162.833 98.7751 162.233 97.9751 161.933C96.7751 161.433 95.4751 160.933 94.2751 160.533C92.0751 159.833 89.8751 159.233 87.5751 158.633C85.2751 158.033 83.2751 157.133 81.1751 156.033C79.3751 155.033 77.1751 154.333 75.5751 153.133C74.7751 152.533 74.0751 151.733 73.2751 151.133C72.3751 150.333 71.3751 149.733 70.3751 149.133C68.5751 148.033 67.2751 146.433 65.4751 145.333C63.3751 143.933 61.6751 146.833 63.5751 147.933Z" fill="black"/>
<path d="M289.475 173.634C290.875 174.334 292.175 175.034 293.375 175.934C294.675 176.834 295.875 177.934 297.175 178.834C298.475 179.834 299.875 180.834 301.175 181.834C302.475 182.734 303.775 183.534 304.775 184.534C305.775 185.534 306.675 186.634 307.875 187.534C309.075 188.534 310.275 189.434 311.475 190.434C312.575 191.334 313.475 192.334 314.275 193.534C315.075 194.834 315.875 196.234 316.875 197.434C318.675 199.734 320.575 201.734 322.275 204.134C323.075 205.334 323.875 206.634 324.475 207.934C325.075 209.334 325.575 210.634 326.375 211.934C328.175 214.634 330.275 217.034 332.375 219.534C334.075 221.434 335.175 224.034 335.575 226.534C335.775 227.934 335.775 229.434 335.675 230.934C335.575 232.334 335.375 233.734 334.675 234.934C333.375 237.034 330.575 237.834 328.275 237.834C326.175 237.834 326.075 241.134 328.275 241.134C330.875 241.134 333.775 240.334 335.775 238.634C338.175 236.734 338.975 233.534 339.075 230.534C339.175 227.534 338.875 224.634 337.675 221.834C337.075 220.434 336.275 219.134 335.375 217.834C334.375 216.534 333.175 215.434 332.175 214.134C331.175 212.834 330.175 211.634 329.375 210.234C328.475 208.834 327.975 207.334 327.275 205.834C325.975 202.934 323.875 200.534 321.875 198.034C320.875 196.934 319.975 195.734 319.075 194.534C318.175 193.234 317.475 191.834 316.575 190.534C314.575 187.934 311.775 186.334 309.475 184.134C308.175 182.834 307.075 181.534 305.575 180.434C303.975 179.334 302.275 178.234 300.775 177.034C299.175 175.834 297.775 174.634 296.175 173.434C294.675 172.334 293.175 171.434 291.475 170.634C289.175 169.734 287.475 172.634 289.475 173.634Z" fill="black"/>
<path d="M270.175 129.234C272.375 129.834 273.875 128.034 274.875 126.334C275.275 125.634 275.675 124.834 276.175 124.034C276.275 123.934 276.375 123.734 276.475 123.634C276.575 123.434 276.375 123.734 276.375 123.734C276.475 123.634 276.575 123.534 276.675 123.434C277.175 122.934 277.775 122.434 278.275 121.934C280.475 119.934 282.275 117.634 284.075 115.134C284.875 113.934 285.575 112.834 286.175 111.534C286.775 110.334 287.575 109.334 288.475 108.334C289.475 107.234 290.375 106.134 291.275 104.934C292.075 103.834 292.675 102.634 293.575 101.634C295.375 99.5335 297.375 97.5335 299.075 95.3335C300.775 93.1335 302.275 90.6335 304.075 88.4335C305.775 86.2335 307.875 84.3335 309.575 82.1335C311.275 79.9335 312.475 77.4336 313.875 75.0336C315.275 72.6336 317.075 70.6335 319.075 68.6335C320.075 67.6335 320.975 66.4335 321.875 65.3335C322.275 64.7335 322.675 64.2335 323.075 63.6335C323.375 63.1335 323.675 62.5335 324.075 62.1335C324.475 61.7335 325.175 61.9335 325.675 61.6335C326.275 61.3335 326.875 60.7336 327.275 60.2336C328.075 59.2336 328.675 58.0336 329.675 57.2336C330.775 56.3336 331.975 55.7335 332.975 54.8335C334.075 53.9335 335.075 52.9335 336.175 51.9335C338.375 49.8335 340.575 47.9336 342.875 46.0336C347.475 42.2336 352.075 38.5336 355.875 34.0336C356.775 32.9336 357.675 31.8335 358.675 30.7335C359.675 29.7335 360.675 28.8335 361.675 27.8335C362.775 26.8335 363.675 25.7335 364.875 24.8335C365.975 23.9335 367.175 23.2335 368.275 22.4335C370.775 20.8335 373.175 18.9336 375.575 17.2336C378.175 15.4336 380.775 13.6335 383.275 11.7335C384.575 10.8335 385.775 9.93355 386.975 9.03355C386.175 8.43355 385.375 7.73354 384.475 7.13354C384.475 7.33354 384.475 7.43354 384.375 7.63354C384.275 8.53354 384.575 9.43355 385.575 9.73355C386.375 9.93355 387.475 9.43355 387.675 8.53355C387.675 8.33355 387.675 8.23355 387.775 8.03355C387.875 7.33355 387.775 6.73355 387.175 6.23355C386.675 5.83355 385.875 5.73354 385.275 6.13354C380.775 9.53354 375.975 12.6336 371.475 16.0336C369.375 17.6336 367.175 19.0336 364.975 20.5336C362.775 22.0336 360.975 23.8335 359.075 25.6335C357.175 27.4335 355.375 29.2335 353.775 31.2335C352.175 33.1335 350.375 35.0335 348.475 36.7335C344.375 40.4335 339.875 43.6335 335.875 47.4335C333.775 49.3335 331.775 51.4335 329.475 53.1335C328.375 53.9335 327.175 54.6336 326.275 55.7336C325.475 56.7336 324.875 57.9335 323.875 58.6335C324.175 58.5335 324.475 58.4335 324.675 58.4335C322.975 58.5335 321.775 59.3336 320.775 60.7336C319.875 62.0336 319.075 63.2335 318.075 64.4335C316.075 66.8335 313.775 68.8335 312.075 71.3335C310.375 73.8335 309.175 76.5335 307.475 78.9335C305.775 81.3335 303.575 83.3336 301.775 85.7336C299.875 88.1336 298.275 90.7336 296.375 93.2336C294.575 95.6336 292.375 97.6335 290.475 99.9335C289.475 101.234 288.775 102.634 287.775 103.834C286.875 104.934 285.875 106.034 284.875 107.134C283.875 108.334 283.275 109.734 282.475 111.134C281.775 112.534 280.775 113.734 279.875 114.934C278.875 116.334 277.775 117.534 276.475 118.734C275.375 119.734 274.175 120.734 273.275 121.934C272.675 122.834 272.275 123.834 271.675 124.634C271.375 125.134 271.275 125.234 270.975 125.634C270.975 125.634 270.675 125.834 270.875 125.734C271.075 125.634 270.675 125.834 270.675 125.834C270.975 125.734 270.775 125.834 270.675 125.834C270.775 125.834 271.175 125.834 270.875 125.834C268.975 125.434 268.075 128.634 270.175 129.234Z" fill="black"/>
<path d="M211.075 75.4339C211.075 73.5339 212.075 71.9339 212.575 70.1339C213.175 68.1339 213.575 66.1339 214.375 64.2339C215.875 60.7339 218.475 57.8339 220.975 55.0339C222.275 53.6339 223.475 52.3339 224.875 51.0339C226.375 49.6339 227.375 47.9339 228.375 46.1339C228.875 45.3339 229.275 44.5339 229.775 43.6339C230.275 42.7339 230.675 41.7339 231.275 40.8339C231.775 40.2339 232.375 39.7339 232.975 39.1339C233.675 38.4339 234.175 37.6339 234.775 36.9339C236.875 34.3339 239.475 32.2339 242.375 30.5339C243.875 29.7339 245.375 28.9339 246.975 28.3339C248.375 27.8339 249.275 28.0339 250.775 28.5339C252.175 29.0339 253.775 29.5339 254.975 30.5339C256.175 31.6339 256.675 33.3339 256.775 34.9339C256.875 35.8339 256.875 36.7339 256.875 37.6339C256.875 38.6339 256.975 39.6339 256.775 40.6339C256.575 42.3339 255.875 43.9339 255.075 45.5339C254.575 46.5339 253.975 47.5339 253.475 48.5339C252.975 49.5339 252.675 50.5339 252.375 51.6339C251.775 53.7339 250.275 55.1339 249.275 57.0339C248.175 59.1339 247.375 61.2339 246.475 63.4339C246.075 64.3339 245.875 65.3339 245.475 66.2339C244.975 67.4339 244.675 68.3339 244.775 69.6339C244.875 70.5339 246.075 71.0339 246.875 70.8339C247.875 70.5339 248.175 69.6339 248.075 68.7339C248.075 68.5339 248.275 68.0339 248.375 67.8339C248.575 67.4339 248.775 66.9339 248.875 66.5339C249.175 65.6339 249.475 64.7339 249.875 63.8339C250.775 61.8339 251.475 59.8339 252.575 57.9339C253.075 57.1339 253.675 56.4339 254.175 55.6339C254.775 54.7339 255.175 53.7339 255.575 52.7339C255.875 51.8339 256.075 50.8339 256.475 49.9339C256.975 49.0339 257.475 48.1339 257.975 47.1339C258.875 45.3339 259.675 43.4339 260.075 41.5339C260.375 39.5339 260.375 37.3339 260.175 35.2339C259.975 33.2339 259.675 31.2339 258.575 29.5339C257.475 27.8339 255.675 26.7339 253.875 26.0339C252.275 25.3339 250.475 24.6339 248.675 24.5339C246.975 24.4339 245.375 25.2339 243.875 25.8339C240.475 27.4339 237.275 29.3339 234.575 31.9339C233.275 33.2339 232.175 34.6339 231.075 36.0339C230.475 36.8339 229.675 37.3339 228.975 38.1339C228.275 38.9339 227.775 39.9339 227.275 40.8339C226.375 42.7339 225.375 44.6339 224.275 46.3339C223.275 47.9339 221.575 49.0339 220.275 50.4339C217.275 53.8339 213.875 57.1339 211.875 61.3339C210.775 63.5339 210.175 65.9339 209.475 68.3339C208.875 70.6339 207.675 72.7339 207.675 75.1339C207.775 77.6339 211.075 77.6339 211.075 75.4339Z" fill="black"/>
<path d="M299.175 336.834C299.175 340.434 298.675 344.134 299.275 347.634C299.675 350.234 301.275 351.834 303.875 352.034C306.575 352.234 309.575 352.634 312.175 351.834C313.675 351.334 315.075 350.434 316.375 349.734C317.975 348.834 319.575 348.234 321.275 347.534C324.275 346.134 327.275 343.934 329.375 341.434C330.275 340.334 331.175 339.134 331.975 337.934C333.075 336.434 334.275 335.234 335.475 333.934C337.775 331.334 339.975 328.634 342.475 326.234C344.875 323.934 347.675 322.234 350.175 320.134C351.175 319.234 352.475 318.534 353.475 317.634C354.675 316.534 355.375 314.934 356.175 313.534C357.675 310.834 359.075 307.934 360.875 305.334C361.775 304.034 362.875 303.034 363.775 301.734C364.675 300.334 365.375 298.934 366.575 297.734C367.575 296.634 368.475 295.434 369.375 294.234C370.475 292.734 371.575 291.334 372.775 289.934C374.775 287.434 375.475 284.334 377.775 282.034C378.875 280.934 379.675 279.934 380.175 278.434C380.675 276.934 381.175 275.834 382.075 274.534C382.875 273.334 383.175 272.134 383.575 270.734C384.075 269.134 384.775 267.534 385.575 266.134C387.175 263.234 389.075 260.534 390.875 257.734C391.675 256.434 392.475 255.234 393.075 253.834C393.675 252.434 393.675 250.934 394.175 249.434C395.175 246.134 397.475 242.834 399.375 240.034C401.275 237.234 403.875 234.934 405.675 232.134C406.475 230.834 407.175 229.434 408.175 228.134C409.275 226.834 410.375 225.634 411.375 224.234C413.275 221.434 414.875 218.534 416.875 215.734C418.975 212.834 421.175 210.034 423.275 207.134C425.275 204.334 426.975 201.334 428.875 198.534C430.675 195.834 432.975 193.434 434.975 190.834C437.275 187.834 439.475 184.734 441.575 181.534C443.275 178.934 445.675 176.834 446.975 174.034C447.575 172.734 447.875 171.234 448.475 169.934C449.175 168.334 449.875 166.734 450.475 165.234C451.175 163.734 452.175 162.534 453.275 161.334C454.375 160.034 455.375 158.534 456.375 157.134C457.275 155.734 457.975 154.334 458.875 153.034C459.875 151.534 461.075 150.134 462.075 148.634C462.975 147.334 463.675 146.034 464.275 144.534C464.975 142.734 465.975 141.234 466.875 139.634C467.675 138.234 468.175 136.834 468.675 135.334C469.175 133.834 469.775 132.634 470.675 131.334C472.475 128.434 473.675 125.134 475.475 122.234C478.975 116.434 481.975 110.134 484.375 103.734C485.675 100.334 486.775 96.9343 487.775 93.4343C488.775 89.9343 489.275 86.3343 490.175 82.8343C491.075 79.3343 491.175 75.6343 491.875 72.0343C492.575 68.5343 493.175 64.9343 494.175 61.4343C495.175 57.8343 496.575 54.3343 497.775 50.7343C498.275 49.1343 498.975 47.7343 499.575 46.2343C500.175 44.7343 500.375 43.0343 500.975 41.4343C502.175 38.2343 504.575 35.2343 506.775 32.7343C508.175 31.1343 505.875 28.7343 504.375 30.3343C502.075 32.8343 500.075 35.6343 498.475 38.6343C497.775 39.9343 497.375 41.3343 497.075 42.7343C496.675 44.4343 495.875 45.9343 495.275 47.5343C493.975 50.7343 492.975 54.2343 491.875 57.5343C490.775 60.8343 489.975 64.2343 489.275 67.7343C488.575 71.2343 487.975 74.7343 487.475 78.3343C487.275 80.1343 486.875 81.7343 486.375 83.4343C485.875 85.1343 485.675 86.9343 485.375 88.6343C483.975 95.4343 481.375 102.234 478.475 108.534C477.075 111.634 475.875 114.834 474.075 117.734C472.375 120.634 470.775 123.434 469.275 126.434C467.975 129.134 466.175 131.434 465.375 134.434C464.875 135.934 464.275 137.234 463.475 138.634C462.475 140.234 461.775 141.734 461.075 143.434C459.775 146.434 457.575 148.834 455.775 151.534C453.875 154.434 452.275 157.334 449.975 159.934C447.875 162.334 446.775 165.334 445.575 168.334C444.975 169.734 444.675 171.134 444.075 172.434C443.375 173.834 442.375 175.134 441.275 176.334C439.175 178.934 437.375 181.834 435.375 184.534C433.375 187.334 431.275 190.134 429.075 192.734C426.975 195.234 425.275 197.934 423.575 200.734C421.775 203.534 419.775 206.334 417.675 209.034C415.575 211.834 413.475 214.534 411.575 217.434C409.775 220.234 408.175 222.934 406.075 225.434C403.975 227.934 402.575 230.934 400.475 233.334C398.275 235.834 396.275 238.534 394.475 241.434C392.775 244.234 391.175 247.134 390.575 250.334C389.975 253.434 388.075 255.834 386.375 258.434C384.675 261.034 382.975 263.634 381.675 266.534C381.075 267.934 380.575 269.334 380.075 270.834C379.675 272.234 378.775 273.134 378.075 274.334C377.375 275.634 377.275 277.134 376.475 278.334C375.575 279.634 374.275 280.534 373.375 281.834C372.575 283.034 371.875 284.434 371.275 285.734C370.575 287.334 369.375 288.434 368.275 289.734C367.275 290.934 366.475 292.334 365.575 293.534C364.575 294.834 363.375 295.834 362.375 297.134C361.575 298.334 360.975 299.634 360.075 300.734C359.075 301.934 358.075 303.134 357.175 304.534C355.475 307.134 354.075 310.034 352.575 312.734C351.775 314.034 351.075 315.034 349.875 315.934C348.575 316.834 347.475 317.834 346.275 318.834C345.075 319.834 343.575 320.634 342.375 321.634C341.175 322.634 339.975 323.734 338.875 324.834C336.475 327.334 334.175 330.134 331.775 332.634C329.575 334.934 328.075 337.734 325.775 340.034C323.275 342.634 320.375 343.934 317.175 345.334C314.275 346.634 311.875 348.634 308.675 348.734C307.275 348.734 305.975 348.634 304.575 348.534C303.275 348.434 302.675 348.334 302.375 346.934C301.775 343.534 302.375 339.934 302.375 336.534C302.575 334.734 299.175 334.734 299.175 336.834Z" fill="black"/>
<path d="M505.575 33.3334C507.675 33.3334 507.775 30.0334 505.575 30.0334C503.475 29.9334 503.475 33.3334 505.575 33.3334Z" fill="black"/>
<path d="M273.875 359.934C273.775 359.334 273.775 358.834 273.575 358.334C272.575 358.734 271.575 359.234 270.475 359.634C270.975 360.434 270.875 361.534 271.175 362.534C271.575 363.734 272.175 364.734 272.775 365.734C273.875 367.734 274.475 369.934 275.275 372.134C275.675 373.234 276.075 374.334 276.375 375.434C276.675 376.534 277.075 377.634 277.075 378.734C277.175 379.934 277.175 381.034 277.775 382.034C278.175 382.934 278.775 383.534 278.875 384.534C278.975 385.734 279.175 386.734 279.875 387.634C280.175 388.134 280.575 388.534 280.775 389.034C281.175 389.634 281.375 390.334 281.675 390.934C282.675 393.134 283.475 395.434 284.375 397.634C285.275 399.834 286.375 401.934 287.175 404.134C288.075 406.334 288.075 408.734 288.575 411.034C289.075 413.334 289.675 415.534 290.375 417.734C291.175 420.034 292.075 422.234 293.075 424.434C293.975 426.534 294.475 428.834 295.175 430.934C295.975 433.434 296.875 435.834 297.575 438.234C297.875 439.234 298.175 440.334 298.275 441.434C298.475 442.634 298.475 443.934 298.675 445.134C299.075 447.434 300.275 449.434 300.875 451.634C301.175 452.634 301.575 453.634 301.675 454.634C301.775 455.734 301.875 456.734 302.275 457.734C302.675 458.734 303.175 459.734 303.675 460.734C304.175 461.834 304.575 463.034 304.975 464.234C305.475 465.534 306.075 466.834 306.475 468.134C306.875 469.334 307.075 470.634 307.575 471.834C307.975 472.834 308.675 473.734 308.875 474.834C309.075 476.134 309.075 477.634 309.275 478.934C309.575 481.534 309.975 484.134 310.575 486.634C311.075 489.134 312.175 491.534 312.575 494.134C312.875 495.834 315.375 495.634 315.775 494.134C315.775 494.034 315.875 493.834 315.875 493.734C316.375 491.634 313.175 490.734 312.675 492.834C312.675 492.934 312.575 493.134 312.575 493.234C313.675 493.234 314.675 493.234 315.775 493.234C315.475 490.934 314.575 488.834 313.975 486.534C313.475 484.334 313.175 482.134 312.775 479.934C312.375 477.634 312.675 475.034 311.775 472.834C311.375 471.934 310.875 471.134 310.575 470.134C310.175 468.934 309.975 467.634 309.475 466.434C308.575 464.234 307.775 461.934 306.875 459.734C306.475 458.834 305.875 457.934 305.575 456.934C305.175 455.834 305.175 454.734 304.975 453.634C304.575 451.434 303.775 449.234 302.975 447.234C302.575 446.234 302.175 445.134 301.975 444.134C301.775 442.934 301.775 441.634 301.575 440.334C301.175 437.934 300.375 435.634 299.575 433.334C298.775 431.034 298.075 428.634 297.275 426.234C296.575 424.034 295.575 421.934 294.775 419.734C293.875 417.534 293.175 415.234 292.575 412.934C292.275 411.834 292.075 410.734 291.775 409.734C291.575 408.534 291.475 407.334 291.275 406.134C290.975 403.734 289.775 401.434 288.775 399.234C287.775 397.034 286.975 394.834 286.075 392.634C285.175 390.434 284.275 388.034 282.875 386.034C282.575 385.534 282.275 385.234 282.275 384.634C282.175 384.034 282.175 383.434 282.075 382.834C281.775 381.734 280.975 380.934 280.675 379.834C280.475 379.234 280.575 378.534 280.475 377.834C280.375 377.034 280.175 376.434 279.975 375.634C279.675 374.434 279.475 373.234 278.975 372.034C277.975 369.534 277.175 367.034 276.075 364.534C275.575 363.434 274.775 362.434 274.375 361.234C273.975 359.934 274.075 358.734 273.375 357.534C272.375 355.934 269.875 356.934 270.275 358.834C270.375 359.034 270.375 359.334 270.475 359.534C270.575 360.434 271.175 361.234 272.175 361.234C273.075 361.634 273.975 360.834 273.875 359.934Z" fill="black"/>
<path d="M374.475 285.133C375.875 286.733 376.875 288.733 377.775 290.633C378.775 292.733 379.275 295.133 380.575 297.033C381.975 299.133 383.675 300.933 384.975 303.033C386.375 305.233 387.275 307.633 388.375 309.933C390.475 314.533 393.675 318.633 395.675 323.333C396.575 325.533 397.975 327.433 399.075 329.533C399.575 330.533 399.775 331.633 400.075 332.733C400.375 334.033 400.775 335.233 401.175 336.533C401.975 339.033 402.975 341.533 404.275 343.833C405.475 345.933 406.975 348.033 408.475 349.933C409.975 351.933 411.475 353.933 412.875 356.033C414.375 358.233 415.575 360.633 416.975 362.833C417.675 364.033 418.475 365.133 419.175 366.333C419.775 367.433 420.175 368.533 420.575 369.633C421.375 372.033 421.975 374.433 423.375 376.533C423.975 377.533 424.775 378.433 425.375 379.333C426.075 380.333 426.675 381.533 427.375 382.533C428.775 384.733 430.375 386.733 431.975 388.733C435.375 393.033 438.675 397.333 441.775 401.833C443.175 403.933 444.575 405.933 446.475 407.533C447.375 408.333 448.275 409.033 448.975 410.033C449.675 411.033 450.075 412.133 450.775 413.033C451.075 413.433 451.475 413.833 451.875 414.233C452.175 414.433 452.375 414.633 452.475 414.933C453.075 417.033 456.275 416.133 455.675 414.033C455.375 412.933 454.575 412.333 453.775 411.533C452.975 410.833 452.575 409.633 451.975 408.733C450.675 406.533 448.475 405.233 446.875 403.333C445.275 401.433 443.975 399.233 442.475 397.133C440.875 394.833 439.175 392.633 437.475 390.433C435.875 388.333 434.175 386.233 432.575 384.133C431.775 383.133 431.075 382.033 430.375 380.933C429.675 379.933 429.175 378.833 428.475 377.833C427.175 375.833 425.675 374.133 424.875 371.833C423.975 369.433 423.375 366.933 422.175 364.633C421.475 363.433 420.675 362.333 419.975 361.233C419.275 360.033 418.575 358.833 417.775 357.633C416.475 355.433 415.075 353.233 413.575 351.133C410.575 347.033 407.375 343.133 405.375 338.433C404.375 336.033 403.675 333.433 403.075 330.933C402.475 328.533 401.275 326.533 400.075 324.533C398.775 322.433 397.975 320.033 396.775 317.933C395.575 315.733 394.175 313.633 392.875 311.433C391.575 309.133 390.575 306.633 389.475 304.233C388.375 301.833 386.975 299.733 385.275 297.733C384.575 296.833 383.775 295.833 383.175 294.833C382.575 293.733 382.175 292.633 381.775 291.433C380.975 289.333 379.975 287.233 378.775 285.233C378.175 284.333 377.575 283.333 376.775 282.533C375.375 281.233 373.075 283.633 374.475 285.133Z" fill="black"/>
<path d="M293.975 247.434C294.375 248.734 295.275 249.134 296.275 249.934C297.275 250.734 298.075 251.834 298.875 252.834C300.475 254.734 302.275 256.534 303.875 258.534C305.375 260.434 306.775 262.534 307.675 264.834C308.075 265.934 308.375 267.034 308.475 268.234C308.675 269.734 308.975 270.934 309.675 272.234C309.775 272.434 309.875 272.634 309.975 272.934C309.975 273.034 309.975 273.134 310.075 273.134C310.175 273.534 310.075 272.834 310.075 273.134C310.075 273.534 310.175 273.934 310.175 274.434C310.175 274.634 310.175 274.934 310.175 275.134C310.175 275.234 310.175 275.334 310.175 275.434C310.175 275.734 310.275 275.134 310.175 275.634C310.175 275.734 310.075 276.134 310.075 276.034C310.075 275.934 309.975 276.134 310.075 276.034C310.175 275.934 310.775 275.634 310.475 275.734C309.575 275.934 309.075 276.934 309.275 277.834C309.575 278.734 310.475 279.234 311.375 279.034C313.475 278.634 313.675 275.634 313.475 273.934C313.375 272.834 313.175 271.834 312.675 270.834C312.075 269.634 311.975 268.534 311.775 267.134C310.975 261.634 306.975 256.734 303.275 252.834C302.175 251.634 301.175 250.434 300.175 249.234C299.675 248.634 299.175 248.134 298.575 247.634C298.275 247.334 297.975 247.134 297.575 246.934C297.475 246.834 297.375 246.734 297.375 246.834C296.575 244.434 293.375 245.334 293.975 247.434Z" fill="black"/>
<path d="M190.075 272.734C192.575 273.134 194.175 275.634 196.675 276.334C198.975 277.034 201.675 275.934 203.675 274.834C204.675 274.334 205.675 273.634 206.375 272.734C207.175 271.634 207.575 270.234 207.675 268.834C207.975 266.034 207.075 263.134 205.975 260.634C205.375 259.334 204.875 258.034 204.075 256.834C202.975 255.234 201.375 253.934 200.075 252.534C198.575 251.034 196.175 253.334 197.675 254.934C198.775 256.034 199.875 257.034 200.875 258.134C201.675 258.934 201.975 260.134 202.475 261.134C203.375 263.034 204.175 265.134 204.275 267.334C204.375 268.334 204.275 269.334 203.875 270.334C203.475 271.134 203.175 271.334 202.275 271.834C201.475 272.334 200.575 272.734 199.575 272.934C199.275 273.034 199.075 273.034 198.775 273.134C198.575 273.134 198.375 273.234 198.375 273.234C198.175 273.234 197.975 273.234 197.775 273.234C197.675 273.234 197.475 273.234 197.775 273.234C197.675 273.234 197.575 273.134 197.475 273.134C196.375 272.834 195.375 271.934 194.475 271.234C193.375 270.434 192.275 269.734 190.875 269.534C189.975 269.434 189.075 269.734 188.775 270.734C188.775 271.434 189.175 272.634 190.075 272.734Z" fill="black"/>
<path d="M210.175 324.834C211.375 322.634 213.175 320.734 215.675 320.034C217.875 319.334 220.775 319.434 222.775 320.234C223.875 320.734 224.675 321.334 225.375 322.234C225.775 322.734 226.175 323.234 226.575 323.734C226.775 324.034 226.975 324.234 227.175 324.534C227.375 324.834 227.375 324.734 227.375 325.034C227.375 325.234 227.075 325.634 226.875 326.034C226.575 326.534 226.275 327.134 225.975 327.634C225.475 328.534 225.175 329.534 224.775 330.534C224.375 331.634 224.075 332.534 223.375 333.534C223.375 333.534 223.175 333.734 223.375 333.634C223.275 333.734 223.175 333.834 223.075 334.034C222.975 334.134 222.875 334.134 222.875 334.234C223.075 334.134 222.875 334.234 222.775 334.234C222.675 334.234 222.375 334.434 222.675 334.334C222.575 334.334 222.475 334.434 222.275 334.434C221.975 334.534 222.675 334.434 222.175 334.434C221.975 334.434 221.775 334.434 221.675 334.434C220.775 334.334 219.975 335.234 219.975 336.134C219.975 337.134 220.775 337.734 221.675 337.834C224.775 338.234 226.575 335.434 227.575 332.934C227.775 332.334 227.975 331.834 228.175 331.234C228.275 330.934 228.375 330.734 228.475 330.434C228.475 330.334 228.575 330.234 228.575 330.134C228.575 330.034 228.675 329.934 228.675 329.834C228.575 330.034 228.575 329.934 228.675 329.834C229.275 328.534 230.075 327.434 230.475 326.134C231.075 324.234 229.875 322.734 228.875 321.334C227.875 320.034 226.775 318.834 225.375 317.934C222.675 316.234 219.075 316.034 215.975 316.534C212.175 317.234 209.075 319.834 207.275 323.134C206.175 325.034 209.075 326.734 210.175 324.834Z" fill="black"/>
<path d="M228.475 344.433C228.475 344.733 228.475 344.433 228.575 344.333C228.475 344.533 228.675 344.133 228.675 344.033C228.875 343.633 229.175 343.233 229.475 342.833C229.875 342.333 230.375 341.633 230.975 341.233C231.775 340.733 232.875 340.933 233.775 340.833C234.875 340.633 235.775 340.133 236.775 339.533C238.375 338.733 240.375 339.933 241.775 340.833C243.475 341.933 244.775 343.533 244.775 345.633C244.775 346.133 244.875 346.733 244.675 347.133C244.575 347.533 244.275 347.833 244.075 348.133C243.875 348.433 243.575 348.833 243.375 349.133C243.175 349.333 242.975 349.533 242.875 349.733C242.675 350.033 243.075 349.733 242.975 349.733C240.875 350.133 241.775 353.433 243.875 352.933C245.075 352.733 245.875 351.433 246.475 350.533C247.175 349.533 247.875 348.533 247.975 347.333C248.375 344.333 247.475 341.533 245.275 339.433C244.275 338.433 242.975 337.633 241.775 337.033C240.475 336.433 239.075 335.833 237.575 335.933C236.075 336.033 235.075 336.833 233.775 337.433C232.575 337.933 231.275 337.633 230.075 338.033C228.775 338.533 227.775 339.633 226.975 340.633C226.075 341.733 225.175 342.933 225.075 344.433C224.975 345.333 225.875 346.133 226.775 346.133C227.775 346.133 228.375 345.333 228.475 344.433Z" fill="black"/>
<path d="M266.975 349.734C266.975 349.934 267.075 349.434 267.075 349.434C267.075 349.434 267.175 349.334 267.275 349.134C267.475 348.834 267.775 348.434 268.175 348.234C268.875 347.634 269.775 347.134 270.675 346.734C272.375 345.934 274.775 344.934 276.775 344.834C277.975 344.734 279.175 344.934 280.275 345.334C280.775 345.534 281.375 345.734 281.875 346.034C282.075 346.134 282.275 346.234 282.575 346.334C282.675 346.334 282.675 346.434 282.775 346.434C282.975 346.534 282.675 346.334 282.875 346.534C282.975 346.634 282.975 346.634 283.075 346.734C283.275 347.034 283.175 346.834 283.175 347.034C283.375 347.534 283.375 348.134 283.375 348.634C283.375 349.734 283.275 350.734 282.675 351.734C282.875 351.434 282.675 351.734 282.575 351.934C282.375 352.134 282.275 352.334 282.075 352.534C281.675 352.934 281.375 353.334 280.975 353.734C280.575 354.034 280.275 354.434 279.875 354.734C280.075 354.634 279.575 354.934 279.575 354.934C279.575 354.934 279.475 355.034 279.375 355.034C279.475 354.934 279.575 354.934 279.775 354.934C277.675 355.034 277.675 358.434 279.775 358.234C280.975 358.134 281.975 357.334 282.775 356.534C283.575 355.834 284.375 355.034 285.075 354.134C286.975 351.834 287.475 348.134 286.175 345.434C285.675 344.234 284.575 343.534 283.475 343.034C281.875 342.234 280.275 341.734 278.575 341.534C275.575 341.234 272.575 342.334 269.775 343.534C267.075 344.734 264.075 346.534 263.775 349.834C263.675 350.734 264.575 351.534 265.475 351.534C266.275 351.434 266.975 350.634 266.975 349.734Z" fill="black"/>
<path d="M302.975 347.434C302.975 347.634 302.975 347.734 302.975 347.934C302.875 349.534 305.375 350.234 306.075 348.734C306.575 347.634 307.075 346.434 307.475 345.234C307.775 344.534 307.975 343.634 308.475 343.334C309.075 342.934 309.775 342.834 310.575 342.534C311.575 342.234 312.475 341.934 313.375 341.434C313.975 341.134 314.775 340.734 315.275 340.634C316.075 340.534 316.875 341.034 317.475 341.434C318.675 342.234 318.975 343.534 318.775 345.034C318.675 345.934 319.575 346.734 320.475 346.734C321.475 346.734 322.075 345.934 322.175 345.034C322.375 342.834 321.675 340.534 319.875 339.134C318.975 338.334 317.775 337.734 316.675 337.534C315.375 337.234 314.175 337.534 312.975 338.034C311.975 338.434 311.075 339.034 309.975 339.334C308.975 339.634 307.975 339.834 307.075 340.334C304.675 341.634 304.275 344.734 303.175 347.034C304.175 347.334 305.275 347.634 306.275 347.834C306.275 347.634 306.275 347.534 306.275 347.334C306.375 346.434 305.475 345.634 304.575 345.634C303.675 345.734 303.075 346.534 302.975 347.434Z" fill="black"/>
<path d="M309.475 269.533C308.275 269.733 307.175 270.233 306.075 270.833C305.275 271.233 304.375 271.833 303.475 271.833C302.675 271.933 301.775 271.633 300.975 271.433C300.575 271.333 300.175 271.233 299.775 271.133C299.375 271.033 299.675 271.133 299.875 271.233C299.775 271.233 299.775 271.033 299.875 271.233C299.875 271.133 299.775 271.033 299.675 270.933C298.775 269.333 298.575 267.033 297.475 265.333C296.775 264.333 295.775 263.033 295.675 261.733C295.575 260.833 296.575 260.333 297.175 259.733C297.975 258.833 298.575 257.633 299.675 257.033C300.875 256.333 302.675 256.833 303.975 256.833C306.075 256.833 306.175 253.533 303.975 253.533C302.275 253.533 300.475 253.233 298.875 253.733C297.375 254.233 296.475 255.333 295.575 256.533C294.775 257.633 293.575 258.433 292.875 259.633C291.975 261.333 292.475 263.133 293.275 264.733C293.675 265.433 294.075 266.133 294.475 266.833C294.675 267.133 294.775 267.333 294.975 267.633C294.975 267.633 295.175 268.033 295.075 267.833C294.975 267.633 295.175 268.033 295.175 268.133C295.575 269.333 295.875 270.533 296.275 271.633C296.775 272.833 297.375 273.833 298.675 274.233C299.675 274.533 300.675 274.733 301.675 274.933C303.375 275.233 304.875 275.033 306.375 274.333C307.675 273.733 308.875 272.933 310.275 272.633C311.175 272.533 311.675 271.333 311.475 270.533C311.275 269.733 310.375 269.433 309.475 269.533Z" fill="black"/>
<path d="M325.775 248.334C324.775 248.334 323.975 248.634 322.975 248.934C321.975 249.234 320.975 249.034 319.975 249.034C319.575 249.034 319.075 249.034 318.675 249.034C318.575 249.034 318.475 249.034 318.475 249.034C318.475 249.034 318.775 249.134 318.575 249.034C318.475 249.034 318.075 248.834 318.375 249.034C318.275 249.034 318.075 248.834 318.275 248.934C318.075 248.834 317.975 248.634 317.875 248.434C317.575 248.034 317.375 247.634 317.175 247.234C316.775 246.334 316.575 245.334 316.275 244.434C316.075 243.534 315.675 242.634 315.375 241.734C315.075 240.934 314.675 239.934 314.575 239.134C314.575 238.934 314.575 238.434 314.575 238.334C314.675 238.034 314.675 237.834 314.975 237.534C315.575 237.034 316.475 236.934 317.275 236.934C318.375 236.934 319.475 237.034 320.575 237.034C322.675 237.034 322.775 233.734 320.575 233.734C318.275 233.734 315.675 233.134 313.575 234.434C311.275 235.834 310.875 238.434 311.575 240.834C311.875 241.834 312.275 242.834 312.675 243.834C313.075 245.034 313.275 246.234 313.775 247.434C314.575 249.634 315.975 252.034 318.475 252.234C318.975 252.234 319.475 252.234 319.975 252.234C320.675 252.234 321.475 252.334 322.175 252.334C322.975 252.334 323.675 252.134 324.375 251.934C324.875 251.734 325.375 251.534 325.875 251.534C327.975 251.634 327.975 248.334 325.775 248.334Z" fill="black"/>
<path d="M334.875 225.633C333.375 225.633 331.875 225.533 330.375 226.033C329.375 226.333 328.475 226.433 327.475 226.433C326.575 226.433 326.175 226.133 325.775 225.233C325.375 224.233 325.175 223.133 324.875 222.033C324.575 220.833 324.575 219.633 324.475 218.333C324.375 217.033 323.675 215.733 323.675 214.433C323.675 213.933 323.675 214.533 323.675 214.033C323.775 213.833 323.775 213.833 323.675 213.933C323.775 213.733 323.775 213.733 323.675 213.833C323.875 213.733 324.075 213.633 324.375 213.533C325.275 213.233 326.275 212.933 327.275 213.033C328.175 213.133 328.975 212.233 328.975 211.333C328.975 210.333 328.175 209.733 327.275 209.633C326.275 209.533 325.175 209.733 324.275 210.033C323.275 210.333 322.175 210.633 321.375 211.333C319.475 213.133 320.575 215.733 321.075 217.933C321.375 219.133 321.175 220.433 321.375 221.633C321.575 222.733 321.875 223.933 322.275 225.033C322.975 227.433 324.375 229.533 327.075 229.633C328.275 229.633 329.575 229.633 330.775 229.233C331.375 229.033 331.875 228.833 332.475 228.833C333.275 228.733 334.075 228.833 334.875 228.833C336.975 229.033 336.975 225.633 334.875 225.633Z" fill="black"/>
<path d="M323.575 166.734C322.575 166.734 321.475 166.734 320.675 167.234C319.775 167.834 319.175 168.734 318.875 169.734C317.975 171.834 317.875 174.134 318.875 176.134C319.875 178.134 321.475 179.734 322.875 181.434C324.475 183.234 326.475 184.734 328.975 184.434C329.875 184.334 330.675 183.734 330.675 182.734C330.675 181.934 329.875 180.934 328.975 181.034C327.375 181.234 326.475 180.334 325.375 179.134C324.275 177.934 323.075 176.634 322.175 175.234C321.975 174.934 321.775 174.534 321.675 174.334C321.575 174.134 321.575 173.934 321.475 173.734C321.375 173.234 321.475 173.934 321.475 173.434C321.475 172.634 321.575 172.034 321.875 171.234C321.975 171.034 321.975 170.834 322.075 170.734C321.975 170.934 322.175 170.534 322.175 170.534C322.275 170.334 322.375 170.234 322.475 170.134C322.275 170.434 322.575 170.034 322.575 170.034C322.375 170.134 322.375 170.134 322.575 170.134C322.375 170.234 322.375 170.234 322.475 170.234C322.575 170.234 322.575 170.234 322.675 170.234C322.475 170.234 322.475 170.234 322.575 170.234C322.975 170.234 323.375 170.234 323.775 170.234C325.675 170.134 325.675 166.734 323.575 166.734Z" fill="black"/>
<path d="M202.175 48.134C200.975 48.434 200.075 49.234 199.675 50.434C199.375 51.334 199.475 52.234 199.475 53.134C199.475 54.834 199.475 56.834 201.175 57.734C201.975 58.134 202.975 58.234 203.875 58.234C205.075 58.234 206.275 58.534 207.475 58.034C208.675 57.634 209.475 56.934 210.275 55.934C210.875 55.134 211.275 54.434 211.875 53.734C213.675 51.634 215.075 49.334 216.175 46.834C216.575 46.034 216.375 45.034 215.575 44.534C214.875 44.134 213.675 44.334 213.275 45.134C212.475 46.834 211.575 48.534 210.475 50.034C209.875 50.834 209.275 51.534 208.675 52.334C208.475 52.634 208.175 52.934 207.975 53.334C207.875 53.434 207.775 53.634 207.675 53.734C207.675 53.834 207.575 53.834 207.575 53.934C207.275 54.334 207.675 53.834 207.475 54.034C207.375 54.134 207.275 54.234 207.175 54.334C207.075 54.434 207.075 54.434 206.975 54.534C207.075 54.434 207.175 54.434 206.875 54.534C206.575 54.734 206.475 54.734 206.075 54.834C205.675 54.934 205.175 54.834 204.675 54.734C204.175 54.734 203.775 54.734 203.275 54.734C203.175 54.734 202.975 54.734 202.875 54.734C202.575 54.734 203.075 54.834 202.775 54.734C202.675 54.734 202.375 54.634 202.575 54.734C202.775 54.834 202.675 54.734 202.575 54.734C202.375 54.534 202.775 54.934 202.675 54.834C202.475 54.634 202.775 55.034 202.675 54.934C202.675 55.034 202.475 54.734 202.675 54.934C202.675 54.834 202.575 54.634 202.575 54.534C202.675 54.934 202.575 54.534 202.575 54.334C202.575 53.534 202.475 52.734 202.575 51.934C202.575 51.834 202.575 51.734 202.575 51.734C202.575 51.734 202.675 51.234 202.575 51.534C202.575 51.734 202.675 51.234 202.675 51.234C202.675 51.234 202.575 51.434 202.675 51.334C202.775 51.134 202.475 51.534 202.475 51.434C202.475 51.434 202.675 51.334 202.575 51.334C202.375 51.334 202.875 51.234 202.875 51.234C205.175 50.834 204.275 47.634 202.175 48.134Z" fill="black"/>
<path d="M244.775 27.8328C244.775 28.8328 244.375 29.6328 243.875 30.4328C243.175 31.5328 242.675 32.7328 242.275 33.9328C241.875 35.2328 241.575 36.6328 241.075 37.9328C240.575 39.1328 240.075 40.3328 240.275 41.7328C240.775 45.6328 245.075 47.3328 248.475 47.7328C250.375 47.9328 252.475 47.6328 254.075 46.6328C255.875 45.5328 254.275 42.6328 252.375 43.7328C252.275 43.8328 252.175 43.8328 251.975 43.9328C251.675 44.0328 252.175 43.9328 251.875 44.0328C251.575 44.1328 251.275 44.2328 250.875 44.3328C250.775 44.3328 250.375 44.4328 250.475 44.4328C250.575 44.4328 250.175 44.4328 250.075 44.4328C249.675 44.4328 249.275 44.4328 248.975 44.4328C247.675 44.3328 246.275 44.0328 245.175 43.4328C244.575 43.1328 244.275 42.8328 243.875 42.4328C243.575 42.0328 243.375 41.5328 243.375 41.2328C243.375 40.1328 244.075 39.1328 244.375 38.1328C244.775 36.9328 244.975 35.7328 245.375 34.5328C245.775 33.4328 246.375 32.5328 246.875 31.5328C247.475 30.3328 247.875 29.2328 247.875 27.8328C248.175 25.7328 244.875 25.7328 244.775 27.8328Z" fill="black"/>
<path d="M282.375 39.1341C277.875 38.2341 275.475 43.3341 273.875 46.7341C272.975 48.6341 272.075 50.5341 271.775 52.7341C271.475 55.1341 271.975 57.8341 274.575 58.6341C275.575 58.9341 276.775 58.9341 277.775 58.9341C277.975 58.9341 278.275 58.9341 278.475 58.9341C278.575 58.9341 278.675 58.9341 278.675 58.9341C279.175 58.9341 278.375 58.8341 278.775 58.9341C278.875 58.9341 278.875 58.9341 278.975 58.9341C279.275 58.9341 279.075 59.0341 278.975 58.9341C279.175 59.1341 278.875 58.8341 278.875 58.8341C278.775 58.7341 278.575 58.2341 278.675 58.5341C279.175 60.6341 282.375 59.7341 281.875 57.6341C281.375 55.7341 279.275 55.5341 277.675 55.5341C277.275 55.5341 276.875 55.5341 276.475 55.5341C275.975 55.5341 276.075 55.5341 275.575 55.4341C275.475 55.4341 275.375 55.3341 275.275 55.3341C275.175 55.3341 274.875 55.0341 275.075 55.2341C274.875 55.0341 275.075 55.3341 274.975 55.1341C274.975 55.1341 274.875 54.7341 274.875 54.5341C274.675 52.8341 275.375 50.9341 276.075 49.4341C276.775 47.9341 277.475 46.4341 278.375 44.9341C278.875 44.0341 279.275 43.4341 280.075 42.8341C280.275 42.7341 280.075 42.8341 280.375 42.6341C280.475 42.5341 280.875 42.4341 280.775 42.4341C280.575 42.5341 281.275 42.3341 281.075 42.3341C280.875 42.3341 281.675 42.4341 281.375 42.3341C282.275 42.5341 283.175 42.1341 283.475 41.1341C283.775 40.3341 283.275 39.2341 282.375 39.1341Z" fill="black"/>
<path d="M305.675 57.2343C303.875 57.9343 302.275 59.8343 301.475 61.6343C300.475 63.7343 299.675 66.0343 298.975 68.2343C298.475 69.9343 298.175 71.7343 298.075 73.5343C297.975 75.4343 298.375 77.8343 300.475 78.5343C301.475 78.8343 302.475 78.4343 303.475 78.6343C303.975 78.7343 304.475 79.0343 305.075 79.2343C305.875 79.5343 306.575 79.5343 307.375 79.3343C308.275 79.2343 308.775 78.0343 308.575 77.2343C308.275 76.2343 307.375 75.9343 306.475 76.0343C306.175 76.0343 305.775 75.8343 305.475 75.7343C304.875 75.4343 304.175 75.2343 303.475 75.2343C302.975 75.2343 302.475 75.3343 301.975 75.3343C301.875 75.3343 301.575 75.4343 301.575 75.3343C301.375 75.3343 301.275 75.2343 301.475 75.3343C301.575 75.5343 301.675 75.5343 301.575 75.3343C301.575 75.3343 301.575 75.2343 301.475 75.2343C301.575 75.4343 301.575 75.4343 301.475 75.2343C301.475 75.1343 301.375 74.7343 301.375 74.8343C301.375 74.6343 301.375 74.0343 301.375 73.7343C301.375 72.8343 301.575 71.9343 301.675 71.0343C302.075 69.0343 302.775 67.2343 303.475 65.3343C303.875 64.2343 304.275 63.1343 304.875 62.2343C305.075 61.9343 305.375 61.5343 305.675 61.2343C305.875 61.0343 305.975 60.9343 306.175 60.7343C306.175 60.7343 306.675 60.4343 306.475 60.5343C307.275 60.2343 307.875 59.4343 307.675 58.4343C307.575 57.5343 306.575 56.9343 305.675 57.2343Z" fill="black"/>
<path d="M285.175 310.433C285.075 309.333 286.075 308.733 286.775 308.033C287.775 306.933 288.475 305.433 289.575 304.433C290.075 303.933 290.775 303.633 291.275 303.133C291.775 302.733 292.175 302.233 292.675 301.733C293.675 300.533 294.775 299.333 295.875 298.233C296.975 297.133 298.075 295.933 299.175 294.733C300.075 293.733 300.775 292.633 301.675 291.633C303.375 289.933 305.675 288.433 306.275 285.933C306.775 283.833 303.575 282.933 303.075 285.033C302.875 285.933 301.975 286.733 301.275 287.333C300.475 288.133 299.475 288.833 298.775 289.733C296.775 292.233 294.675 294.533 292.375 296.833C291.275 297.933 290.475 299.233 289.375 300.233C288.875 300.733 288.175 301.033 287.675 301.533C287.075 302.033 286.575 302.633 286.075 303.333C285.675 303.933 285.275 304.533 284.875 305.033C284.475 305.533 283.875 306.033 283.375 306.533C282.375 307.533 281.675 308.833 281.875 310.333C281.975 311.233 282.575 312.033 283.575 312.033C284.275 312.133 285.275 311.333 285.175 310.433Z" fill="black"/>
<path d="M259.375 291.133C259.375 291.233 259.375 291.133 259.475 291.033C259.575 290.833 259.975 290.533 260.175 290.333C260.775 289.833 261.275 289.233 261.775 288.533C262.875 286.933 263.575 285.033 264.775 283.433C266.075 281.833 267.475 280.433 268.575 278.733C269.575 277.233 270.375 275.633 271.775 274.533C272.475 273.933 272.375 272.733 271.775 272.133C271.075 271.433 270.075 271.533 269.375 272.133C267.775 273.433 266.875 275.233 265.775 276.933C264.575 278.733 262.975 280.233 261.675 282.033C260.475 283.633 259.875 285.833 258.475 287.233C257.875 287.833 257.175 288.333 256.675 289.033C256.075 289.933 255.875 290.833 256.075 291.933C256.675 294.033 259.875 293.233 259.375 291.133Z" fill="black"/>
<path d="M311.375 318.833C312.875 316.933 313.775 314.633 315.275 312.733C315.975 311.833 316.675 311.033 317.375 310.133C318.075 309.133 318.575 308.133 319.175 307.033C320.375 304.833 321.775 302.633 322.075 300.133C322.175 299.633 322.175 299.133 322.375 298.833C322.475 298.733 322.775 298.433 322.975 298.133C323.775 297.133 323.975 296.133 323.775 294.933C323.575 294.033 322.575 293.533 321.675 293.733C320.775 294.033 320.375 294.933 320.475 295.833C320.475 295.833 320.375 295.933 320.475 295.933C320.175 296.233 319.875 296.533 319.675 296.933C318.975 297.833 318.975 298.933 318.775 300.033C318.475 302.233 316.975 304.233 315.975 306.133C314.975 308.033 313.575 309.533 312.275 311.333C310.875 313.233 309.975 315.333 308.575 317.233C308.075 317.933 308.475 319.133 309.175 319.533C309.975 319.933 310.775 319.533 311.375 318.833Z" fill="black"/>
<path d="M275.975 199.234C275.775 199.034 275.675 198.934 275.575 198.834C275.275 198.534 274.975 198.134 274.575 197.934C274.175 197.634 273.875 197.534 273.475 197.234C273.175 196.934 272.875 196.534 272.575 196.134C271.175 194.434 269.175 193.734 267.475 192.434C265.875 191.234 263.875 190.534 262.275 189.234C260.575 187.834 259.075 186.434 256.975 185.634C255.175 184.934 253.975 187.934 255.675 188.734C259.075 190.234 261.475 193.034 264.575 195.034C267.775 197.134 271.275 198.634 273.975 201.434C275.475 202.934 277.875 200.634 276.375 199.034C273.475 196.134 269.975 194.434 266.475 192.334C263.275 190.334 260.775 187.434 257.375 185.934C256.975 186.934 256.475 187.934 256.075 189.034C257.975 189.734 259.375 191.434 260.975 192.534C261.875 193.134 262.775 193.634 263.675 194.134C264.675 194.634 265.575 195.334 266.475 195.934C267.375 196.534 268.275 196.934 269.175 197.534C269.975 198.034 270.375 198.934 271.075 199.634C271.775 200.334 272.575 200.734 273.275 201.434C274.075 202.234 274.875 202.734 275.975 202.734C278.075 202.534 278.075 199.234 275.975 199.234Z" fill="black"/>
<path d="M252.475 215.033L252.175 214.933C251.975 214.833 251.975 214.833 252.175 214.933C252.075 214.833 251.975 214.833 251.875 214.733C251.675 214.633 251.475 214.533 251.275 214.333C251.275 214.333 250.975 214.133 251.075 214.233C251.275 214.333 250.975 214.133 250.875 214.133C250.075 213.433 249.375 212.733 248.675 212.033C246.975 210.333 245.075 209.033 242.875 207.933C242.175 207.533 241.275 207.733 240.675 208.333C240.175 208.933 240.175 209.933 240.775 210.533C240.975 210.733 241.075 210.833 241.275 211.033C241.875 211.633 242.975 211.733 243.675 211.033C244.275 210.433 244.375 209.333 243.675 208.633C243.475 208.433 243.375 208.333 243.175 208.133C242.475 209.033 241.875 209.833 241.175 210.733C242.275 211.333 243.375 211.933 244.475 212.733C244.475 212.733 244.875 213.033 244.675 212.933C244.775 213.033 244.975 213.133 245.075 213.233C245.275 213.433 245.475 213.533 245.675 213.733C245.975 214.033 246.375 214.433 246.675 214.733C248.175 216.333 250.075 218.233 252.375 218.233C253.275 218.233 254.075 217.433 254.075 216.533C254.175 215.833 253.475 215.133 252.475 215.033Z" fill="black"/>
<path d="M235.775 85.6332C235.575 86.7332 234.775 87.6332 234.375 88.7332C234.175 89.3332 234.075 89.9332 233.875 90.5332C233.775 90.8332 233.775 91.1332 233.675 91.5332C233.575 91.8332 233.575 91.9332 233.475 92.1332C233.475 92.2332 233.375 92.3332 233.475 92.2332C233.375 92.3332 233.375 92.4332 233.275 92.5332C233.075 92.7332 232.875 92.9332 232.775 93.0332C232.375 93.4332 231.975 93.8332 231.675 94.3332C231.375 94.9332 231.175 95.5332 231.175 96.2332C231.175 96.4332 231.175 96.6332 231.175 96.7332C231.175 97.0332 231.275 96.5332 231.275 96.4332C231.375 96.2332 231.475 96.1332 231.575 96.1332C231.775 96.0332 231.875 96.0332 231.575 96.0332C232.275 96.5332 232.975 97.1332 233.675 97.6332C233.675 97.5332 233.675 97.2332 233.675 97.6332C233.775 97.4332 233.775 97.5332 233.575 97.6332C232.775 97.3332 231.975 96.9332 231.075 96.6332C231.075 96.4332 230.975 96.8332 231.075 96.6332C231.175 96.4332 230.975 96.7332 230.975 96.8332C230.875 96.9332 230.675 97.1332 230.575 97.2332C231.375 97.4332 232.075 97.6332 232.875 97.8332C233.075 98.2332 232.875 97.9332 232.875 97.8332C232.875 98.1332 232.875 97.5332 232.875 97.8332C232.875 97.6332 232.875 97.3332 232.875 97.1332C232.875 97.3332 232.875 97.2332 232.875 97.1332C232.875 97.0332 232.875 96.9332 232.975 96.7332C233.075 96.4332 233.075 96.2332 233.175 95.9332C233.275 95.6332 233.375 95.3332 233.475 95.1332C233.575 94.8332 233.475 95.1332 233.575 95.0332C233.675 94.9332 233.675 94.8332 233.775 94.6332C233.975 94.1332 234.275 93.6332 234.575 93.1332C235.875 90.8332 237.575 88.8332 237.575 86.0332C237.575 83.9332 234.275 83.8332 234.275 86.0332C234.275 86.6332 234.175 87.3332 233.975 87.6332C233.675 88.2332 233.275 88.8332 232.975 89.4332C232.375 90.3332 231.875 91.2332 231.375 92.2332C230.275 94.4332 229.075 97.1332 230.175 99.5332C230.575 100.333 231.775 100.533 232.475 100.133C233.975 99.2332 234.975 97.5332 234.575 95.7332C234.375 94.7332 232.975 94.1332 232.075 94.7332C231.075 95.4332 230.575 96.3332 230.475 97.5332C230.475 98.6332 231.575 99.4332 232.575 99.1332C233.375 98.9332 234.175 98.3332 234.375 97.5332C234.575 97.0332 234.475 96.5332 234.475 96.0332C234.475 95.9332 234.475 95.9332 234.475 96.0332C234.475 96.1332 234.475 96.1332 234.475 95.9332C234.375 96.0332 234.475 96.0332 234.475 95.8332C234.675 95.4332 234.375 95.9332 234.575 95.6332C234.675 95.5332 234.775 95.4332 234.775 95.3332C235.275 94.8332 235.675 94.4332 236.075 93.8332C236.875 92.6332 236.975 91.2332 237.375 89.8332C237.675 88.6332 238.675 87.5332 238.875 86.1332C239.075 85.2332 238.675 84.3332 237.675 84.0332C237.075 84.2332 235.975 84.7332 235.775 85.6332Z" fill="black"/>
<path d="M259.875 95.8328C259.975 95.6328 259.775 96.0328 259.875 95.8328C259.775 96.0328 259.675 96.2328 259.575 96.4328C259.375 96.7328 259.175 96.9328 258.875 97.2328C258.275 97.9328 257.675 98.5328 257.175 99.2328C256.075 100.733 255.275 102.633 254.575 104.333C254.075 105.533 253.675 106.833 253.175 108.033C253.075 108.433 252.675 109.033 252.375 109.533C252.275 109.633 252.175 109.833 252.075 109.933C252.275 109.633 251.975 110.033 251.975 110.033C252.275 109.933 251.675 110.233 251.975 110.033C252.275 109.933 251.675 110.133 251.975 110.033C249.875 110.533 250.775 113.733 252.875 113.233C254.375 112.833 255.275 111.433 255.875 110.133C256.575 108.633 257.075 107.033 257.575 105.533C257.675 105.433 257.675 105.233 257.775 105.133C257.775 105.033 257.775 105.033 257.775 105.233C257.775 105.133 257.875 105.133 257.875 105.033C258.075 104.533 258.375 104.033 258.575 103.633C258.975 102.733 259.575 101.533 260.075 100.833C261.375 99.2328 263.075 98.0328 263.275 95.8328C263.375 94.9328 262.475 94.1328 261.575 94.1328C260.575 94.1328 259.975 94.9328 259.875 95.8328Z" fill="black"/>
</svg>
