<?xml version="1.0" encoding="utf-8"?>
<!-- Generator: Adobe Illustrator 27.7.0, SVG Export Plug-In . SVG Version: 6.00 Build 0)  -->
<svg version="1.1" id="Lager_1" xmlns="http://www.w3.org/2000/svg" xmlns:xlink="http://www.w3.org/1999/xlink" x="0px" y="0px"
	 viewBox="0 0 512 512" style="enable-background:new 0 0 512 512;" xml:space="preserve">
<style type="text/css">
	.st0{fill:#91FF6A;}
</style>
<g>
	<path class="st0" d="M119.2,136.5l23,34.4c10.9,16.4,20.3,30.6,23.7,35.9L146.2,234c-2.6-3.6-6.7-9.5-11.4-16.2
		C113,186,84.4,143.9,79.5,136.6L119.2,136.5z"/>
	<path class="st0" d="M368.6,136.1l-29.2,44.1c-17.1,25.7-31.3,46.7-31.7,46.7c-0.4-0.1-14.8-20.8-31.8-46
		c-14.6-21.5-27.1-39.7-30.8-44.6c-0.6-0.9-1-1.3-1.1-1.3c-0.1,0-0.5,0.5-1.2,1.3c-2.3,2.9-7.5,10.4-13.5,19.2
		c-7.5,11.2-43.8,64.6-80.4,118.7c-33.6,49.5-62.4,92-67.9,100.2l39.7-0.1l28-42.2c17.1-25.7,31.3-46.7,31.7-46.7
		c0.4,0.1,14.8,20.7,32,46c13.3,19.5,24.9,36.3,29.7,42.7c1.4,1.9,2.2,2.9,2.3,2.8c0.3-0.1,0.8-0.5,2.4-2.8
		c4.9-6.6,19.8-28.5,68-99.9c27-40,58.9-87.3,71-105.1c10.6-15.6,19.8-29.2,22.3-33.1L368.6,136.1L368.6,136.1z M266.5,222.1
		c11.9,18,21.6,33.3,21.6,34.1c0,1.7-42.5,66.8-43.7,66.8c-1-0.1-44.3-65-44.3-66.7c0-1.6,43-66.7,44.1-66.8
		C244.6,189.5,254.6,204.2,266.5,222.1L266.5,222.1z"/>
	<path class="st0" d="M342.1,278.5c4.2,5.9,12.9,18.4,22.8,32.8c13.8,20.2,29.6,43.4,35.2,51.5l7.6,11l-40.5,0.1
		c-1.6-2.9-11.4-18.1-23.2-35.6c-9.7-14.4-18-27.2-21.6-32.9L342.1,278.5z"/>
	<path class="st0" d="M438.2,374c-2.2,0-4.3-0.4-6.3-1.3c-2-0.9-3.7-2-5.2-3.5c-1.5-1.5-2.6-3.2-3.5-5.2c-0.9-2-1.3-4.1-1.3-6.3
		s0.4-4.3,1.3-6.3c0.9-2,2-3.7,3.5-5.2c1.5-1.5,3.2-2.6,5.2-3.5c2-0.9,4.1-1.3,6.3-1.3c2.2,0,4.3,0.4,6.3,1.3c2,0.9,3.7,2,5.2,3.5
		c1.5,1.5,2.6,3.2,3.5,5.2c0.9,2,1.3,4.1,1.3,6.3s-0.4,4.3-1.3,6.3c-0.9,2-2,3.7-3.5,5.2c-1.5,1.5-3.2,2.6-5.2,3.5
		C442.6,373.5,440.4,374,438.2,374z M438.2,371c1.8,0,3.6-0.4,5.2-1.1c1.6-0.7,3-1.7,4.2-2.9c1.2-1.2,2.1-2.6,2.9-4.2
		c0.7-1.6,1-3.4,1-5.2c0-1.8-0.3-3.6-1-5.2s-1.7-3-2.9-4.2c-1.2-1.2-2.6-2.1-4.2-2.9c-1.6-0.7-3.4-1.1-5.2-1.1s-3.6,0.4-5.2,1.1
		c-1.6,0.7-3,1.7-4.2,2.9c-1.2,1.2-2.1,2.6-2.9,4.2c-0.7,1.6-1,3.4-1,5.2c0,1.8,0.4,3.6,1,5.2c0.7,1.6,1.7,3,2.9,4.2
		c1.2,1.2,2.6,2.1,4.2,2.9C434.7,370.6,436.4,371,438.2,371z M435.4,359.5v7.9H432v-19.5h5.4c2.4,0,4.3,0.5,5.9,1.5
		c1.5,1,2.3,2.4,2.3,4.3c0,1.3-0.4,2.4-1.2,3.3c-0.8,0.9-1.9,1.6-3.2,2l4.7,8.4h-3.6l-4.5-7.9L435.4,359.5L435.4,359.5z
		 M437.7,356.8c1.5,0,2.6-0.3,3.3-0.9c0.7-0.6,1-1.3,1-2.3c0-1-0.3-1.7-1-2.3c-0.7-0.6-1.8-0.8-3.3-0.8h-2.3v6.3L437.7,356.8
		L437.7,356.8z"/>
</g>
</svg>
