<svg width="327" height="313" viewBox="0 0 327 313" fill="none" xmlns="http://www.w3.org/2000/svg">
<path d="M164.602 275.24H161.392V272H164.602V275.24Z" fill="#91FF6A"/>
<path d="M127.249 269.016L132.11 280.631L135.742 278.121L137.226 271.137L140.307 271.792L135.941 292.333L132.86 291.678L134.868 282.229L123.851 289.763L120.007 288.946L129.559 282.389L123.522 268.224L127.249 269.016Z" fill="#91FF6A"/>
<path d="M109.18 262.201C114.662 264.641 116.863 270.613 114.349 276.258C111.836 281.904 105.925 284.264 100.444 281.824C94.9897 279.395 92.7882 273.424 95.3019 267.778C97.8155 262.132 103.726 259.772 109.18 262.201ZM108.058 264.722C104.248 263.026 100.074 264.878 98.2069 269.071C96.34 273.265 97.7566 277.606 101.566 279.302C105.376 280.998 109.577 279.158 111.444 274.965C113.311 270.772 111.867 266.418 108.058 264.722Z" fill="#91FF6A"/>
<path d="M92.7757 253.551L80.4322 270.54L77.9081 268.706L88.6293 253.95L80.353 247.936L81.9753 245.704L92.7757 253.551Z" fill="#91FF6A"/>
<path d="M73.9743 238.074L58.3683 252.126L56.2806 249.807L69.8355 237.603L62.9903 230L65.0414 228.153L73.9743 238.074Z" fill="#91FF6A"/>
<path d="M52.6657 208.4L49.0461 212.811L53.5011 220.527L59.1307 219.598L60.7357 222.378L38.4242 225.733L36.9842 223.239L51.0457 205.594L52.6657 208.4ZM50.6119 220.983L47.1919 215.059L41.0817 222.536L50.6119 220.983Z" fill="#91FF6A"/>
<path d="M41.4944 168.403C41.9898 173.117 39.4722 176.428 35.1711 177.121L34.8544 174.108C37.5145 173.587 39.0599 171.645 38.7495 168.691C38.4735 166.066 37.2584 164.263 34.9909 164.501C29.9785 165.028 34.2369 176.556 26.5393 177.365C23.1977 177.716 20.593 175.034 20.1509 170.827C19.7024 166.56 21.8715 163.376 25.6622 162.706L25.9789 165.72C23.8527 166.154 22.6261 167.973 22.8957 170.538C23.1592 173.045 24.4528 174.447 26.2131 174.262C31.2852 173.729 26.6626 162.179 34.6287 161.342C38.4477 160.94 41.024 163.927 41.4944 168.403Z" fill="#91FF6A"/>
<path d="M20.993 136.197L21.3192 133.094L42.2041 135.29L41.878 138.392L32.5096 137.408L31.4215 147.761L40.7899 148.745L40.4637 151.848L19.5788 149.653L19.9049 146.55L28.6766 147.472L29.7647 137.119L20.993 136.197Z" fill="#91FF6A"/>
<path d="M46.7508 119.875C44.8966 125.581 39.1878 128.395 33.3103 126.485C27.4327 124.575 24.468 118.943 26.3221 113.237C28.1669 107.559 33.8757 104.746 39.7533 106.655C45.6308 108.565 48.5956 114.197 46.7508 119.875ZM44.1258 119.022C45.4144 115.056 43.1359 111.098 38.7706 109.68C34.4052 108.261 30.2356 110.124 28.947 114.09C27.6584 118.056 29.9276 122.042 34.2929 123.461C38.6583 124.879 42.8372 122.988 44.1258 119.022Z" fill="#91FF6A"/>
<path d="M52.5384 104.562L31.1419 99.6215L32.7469 96.8416L49.3364 100.808L37.6819 88.2939L39.0319 85.9557L55.6964 89.7919L43.9819 77.382L45.5719 74.628L60.5634 90.6619L59.0034 93.3639L42.5398 89.5398L54.0834 101.886L52.5384 104.562Z" fill="#91FF6A"/>
<path d="M65.9752 68.6653C67.6678 68.1305 69.5564 68.4989 71.1527 69.7747L75.4244 73.0558L73.397 75.3076L69.3259 72.2071C67.8433 71.074 66.0393 71.1048 64.8349 72.4425L61.3219 76.344L67.4752 81.8844L65.3875 84.203L49.7814 70.1513L55.2817 64.0426C58.1121 60.8991 61.7335 60.6881 64.5203 63.1973C66.1924 64.7029 66.5286 66.6608 65.9752 68.6653ZM53.8756 69.6393L59.2708 74.4972L62.6232 70.774C64.4499 68.7452 63.8371 66.7806 62.4326 65.5159C61.0058 64.2312 59.0547 63.8874 57.228 65.9161L53.8756 69.6393Z" fill="#91FF6A"/>
<path d="M83.3892 66.0103L71.0457 49.021L81.9432 41.1035L83.5654 43.3364L75.1921 49.42L78.7365 54.2984L85.5079 49.3786L87.1302 51.6115L80.3587 56.5312L84.291 61.9436L92.9313 55.666L94.5536 57.8989L83.3892 66.0103Z" fill="#91FF6A"/>
<path d="M103.785 52.6802L95.2436 33.4958L107.549 28.017L108.672 30.5384L99.2165 34.7481L101.669 40.2568L109.315 36.8524L110.438 39.3738L102.792 42.7782L105.513 48.8898L115.269 44.5459L116.392 47.0673L103.785 52.6802Z" fill="#91FF6A"/>
<path d="M127.755 43.6163L123.388 23.0752L126.44 22.4265L130.233 40.2679L140.239 38.141L140.813 40.8407L127.755 43.6163Z" fill="#91FF6A"/>
<path d="M160.898 36.76H164.108V40H160.898V36.76Z" fill="#91FF6A"/>
<path d="M199.553 43.7223L194.692 32.1077L191.061 34.6176L189.576 41.6016L186.495 40.9467L190.861 20.4056L193.942 21.0605L191.934 30.5094L202.951 22.9753L206.795 23.7924L197.243 30.3497L203.28 44.5144L199.553 43.7223Z" fill="#91FF6A"/>
<path d="M217.621 50.5397C212.14 48.0992 209.938 42.1276 212.452 36.4818C214.966 30.8361 220.876 28.4763 226.358 30.9167C231.812 33.3449 234.013 39.3166 231.499 44.9623C228.986 50.608 223.075 52.9679 217.621 50.5397ZM218.744 48.0183C222.553 49.7144 226.727 47.8621 228.594 43.6689C230.461 39.4757 229.045 35.1342 225.235 33.4381C221.426 31.742 217.224 33.5821 215.357 37.7753C213.49 41.9684 214.934 46.3222 218.744 48.0183Z" fill="#91FF6A"/>
<path d="M234.026 59.1897L246.369 42.2004L248.893 44.0343L238.172 58.7907L246.448 64.8038L244.826 67.0367L234.026 59.1897Z" fill="#91FF6A"/>
<path d="M252.827 74.6678L268.434 60.6161L270.521 62.9347L256.966 75.1396L263.811 82.742L261.76 84.5888L252.827 74.6678Z" fill="#91FF6A"/>
<path d="M274.137 104.342L277.756 99.9313L273.301 92.2151L267.672 93.1444L266.067 90.3644L288.378 87.0091L289.818 89.5033L275.757 107.148L274.137 104.342ZM276.19 91.7594L279.61 97.683L285.721 90.2062L276.19 91.7594Z" fill="#91FF6A"/>
<path d="M285.308 144.34C284.812 139.626 287.33 136.314 291.631 135.621L291.948 138.634C289.288 139.155 287.742 141.097 288.053 144.051C288.329 146.677 289.544 148.479 291.811 148.241C296.824 147.714 292.565 136.186 300.263 135.377C303.605 135.026 306.209 137.708 306.651 141.915C307.1 146.182 304.931 149.366 301.14 150.036L300.823 147.022C302.95 146.588 304.176 144.77 303.907 142.204C303.643 139.698 302.349 138.295 300.589 138.48C295.517 139.013 300.14 150.563 292.174 151.401C288.355 151.802 285.778 148.815 285.308 144.34Z" fill="#91FF6A"/>
<path d="M305.809 176.545L305.483 179.648L284.598 177.453L284.924 174.35L294.293 175.334L295.381 164.981L286.012 163.997L286.339 160.894L307.223 163.089L306.897 166.192L298.126 165.27L297.038 175.623L305.809 176.545Z" fill="#91FF6A"/>
<path d="M280.051 192.865C281.905 187.159 287.614 184.345 293.491 186.255C299.369 188.165 302.334 193.797 300.48 199.503C298.635 205.181 292.926 207.994 287.048 206.085C281.171 204.175 278.206 198.543 280.051 192.865ZM282.676 193.718C281.387 197.684 283.666 201.642 288.031 203.06C292.397 204.479 296.566 202.616 297.855 198.65C299.143 194.684 296.874 190.698 292.509 189.28C288.143 187.861 283.965 189.752 282.676 193.718Z" fill="#91FF6A"/>
<path d="M274.264 208.179L295.66 213.119L294.055 215.899L277.466 211.933L289.12 224.446L287.77 226.785L271.106 222.948L282.82 235.358L281.23 238.112L266.239 222.078L267.799 219.376L284.262 223.2L272.719 210.855L274.264 208.179Z" fill="#91FF6A"/>
<path d="M260.827 244.077C259.134 244.612 257.245 244.243 255.649 242.967L251.377 239.686L253.405 237.435L257.476 240.535C258.958 241.668 260.762 241.637 261.967 240.3L265.48 236.398L259.327 230.858L261.414 228.539L277.02 242.591L271.52 248.7C268.69 251.843 265.068 252.054 262.281 249.545C260.609 248.039 260.273 246.081 260.827 244.077ZM272.926 243.103L267.531 238.245L264.179 241.968C262.352 243.997 262.965 245.962 264.369 247.226C265.796 248.511 267.747 248.855 269.574 246.826L272.926 243.103Z" fill="#91FF6A"/>
<path d="M243.413 246.732L255.756 263.721L244.859 271.639L243.236 269.406L251.61 263.322L248.065 258.444L241.294 263.364L239.672 261.131L246.443 256.211L242.511 250.799L233.87 257.076L232.248 254.843L243.413 246.732Z" fill="#91FF6A"/>
<path d="M223.017 260.062L231.559 279.246L219.253 284.725L218.131 282.204L227.586 277.994L225.133 272.485L217.487 275.89L216.364 273.368L224.011 269.964L221.289 263.852L211.533 268.196L210.41 265.675L223.017 260.062Z" fill="#91FF6A"/>
<path d="M199.047 269.124L203.413 289.665L200.361 290.314L196.569 272.472L186.563 274.599L185.989 271.9L199.047 269.124Z" fill="#91FF6A"/>
</svg>
