<svg width="327" height="325" viewBox="0 0 327 325" fill="none" xmlns="http://www.w3.org/2000/svg">
<path d="M165.422 286.24H162.212V283H165.422V286.24Z" fill="#91FF6A"/>
<path d="M134.645 279.684C140.471 281.12 143.691 286.61 142.212 292.61C140.733 298.611 135.33 301.976 129.505 300.54C123.708 299.111 120.488 293.621 121.967 287.62C123.446 281.62 128.849 278.255 134.645 279.684ZM133.985 282.364C129.936 281.366 126.153 283.925 125.055 288.381C123.957 292.838 126.116 296.862 130.165 297.86C134.214 298.858 138.026 296.306 139.124 291.849C140.222 287.393 138.034 283.362 133.985 282.364Z" fill="#91FF6A"/>
<path d="M107.488 269.384C111.738 271.615 113.311 275.591 111.08 279.841L104.736 291.928L102.08 290.534L108.465 278.367C109.86 275.711 108.848 273.249 106.192 271.855C103.509 270.447 100.908 271.013 99.5135 273.669L93.1282 285.835L90.4718 284.441L96.8153 272.355C99.0459 268.104 103.211 267.14 107.488 269.384Z" fill="#91FF6A"/>
<path d="M73.6225 257.687C73.0741 255.999 73.4272 254.107 74.6901 252.501L77.9367 248.203L80.2047 250.212L77.1372 254.308C76.016 255.799 76.0614 257.603 77.4087 258.797L81.3384 262.278L86.829 256.08L89.1644 258.149L75.2388 273.868L69.086 268.417C65.9198 265.612 65.6797 261.993 68.1664 259.186C69.6584 257.502 71.6135 257.15 73.6225 257.687ZM74.6939 269.778L79.5082 264.344L75.7581 261.022C73.7147 259.211 71.755 259.84 70.5017 261.255C69.2285 262.692 68.9004 264.646 70.9438 266.456L74.6939 269.778Z" fill="#91FF6A"/>
<path d="M50.7888 205.329C52.4697 209.761 50.8793 213.605 46.8971 215.372L45.8226 212.539C48.2621 211.357 49.2614 209.085 48.2082 206.308C47.272 203.84 45.6375 202.406 43.5056 203.215C38.7931 205.002 45.8496 215.063 38.6126 217.808C35.4709 219 32.2685 217.07 30.7685 213.115C29.2472 209.103 30.5329 205.471 34.0276 203.857L35.1021 206.69C33.1569 207.653 32.4343 209.724 33.3491 212.136C34.2428 214.492 35.8512 215.518 37.5062 214.891C42.2748 213.082 34.8605 203.092 42.3499 200.252C45.9404 198.89 49.1931 201.122 50.7888 205.329Z" fill="#91FF6A"/>
<path d="M22.0844 173.961L21.7084 170.864L42.5553 168.332L42.9313 171.43L33.58 172.565L34.8348 182.899L44.1861 181.764L44.5622 184.861L23.7153 187.392L23.3392 184.295L32.0949 183.232L30.8401 172.898L22.0844 173.961Z" fill="#91FF6A"/>
<path d="M43.8763 148.196C43.1531 154.152 38.0912 158.01 31.9562 157.265C25.8213 156.52 21.8297 151.563 22.5529 145.607C23.2726 139.68 28.3345 135.822 34.4694 136.567C40.6044 137.312 44.5959 142.269 43.8763 148.196ZM41.1365 147.863C41.6391 143.724 38.6427 140.277 34.0861 139.724C29.5296 139.171 25.7955 141.8 25.2928 145.939C24.7902 150.079 27.783 153.555 32.3395 154.108C36.8961 154.662 40.6338 152.003 41.1365 147.863Z" fill="#91FF6A"/>
<path d="M48.0008 126.768L26.0889 125.325L27.2272 122.323L44.2381 123.577L30.7272 113.095L31.6846 110.57L48.7487 111.683L35.1952 101.313L36.3228 98.34L53.6923 111.761L52.5859 114.679L35.722 113.545L49.0966 123.879L48.0008 126.768Z" fill="#91FF6A"/>
<path d="M58.3554 84.9673C59.9652 84.2194 61.8855 84.3419 63.6326 85.402L68.2906 88.1069L66.5694 90.6005L62.1336 88.0491C60.5176 87.1159 58.7325 87.3783 57.71 88.8597L54.7277 93.1804L61.542 97.8839L59.7696 100.452L42.487 88.5223L47.1565 81.7574C49.5594 78.2761 53.1236 77.6014 56.2098 79.7316C58.0615 81.0098 58.6466 82.9082 58.3554 84.9673ZM46.4814 87.4884L52.4563 91.6125L55.3023 87.4894C56.8531 85.2426 55.9929 83.373 54.4374 82.2994C52.8573 81.2087 50.8782 81.1185 49.3274 83.3652L46.4814 87.4884Z" fill="#91FF6A"/>
<path d="M78.6033 76.6254L64.6777 60.9067L74.7601 51.9744L76.5904 54.0403L68.8433 60.9037L72.8419 65.4172L79.1069 59.8668L80.9372 61.9327L74.6721 67.4831L79.1084 72.4906L87.1025 65.4085L88.9327 67.4743L78.6033 76.6254Z" fill="#91FF6A"/>
<path d="M101.672 58.8191L91.9123 40.2245L103.839 33.9647L105.122 36.4085L95.9576 41.2184L98.7599 46.5577L106.171 42.668L107.454 45.1118L100.043 49.0016L103.152 54.9253L112.608 49.962L113.891 52.4059L101.672 58.8191Z" fill="#91FF6A"/>
<path d="M128.941 46.8981L123.916 26.5083L126.945 25.7616L131.31 43.4716L141.243 41.0234L141.904 43.7032L128.941 46.8981Z" fill="#91FF6A"/>
<path d="M162.219 38.76H165.429V42H162.219V38.76Z" fill="#91FF6A"/>
<path d="M192.295 45.74C186.47 44.3041 183.25 38.8141 184.729 32.8137C186.208 26.8133 191.61 23.4483 197.436 24.8842C203.233 26.3129 206.452 31.803 204.973 37.8034C203.494 43.8038 198.092 47.1688 192.295 45.74ZM192.956 43.0602C197.005 44.0582 200.787 41.499 201.886 37.0424C202.984 32.5858 200.824 28.562 196.775 27.564C192.727 26.5661 188.915 29.1181 187.817 33.5747C186.718 38.0313 188.907 42.0623 192.956 43.0602Z" fill="#91FF6A"/>
<path d="M219.453 56.0356C215.202 53.8049 213.63 49.8288 215.861 45.5786L222.204 33.4921L224.861 34.8863L218.475 47.0524C217.081 49.7088 218.093 52.171 220.749 53.5651C223.432 54.9732 226.033 54.4071 227.427 51.7508L233.813 39.5846L236.469 40.9788L230.125 53.0653C227.895 57.3154 223.729 58.2802 219.453 56.0356Z" fill="#91FF6A"/>
<path d="M253.317 67.7331C253.866 69.4213 253.513 71.3128 252.25 72.9194L249.003 77.2174L246.735 75.2081L249.803 71.1122C250.924 69.6205 250.879 67.8168 249.531 66.6232L245.602 63.1418L240.111 69.3395L237.776 67.2705L251.701 51.5518L257.854 57.0027C261.02 59.8077 261.26 63.4273 258.774 66.2342C257.282 67.9183 255.326 68.2704 253.317 67.7331ZM252.246 55.6417L247.432 61.0759L251.182 64.3982C253.225 66.2085 255.185 65.5799 256.438 64.1652C257.711 62.7281 258.04 60.7743 255.996 58.964L252.246 55.6417Z" fill="#91FF6A"/>
<path d="M276.151 120.094C274.47 115.662 276.06 111.819 280.043 110.052L281.117 112.885C278.678 114.067 277.678 116.339 278.732 119.116C279.668 121.584 281.302 123.018 283.434 122.209C288.147 120.422 281.09 110.36 288.327 107.616C291.469 106.424 294.671 108.354 296.171 112.309C297.692 116.32 296.407 119.952 292.912 121.567L291.838 118.733C293.783 117.771 294.505 115.7 293.591 113.288C292.697 110.932 291.088 109.905 289.434 110.533C284.665 112.342 292.079 122.332 284.59 125.172C280.999 126.534 277.747 124.302 276.151 120.094Z" fill="#91FF6A"/>
<path d="M304.856 151.461L305.232 154.558L284.385 157.09L284.009 153.992L293.361 152.857L292.106 142.523L282.755 143.658L282.378 140.561L303.225 138.03L303.601 141.127L294.846 142.19L296.101 152.524L304.856 151.461Z" fill="#91FF6A"/>
<path d="M283.064 177.228C283.788 171.272 288.849 167.414 294.984 168.159C301.119 168.904 305.111 173.861 304.388 179.817C303.668 185.744 298.606 189.602 292.471 188.857C286.336 188.112 282.345 183.154 283.064 177.228ZM285.804 177.561C285.302 181.7 288.298 185.147 292.855 185.7C297.411 186.253 301.145 183.624 301.648 179.484C302.15 175.345 299.158 171.869 294.601 171.316C290.045 170.762 286.307 173.421 285.804 177.561Z" fill="#91FF6A"/>
<path d="M278.939 198.655L300.851 200.099L299.713 203.101L282.702 201.847L296.213 212.329L295.255 214.854L278.191 213.74L291.745 224.11L290.617 227.084L273.248 213.662L274.354 210.745L291.218 211.879L277.843 201.545L278.939 198.655Z" fill="#91FF6A"/>
<path d="M268.585 240.455C266.975 241.202 265.055 241.08 263.308 240.02L258.65 237.315L260.371 234.821L264.807 237.373C266.423 238.306 268.208 238.044 269.23 236.562L272.213 232.242L265.398 227.538L267.171 224.97L284.453 236.9L279.784 243.665C277.381 247.146 273.817 247.82 270.731 245.69C268.879 244.412 268.294 242.514 268.585 240.455ZM280.459 237.934L274.484 233.809L271.638 237.933C270.087 240.179 270.948 242.049 272.503 243.123C274.083 244.213 276.062 244.303 277.613 242.057L280.459 237.934Z" fill="#91FF6A"/>
<path d="M248.337 248.794L262.263 264.513L252.18 273.445L250.35 271.38L258.097 264.516L254.099 260.003L247.833 265.553L246.003 263.487L252.268 257.937L247.832 252.929L239.838 260.011L238.008 257.946L248.337 248.794Z" fill="#91FF6A"/>
<path d="M225.269 266.603L235.028 285.197L223.101 291.457L221.819 289.013L230.983 284.203L228.181 278.864L220.77 282.754L219.487 280.31L226.898 276.42L223.789 270.497L214.332 275.46L213.05 273.016L225.269 266.603Z" fill="#91FF6A"/>
<path d="M197.999 278.524L203.025 298.914L199.995 299.66L195.63 281.95L185.698 284.398L185.037 281.719L197.999 278.524Z" fill="#91FF6A"/>
</svg>
