<svg width="642" height="462" viewBox="0 0 642 462" fill="none" xmlns="http://www.w3.org/2000/svg">
<path d="M374.667 295.6L453.967 368.2L536.167 377.3L471.267 345L514.367 338L374.667 295.6Z" fill="#91FF6A"/>
<path d="M395.567 196L586.667 110.5L562.067 153.3L639.767 136.4L579.367 200L395.567 196Z" fill="#C6F9B2" stroke="#C6F9B2" stroke-miterlimit="10"/>
<path d="M133.067 91.1L55.7666 2L58.6666 30.6L21.0667 2.09999L41.8666 50.5L133.067 91.1Z" fill="#C6F9B2" stroke="#C6F9B2" stroke-miterlimit="10"/>
<path d="M450.867 102.1L562.267 12.5L541.367 54.6L603.567 20.9L552.567 81.2L450.867 102.1Z" fill="#91FF6A" stroke="#91FF6A" stroke-miterlimit="10"/>
<path d="M122.967 98.5001C122.967 98.5001 100.667 140.1 110.167 185.4C119.567 230.8 147.567 284.9 175.967 293.5C204.367 302.1 232.467 325.4 293.867 303.4C355.367 281.4 406.267 258.3 404.467 192.1C402.667 125.8 364.767 36.6 301.167 34.6C237.467 32.5 158.367 35.2001 122.967 98.5001Z" fill="white"/>
<path d="M184.867 123.501C184.867 123.501 162.767 164.301 172.567 193.201C182.367 222.001 200.167 259.601 242.167 259.601C284.267 259.601 325.367 259.201 339.567 242.301C353.767 225.401 361.467 158.301 348.767 133.801C335.967 109.401 283.367 61.0007 246.567 73.2007C209.867 85.5007 196.467 93.4007 184.867 123.501Z" fill="#91FF6A"/>
<path d="M244.767 137.2C244.767 137.2 226.167 153.6 229.567 168.9C232.967 184.2 231.167 199.1 255.167 198.5C279.167 197.9 290.667 197.8 296.067 177.3C301.467 156.8 297.467 143.1 278.067 136.2C258.567 129.4 261.767 129.6 244.767 137.2Z" fill="white"/>
<path d="M219.467 312.4L231.867 314.4L209.767 456.5H194.467L219.467 312.4Z" fill="white"/>
<path d="M272.167 314.4L291.367 312.6L316.467 457.2L299.867 460.3L272.167 314.4Z" fill="white"/>
<path d="M167.767 53.4001C167.267 53.7001 166.667 54.1001 166.067 54.3001C165.867 54.4001 165.767 54.5001 165.667 54.7001C165.567 54.8001 165.467 55.0001 165.367 55.2001C165.267 55.4001 165.267 55.6001 165.367 55.8001C165.367 56.0001 165.467 56.2001 165.567 56.4001C165.767 56.7001 166.067 57.0001 166.467 57.1001C166.567 57.1001 166.767 57.1001 166.867 57.2001C167.167 57.2001 167.367 57.1001 167.667 57.0001C168.267 56.7001 168.767 56.4001 169.367 56.1001C169.667 55.9001 169.967 55.6001 170.067 55.2001C170.167 55.0001 170.167 54.8001 170.067 54.6001C170.067 54.4001 169.967 54.2001 169.867 54.0001C169.667 53.7001 169.367 53.4001 168.967 53.3001C168.567 53.2001 168.067 53.2001 167.767 53.4001Z" fill="black"/>
<path d="M170.167 52.0996C169.567 52.3996 168.967 52.7996 168.467 53.0996C168.267 53.1996 168.167 53.2997 168.067 53.4997C167.967 53.5997 167.867 53.7997 167.767 53.9997C167.667 54.1997 167.667 54.3996 167.767 54.5996C167.767 54.7996 167.867 54.9997 167.967 55.1997C168.167 55.4997 168.467 55.7997 168.867 55.8997C169.267 55.9997 169.667 55.9997 170.067 55.6997C170.667 55.3997 171.267 54.9997 171.767 54.6997C171.967 54.5997 172.067 54.4997 172.167 54.2997C172.267 54.1997 172.367 53.9997 172.467 53.7997C172.567 53.5997 172.567 53.3997 172.467 53.1997C172.467 52.9997 172.367 52.7996 172.267 52.5996C172.067 52.2996 171.767 51.9997 171.367 51.8997C170.967 51.7997 170.567 51.7996 170.167 52.0996Z" fill="black"/>
<path d="M318.867 40.6998C309.267 37.8998 299.667 35.4997 289.867 33.5997C280.167 31.7997 270.367 30.4998 260.467 30.1998C255.467 29.9998 250.567 30.0998 245.567 30.3998C240.667 30.6998 235.667 31.2998 230.767 31.8998C221.167 33.0998 211.567 34.6997 202.167 37.0997C197.367 38.2997 192.667 39.7998 188.067 41.4998C185.867 42.2998 183.767 43.2998 181.767 44.4998C179.867 45.6998 178.067 46.9998 176.167 48.2998C175.267 48.9998 174.267 49.6998 173.267 50.2998C172.567 50.7998 172.267 51.5998 172.767 52.3998C173.167 53.0998 174.167 53.3998 174.867 52.8998C178.567 50.2998 182.067 47.3998 186.167 45.3998C188.267 44.3998 190.567 43.6998 192.767 42.8998C195.067 42.0998 197.367 41.3998 199.667 40.7998C208.867 38.1998 218.267 36.4998 227.767 35.1998C237.367 33.8998 247.067 32.8997 256.767 33.0997C266.467 33.1997 276.167 34.2998 285.667 35.8998C295.367 37.5998 304.967 39.8997 314.467 42.5997C315.667 42.8997 316.867 43.2997 317.967 43.5997C319.967 44.1997 320.767 41.1998 318.867 40.6998Z" fill="black"/>
<path d="M386.367 101C383.167 97.8003 380.167 94.3003 377.667 90.5003C376.467 88.6003 375.367 86.7003 374.367 84.7003C373.867 83.7003 373.067 83.0003 372.267 82.1003C371.567 81.4003 370.867 80.6003 370.167 79.8003C364.667 73.7003 359.867 67.0003 353.967 61.3003C350.667 58.1003 347.067 55.3003 342.967 53.2003C341.267 52.3003 339.667 54.9003 341.467 55.8003C348.567 59.5003 354.067 65.4003 359.167 71.4003C361.767 74.5003 364.367 77.7003 367.067 80.8003C368.467 82.4003 369.967 83.8003 371.367 85.4003C371.967 86.1003 372.367 87.3003 372.867 88.1003C373.367 89.1003 373.967 90.1003 374.567 91.0003C377.267 95.4003 380.567 99.3003 384.267 103C385.667 104.5 387.767 102.4 386.367 101Z" fill="black"/>
<path d="M169.067 293.901C170.667 295.601 172.767 296.801 174.767 297.901C177.167 299.201 179.767 299.801 182.267 300.601C187.367 302.301 192.567 303.901 197.767 305.401C207.867 308.401 218.167 311.101 228.567 313.001C234.467 314.101 240.367 314.901 246.267 315.401C247.067 315.501 247.767 314.601 247.767 313.901C247.767 313.001 247.067 312.401 246.267 312.401C236.067 311.501 225.967 309.701 215.967 307.201C205.867 304.801 195.867 301.701 185.867 298.601C184.467 298.101 183.067 297.701 181.567 297.201C180.167 296.701 178.667 296.401 177.267 295.801C176.167 295.301 175.067 294.701 173.967 294.001C172.867 293.301 171.867 292.601 170.967 291.701C169.867 290.301 167.767 292.401 169.067 293.901Z" fill="black"/>
<path d="M114.767 232.1C117.367 237.4 120.367 242.5 123.367 247.7C124.367 249.4 126.967 247.9 125.967 246.2C122.967 241.1 119.967 236 117.367 230.6C116.967 229.9 115.967 229.7 115.267 230.1C114.567 230.5 114.467 231.4 114.767 232.1Z" fill="black"/>
<path d="M113.467 229.301C113.767 230.001 114.067 230.701 114.467 231.401C114.567 231.601 114.667 231.701 114.867 231.801C114.967 231.901 115.167 232.001 115.367 232.101C115.567 232.201 115.767 232.201 115.967 232.101C116.167 232.101 116.367 232.001 116.567 231.901C116.867 231.701 117.167 231.401 117.267 231.001C117.267 230.901 117.267 230.701 117.367 230.601C117.367 230.301 117.267 230.101 117.167 229.801C116.867 229.101 116.467 228.401 116.167 227.701C116.067 227.501 115.967 227.401 115.767 227.301C115.667 227.201 115.467 227.101 115.267 227.001C115.067 226.901 114.867 226.901 114.667 227.001C114.467 227.001 114.267 227.101 114.067 227.201C113.767 227.401 113.467 227.701 113.367 228.101C113.367 228.201 113.367 228.401 113.267 228.501C113.267 228.801 113.367 229.101 113.467 229.301Z" fill="black"/>
<path d="M105.367 146.1C102.767 156.7 101.667 167.7 101.867 178.6C102.167 189.6 103.867 200.5 106.767 211C108.467 217 110.567 222.9 113.067 228.6C113.367 229.4 114.467 229.5 115.167 229.1C115.967 228.6 116.067 227.8 115.667 227C111.467 217.2 108.367 206.8 106.567 196.3C104.767 185.8 104.367 175.1 105.267 164.6C105.767 158.6 106.767 152.7 108.167 146.9C108.767 145 105.867 144.2 105.367 146.1Z" fill="black"/>
<path d="M106.867 141.501C106.667 141.701 106.567 141.901 106.467 142.201C106.267 142.501 106.167 142.901 106.067 143.301C105.967 143.801 105.867 144.301 105.667 144.801C105.567 145.201 105.567 145.601 105.867 146.001C106.067 146.301 106.367 146.601 106.767 146.701C107.167 146.801 107.567 146.801 107.967 146.501C108.267 146.301 108.567 146.001 108.667 145.601C108.867 144.901 108.967 144.101 109.267 143.401C109.167 143.501 109.167 143.601 109.067 143.801C109.167 143.501 109.267 143.301 109.467 143.101C109.667 142.801 109.667 142.301 109.667 141.901C109.567 141.501 109.267 141.201 108.967 141.001C108.567 140.801 108.167 140.701 107.767 140.801C107.667 140.901 107.567 140.901 107.367 141.001C107.167 141.101 106.967 141.301 106.867 141.501Z" fill="black"/>
<path d="M107.967 135C107.767 136.2 107.667 137.5 107.467 138.7C107.467 139.1 107.667 139.5 107.867 139.8C108.167 140.1 108.567 140.3 108.967 140.2C109.367 140.2 109.767 140.1 110.067 139.8C110.167 139.7 110.267 139.6 110.267 139.5C110.367 139.3 110.467 139 110.467 138.7C110.567 137.8 110.667 137 110.767 136.1C110.767 136.2 110.767 136.4 110.667 136.5C110.667 136.3 110.767 136 110.767 135.8C110.867 135.6 110.867 135.4 110.767 135.2C110.767 135 110.667 134.8 110.567 134.6C110.367 134.3 109.967 134 109.667 133.9C109.267 133.8 108.867 133.8 108.467 134.1C108.367 134.3 107.967 134.6 107.967 135Z" fill="black"/>
<path d="M125.967 92.9004C123.267 98.0004 119.667 102.5 116.667 107.4C115.167 109.8 114.067 112.6 112.967 115.2C111.767 117.9 110.767 120.6 109.967 123.4C109.067 126.6 108.467 129.9 108.367 133.3C108.267 135.3 111.367 135.3 111.467 133.3C111.667 127.7 113.367 122.3 115.567 117.2C116.167 115.9 116.667 114.6 117.267 113.4C117.867 112.1 118.367 110.8 119.067 109.6C120.467 107.3 122.067 105.1 123.567 102.8C125.367 100.1 127.167 97.4004 128.767 94.5004C129.567 92.7004 126.867 91.1004 125.967 92.9004Z" fill="black"/>
<path d="M136.567 78.5002C135.867 79.4002 135.067 80.3002 134.367 81.2002C134.267 81.3002 134.067 81.5002 134.067 81.7002C133.967 81.9002 133.967 82.1002 133.967 82.3002C133.967 82.7002 134.167 83.1002 134.367 83.4002C134.667 83.7002 135.067 83.9002 135.467 83.8002C135.867 83.8002 136.267 83.7002 136.567 83.4002C137.267 82.5002 137.967 81.6002 138.767 80.7002C138.867 80.6002 139.067 80.4002 139.067 80.2002C139.167 80.0002 139.167 79.8002 139.167 79.6002C139.167 79.2002 138.967 78.8002 138.767 78.5002C138.467 78.2002 138.067 78.0002 137.667 78.1002C137.267 78.1002 136.767 78.2002 136.567 78.5002Z" fill="black"/>
<path d="M390.467 111.401C387.167 107.201 384.267 102.801 381.267 98.4009C379.867 96.3009 378.367 94.1009 376.967 92.0009C375.567 89.9009 374.167 87.6009 372.267 85.9009C371.467 85.2009 370.667 84.6009 369.867 83.9009C368.967 83.0009 368.267 82.0009 367.567 80.9009C366.267 79.1009 364.967 77.4009 363.667 75.6009C360.867 72.1009 357.867 68.9009 354.567 65.9009C352.867 64.4009 351.167 62.8009 349.367 61.5009C347.367 60.1009 345.367 58.8009 343.367 57.5009C339.367 54.9009 335.267 52.4009 331.067 50.0009C323.167 45.5009 314.967 41.5009 306.367 38.4009C297.267 35.1009 287.967 33.1009 278.467 32.0009C267.967 30.8009 257.467 30.4009 246.967 30.7009C236.967 31.0009 226.867 32.0009 217.067 33.5009C207.167 35.0009 197.367 37.3009 188.067 41.0009C179.467 44.4009 171.267 49.3009 163.667 54.6009C156.067 59.9009 148.967 65.9009 142.367 72.4009C140.767 74.0009 139.167 75.7009 137.567 77.3009C136.267 78.7009 138.367 80.9009 139.767 79.5009C152.267 66.2009 166.767 54.8009 183.067 46.7009C200.767 37.9009 220.767 35.6009 240.167 34.2009C250.367 33.5009 260.567 33.6009 270.667 34.4009C280.467 35.2009 290.167 36.5009 299.667 39.4009C308.267 42.0009 316.467 45.6009 324.367 49.8009C328.367 52.0009 332.367 54.3009 336.267 56.7009C340.267 59.2009 344.467 61.6009 348.267 64.5009C355.267 69.8009 361.067 76.7009 365.967 83.9009C367.267 85.8009 368.967 87.0009 370.667 88.6009C372.467 90.3009 373.867 92.8009 375.267 94.8009C378.167 99.0009 380.967 103.301 383.967 107.501C385.467 109.601 386.967 111.601 388.567 113.601C389.467 115.101 391.667 112.901 390.467 111.401Z" fill="black"/>
<path d="M402.467 146.701C402.367 145.301 402.167 143.901 401.967 142.501C401.967 142.101 401.567 141.801 401.267 141.601C400.967 141.401 400.467 141.301 400.067 141.401C399.667 141.501 399.367 141.701 399.167 142.101C399.067 142.201 399.067 142.301 398.967 142.501C398.867 142.801 398.867 143.001 398.967 143.301C398.967 143.301 398.967 143.301 398.967 143.401C398.967 143.301 398.967 143.101 398.867 143.001C399.067 144.201 399.167 145.501 399.267 146.701C399.267 147.101 399.367 147.501 399.667 147.801C399.967 148.101 400.367 148.301 400.767 148.201C401.167 148.201 401.567 148.101 401.867 147.801C402.267 147.501 402.467 147.101 402.467 146.701Z" fill="black"/>
<path d="M372.667 268.001C383.067 256.401 390.067 242.301 394.867 227.601C400.167 211.601 402.867 194.701 403.467 177.901C403.867 168.001 403.467 158.101 402.567 148.301C402.467 147.501 401.967 146.801 401.067 146.801C400.267 146.801 399.467 147.501 399.567 148.301C401.267 165.201 401.067 182.401 398.467 199.301C396.067 215.101 391.767 230.801 384.567 245.001C380.767 252.501 376.167 259.701 370.567 265.901C369.267 267.301 371.367 269.501 372.667 268.001Z" fill="black"/>
<path d="M182.367 298.001C190.967 303.101 200.467 306.801 210.167 309.301C219.867 311.701 229.967 313.001 239.967 313.501C244.967 313.701 249.967 313.801 254.967 313.701C260.067 313.601 265.167 313.401 270.267 312.801C281.067 311.601 291.767 309.301 302.167 306.201C312.567 303.101 322.667 299.101 332.567 294.501C333.767 293.901 335.067 293.301 336.267 292.701C338.067 291.801 336.467 289.201 334.767 290.101C325.167 294.801 315.267 298.901 305.167 302.101C294.967 305.401 284.467 307.801 273.867 309.301C263.967 310.701 253.967 310.801 243.967 310.501C234.167 310.201 224.367 309.201 214.767 307.101C205.167 305.001 195.867 301.801 187.267 297.101C186.167 296.501 185.167 295.901 184.067 295.301C182.167 294.301 180.667 297.001 182.367 298.001Z" fill="black"/>
<path d="M313.367 43.201C314.067 43.001 314.867 43.6011 315.467 44.0011C316.267 44.5011 316.967 45.101 317.767 45.601C319.867 46.801 322.067 47.901 324.067 49.401C327.667 52.001 330.767 55.501 334.967 57.401C336.467 58.101 338.067 56.3011 336.867 55.0011C331.867 49.7011 325.367 46.5011 319.167 43.0011C318.767 43.9011 318.367 44.9011 317.967 45.8011C322.467 47.5011 326.867 49.4011 330.967 51.8011C332.767 52.8011 334.467 54.001 336.267 55.101C337.867 56.001 339.467 56.901 340.967 58.101C342.467 59.201 343.767 60.6011 344.167 62.3011C344.567 61.7011 344.867 61.001 345.267 60.401C345.667 60.301 344.967 60.301 345.367 60.401C345.167 60.401 344.967 60.301 344.867 60.201C345.167 60.301 344.567 60.0011 344.567 60.0011C344.367 59.9011 344.167 59.701 344.067 59.601C343.267 59.001 342.567 58.2011 341.867 57.5011C340.467 56.0011 338.967 54.401 337.567 52.901C336.567 51.901 335.567 50.801 334.367 50.101C333.267 49.401 331.967 49.1011 330.867 48.5011C329.767 47.9011 328.767 46.901 327.767 46.101C326.767 45.301 325.667 44.5011 324.567 43.8011C323.167 43.0011 321.567 42.401 320.167 41.601C318.567 40.801 316.967 39.9011 315.367 39.0011C313.667 38.1011 312.067 40.701 313.867 41.601C319.667 44.901 326.167 46.601 332.067 49.701C333.467 50.501 334.867 51.3011 336.167 52.3011C337.467 53.3011 338.667 54.501 339.967 55.701C342.567 58.001 345.067 60.401 347.267 63.101C348.467 64.601 349.667 66.001 350.967 67.401C352.167 68.701 353.367 70.101 354.067 71.701C354.367 72.501 355.067 73.0011 355.967 72.8011C356.667 72.6011 357.367 71.701 357.067 70.901C355.667 67.601 352.967 65.2011 350.767 62.5011C349.567 61.1011 348.467 59.6011 347.167 58.3011C345.967 57.0011 344.667 55.801 343.367 54.701C340.767 52.301 338.167 49.8011 335.167 48.0011C332.267 46.2011 329.067 44.901 325.867 43.601C322.367 42.201 318.767 40.8011 315.467 39.0011C314.967 39.9011 314.467 40.801 313.967 41.601C315.367 42.401 316.867 43.2011 318.267 44.0011C319.667 44.7011 321.167 45.401 322.567 46.101C324.967 47.401 326.767 49.401 329.067 50.901C330.267 51.701 331.667 51.901 332.867 52.601C334.067 53.301 334.967 54.4011 335.867 55.3011C337.367 56.9011 338.767 58.4011 340.267 60.0011C341.867 61.7011 343.967 63.7011 346.467 63.3011C347.267 63.1011 347.767 62.201 347.567 61.401C346.567 57.401 342.667 55.001 339.367 53.101C335.367 50.801 331.667 48.2011 327.467 46.3011C324.767 45.0011 322.067 43.901 319.267 42.901C317.667 42.301 316.567 44.901 318.067 45.701C324.067 49.101 330.367 52.1011 335.167 57.3011C335.767 56.5011 336.367 55.701 337.067 54.901C332.667 52.901 329.367 49.2011 325.467 46.5011C324.367 45.8011 323.367 45.1011 322.167 44.5011C321.167 43.9011 320.067 43.4011 319.167 42.8011C317.367 41.5011 315.467 39.9011 313.067 40.5011C310.667 40.7011 311.467 43.701 313.367 43.201Z" fill="black"/>
<path d="M333.067 293.399C335.967 293.899 338.867 292.599 341.367 291.299C344.067 289.999 346.767 288.499 348.967 286.599C351.567 284.399 353.867 281.799 356.167 279.299C357.267 278.099 358.367 276.899 359.667 275.899C361.067 274.799 362.667 274.099 364.067 273.199C367.367 270.999 370.167 268.199 373.667 266.299C373.167 265.399 372.667 264.499 372.167 263.699C369.667 265.599 366.767 266.699 364.267 268.599C361.767 270.499 359.467 272.699 357.067 274.799C354.967 276.699 353.967 279.299 351.867 281.199C350.867 282.099 349.667 282.599 348.467 282.999C347.067 283.599 345.767 284.199 344.567 285.299C343.267 286.499 344.967 288.499 346.467 287.699C349.467 285.999 352.867 285.099 355.567 282.999C356.967 281.899 357.967 280.499 359.267 279.299C360.467 278.099 362.067 277.299 363.567 276.299C365.067 275.399 366.567 274.299 367.767 272.999C369.067 271.599 370.167 270.099 371.367 268.699C372.467 267.299 373.767 266.199 374.967 264.799C376.167 263.399 377.267 261.899 378.367 260.399C379.367 258.899 380.367 257.299 381.167 255.699C381.967 253.999 382.467 252.299 383.167 250.599C384.667 247.199 387.067 244.199 388.467 240.799C389.867 237.399 390.967 233.799 391.567 230.199C391.867 228.299 391.867 226.399 392.467 224.499C393.067 222.699 393.767 220.999 394.367 219.199C395.667 215.699 397.367 212.399 398.967 209.099C400.567 205.799 402.467 202.199 402.567 198.499C402.667 196.699 402.467 194.999 403.167 193.299C403.867 191.599 404.367 190.099 404.467 188.299C404.767 184.699 404.267 181.199 404.167 177.599C404.067 173.899 403.967 170.199 403.467 166.499C402.867 162.699 402.067 158.999 401.067 155.299C400.067 151.799 398.767 148.399 398.067 144.799C397.667 142.899 397.467 141.099 396.867 139.199C396.367 137.499 395.667 135.899 395.067 134.299C393.667 130.599 392.567 126.799 391.467 122.899C390.367 119.199 389.467 115.499 387.867 111.899C386.367 108.499 384.567 105.199 383.067 101.799C381.767 98.8993 380.567 95.7993 378.867 93.0993C378.067 91.6993 377.067 90.3993 375.867 89.1993C374.667 87.9993 373.067 89.2993 373.267 90.6993C373.967 95.0993 376.567 99.0993 378.967 102.699C381.667 106.899 383.867 111.199 386.167 115.699C388.467 120.299 390.967 124.899 392.667 129.699C394.067 133.499 394.567 137.399 394.867 141.499C394.967 143.499 395.167 145.599 395.467 147.599C395.767 149.299 396.167 151.199 397.267 152.599C398.167 153.799 400.067 153.499 400.167 151.799C400.567 143.699 397.467 136.299 394.767 128.799C393.367 124.899 392.067 120.899 390.467 116.999C388.967 113.599 386.867 110.599 384.867 107.499C382.967 104.499 382.367 100.599 379.467 98.2993C378.367 97.3993 376.467 98.1993 376.867 99.7993C377.467 101.799 378.767 103.199 379.867 104.899C381.067 106.699 382.167 108.599 383.167 110.499C385.267 114.199 387.267 117.999 388.967 121.899C390.667 125.799 392.167 129.899 393.867 133.899C395.467 137.899 395.467 142.099 396.067 146.299C396.367 148.699 396.867 150.999 397.067 153.399C397.267 155.799 397.267 158.199 397.267 160.699C397.267 162.699 400.367 162.699 400.367 160.699C400.367 156.399 400.167 151.999 399.467 147.699C398.767 143.499 398.867 139.099 397.567 134.999C396.967 132.999 396.067 130.999 395.267 128.999C394.467 126.999 393.667 124.899 392.767 122.899C391.067 118.899 389.167 115.099 387.167 111.299C385.967 109.099 384.767 106.899 383.467 104.799C382.867 103.799 382.167 102.799 381.467 101.799C380.867 100.899 380.167 100.099 379.867 98.9993C378.967 99.4993 378.167 99.9993 377.267 100.499C379.567 102.399 380.167 105.699 381.567 108.199C383.267 111.199 385.467 113.899 386.967 116.999C388.667 120.599 389.867 124.399 391.167 128.199C392.467 131.899 393.967 135.699 395.167 139.399C396.467 143.399 397.167 147.599 396.967 151.799C397.967 151.499 398.867 151.299 399.867 150.999C398.967 149.799 398.667 148.299 398.467 146.799C398.167 145.099 398.067 143.399 397.967 141.699C397.667 137.699 397.267 133.699 395.967 129.799C394.467 125.099 392.067 120.699 389.967 116.299C387.767 111.799 385.667 107.199 382.967 102.999C380.367 98.8993 377.067 94.6993 376.267 89.6993C375.367 90.1993 374.567 90.6993 373.667 91.1993C375.867 93.3993 377.267 96.2993 378.567 99.0993C379.967 102.199 381.367 105.299 382.867 108.399C384.467 111.699 386.067 114.999 387.067 118.499C388.167 122.199 389.067 125.999 390.267 129.699C391.367 133.199 392.767 136.499 393.867 139.999C394.367 141.699 394.567 143.499 394.967 145.199C395.367 146.899 395.867 148.599 396.467 150.299C398.667 157.299 400.567 164.499 400.967 171.899C401.067 173.699 400.967 175.499 401.067 177.299C401.167 179.099 401.267 180.799 401.367 182.599C401.467 184.299 401.467 186.099 401.367 187.799C401.267 188.499 401.267 189.299 400.967 189.999C400.667 190.799 400.267 191.499 399.967 192.299C399.367 193.999 399.467 195.799 399.367 197.599C399.267 199.499 398.667 201.099 397.967 202.899C396.667 206.199 394.867 209.399 393.367 212.599C391.767 215.999 390.567 219.499 389.267 222.999C388.667 224.799 388.567 226.699 388.367 228.499C388.067 230.299 387.567 231.999 387.067 233.799C386.067 237.299 384.767 240.599 382.867 243.799C381.967 245.299 380.967 246.799 380.167 248.499C379.467 250.099 378.967 251.799 378.267 253.499C376.867 256.699 374.667 259.799 372.367 262.499C371.167 263.799 369.867 264.999 368.767 266.399C367.667 267.799 366.567 269.299 365.267 270.599C362.867 273.099 359.367 274.299 356.867 276.699C355.667 277.899 354.767 279.199 353.467 280.299C352.167 281.299 350.667 281.999 349.167 282.699C347.667 283.399 346.167 283.999 344.667 284.799C345.267 285.599 345.867 286.399 346.567 287.199C347.567 286.299 348.867 285.799 350.067 285.299C351.467 284.699 352.667 284.099 353.767 283.099C355.767 281.299 356.767 278.699 358.667 276.899C360.867 274.799 363.067 272.799 365.467 270.899C367.967 268.999 370.967 267.899 373.367 265.999C374.867 264.799 373.567 262.399 371.867 263.399C368.867 264.999 366.367 267.299 363.667 269.299C360.967 271.299 357.967 272.599 355.667 274.899C353.367 277.199 351.167 279.699 348.867 281.999C347.767 283.099 346.667 284.199 345.367 285.099C344.267 285.899 343.067 286.499 341.867 287.199C340.467 287.999 339.067 288.799 337.567 289.399C336.367 289.899 334.967 290.399 333.667 290.199C332.867 290.099 332.067 290.399 331.767 291.299C331.867 292.199 332.267 293.199 333.067 293.399Z" fill="black"/>
<path d="M121.467 240.6C121.167 242.8 121.567 244.5 123.467 245.8C124.167 246.3 124.867 246.7 125.467 247.3C126.367 248.2 127.167 249.3 127.767 250.4C129.167 252.6 130.267 255 131.667 257.2C133.167 259.5 135.067 261.6 137.067 263.5C141.167 267.6 145.867 271.2 150.267 275C152.367 276.8 154.467 278.6 156.367 280.6C158.167 282.4 159.867 284.3 161.767 285.9C164.167 287.9 166.967 289.1 169.567 290.8C172.367 292.7 174.967 294.9 177.667 296.8C179.267 297.9 180.767 295.3 179.167 294.2C176.867 292.6 174.967 290.6 172.667 289C170.567 287.5 168.167 286.9 165.967 285.8C163.467 284.5 161.667 282.1 159.567 280.1C157.267 277.9 155.167 275.6 153.067 273.3C151.167 271.1 149.167 269 147.167 266.9C146.267 266 145.467 265.1 144.667 264C143.767 262.7 143.167 261.3 142.367 260C140.867 257.2 139.067 254.6 137.167 252.1C135.467 249.7 133.067 248 131.167 245.8C129.367 243.7 127.267 241.7 125.667 239.3C124.767 237.9 124.167 236.5 123.367 235C122.467 233.3 121.467 231.7 120.567 230C119.767 230.6 118.967 231.2 118.167 231.9C123.167 237.1 126.567 243.5 131.067 249.1C132.167 250.5 133.467 251.7 134.467 253.2C135.467 254.5 136.267 256 136.967 257.5C138.567 260.6 139.767 263.8 141.567 266.8C142.567 268.5 145.067 267 144.167 265.3C142.367 261.6 139.167 259.1 136.767 255.8C134.967 253.3 134.067 249.9 131.067 248.6C130.067 248.2 128.767 249.5 129.167 250.5C130.367 253.6 132.467 256.2 134.667 258.7C137.067 261.3 139.367 263.8 141.767 266.4C144.467 269.4 147.367 272.2 150.167 275C152.967 277.8 155.667 280.7 158.767 283.3C162.167 286.2 165.667 288.8 169.267 291.3C169.667 290.4 170.067 289.4 170.467 288.5C168.667 287.8 167.267 286.1 165.967 284.7C164.467 283 163.067 281.4 161.367 280C157.267 276.5 153.567 272.7 149.167 269.7C147.667 268.7 146.167 270.9 147.267 272.1C151.867 277 157.267 281.1 161.967 285.9C163.567 287.5 164.967 289.3 166.567 290.9C168.067 292.3 170.067 293.8 172.267 293.6C173.667 293.5 174.267 292 173.367 291C171.167 288.4 167.767 287.6 165.367 285.3C162.867 282.9 161.067 279.7 157.967 277.9C157.067 277.3 155.567 278 155.667 279.2C156.067 282.6 159.167 284.9 161.467 287C164.167 289.5 166.067 292.5 170.067 293C171.367 293.2 172.067 291.2 171.167 290.4C168.967 288.5 166.867 286.5 164.567 284.7C163.667 284 161.867 284.3 161.967 285.8C162.267 289.6 165.667 292.5 168.067 295.2C169.367 296.7 171.467 294.5 170.267 293C164.767 286.4 159.167 279.8 153.667 273.2C148.367 266.8 143.167 260.3 137.867 253.8C132.767 247.6 127.667 241.3 123.467 234.4C119.567 228.1 115.267 221.6 113.167 214.4C110.767 206.5 111.067 198.1 111.267 189.9C111.267 187.9 111.367 185.8 111.267 183.7C111.167 181.7 110.867 179.8 110.567 177.8C109.967 173.6 109.967 169.4 109.967 165.2C109.967 160.9 109.767 156.6 110.167 152.3C110.467 148.1 111.267 144 112.067 139.9C113.667 132 114.867 123.9 117.267 116.2C118.367 112.5 119.767 108.9 121.267 105.4C122.767 101.8 124.367 98.1995 126.367 94.8995C128.367 91.6995 130.567 88.6995 132.067 85.1995C133.067 82.8995 134.067 80.3995 135.867 78.5995C136.867 77.5995 138.167 76.7995 139.367 75.9995C138.767 75.1995 138.167 74.3995 137.467 73.5995C135.367 75.5995 133.667 78.0995 131.867 80.3995C130.067 82.6995 127.867 84.6995 125.867 86.8995C123.867 89.0995 122.267 91.5995 120.567 94.0995C118.767 96.7995 116.967 99.4995 115.067 102.1C115.967 102.5 116.967 102.9 117.867 103.3C118.367 101.9 119.367 100.9 120.267 99.7996C121.367 98.4996 122.367 97.1995 123.267 95.6995C125.267 92.4995 127.367 89.5995 129.667 86.5995C134.267 80.7995 138.767 74.9995 143.867 69.5995C148.667 64.5995 153.867 59.9995 160.267 57.1995C163.367 55.7995 166.567 54.8995 169.867 53.8995C172.967 52.9995 176.367 52.3995 179.267 50.9995C182.267 49.5995 184.467 47.0995 187.467 45.5995C190.167 44.2995 193.267 43.7995 195.367 41.5995C196.667 40.1995 194.567 37.9995 193.167 39.3995C191.367 41.3995 188.267 41.7995 185.867 42.9995C183.267 44.2995 181.267 46.4995 178.667 47.8995C175.767 49.4995 172.267 50.0995 169.167 50.9995C165.867 51.8995 162.667 52.9996 159.467 54.2996C146.167 59.8996 137.067 72.2996 128.367 83.2996C125.767 86.5996 123.167 89.7995 121.067 93.3995C120.067 94.9995 119.067 96.4995 117.767 97.8995C116.567 99.2995 115.367 100.7 114.767 102.4C114.167 104.1 116.667 104.9 117.567 103.6C119.367 101.1 121.067 98.4995 122.867 95.9995C124.567 93.4995 126.167 90.9996 128.267 88.7996C130.167 86.6996 132.167 84.7995 133.967 82.5995C135.767 80.2995 137.467 77.8996 139.567 75.7996C140.867 74.5996 139.167 72.4995 137.667 73.3995C135.167 74.7995 132.967 76.5995 131.467 78.9995C129.767 81.7995 128.767 84.8995 127.167 87.6995C125.167 90.9995 122.867 94.0995 121.167 97.5995C119.467 101.3 117.867 105 116.467 108.8C115.067 112.5 113.867 116.2 112.867 120C111.867 124 111.167 128.1 110.367 132.2C108.667 140.6 106.767 148.9 106.767 157.5C106.767 162 106.767 166.4 106.767 170.9C106.767 175.1 107.667 179.2 107.967 183.4C108.267 187.6 107.867 191.8 107.867 196C107.867 200.2 107.967 204.4 108.567 208.6C109.667 216.5 113.067 223.3 117.067 230.1C119.167 233.6 121.167 237.1 123.567 240.5C125.867 243.9 128.367 247.1 130.867 250.3C141.567 263.7 152.667 276.9 163.667 290.1C165.067 291.8 166.567 293.5 167.967 295.3C168.667 294.6 169.367 293.9 170.167 293.1C169.167 292 168.067 290.9 167.067 289.7C166.167 288.6 165.067 287.3 164.967 285.9C164.067 286.3 163.267 286.6 162.367 287C164.667 288.8 166.767 290.8 168.967 292.7C169.367 291.8 169.667 291 170.067 290.1C167.267 289.7 165.567 286.7 163.667 285C162.667 284.1 161.667 283.2 160.667 282.2C159.967 281.5 158.867 280.4 158.767 279.3C157.967 279.7 157.267 280.2 156.467 280.6C159.367 282.4 160.967 285.6 163.467 287.8C165.867 289.9 169.167 290.8 171.267 293.3C171.667 292.4 171.967 291.6 172.367 290.7C170.567 290.9 168.867 289 167.667 287.8C166.267 286.3 164.967 284.7 163.467 283.3C158.867 278.9 153.867 274.8 149.467 270.1C148.867 270.9 148.267 271.7 147.567 272.5C152.067 275.6 155.967 279.6 160.067 283.1C163.267 285.9 165.367 290.1 169.467 291.6C171.167 292.2 171.967 289.7 170.667 288.8C166.767 286 162.867 283.2 159.367 280.1C155.667 276.8 152.367 273.2 148.867 269.7C145.567 266.5 142.667 262.9 139.467 259.6C136.667 256.7 133.467 253.7 131.967 249.9C131.367 250.5 130.667 251.2 130.067 251.8C131.067 252.2 131.767 253.9 132.267 254.7C132.967 256 133.667 257.3 134.667 258.4C136.967 261.3 139.767 263.7 141.367 267C142.267 266.5 143.167 266 143.967 265.5C142.267 262.5 140.967 259.3 139.367 256.2C138.567 254.6 137.667 253 136.667 251.6C135.667 250.2 134.367 248.9 133.267 247.6C128.667 241.9 125.167 235.4 120.067 230C118.867 228.7 116.867 230.4 117.667 231.9C118.367 233.3 119.167 234.7 119.967 236.1C120.767 237.6 121.467 239.1 122.367 240.5C123.667 242.7 125.467 244.4 127.067 246.3C128.067 247.4 128.867 248.5 129.967 249.5C130.967 250.5 132.067 251.4 133.067 252.4C135.267 254.8 137.067 257.7 138.767 260.5C140.267 263 141.367 265.6 143.367 267.8C145.167 269.9 147.267 271.8 149.067 273.9C151.267 276.4 153.367 278.9 155.667 281.2C157.767 283.3 159.767 285.6 162.167 287.5C164.467 289.3 167.267 289.8 169.767 291.2C172.567 292.8 174.767 295.3 177.367 297.1C177.867 296.2 178.367 295.3 178.867 294.5C176.567 292.9 174.367 291.1 172.067 289.4C169.867 287.8 167.467 286.7 165.267 285.2C161.067 282.5 158.067 278.3 154.367 275C150.267 271.4 145.967 268.1 141.867 264.4C139.867 262.6 137.867 260.6 136.067 258.6C134.367 256.7 133.067 254.5 131.867 252.2C130.567 249.9 129.267 247.3 127.267 245.5C126.067 244.3 123.767 243.8 124.067 241.8C124.167 241 123.867 240.2 122.967 239.9C122.667 239.4 121.567 239.8 121.467 240.6Z" fill="black"/>
<path d="M107.567 197.5C106.567 195.8 106.267 193.8 106.167 191.9C106.067 189.7 106.267 187.5 106.367 185.4C106.467 182.9 106.467 180.4 106.467 177.9C106.467 175 106.467 172.1 106.467 169.2C106.467 167.2 103.367 167.2 103.367 169.2C103.367 177 103.367 184.9 103.367 192.7C104.367 192.7 105.367 192.7 106.467 192.7C106.467 186.5 105.867 180.2 105.967 174C105.967 171 106.167 168 106.667 165.1C107.267 161.9 108.267 158.8 109.167 155.6C109.967 152.6 110.467 149.5 110.767 146.4C110.967 144.9 111.167 143.5 111.467 142C111.867 140.4 112.367 138.9 112.967 137.4C115.167 131.4 115.667 125 117.367 118.9C117.867 117.2 118.267 115.6 118.667 113.9C119.067 112.3 119.167 110.7 119.267 109.1C119.367 107.8 119.867 107.4 120.667 106.5C121.667 105.3 121.967 104 121.767 102.4C121.667 101.5 120.567 101.2 119.867 101.3C116.267 102 115.067 106.1 114.467 109.2C114.167 110.9 113.967 112.6 113.767 114.3C113.767 114.6 113.767 114.1 113.767 114.5C113.767 114.7 113.667 114.9 113.667 115.1C113.567 115.8 113.467 116.5 113.267 117.1C113.067 118.4 112.667 119.8 112.367 121.1C111.567 123.7 110.167 126.1 109.867 128.9C109.767 129.7 110.667 130.4 111.367 130.4C112.267 130.4 112.767 129.7 112.867 128.9C113.067 126.8 114.267 124.9 114.967 122.9C115.767 120.5 116.267 118 116.667 115.6C117.167 112.6 117.167 109.8 118.267 106.8C118.367 106.6 118.467 106.2 118.667 105.9C118.767 105.7 118.867 105.6 118.967 105.5C119.067 105.4 119.067 105.4 119.167 105.3C119.267 105.2 119.467 105 119.567 104.9C119.567 104.9 119.767 104.8 119.667 104.8C119.567 104.9 119.867 104.7 119.867 104.7C119.967 104.7 119.967 104.6 120.067 104.6C120.267 104.5 119.867 104.7 120.067 104.6C120.267 104.5 120.467 104.5 120.667 104.4C120.067 104 119.367 103.7 118.767 103.3C118.767 103.7 118.667 103.9 118.567 104.1C118.367 104.4 118.067 104.7 117.767 105.1C116.867 106.1 116.367 107.2 116.267 108.5C116.067 109.8 116.167 111.1 115.867 112.3C115.567 113.8 115.167 115.3 114.767 116.8C113.967 119.8 113.267 122.8 112.667 125.9C112.067 129 111.467 132.2 110.467 135.2C109.967 136.7 109.367 138.2 108.867 139.7C108.467 141.1 108.167 142.6 107.967 144.1C107.567 147.2 107.267 150.3 106.567 153.4C105.767 156.5 104.767 159.5 104.067 162.6C103.367 165.6 103.067 168.7 102.967 171.8C102.667 178.8 103.467 185.8 103.467 192.8C103.467 194.8 106.567 194.8 106.567 192.8C106.567 185 106.567 177.1 106.567 169.3C106.567 167.3 103.467 167.3 103.467 169.3C103.467 174.8 103.667 180.4 103.367 185.9C103.167 190.3 102.567 195.3 104.967 199.2C105.967 200.7 108.567 199.2 107.567 197.5Z" fill="black"/>
<path d="M105.367 176.399C105.967 176.299 106.367 176.299 106.967 176.499C106.567 176.099 106.267 175.799 105.867 175.399C106.367 176.999 106.367 178.599 106.367 180.299C106.367 182.099 106.267 183.899 106.067 185.699C105.867 187.199 105.367 188.399 104.667 189.699C103.867 191.299 103.267 192.999 103.367 194.899C103.467 196.899 106.367 196.899 106.467 194.899C106.767 185.699 106.467 176.499 106.467 167.199C106.467 165.199 103.367 165.199 103.367 167.199C103.367 176.399 103.667 185.599 103.367 194.899C104.367 194.899 105.367 194.899 106.467 194.899C106.367 192.899 107.267 191.499 108.067 189.799C108.967 187.899 109.167 185.899 109.367 183.799C109.467 181.599 109.567 179.499 109.367 177.299C109.267 176.399 109.167 175.099 108.667 174.199C107.967 172.999 105.767 173.099 104.567 173.399C102.667 173.799 103.467 176.799 105.367 176.399Z" fill="black"/>
<path d="M182.767 104.3C180.967 105.8 179.767 107.8 178.467 109.7C177.167 111.7 175.867 113.7 174.367 115.6C172.767 117.7 171.167 119.9 169.967 122.2C169.367 123.3 168.867 124.5 168.567 125.8C168.267 127.1 168.167 128.4 167.867 129.7C167.567 130.8 166.867 131.6 166.367 132.5C165.767 133.8 165.567 135.1 165.567 136.5C165.467 137.8 165.467 139 165.067 140.3C164.667 141.6 164.267 143 163.967 144.3C163.367 147 163.267 149.8 162.767 152.6C162.267 155.4 161.567 158.2 160.867 160.9C160.167 163.6 159.467 166.3 159.067 169.1C158.667 171.6 158.867 174.2 158.967 176.8C159.267 182.2 158.367 187.6 159.467 192.9C160.467 197.9 161.967 202.8 164.067 207.4C166.267 212.1 169.167 216.5 172.467 220.5C174.167 222.5 176.167 224.2 177.667 226.3C179.167 228.3 180.467 230.5 182.067 232.5C185.267 236.6 189.567 239.4 193.667 242.5C197.867 245.8 201.667 249.5 206.367 252.1C211.067 254.7 216.067 256.6 221.267 257.9C226.467 259.2 231.867 259.9 237.167 260.8C238.467 261 239.867 261.2 241.167 261.3C242.667 261.4 244.067 261.2 245.567 261.3C248.367 261.4 251.067 262.4 253.867 262.9C256.667 263.5 259.467 263.6 262.267 263.9C265.067 264.2 267.767 264.6 270.567 264.6C275.967 264.6 281.467 264.6 286.667 263.1C291.567 261.7 296.267 259.6 300.567 257C302.767 255.7 304.867 254.2 306.967 252.7C307.867 252 308.867 251.4 309.867 250.9C310.967 250.4 312.267 250.1 313.367 249.6C315.667 248.6 317.767 247.1 320.067 246.1C322.167 245.2 324.467 244.5 326.467 243.4C328.767 242.2 330.567 240.6 332.467 238.9C334.467 237.1 336.567 235.4 338.567 233.6C340.467 231.9 342.367 230 343.867 227.9C345.267 226 346.267 223.9 347.167 221.8C349.267 216.8 350.767 211.5 352.167 206.3C354.967 195.5 356.767 184.5 356.667 173.3C356.567 167.8 356.167 162.4 355.567 157C354.967 151.7 354.067 146.4 352.567 141.2C351.067 136.1 349.067 131 346.767 126.2C344.567 121.5 342.167 116.8 338.667 112.9C335.367 109.2 331.367 106.1 327.267 103.3C322.867 100.3 318.767 96.8999 314.467 93.7999C305.967 87.6999 296.267 83.1999 286.167 80.3999C280.967 78.9999 275.567 77.9999 270.167 77.5999C264.467 77.1999 258.667 77.3999 252.967 77.0999C247.267 76.7999 241.467 75.8999 235.767 75.9999C230.067 76.0999 224.267 77.0999 218.667 78.2999C215.867 78.8999 213.167 79.6999 210.467 80.3999C207.967 81.0999 205.467 81.5999 203.067 82.6999C200.867 83.6999 199.267 85.3999 197.667 87.0999C195.967 88.8999 193.967 90.3999 192.167 92.0999C188.267 95.6999 184.767 99.4999 181.567 103.7C180.067 105.7 178.567 107.8 177.367 110C176.067 112.2 175.267 114.8 173.767 116.8C172.267 118.8 170.267 120.3 168.867 122.3C167.467 124.2 166.467 126.4 165.767 128.7C164.167 133.3 163.867 138.2 162.467 142.8C161.767 145.3 160.867 147.7 160.467 150.3C160.267 151.6 160.267 152.9 160.167 154.2C160.067 155.6 159.767 156.9 159.467 158.2C158.867 160.8 158.267 163.4 158.067 166.1C157.767 168.9 157.967 171.9 157.967 174.7C157.967 177.5 157.867 180.3 158.167 183.1C158.467 185.6 159.067 188 159.867 190.4C160.667 192.7 161.467 195 162.267 197.4C162.967 199.7 163.667 202 164.867 204C165.467 205 166.167 205.9 166.767 206.8C167.467 207.9 167.967 209.1 168.567 210.3C169.767 212.6 171.267 214.8 172.667 217C174.167 219.3 175.667 221.6 176.967 224C178.367 226.5 179.367 229.2 180.767 231.7C181.967 233.8 183.667 235.5 185.467 237.2C187.267 239 188.967 240.9 190.667 242.8C193.967 246.6 197.367 250.3 201.667 253.1C205.967 255.9 210.667 257.4 215.667 258.6C218.467 259.3 221.267 259.8 224.067 260.4C226.767 260.9 229.767 261.1 232.367 262.1C233.567 262.5 234.667 263.1 235.867 263.3C237.167 263.6 238.567 263.6 239.967 263.6C242.667 263.5 245.367 263.5 248.067 263.5C253.667 263.6 259.267 263.8 264.867 263.5C267.667 263.3 270.467 263.1 273.267 262.6C276.067 262.1 278.767 261.3 281.467 260.6C284.267 259.8 287.067 259.2 289.767 258.6C292.567 258 295.267 257.3 298.067 256.8C300.567 256.4 303.067 256.1 305.467 255.1C307.367 254.2 309.067 252.9 310.767 251.7C315.567 248.6 320.067 245.2 324.767 241.9C326.967 240.4 329.067 238.8 331.367 237.6C333.467 236.5 335.567 235.4 337.067 233.5C338.567 231.6 339.567 229.5 340.867 227.5C342.267 225.4 343.667 223.4 344.667 221.1C346.967 215.9 348.267 210.4 349.767 204.9C350.567 202.1 351.367 199.4 352.067 196.6C352.667 193.8 353.167 191 353.567 188.2C353.967 185.3 354.467 182.5 354.767 179.6C355.067 176.7 355.267 173.8 355.467 170.8C355.667 167.9 356.267 165 356.467 162.1C356.667 159.3 356.367 156.5 355.967 153.7C355.267 148.3 354.567 142.9 352.667 137.8C350.867 132.7 348.367 127.9 345.467 123.3C342.667 118.8 339.467 114.6 335.867 110.7C332.367 106.9 328.967 103.1 325.367 99.3999C323.767 97.6999 322.067 96.0999 320.167 94.5999C318.167 92.9999 315.967 91.7999 313.867 90.4999C309.567 87.8999 305.667 84.7999 300.867 83.1999C295.567 81.4999 290.467 79.0999 284.967 77.8999C279.367 76.6999 273.467 76.4999 267.767 76.2999C261.967 76.0999 256.067 76.1999 250.267 76.1999C244.567 76.1999 238.767 76.2999 233.067 76.6999C227.367 77.0999 221.667 77.8999 216.067 79.0999C211.067 80.1999 206.067 81.5999 201.567 84.0999C193.267 88.6999 186.667 95.7999 180.367 102.7C177.167 106.3 174.067 109.9 171.867 114.2C169.667 118.4 168.167 122.9 166.867 127.5C163.967 138.2 161.767 149.2 159.067 160C158.567 161.9 161.567 162.7 162.067 160.8C164.767 149.9 166.967 138.9 169.967 128C171.167 123.6 172.667 119.3 174.767 115.3C176.967 111.1 180.067 107.6 183.167 104.1C189.267 97.3999 195.667 90.4999 203.767 86.2999C208.167 83.9999 213.167 82.7999 217.967 81.6999C223.467 80.5999 228.967 79.8999 234.467 79.4999C239.967 79.0999 245.567 79.0999 251.167 79.0999C256.767 79.0999 262.467 78.9999 268.067 79.1999C273.567 79.3999 279.367 79.4999 284.767 80.7999C289.967 81.9999 294.967 84.2999 300.067 85.9999C304.667 87.4999 308.467 90.6999 312.567 93.1999C314.667 94.4999 316.767 95.6999 318.667 97.2999C320.467 98.7999 322.067 100.4 323.667 102.1C327.167 105.8 330.567 109.5 333.967 113.2C337.367 116.9 340.367 120.9 342.967 125.2C345.667 129.7 348.067 134.4 349.767 139.4C351.467 144.4 352.167 149.7 352.767 155C353.067 157.7 353.267 160.4 352.967 163.1C352.667 165.9 352.267 168.7 352.067 171.5C351.867 174.4 351.667 177.4 351.367 180.3C351.067 183 350.567 185.7 350.167 188.4C349.767 191.1 349.267 193.8 348.667 196.4C347.967 199.2 347.167 201.9 346.367 204.7C345.667 207.3 344.967 209.9 344.167 212.5C343.367 215 342.667 217.6 341.467 220C340.467 222.3 338.967 224.2 337.667 226.3C336.467 228.2 335.567 230.4 333.967 232C332.467 233.6 330.267 234.4 328.367 235.5C325.967 236.9 323.667 238.6 321.367 240.2C316.967 243.3 312.567 246.6 308.067 249.5C306.467 250.5 304.967 251.9 303.067 252.5C300.667 253.3 298.067 253.5 295.567 254C290.167 255.1 284.667 256.4 279.267 257.9C274.067 259.4 268.967 260.2 263.567 260.5C258.067 260.7 252.567 260.5 247.067 260.4C244.467 260.4 241.967 260.4 239.367 260.5C238.167 260.5 236.967 260.5 235.767 260.1C234.467 259.7 233.267 259.1 231.967 258.7C229.367 257.9 226.567 257.7 223.967 257.2C221.267 256.7 218.567 256.1 215.867 255.5C211.067 254.3 206.567 252.9 202.467 250C198.367 247.2 195.167 243.4 191.867 239.6C190.267 237.8 188.567 236 186.867 234.4C185.067 232.6 183.567 230.9 182.467 228.6C181.267 226.1 180.167 223.6 178.767 221.2C177.467 218.9 175.967 216.8 174.567 214.5C173.267 212.4 171.667 210.3 170.667 208C170.167 206.9 169.767 206 169.067 205C168.367 204 167.667 203 167.067 202C166.067 200 165.467 197.8 164.767 195.7C164.067 193.4 163.167 191.1 162.467 188.9C161.767 186.6 161.167 184.3 160.967 181.9C160.767 179.2 160.867 176.4 160.867 173.7C160.867 170.9 160.667 168.1 160.967 165.4C161.267 162.8 161.967 160.3 162.467 157.8C162.667 156.5 162.867 155.3 162.967 154C163.067 152.8 163.067 151.5 163.267 150.3C163.767 147.8 164.667 145.3 165.367 142.8C166.667 138.4 166.867 133.7 168.467 129.3C169.267 127.2 170.267 125 171.667 123.3C173.167 121.5 175.067 120 176.467 118C177.867 116 178.667 113.5 179.967 111.4C181.267 109.2 182.767 107 184.367 105C187.467 101 190.967 97.3999 194.767 93.8999C196.567 92.1999 198.467 90.6999 200.167 88.9999C201.767 87.3999 203.267 85.9999 205.367 85.1999C207.667 84.3999 210.067 83.8999 212.467 83.1999C215.267 82.3999 217.967 81.6999 220.867 81.1999C226.267 80.0999 231.767 79.2999 237.167 79.2999C242.767 79.2999 248.367 80.1999 253.967 80.4999C259.567 80.7999 265.167 80.5999 270.867 80.9999C275.967 81.3999 280.967 82.3999 285.867 83.7999C295.667 86.5999 305.067 91.0999 313.367 97.0999C317.567 100.1 321.467 103.4 325.767 106.3C329.767 109.1 333.667 112.1 336.767 115.8C340.067 119.6 342.267 124.4 344.367 128.9C346.467 133.5 348.267 138.3 349.667 143.2C351.067 148.2 351.867 153.3 352.467 158.5C353.067 163.8 353.367 169.2 353.467 174.5C353.567 185.3 351.667 196 348.867 206.3C347.567 211.3 346.067 216.5 343.967 221.3C343.167 223.3 342.067 225.2 340.767 226.9C339.167 228.9 337.267 230.7 335.367 232.3C333.367 234 331.267 235.7 329.367 237.5C327.567 239.1 325.767 240.4 323.467 241.4C321.367 242.3 319.067 243.1 316.967 244.1C314.767 245.2 312.767 246.6 310.367 247.4C308.067 248.1 306.167 249.3 304.267 250.7C302.267 252.1 300.167 253.5 297.967 254.8C293.767 257.2 289.167 259.2 284.367 260.4C279.267 261.7 273.767 261.7 268.667 261.4C266.067 261.3 263.367 260.9 260.767 260.6C257.967 260.3 255.267 260.1 252.467 259.4C249.767 258.8 247.267 258.1 244.467 258.1C243.167 258.1 241.767 258.2 240.467 258.1C239.167 258 237.867 257.8 236.567 257.6C231.367 256.7 226.167 256.1 221.067 254.7C216.067 253.4 211.167 251.6 206.667 248.9C202.367 246.3 198.667 242.7 194.667 239.6C190.667 236.5 186.467 233.7 183.467 229.6C181.967 227.6 180.667 225.5 179.167 223.5C177.567 221.5 175.567 219.7 173.867 217.7C167.567 210.1 163.367 200.7 161.867 191C161.467 188.4 161.667 185.7 161.767 183.1C161.867 180.5 161.767 177.9 161.667 175.3C161.567 172.8 161.567 170.5 162.067 168.1C162.667 165.4 163.267 162.8 163.867 160.2C164.567 157.4 165.167 154.7 165.667 151.9C166.067 149.3 166.267 146.6 166.867 144.1C167.167 142.9 167.567 141.6 167.867 140.4C168.167 139.1 168.167 137.8 168.267 136.5C168.367 135.3 168.467 134.3 169.067 133.3C169.767 132.2 170.267 131.1 170.567 129.8C170.767 128.7 170.867 127.6 171.167 126.5C171.467 125.3 171.967 124.1 172.667 123C173.867 120.8 175.467 118.7 176.967 116.7C178.267 115 179.467 113.2 180.667 111.3C181.767 109.5 182.967 107.6 184.567 106.2C186.467 105.2 184.267 103 182.767 104.3Z" fill="black"/>
<path d="M269.267 132.9C264.867 130.9 259.967 130.1 255.167 130.4C253.967 130.5 252.867 130.7 251.667 130.7C250.367 130.8 249.167 130.8 247.967 131C245.667 131.3 243.567 132.3 241.567 133.6C237.867 136 234.867 139.3 232.567 143.1C230.367 146.8 228.567 150.8 226.767 154.7C225.767 156.8 225.067 159 224.467 161.3C223.867 163.7 223.067 166.1 222.667 168.6C222.367 170.8 222.267 173 222.567 175.3C222.867 177.6 223.167 180 223.767 182.3C224.367 184.6 225.767 186.5 227.267 188.3C228.667 190 230.167 191.7 231.667 193.3C234.667 196.6 237.867 199.7 241.967 201.6C244.167 202.6 246.467 203.4 248.867 203.7C250.067 203.9 251.267 203.8 252.567 203.9C253.767 203.9 254.967 204.1 256.167 204.2C258.567 204.5 260.967 204.9 263.367 204.8C265.667 204.7 267.967 204.2 270.067 203.4C271.967 202.7 273.767 201.6 275.567 200.6C277.267 199.7 278.967 198.8 280.567 197.8C282.267 196.7 283.967 195.5 285.367 194.1C286.767 192.7 287.767 191 288.767 189.3C290.967 185.5 292.767 181.3 293.767 176.9C294.267 174.7 294.367 172.5 294.567 170.3C294.667 167.8 295.067 165.4 295.267 162.9C295.467 160.7 295.567 158.4 295.067 156.2C294.667 154.5 293.967 152.8 293.067 151.3C291.167 148.2 288.467 145.7 285.767 143.2C284.567 142.1 283.267 141 282.067 139.8C280.667 138.4 279.167 137 277.467 135.9C275.667 134.8 273.767 134 271.967 132.9C270.067 131.8 268.267 130.6 266.067 130.1C263.767 129.5 261.267 129.6 258.867 129.7C256.467 129.8 254.167 129.7 251.867 129.6C249.667 129.5 247.267 129.5 245.167 130.3C243.167 131 241.567 132.2 239.967 133.6C238.367 134.9 236.867 136.4 235.367 137.7C233.767 139.1 232.267 140.6 230.867 142.3C228.067 145.7 225.667 149.5 223.567 153.4C222.467 155.5 221.467 157.7 220.867 160C220.267 162.4 220.367 164.7 220.467 167.1C220.567 169.5 220.367 171.9 220.467 174.3C220.567 176.7 221.067 179.1 221.567 181.5C222.067 183.8 222.567 186.2 223.567 188.4C224.367 190.1 225.667 191.6 227.067 192.9C230.167 195.6 233.867 197 237.467 198.6C241.767 200.5 246.067 202.7 250.767 203.2C255.167 203.6 259.667 202.8 264.067 202.9C268.167 202.9 272.367 203.3 276.467 202.5C280.767 201.6 284.267 199.1 286.967 195.7C288.367 193.9 289.567 192.1 290.667 190.1C291.767 188.2 292.867 186.2 293.367 184C293.867 181.8 293.767 179.5 293.667 177.2C293.667 174.8 293.467 172.3 293.567 169.9C293.667 167.5 294.367 165.2 294.467 162.8C294.567 160.5 294.767 158 293.867 155.8C293.167 153.8 291.967 151.9 290.967 150.1C289.867 148.3 288.767 146.5 287.467 144.8C284.867 141.5 281.967 138.5 278.367 136.2C276.567 135.1 274.767 134.3 272.867 133.4C270.667 132.4 268.567 131.3 266.267 130.7C263.867 130 261.467 130 258.967 130C256.467 130 253.867 130 251.367 130C246.867 130.1 242.567 131.8 238.567 133.9C234.867 136 231.167 138.7 228.467 142.1C225.667 145.6 224.167 149.9 222.967 154.2C221.667 158.7 220.167 163.2 219.567 167.9C219.467 168.7 220.367 169.4 221.067 169.4C221.967 169.4 222.467 168.7 222.567 167.9C223.167 163.4 224.667 159.1 225.867 154.8C226.967 150.9 228.267 146.9 230.967 143.7C233.567 140.7 236.767 138.3 240.267 136.4C243.967 134.4 247.767 133.1 251.967 133C254.367 133 256.767 133 259.167 133C260.367 133 261.467 133 262.667 133C263.767 133.1 264.867 133.4 265.867 133.7C267.967 134.4 269.867 135.4 271.867 136.3C273.567 137.1 275.367 137.9 276.967 139C280.167 141.1 282.867 143.8 285.067 146.9C286.267 148.5 287.267 150.1 288.267 151.9C288.767 152.8 289.167 153.7 289.667 154.6C290.167 155.5 290.667 156.3 290.867 157.3C291.167 158.2 291.167 159.1 291.167 160.1C291.167 161.4 291.167 162.6 291.067 163.9C290.967 166.1 290.267 168.2 290.167 170.5C290.067 172.8 290.167 175.2 290.267 177.5C290.267 179.6 290.467 181.7 289.967 183.7C289.567 185.6 288.467 187.4 287.467 189.1C286.467 190.8 285.367 192.6 284.067 194.1C282.767 195.7 281.367 197.1 279.667 198.1C278.067 199 276.267 199.6 274.467 199.9C270.667 200.5 266.767 200.1 263.067 200.1C258.867 200.1 254.767 200.8 250.567 200.4C246.267 200 242.167 197.9 238.367 196.1C235.067 194.6 231.567 193.4 228.767 190.9C227.467 189.8 226.367 188.5 225.667 186.9C224.867 184.9 224.367 182.7 223.967 180.7C223.567 178.5 223.067 176.2 222.967 173.9C222.967 171.7 223.067 169.5 223.067 167.3C222.967 165.1 222.867 163 223.467 160.9C224.067 158.8 224.967 156.8 226.067 154.9C228.067 151.3 230.267 147.8 232.767 144.7C234.067 143.2 235.467 141.7 236.967 140.4C238.467 139.1 239.867 137.7 241.367 136.5C242.667 135.4 244.067 134.3 245.767 133.7C247.667 133 249.767 133.1 251.667 133.2C253.967 133.3 256.267 133.4 258.567 133.3C260.667 133.2 262.967 133 265.067 133.6C266.867 134.1 268.567 135.2 270.167 136.2C271.967 137.2 273.867 138 275.567 139.1C277.067 140.1 278.267 141.3 279.567 142.6C280.667 143.7 281.867 144.7 282.967 145.7C285.467 147.9 287.967 150.2 289.767 153C290.567 154.3 291.267 155.7 291.567 157.2C291.967 159.2 291.867 161.4 291.667 163.4C291.467 165.7 291.167 167.9 291.067 170.2C290.967 172.2 290.867 174.2 290.467 176.2C289.567 180.3 287.967 184.2 285.867 187.8C284.967 189.3 284.067 190.9 282.867 192.1C281.667 193.4 280.267 194.4 278.767 195.3C277.167 196.3 275.567 197.2 273.867 198.1C272.267 199 270.767 200 269.067 200.6C267.167 201.3 265.167 201.8 263.167 201.9C260.867 202 258.467 201.7 256.167 201.4C255.167 201.3 254.167 201.1 253.067 201.1C251.867 201 250.667 201.1 249.467 201C247.367 200.8 245.267 200.2 243.267 199.3C239.367 197.6 236.367 194.8 233.567 191.7C232.167 190.1 230.767 188.6 229.367 187C227.967 185.4 226.667 183.7 226.167 181.6C225.667 179.6 225.367 177.5 225.067 175.4C224.867 173.4 224.767 171.4 225.167 169.4C225.567 167 226.267 164.7 226.867 162.4C227.367 160.3 227.967 158.3 228.867 156.4C230.667 152.7 232.267 148.9 234.367 145.4C236.367 142 238.967 139 242.267 136.7C243.967 135.6 245.867 134.6 247.867 134.3C248.867 134.2 249.967 134.2 250.967 134.1C252.167 134 253.367 133.8 254.567 133.8C258.767 133.5 263.067 134.1 266.967 135.9C267.767 136.2 268.567 136.1 269.067 135.4C270.167 134.3 269.967 133.2 269.267 132.9Z" fill="black"/>
<path d="M227.667 315.4C228.067 315.1 228.367 314.8 228.767 314.5C227.967 314.4 227.167 314.3 226.367 314.2C226.967 315.6 226.767 318 226.567 319.7C226.367 321.8 226.067 324 225.767 326.1C224.867 331.6 223.567 336.9 222.167 342.3C219.367 353.2 217.367 364.1 215.867 375.2C214.367 386.2 213.367 397.3 212.167 408.4C211.567 414.1 211.067 419.7 210.967 425.4C210.867 431.1 210.867 436.7 210.867 442.4C210.867 445.1 211.167 447.8 211.267 450.5C211.367 452.1 211.367 453.7 211.267 455.3C211.267 455.7 211.267 456 211.167 456.4C211.167 456.5 211.067 456.9 211.167 456.6C211.167 456.8 211.067 457 211.067 457.1C210.967 457.4 210.967 457.6 210.867 457.9C210.867 458 210.767 458.2 210.767 458.3C210.667 458.7 210.867 458.2 210.767 458.4C210.667 458.5 210.667 458.6 210.567 458.7C210.667 458.6 210.467 459 210.567 458.7C210.467 458.8 210.367 458.9 210.567 458.7C210.467 458.8 210.167 458.9 210.567 458.7C210.967 458.8 211.367 458.8 211.767 458.9C211.967 459.1 211.467 458.6 211.667 458.8C211.567 458.7 211.467 458.5 211.367 458.3C211.267 458.1 211.167 457.7 211.067 457.3C210.867 456.5 210.867 455.5 210.967 454.6C211.067 452.7 211.167 450.9 211.267 449C211.367 443.2 212.867 437.5 214.067 431.9C214.667 428.9 215.367 425.9 215.967 422.9C216.567 420 216.267 416.9 216.767 414C217.767 408.1 217.667 402.2 217.667 396.2C217.667 394.8 217.667 393.4 217.767 392.1C217.967 390.8 218.267 389.5 218.467 388.1C218.967 385.3 218.967 382.5 219.267 379.7C219.867 374.3 221.567 369.3 223.467 364.2C224.367 361.7 224.967 359 225.167 356.4C225.367 353.6 225.967 350.9 226.367 348.1C226.767 345.1 226.567 342.1 226.567 339.1C226.567 336 226.567 332.9 226.567 329.9C226.567 329 226.467 328.1 226.567 327.3C226.567 327.2 226.567 327.1 226.567 327C226.567 326.6 226.567 327.2 226.567 326.9C226.667 326.6 226.667 326.2 226.667 325.9C226.867 324.3 227.167 322.8 227.367 321.2C227.567 319.6 227.767 317.9 227.767 316.2C227.767 314.9 227.667 313.3 226.667 312.4C226.167 311.9 225.567 311.7 224.867 311.6C222.867 311.5 222.867 314.6 224.867 314.7C224.667 314.7 224.567 314.7 224.367 314.5C224.567 314.8 224.167 314.3 224.367 314.5C224.467 314.8 224.467 314.6 224.367 314.5C224.467 314.7 224.467 314.9 224.567 315.2C224.667 315.6 224.567 315.1 224.567 315.3C224.567 315.5 224.567 315.6 224.567 315.8C224.667 317.3 224.467 318.8 224.267 320.2C224.067 321.4 223.867 323.2 223.567 324.6C223.367 325.7 223.167 326.8 223.167 327.9C223.067 330.9 223.167 334 223.167 337C223.167 340 223.267 343 223.167 346C223.067 348.7 222.367 351.3 221.967 354C221.767 355.3 221.767 356.6 221.567 357.9C221.367 359.1 221.067 360.3 220.767 361.5C219.967 364.1 218.867 366.5 218.067 369.1C217.267 371.6 216.667 374.1 216.267 376.7C215.767 379.4 215.667 382.2 215.467 384.9C215.267 387.5 214.467 390 214.267 392.5C214.167 393.9 214.167 395.4 214.167 396.9C214.167 398.4 214.167 399.9 214.167 401.4C214.167 404.2 214.167 407 213.867 409.8C213.767 411.1 213.467 412.5 213.267 413.8C212.967 415.3 212.867 416.8 212.867 418.3C212.867 419.8 212.767 421.1 212.467 422.6C212.167 424.1 211.867 425.6 211.467 427C210.267 432.7 208.867 438.5 208.067 444.3C207.767 446.6 207.767 448.9 207.667 451.2C207.567 453 207.267 454.9 207.467 456.7C207.567 457.7 207.767 458.7 208.267 459.6C208.767 460.5 209.767 461.8 210.967 461.5C212.267 461.2 212.967 459.8 213.267 458.6C214.167 455.6 213.867 452.1 213.667 449C213.567 447.5 213.467 446.1 213.367 444.7C213.267 442.7 213.267 440.8 213.267 438.8C213.267 432.8 213.167 426.9 213.467 420.9C213.767 415 214.467 409.2 215.067 403.3C215.667 397.5 216.267 391.6 216.967 385.8C218.267 374.2 219.867 362.5 222.467 351.1C224.867 340.4 228.267 329.8 228.967 318.8C229.067 316.7 229.067 314.5 228.267 312.5C227.867 311.5 226.467 311.6 225.867 312.2C225.467 312.5 225.167 312.8 224.767 313.1C224.167 313.6 224.167 314.7 224.767 315.3C226.067 316 227.067 315.9 227.667 315.4Z" fill="black"/>
<path d="M274.467 312.8C274.067 312.7 274.067 312.6 274.167 312.9C274.167 313 274.167 312.7 274.167 312.9C274.167 312.7 274.167 312.7 274.167 312.5C273.167 312.4 272.167 312.2 271.167 312.1C270.767 321 272.167 330 273.967 338.7C274.867 343.1 275.767 347.6 276.667 352C277.567 356.4 278.167 360.9 278.867 365.4C281.667 384.3 283.667 403.3 286.767 422.2C287.567 427.3 288.567 432.4 290.067 437.3C290.767 439.7 291.767 442 291.867 444.5C291.967 447 291.767 449.5 291.767 452C292.767 452 293.767 452 294.867 452C294.867 449.5 294.867 446.9 294.867 444.4C294.867 442.2 294.567 440.1 294.067 438C293.567 435.9 293.367 433.8 293.467 431.6C293.567 429.3 293.767 426.9 293.267 424.6C292.867 422.3 291.967 420.2 291.467 418C290.967 415.8 290.667 413.4 290.167 411.2C289.267 406.7 288.367 402.2 288.367 397.7C288.367 395.5 288.067 393.3 287.667 391.1C287.267 389 286.967 386.9 286.867 384.7C286.767 382.5 286.567 380.3 286.267 378.1C285.867 375.6 285.367 373.2 285.067 370.7C284.367 366 283.767 361.2 282.967 356.5C282.167 351.7 281.167 347.1 280.067 342.4C279.467 339.8 279.067 337.3 278.567 334.7C278.367 333.4 278.267 332.2 278.267 330.9C278.267 329.7 278.367 328.5 278.167 327.3C277.967 326 277.667 324.6 277.367 323.3C277.067 322.1 276.867 320.9 276.567 319.6C276.067 317.4 275.967 315.1 275.167 313C274.867 312.2 273.767 311.4 272.967 312.1C271.767 313 271.167 314.1 271.167 315.6C271.267 317.6 274.267 317.6 274.267 315.6C274.267 315.3 274.267 314.9 274.467 314.7C273.767 314.4 272.967 314.1 272.267 313.8C272.967 315.7 273.067 317.7 273.467 319.7C273.867 321.9 274.367 324.1 274.867 326.3C275.367 328.4 275.067 330.6 275.167 332.7C275.367 335 275.867 337.4 276.267 339.7C277.167 344.4 278.467 349 279.267 353.7C280.067 358.4 280.767 363.1 281.467 367.9C281.767 370.3 282.167 372.6 282.567 375C282.967 377.2 283.367 379.4 283.567 381.7C283.767 383.9 283.767 386.1 284.067 388.3C284.367 390.4 284.867 392.5 285.167 394.6C285.467 396.8 285.267 399.1 285.467 401.3C285.667 403.7 286.067 406 286.467 408.4C287.267 412.9 287.967 417.5 289.267 421.9C289.667 423.1 289.967 424.3 290.267 425.5C290.567 426.8 290.467 428.1 290.467 429.4C290.367 432 290.167 434.6 290.667 437.2C291.067 439.5 291.767 441.6 291.767 443.9C291.767 446.6 291.767 449.4 291.767 452.1C291.767 454.1 294.867 454.1 294.867 452.1C294.867 449.9 295.067 447.7 295.067 445.4C294.967 443.1 294.467 440.9 293.767 438.7C292.367 434.3 291.267 429.9 290.467 425.4C288.767 416.2 287.567 406.8 286.267 397.5C284.967 387.9 283.767 378.4 282.467 368.8C281.767 364.1 281.167 359.4 280.267 354.7C279.467 350.4 278.567 346.1 277.667 341.8C275.667 332 273.767 322.1 274.267 312.1C274.367 310.4 271.667 310 271.267 311.7C270.867 313.6 271.567 315.4 273.667 315.8C274.467 315.9 275.367 315.6 275.567 314.7C275.767 314 275.267 313 274.467 312.8Z" fill="black"/>
<path d="M293.567 433.7C293.567 433 293.567 432.2 293.567 431.5C292.567 431.5 291.567 431.5 290.467 431.5C290.467 434.3 290.767 437.1 291.167 439.8C291.367 441.2 291.567 442.6 291.667 444.1C291.767 445.4 291.867 446.7 292.267 448C292.567 449 293.067 450.1 293.167 451.2C293.267 452 293.067 452.9 293.067 453.7C292.967 455.5 293.167 457.7 295.267 458.3C296.067 458.5 296.867 458 297.167 457.2C298.767 452.6 296.167 448.1 295.167 443.6C294.567 441.2 294.167 438.6 293.667 436.2C293.167 433.7 292.767 431.2 292.367 428.6C292.267 427.8 291.767 427.1 290.867 427.1C290.167 427.1 289.267 427.8 289.367 428.6C289.967 433.7 291.067 438.7 292.067 443.8C292.867 447.8 295.667 452.2 294.267 456.4C294.867 456 295.567 455.7 296.167 455.3C296.567 455.5 295.667 455.2 296.167 455.3C296.367 455.4 296.267 455.2 296.267 455.4C296.267 455.4 296.167 454.9 296.167 455.2C296.167 455 296.167 454.8 296.167 454.6C296.167 453.8 296.267 453 296.367 452.2C296.567 450.2 295.667 448.3 295.267 446.4C294.967 445.3 294.967 444.1 294.867 442.9C294.767 441.7 294.567 440.5 294.467 439.2C294.167 436.6 293.867 434 293.867 431.4C293.867 429.4 290.767 429.4 290.767 431.4C290.767 432.1 290.767 432.9 290.767 433.6C290.567 435.7 293.567 435.7 293.567 433.7Z" fill="black"/>
<path d="M447.567 101.001C452.667 98.9008 457.867 96.9008 462.867 94.8008C465.367 93.7008 467.967 92.6008 470.367 91.3008C472.867 90.0008 475.267 88.6008 477.767 87.2008C482.867 84.4008 487.967 81.6008 493.067 79.0008C498.167 76.4008 503.467 73.9008 508.467 71.2008C513.567 68.5008 518.467 65.6008 523.467 62.7008C525.767 61.3008 528.167 60.0008 530.467 58.5008C532.567 57.1008 534.667 55.6008 536.767 54.1008C540.867 51.2008 544.967 48.5008 549.567 46.6008C554.467 44.6008 558.767 41.5008 563.467 39.2008C565.967 38.0008 568.667 37.0008 571.267 35.9008C573.767 34.8008 576.267 33.7008 578.867 32.7008C581.267 31.7008 583.667 30.7008 585.767 29.2008C586.767 28.4008 587.767 27.6008 588.867 26.9008C589.867 26.3008 590.967 25.8008 592.067 25.3008C593.167 24.8008 594.167 24.1008 595.067 23.1008C596.367 21.6008 594.367 19.7008 592.867 20.9008C588.167 24.9008 584.267 29.6008 580.067 34.1008C577.967 36.4008 575.867 38.6008 573.867 41.0008C571.967 43.3008 569.967 45.6008 567.867 47.8008C563.667 52.2008 559.467 56.6008 555.567 61.3008C551.667 66.0008 548.067 71.0008 544.067 75.6008C542.367 77.5008 540.667 79.1008 538.467 80.3008C536.367 81.4008 534.067 82.1008 531.767 82.7008C526.567 84.1008 521.167 85.1008 515.867 86.0008C512.767 86.5008 509.767 87.0008 506.767 87.8008C505.267 88.2008 503.867 88.6008 502.367 89.1008C501.067 89.5008 499.667 89.6008 498.267 89.8008C495.267 90.2008 492.667 91.6008 489.767 92.4008C488.367 92.8008 486.867 93.1008 485.367 93.4008C483.867 93.8008 482.367 94.2008 480.767 94.7008C474.767 96.4008 468.667 97.3008 462.467 98.2008C459.567 98.6008 456.667 99.2008 453.767 99.9008C450.967 100.601 448.167 101.301 445.267 101.601C443.867 101.701 442.467 101.801 441.067 101.701C441.467 102.601 441.767 103.401 442.167 104.301C443.467 102.801 445.367 102.001 447.067 101.101C448.967 100.001 450.667 98.6008 452.367 97.1008C453.967 95.7008 455.567 94.2008 457.267 92.9008C459.067 91.5008 461.067 90.5008 462.967 89.2008C466.667 86.7008 470.167 83.8008 473.467 80.7008C475.167 79.1008 476.767 77.5008 478.567 76.0008C480.267 74.6008 482.167 73.3008 483.967 72.0008C485.867 70.6008 487.667 69.2008 489.367 67.6008C491.167 66.0008 492.767 64.2008 494.467 62.5008C497.967 59.1008 501.567 55.9008 505.467 53.0008C513.567 47.0008 520.967 40.3008 528.667 33.8008C532.667 30.4008 536.767 27.0008 540.767 23.6008C542.467 22.1008 544.167 20.6008 546.167 19.5008C547.867 18.6008 549.667 17.8008 551.367 16.7008C552.167 16.1008 552.967 15.5008 553.667 14.7008C554.167 14.1008 554.267 13.2008 553.667 12.5008C553.067 11.9008 552.067 11.9008 551.467 12.5008C549.367 14.7008 547.867 17.5008 546.067 20.0008C544.367 22.5008 543.167 25.2008 542.167 28.1008C541.167 31.0008 539.967 33.8008 538.567 36.6008C537.167 39.4008 535.667 42.2008 534.267 45.1008C532.667 48.4008 531.167 51.8008 530.067 55.3008C529.467 57.2008 532.467 58.0008 533.067 56.1008C534.967 50.1008 537.967 44.7008 540.767 39.1008C542.167 36.3008 543.467 33.5008 544.567 30.5008C545.567 27.8008 546.367 25.2008 547.867 22.7008C548.767 21.3008 549.667 20.0008 550.567 18.6008C551.467 17.2008 552.367 15.8008 553.567 14.6008C552.867 13.9008 552.167 13.2008 551.367 12.4008C550.167 13.9008 548.467 14.7008 546.767 15.6008C544.967 16.5008 543.167 17.4008 541.567 18.8008C537.567 22.2008 533.467 25.6008 529.467 29.0008C521.767 35.5008 514.267 42.2008 506.367 48.4008C504.367 49.9008 502.367 51.4008 500.367 52.9008C498.467 54.4008 496.667 56.0008 494.867 57.7008C491.367 61.0008 488.267 64.6008 484.467 67.6008C480.867 70.4008 476.967 72.9008 473.667 76.1008C470.467 79.2008 467.167 82.2008 463.567 84.9008C461.767 86.3008 459.767 87.5008 457.867 88.7008C455.967 89.9008 454.167 91.3008 452.467 92.8008C450.867 94.2008 449.367 95.7008 447.567 97.0008C445.867 98.3008 443.967 99.0008 442.267 100.101C441.367 100.701 440.467 101.301 439.767 102.201C438.867 103.201 439.467 104.701 440.867 104.801C446.867 105.201 452.667 103.201 458.467 102.001C461.467 101.401 464.467 101.001 467.367 100.501C470.567 100.001 473.667 99.5008 476.867 98.8008C479.867 98.1008 482.767 97.2008 485.767 96.5008C488.767 95.8008 491.767 95.2008 494.667 93.9008C497.267 92.8008 500.167 92.9008 502.867 92.0008C505.767 91.1008 508.767 90.4008 511.767 89.8008C514.867 89.2008 517.867 88.8008 520.967 88.2008C523.667 87.7008 526.267 87.1008 528.867 86.5008C533.767 85.4008 538.667 84.1008 542.667 80.9008C544.867 79.2008 546.567 76.9008 548.367 74.7008C550.367 72.3008 552.267 69.8008 554.167 67.4008C557.967 62.5008 562.067 57.9008 566.367 53.4008C568.467 51.2008 570.567 49.0008 572.667 46.7008C574.667 44.4008 576.567 42.0008 578.667 39.7008C580.767 37.4008 582.867 35.1008 584.967 32.8008C587.067 30.5008 589.167 28.2008 591.367 26.0008C592.467 24.9008 593.567 23.9008 594.667 22.9008C593.967 22.2008 593.267 21.5008 592.467 20.7008C590.867 22.5008 588.367 23.0008 586.467 24.3008C585.467 25.0008 584.467 25.8008 583.467 26.5008C582.467 27.3008 581.367 27.9008 580.167 28.4008C577.767 29.5008 575.267 30.4008 572.867 31.4008C570.267 32.5008 567.567 33.6008 564.967 34.7008C562.467 35.7008 560.167 36.9008 557.767 38.2008C555.567 39.5008 553.367 40.8008 551.067 42.0008C548.767 43.2008 546.367 44.1008 544.067 45.2008C541.867 46.3008 539.767 47.7008 537.667 49.1008C533.467 51.9008 529.467 55.1008 525.167 57.6008C520.267 60.5008 515.367 63.4008 510.367 66.2008C505.367 69.0008 500.267 71.5008 495.167 74.0008C490.067 76.6008 484.967 79.2008 479.867 82.0008C474.967 84.7008 470.167 87.6008 465.067 90.0008C460.167 92.3008 455.167 94.2008 450.067 96.2008C448.767 96.7008 447.567 97.2008 446.367 97.7008C445.567 98.0008 445.067 98.7008 445.267 99.6008C445.867 100.701 446.767 101.401 447.567 101.001Z" fill="black"/>
<path d="M296.167 460C299.467 460 302.767 460 305.967 459.3C308.067 458.8 310.667 459.1 312.567 457.8C314.567 456.5 314.967 454.3 314.667 452C314.367 449.7 313.667 447.5 312.967 445.3C312.267 443.1 311.567 440.9 310.967 438.7C310.067 435.4 309.067 432.2 308.267 428.9C307.867 427.3 307.567 425.8 307.267 424.2C306.867 422.6 306.267 421.1 305.967 419.5C305.667 417.9 305.567 416.3 305.167 414.7C304.767 413.2 303.867 412 303.267 410.6C302.167 408 302.067 404.9 301.967 402.1C301.867 400.6 301.867 399.1 301.467 397.6C301.167 396.3 300.367 395.1 300.267 393.7C300.067 392.1 300.067 390.5 299.867 388.9C299.567 387.3 299.267 385.7 299.167 384C299.067 382.2 298.967 380.5 298.667 378.7C298.467 377.2 298.067 375.7 297.767 374.2C297.467 372.7 297.167 371.1 296.967 369.6C296.767 368.1 296.467 366.6 296.567 365.1C296.667 363.5 296.967 361.9 296.667 360.3C296.367 358.9 295.767 357.6 295.467 356.2C294.767 353.1 295.767 349.9 295.567 346.8C295.467 345.3 294.967 344 294.467 342.6C293.967 341.2 293.967 339.9 293.967 338.4C293.967 336.7 293.667 335 293.367 333.4C293.067 331.8 292.667 330.1 292.367 328.5C291.967 326.9 291.567 325.3 291.167 323.7C290.767 322.2 290.267 320.6 290.267 319C290.267 317.4 290.667 315.9 290.367 314.3C290.267 313.5 290.167 312.7 289.967 312C289.567 310.2 289.067 308 287.367 306.9C286.567 306.3 285.467 306.2 284.567 306.5C282.667 307.1 283.467 310 285.367 309.5C285.467 309.5 285.567 309.4 285.667 309.4C285.567 309.4 285.367 309.4 285.667 309.4C285.767 309.4 285.667 309.4 285.567 309.3C285.567 309.3 285.667 309.4 285.767 309.4C285.667 309.3 285.467 309.2 285.767 309.4C285.867 309.5 285.867 309.5 285.967 309.6C286.167 309.8 285.867 309.5 285.967 309.7C286.467 310.4 286.567 310.9 286.767 311.8C286.967 312.6 287.167 313.5 287.267 314.3C287.467 315.4 287.367 316.5 287.267 317.6C286.967 320.8 288.067 323.8 288.767 326.8C289.567 329.9 290.267 333.1 290.767 336.3C291.067 337.7 290.767 339.2 290.867 340.6C290.967 342 291.467 343.3 291.967 344.6C292.967 347.4 292.167 350.5 292.167 353.4C292.167 354.9 292.267 356.4 292.767 357.8C293.167 359.1 293.767 360.3 293.767 361.7C293.767 363.2 293.367 364.7 293.567 366.3C293.667 367.8 293.967 369.3 294.167 370.8C294.367 372.3 294.667 373.8 294.967 375.3C295.267 376.8 295.667 378.2 295.867 379.7C296.067 381.3 296.167 382.9 296.267 384.5C296.367 386.2 296.767 387.8 296.967 389.4C297.167 390.9 297.167 392.5 297.367 394C297.567 395.3 298.167 396.5 298.567 397.8C298.967 399.1 298.967 400.5 298.967 401.8C299.067 403.2 299.167 404.6 299.367 406.1C299.567 407.6 299.767 409.1 300.267 410.6C300.667 411.9 301.467 413.1 302.067 414.3C302.767 415.7 302.867 417.3 303.067 418.8C303.267 420.4 303.867 421.8 304.267 423.3C305.067 426.3 305.567 429.4 306.467 432.5C307.367 435.6 308.167 438.8 309.067 441.9C309.567 443.8 310.267 445.6 310.867 447.4C311.467 449.3 312.067 451.3 312.067 453.3C312.067 453.4 311.967 453.9 312.067 453.6C312.067 453.8 311.967 454 311.967 454.1C311.967 454.2 311.867 454.4 311.967 454.1C311.967 454.2 311.867 454.3 311.767 454.4C311.667 454.6 311.567 454.7 311.367 454.8C310.867 455.3 309.767 455.4 308.967 455.5C306.267 455.8 303.667 456.4 301.067 456.5C299.567 456.6 298.067 456.5 296.567 456.5C294.167 456.9 294.167 460 296.167 460Z" fill="black"/>
<path d="M203.667 460C204.367 460 205.167 460 205.867 460C205.867 459 205.867 458 205.867 456.9C202.467 456.9 198.967 457.1 195.667 456.3C194.767 456.1 194.267 455.9 193.467 455.5C193.267 455.4 193.167 455.3 193.067 455.2C192.967 455.1 192.867 455 193.067 455.2C192.967 455.1 192.967 455.1 192.867 455C192.467 454.6 192.567 454.7 192.267 454.3C192.267 454.2 192.167 454.1 192.167 454.1C192.167 454.1 192.267 454.3 192.167 454.2C192.167 454.1 192.067 453.9 192.067 453.8C192.067 453.7 192.067 453.6 191.967 453.5C191.967 453.6 191.967 453.8 191.967 453.4C191.967 453.2 191.967 452.9 191.967 452.7C191.967 451.7 191.967 450.6 192.067 449.6C192.267 447.6 192.767 445.5 193.167 443.5C193.767 440.5 194.267 437.5 194.967 434.6C196.267 428.7 196.967 422.7 197.367 416.8C197.567 413.9 197.667 411.1 198.067 408.2C198.467 405.3 199.167 402.4 199.567 399.5C199.867 396.7 199.867 393.9 200.167 391.1C200.367 388.3 201.167 385.6 201.967 383C202.767 380.2 203.767 377.5 204.667 374.7C205.567 371.9 206.167 369.1 206.967 366.3C207.767 363.4 208.467 360.4 208.767 357.4C208.967 354.5 208.867 351.5 209.467 348.6C211.567 337.3 215.867 326.6 216.767 315.1C216.867 313.7 216.967 312.3 216.967 310.9C216.967 308.9 213.867 308.9 213.867 310.9C213.867 322.6 209.567 333.7 207.067 345C206.367 348 206.067 350.9 205.867 354C205.767 355.5 205.767 357 205.567 358.6C205.367 360.1 205.067 361.6 204.667 363C203.967 365.9 203.167 368.9 202.367 371.8C201.567 374.6 200.667 377.3 199.767 380C198.867 382.7 198.067 385.5 197.567 388.4C197.067 391.3 197.067 394.3 196.867 397.2C196.667 400.1 196.067 402.8 195.567 405.6C195.067 408.6 194.667 411.5 194.567 414.5C194.267 420.5 193.667 426.5 192.467 432.4C191.867 435.4 191.267 438.4 190.667 441.4C190.167 443.8 189.667 446.1 189.367 448.5C189.167 450.5 188.867 452.6 189.267 454.5C189.667 456.2 190.967 457.5 192.467 458.3C195.767 460 199.867 460 203.667 460C204.367 460 205.067 460 205.867 460C207.867 460 207.867 456.9 205.867 456.9C205.167 456.9 204.367 456.9 203.667 456.9C201.767 456.9 201.767 460 203.667 460Z" fill="black"/>
<path d="M486.967 82.8992C492.267 79.1992 498.267 76.6992 503.967 73.7992C506.967 72.1992 509.867 70.4992 512.867 68.6992C515.767 66.9992 518.767 65.1992 521.667 63.4992C527.467 60.0992 533.267 56.5992 539.367 53.5992C542.267 52.1992 545.267 50.7992 548.067 49.2992C549.467 48.5992 550.867 47.7992 552.167 46.9992C553.567 46.1992 554.767 45.1992 556.167 44.3992C557.667 43.4992 559.167 42.7992 560.667 41.9992C562.167 41.1992 563.567 40.0992 564.967 38.9992C567.667 37.0992 570.667 35.5992 573.767 34.2992C574.567 33.9992 574.667 32.8992 574.267 32.1992C573.767 31.3992 572.967 31.2992 572.167 31.6992C569.467 32.8992 566.667 34.0992 564.167 35.7992C562.867 36.5992 561.767 37.5992 560.467 38.4992C559.267 39.2992 557.867 39.9992 556.567 40.5992C553.667 42.0992 551.067 43.9992 548.267 45.5992C545.467 47.0992 542.667 48.4992 539.867 49.8992C536.967 51.2992 533.967 52.6992 531.167 54.2992C528.167 55.9992 525.267 57.6992 522.267 59.4992C519.267 61.2992 516.167 63.0992 513.167 64.8992C510.267 66.5992 507.467 68.3992 504.467 69.9992C498.067 73.4992 491.167 76.0992 485.167 80.2992C484.467 80.7992 484.167 81.5992 484.667 82.3992C485.267 82.9992 486.367 83.2992 486.967 82.8992Z" fill="black"/>
<path d="M377.967 294.3C382.967 297.4 387.867 300.7 392.867 303.8C397.967 307 403.367 309.6 408.767 312.2C414.367 314.9 419.967 317.7 425.467 320.6C430.867 323.4 436.267 326.5 441.767 329.3C447.267 332 452.767 334.6 458.367 337.1C461.067 338.3 463.667 339.5 466.367 340.6C469.067 341.7 471.767 342.6 474.467 343.5C479.867 345.4 485.067 347.4 489.867 350.5C494.767 353.6 500.267 355.4 505.267 358.2C507.867 359.7 510.367 361.4 512.967 362.9C515.467 364.5 518.067 366 520.567 367.7C522.967 369.3 525.367 370.7 528.167 371.6C529.567 372 530.867 372.4 532.167 373C533.267 373.5 534.367 374.2 535.467 374.8C536.667 375.4 537.867 375.8 539.167 376C540.467 376.2 540.667 374.1 539.467 373.7C532.767 372 525.967 371.5 519.167 370.6C512.267 369.7 505.267 369.3 498.367 368.3C491.367 367.3 484.467 366.3 477.467 365.9C473.867 365.7 470.367 365.5 466.767 365.3C463.467 365.1 459.967 365.1 456.767 364.3C451.367 363.1 446.967 359.2 443.067 355.6C440.867 353.6 438.667 351.6 436.567 349.5C434.267 347.3 432.067 345 429.867 342.8C427.567 340.6 425.167 338.4 422.567 336.5C420.267 334.8 418.667 332.4 416.367 330.7C415.167 329.8 413.767 329 412.567 328.1C411.367 327.2 410.267 326.2 409.067 325.2C406.667 323.1 404.167 321.1 401.667 319C396.667 314.7 392.267 309.8 387.667 305.1C383.567 300.9 378.767 297.5 374.967 293.1C374.067 292.1 373.267 291 372.567 289.8C372.267 290.4 371.867 291 371.567 291.5C373.767 291.7 375.567 293 377.567 293.9C379.767 294.9 382.167 295.6 384.567 296.1C386.967 296.7 389.467 297.1 391.867 297.9C394.267 298.7 396.467 299.9 398.867 300.7C403.467 302.4 408.167 303.6 412.967 304.6C415.367 305.1 417.767 305.5 420.067 306.2C422.467 306.9 424.867 307.8 427.267 308.6C429.667 309.4 432.067 310.1 434.567 310.5C437.167 310.9 439.767 311.3 442.367 311.8C444.967 312.3 447.567 312.8 450.067 313.5C452.667 314.2 455.067 315 457.567 315.8C467.767 319.1 478.167 321.4 488.467 324.1C494.467 325.6 500.467 327.2 506.367 328.8C507.667 329.2 509.067 329.4 510.367 330C511.467 330.5 512.567 331.1 513.667 331.6C515.867 332.8 518.067 333.9 520.567 334.1C521.867 334.2 522.167 332 520.867 331.8C517.567 331.3 514.167 331.7 510.867 331.7C507.767 331.7 504.667 332.4 501.667 333.3C498.467 334.2 495.167 335 491.867 335.5C488.467 336.1 484.967 336.5 481.567 337C477.667 337.6 473.767 338.4 469.967 339.6C468.567 340.1 469.167 342.3 470.567 341.8C477.167 339.7 483.967 338.9 490.767 337.9C493.967 337.4 497.267 336.8 500.367 336C503.267 335.2 506.167 334.3 509.167 334C510.967 333.9 512.767 333.9 514.667 333.8C516.567 333.7 518.467 333.6 520.267 333.9C520.367 333.1 520.467 332.4 520.567 331.6C518.367 331.4 516.467 330.3 514.567 329.3C512.467 328.2 510.467 327.3 508.167 326.7C502.867 325.3 497.467 323.9 492.167 322.5C481.767 319.8 471.367 317.4 461.167 314.3C458.667 313.5 456.067 312.6 453.567 311.9C451.067 311.1 448.467 310.5 445.967 310C440.867 309 435.667 308.5 430.667 307.1C425.867 305.8 421.367 303.8 416.467 302.8C411.667 301.8 406.767 300.8 402.067 299.3C399.467 298.4 396.867 297.4 394.367 296.3C391.767 295.2 388.967 294.6 386.267 294C383.567 293.4 380.867 292.9 378.367 291.7C376.067 290.6 373.967 289.3 371.467 289.1C370.567 289 370.067 290.1 370.467 290.8C373.567 295.8 378.267 299.5 382.567 303.4C387.367 307.7 391.567 312.6 396.267 317.1C398.667 319.4 401.067 321.5 403.667 323.5C406.167 325.4 408.367 327.7 410.867 329.6C412.067 330.6 413.467 331.3 414.767 332.2C415.967 333 416.867 334.1 417.867 335.1C419.967 337.3 422.467 339 424.667 341C429.567 345.3 433.867 350.1 438.567 354.4C442.667 358.1 446.667 362.2 451.767 364.6C454.467 365.9 457.267 366.4 460.267 366.7C463.767 367 467.267 367.2 470.867 367.4C477.967 367.8 485.067 368.2 492.067 369.3C495.567 369.8 499.167 370.4 502.667 370.8C506.167 371.2 509.667 371.4 513.167 371.8C516.667 372.2 520.067 372.7 523.567 373.1C527.067 373.5 530.467 373.9 533.867 374.5C535.467 374.8 537.167 375.1 538.767 375.5C538.867 374.7 538.967 374 539.067 373.2C536.567 372.9 534.467 371 532.067 370.1C530.767 369.6 529.367 369.2 527.967 368.8C526.667 368.3 525.467 367.7 524.267 367C521.767 365.5 519.367 363.9 516.967 362.4C514.367 360.8 511.767 359.2 509.167 357.5C504.267 354.4 498.867 352.4 493.767 349.7C491.267 348.4 488.967 346.7 486.367 345.5C483.867 344.2 481.267 343.2 478.667 342.2C473.367 340.2 467.967 338.5 462.867 336.2C457.367 333.7 451.867 331.2 446.367 328.6C440.867 326 435.567 323 430.267 320.2C424.767 317.3 419.267 314.5 413.767 311.8C408.267 309.1 402.767 306.7 397.467 303.6C392.367 300.7 387.567 297.4 382.567 294.2C381.367 293.4 380.167 292.7 378.967 291.9C377.867 291.6 376.767 293.5 377.967 294.3Z" fill="black"/>
<path d="M418.667 317.699C425.067 319.999 430.867 323.699 436.967 326.899C440.167 328.599 443.467 329.999 446.767 331.499C450.267 332.999 453.767 334.599 457.167 336.099C463.867 339.099 470.667 341.999 477.067 345.599C480.067 347.299 483.067 348.999 486.167 350.499C487.667 351.299 489.167 351.999 490.767 352.699C492.367 353.399 493.967 353.899 495.567 354.599C497.267 355.299 498.867 356.299 500.467 357.099C502.167 357.899 503.867 358.499 505.667 359.099C509.267 360.299 512.467 362.099 515.667 363.999C516.967 364.799 518.067 362.799 516.867 361.999C514.067 360.299 511.167 358.599 508.067 357.399C506.467 356.799 504.767 356.399 503.167 355.699C501.667 355.099 500.267 354.299 498.767 353.499C495.767 351.899 492.467 350.899 489.367 349.399C486.267 347.899 483.167 346.199 480.167 344.499C477.167 342.799 474.067 341.099 470.967 339.699C467.467 338.099 464.067 336.499 460.567 334.999C457.067 333.399 453.567 331.899 450.067 330.299C446.667 328.799 443.267 327.399 439.967 325.699C433.067 322.299 426.567 317.999 419.267 315.299C417.967 314.999 417.367 317.199 418.667 317.699Z" fill="black"/>
<path d="M393.167 195.4C400.867 192.6 408.967 190.8 416.867 188.6C420.767 187.5 424.667 186.4 428.667 185.4C432.667 184.4 436.667 183.7 440.767 183C456.967 180 473.067 176.4 488.667 171.3C496.567 168.7 504.467 166.1 512.567 163.8C520.667 161.5 528.967 160.2 537.067 158.2C545.267 156.1 553.467 154 561.667 152.2C569.567 150.5 577.367 148.6 584.867 145.9C592.367 143.1 600.067 141.8 607.967 140.4C615.767 139.1 623.667 137.2 630.967 134.1C631.967 133.7 633.467 132.7 634.567 133.1C634.167 132.6 633.867 132.1 633.467 131.6C633.467 133.2 632.067 134.5 630.967 135.5C629.667 136.7 628.267 137.9 626.967 139C623.767 141.8 620.167 144 617.167 146.9C614.267 149.7 611.767 152.8 609.267 155.9C606.667 159 603.867 161.9 601.267 165C599.967 166.6 598.667 168.1 597.267 169.5C595.667 171.1 593.867 172.5 592.267 174.1C588.967 177.3 585.567 180.4 582.267 183.7C580.067 185.9 577.967 189.3 574.567 189.5C572.267 189.7 569.967 189.6 567.767 189.6C565.367 189.6 562.967 189.7 560.667 189.3C558.467 188.9 556.267 188.5 553.967 188.5C551.667 188.5 549.367 188.7 547.067 188.6C542.367 188.4 537.667 187.4 532.967 187C530.667 186.8 528.367 186.9 526.167 186.7C523.967 186.6 521.867 186.1 519.667 185.9C517.367 185.6 514.967 185.7 512.567 185.8C510.267 185.8 507.867 185.8 505.567 185.8C495.967 185.8 486.367 185.8 476.767 185.8C467.267 185.8 457.667 186 448.167 187.2C445.867 187.5 443.567 187.7 441.167 187.7C438.767 187.7 436.367 187.5 433.967 187.6C431.867 187.7 429.867 188.4 427.767 188.6C425.467 188.8 423.167 188.7 420.967 188.9C418.667 189.1 416.467 189.5 414.267 189.9C411.867 190.2 409.467 190.5 407.067 190.7C402.567 191.1 397.867 191 393.367 191.9C392.367 192.1 391.367 192.3 390.467 192.6C389.467 192.9 388.567 193.3 387.567 193.2C385.567 193 385.667 196 387.567 196.3C389.567 196.5 391.667 195.5 393.567 195C395.867 194.5 398.067 194.3 400.367 194.2C405.167 193.9 409.867 193.5 414.667 192.9C417.067 192.6 419.367 192.1 421.767 191.9C424.067 191.8 426.367 191.9 428.567 191.6C430.767 191.3 432.767 190.7 435.067 190.7C437.467 190.7 439.867 190.8 442.267 190.8C447.167 190.8 452.067 189.8 456.967 189.4C461.767 189.1 466.667 188.9 471.467 188.9C481.167 188.8 490.967 188.9 500.667 188.9C505.467 188.9 510.367 188.9 515.167 188.8C517.467 188.8 519.767 189 522.067 189.3C524.367 189.6 526.567 189.7 528.867 189.8C533.567 189.9 538.267 190.7 542.967 191.2C545.367 191.5 547.667 191.7 550.067 191.6C552.467 191.5 554.867 191.4 557.267 191.8C559.667 192.2 561.967 192.6 564.367 192.6C566.767 192.7 569.167 192.6 571.467 192.6C573.467 192.6 575.467 192.7 577.367 191.9C578.967 191.2 580.267 190.2 581.467 188.9C582.767 187.6 583.967 186.2 585.267 184.9C586.967 183.2 588.667 181.7 590.467 180C592.167 178.4 593.767 176.7 595.467 175.1C597.067 173.6 598.767 172.2 600.367 170.6C601.767 169.1 603.067 167.4 604.467 165.8C605.767 164.2 607.267 162.8 608.567 161.2C611.267 158.2 613.767 154.9 616.467 151.8C617.767 150.3 619.167 148.9 620.767 147.6C622.367 146.2 624.167 145.1 625.867 143.7C627.667 142.3 629.267 140.8 630.967 139.3C632.167 138.2 633.467 137.2 634.567 136C635.667 134.7 636.467 133.2 636.567 131.4C636.567 130.7 636.067 130.1 635.467 129.9C634.067 129.5 632.667 129.9 631.367 130.4C629.867 131 628.367 131.6 626.867 132.2C622.967 133.6 618.967 134.8 614.867 135.7C607.067 137.5 599.067 138.2 591.267 140.4C587.367 141.5 583.567 143 579.667 144.3C575.767 145.6 571.867 146.6 567.967 147.5C559.867 149.4 551.667 151.1 543.567 153.2C539.367 154.3 535.267 155.4 530.967 156.3C526.867 157.2 522.667 157.9 518.567 158.8C510.367 160.8 502.367 163.4 494.367 166C486.467 168.6 478.567 171.1 470.467 173.2C462.367 175.3 454.267 177.1 446.067 178.7C437.967 180.3 429.967 181.6 421.967 183.8C417.967 184.9 413.967 186.1 409.967 187.1C405.967 188.2 401.967 189.1 398.067 190.3C396.067 190.9 394.167 191.5 392.167 192.2C390.567 193.1 391.367 196 393.167 195.4Z" fill="black"/>
<path d="M389.567 194.2C392.667 194.2 395.167 192.3 397.867 191.2C401.067 189.8 404.267 188.6 407.267 186.9C410.267 185.2 413.167 183.6 416.267 182.2C419.367 180.8 422.567 179.8 425.767 178.6C432.367 176.2 438.467 172.5 444.667 169.3C450.967 166 457.167 162.7 463.067 158.8C465.967 156.9 468.767 155 471.767 153.3C474.867 151.6 478.067 150 481.267 148.6C484.467 147.1 487.767 145.8 491.167 144.6C494.567 143.5 497.867 142.3 501.167 141C504.467 139.7 507.767 138.6 511.067 137.4C514.367 136.2 517.667 134.8 520.967 133.5C524.367 132.1 527.667 130.8 531.167 129.6C534.367 128.5 537.467 126.9 540.567 125.5C546.867 122.5 553.467 120.1 559.767 117C562.867 115.5 565.967 114.6 569.167 113.5C571.967 112.6 574.667 111.2 577.267 109.7C577.967 109.3 579.167 108.5 580.067 108.6C579.667 108.2 579.367 107.9 578.967 107.5C579.067 108.2 578.367 109.3 577.967 110C577.367 111 576.567 112 575.967 113C575.167 114.3 574.667 115.8 574.067 117.2C573.367 118.8 572.567 120.2 571.667 121.7C569.767 124.6 567.967 127.6 566.067 130.5C564.167 133.4 562.067 136.1 560.267 139C558.167 142.3 556.267 145.7 554.567 149.2C555.567 149.5 556.467 149.7 557.467 150C557.467 149.8 557.467 149.6 557.467 149.4C557.567 147.4 554.467 147.4 554.367 149.4C554.367 149.6 554.367 149.8 554.367 150C554.267 151.5 556.567 152.2 557.267 150.8C558.767 147.6 560.567 144.5 562.367 141.5C564.267 138.4 566.467 135.5 568.467 132.5C570.467 129.5 572.367 126.5 574.267 123.5C575.167 122 576.067 120.5 576.767 118.9C577.467 117.5 577.967 115.9 578.767 114.6C580.167 112.3 582.567 109.9 581.967 107C581.867 106.5 581.367 106 580.867 105.9C578.267 105.5 576.067 107.2 573.867 108.3C572.467 109 571.067 109.7 569.567 110.3C567.967 110.9 566.267 111.4 564.667 111.9C561.367 112.9 558.367 114.5 555.167 115.9C551.967 117.4 548.667 118.7 545.467 120.1C542.267 121.4 539.167 122.9 536.067 124.3C532.867 125.8 529.567 127 526.267 128.2C519.567 130.7 512.967 133.6 506.267 135.9C502.867 137.1 499.667 138.4 496.267 139.7C492.967 140.9 489.667 141.9 486.367 143.1C482.967 144.4 479.767 145.9 476.467 147.5C473.267 149 470.067 150.7 467.067 152.5C464.167 154.3 461.367 156.3 458.467 158.1C455.467 160 452.267 161.7 449.167 163.4C445.967 165.1 442.767 166.8 439.567 168.5C436.467 170.1 433.367 171.9 430.267 173.5C427.167 175 423.867 176 420.667 177.2C417.367 178.4 414.267 179.7 411.167 181.3C408.167 182.8 405.267 184.6 402.167 186C399.067 187.4 395.867 188.5 392.867 190.1C391.667 190.7 390.667 191.2 389.367 191.2C387.567 191.1 387.567 194.2 389.567 194.2Z" fill="black"/>
<path d="M446.967 191C451.067 191 455.167 191.7 459.267 190.8C460.067 190.6 460.967 190.4 461.767 190.2C462.867 190 463.967 190.1 464.967 190.1C467.267 190.1 469.667 190.1 471.967 190.1C476.467 190.1 480.967 190.1 485.467 190.1C487.767 190.1 490.067 190.2 492.367 190.2C494.667 190.2 496.867 190 499.167 189.7C501.367 189.5 503.667 189.2 505.867 189.2C508.167 189.2 510.367 189.2 512.667 189.2C514.867 189.2 517.167 189.1 519.467 189.3C521.667 189.4 523.767 189.8 525.967 190C526.967 190.1 528.067 190.1 529.067 190.1C530.167 190 531.267 189.9 532.367 190C533.267 190.1 534.167 190.5 535.167 190.7C536.367 191 537.567 191 538.667 191.2C540.867 191.4 543.167 191.6 545.367 191.8C547.367 192 549.367 192.4 551.367 192.5C553.667 192.7 556.067 192.1 558.267 192.8C559.267 193.1 560.167 193.4 561.267 193.4C562.367 193.5 563.467 193.6 564.467 193.8C565.667 194 566.967 194.2 568.267 194.2C569.467 194.2 570.567 194.2 571.767 194.2C572.667 194.2 573.667 194.2 574.567 194.2C576.567 194.2 576.567 191.1 574.567 191.1H574.467C572.467 191.1 572.467 194.2 574.467 194.2H574.567C574.567 193.2 574.567 192.2 574.567 191.1C571.867 191.1 569.067 191.3 566.367 191C565.267 190.9 564.267 190.7 563.167 190.5C562.167 190.4 561.167 190.4 560.167 190.2C559.367 190 558.667 189.6 557.767 189.5C556.667 189.3 555.467 189.3 554.367 189.4C552.367 189.5 550.467 189.3 548.567 189C546.367 188.7 544.167 188.5 541.967 188.3C540.867 188.2 539.767 188.1 538.667 187.9C537.567 187.8 536.467 187.7 535.467 187.4C534.467 187.1 533.567 186.8 532.567 186.7C531.467 186.6 530.267 186.7 529.167 186.7C526.967 186.8 524.867 186.5 522.667 186.2C520.467 185.9 518.367 185.8 516.167 185.8C511.567 185.8 506.967 185.6 502.467 185.9C500.267 186.1 497.967 186.4 495.767 186.5C493.467 186.7 491.167 186.7 488.867 186.6C484.367 186.5 479.867 186.5 475.367 186.5C472.767 186.5 470.067 186.5 467.467 186.5C465.067 186.5 462.667 186.3 460.267 186.8C459.267 187 458.367 187.3 457.367 187.5C456.267 187.7 455.067 187.7 453.967 187.6C451.667 187.6 449.367 187.3 446.967 187.3C444.967 188 444.967 191 446.967 191Z" fill="black"/>
<path d="M574.667 194.001C575.967 193.001 577.267 191.901 578.567 190.801C579.867 189.701 580.967 188.401 582.267 187.301C583.367 186.401 584.667 185.601 585.967 185.001C587.367 184.401 588.367 183.701 588.767 182.201C589.267 180.301 586.267 179.501 585.767 181.401C585.667 181.701 585.667 181.701 585.567 181.801C585.667 181.701 585.567 181.801 585.467 181.901C585.367 182.001 585.267 182.001 585.067 182.101C584.567 182.401 583.967 182.601 583.467 182.801C582.067 183.501 580.767 184.401 579.667 185.401C577.267 187.601 574.967 189.801 572.367 191.801C571.667 192.301 571.867 193.401 572.367 194.001C573.167 194.601 574.067 194.501 574.667 194.001Z" fill="black"/>
<path d="M97.7667 135.199C94.5667 135.299 91.3667 135.399 88.1667 135.499C84.9667 135.499 81.7667 135.199 78.5667 134.999C75.2667 134.699 72.0667 134.399 68.7667 134.199C65.5667 133.999 62.3667 133.899 59.2667 133.699C53.0667 133.299 46.7667 132.599 40.6667 131.399C37.6667 130.799 34.6667 130.199 31.6667 130.199C30.0667 130.199 28.5667 130.199 27.0667 129.999C25.5667 129.799 23.9667 129.599 22.4667 129.499C20.6667 129.399 18.8667 129.499 17.0667 129.499C15.2667 129.499 13.4667 129.499 11.7667 129.599C10.0667 129.699 8.46667 129.499 6.86667 129.099C6.06667 128.899 5.26666 128.799 4.46666 128.699C3.66666 128.699 2.76667 128.799 1.96667 128.399C1.66667 129.099 1.36667 129.799 1.06667 130.499C4.66667 131.599 7.96667 133.199 11.3667 134.699C14.5667 136.099 17.7667 137.799 20.9667 139.099C24.3667 140.499 27.6667 141.899 30.8667 143.599C34.0667 145.299 37.1667 147.099 40.4667 148.499C43.5667 149.899 46.9667 149.599 50.1667 148.999C53.5667 148.399 56.9667 147.499 60.3667 146.699C62.0667 146.299 63.8667 145.899 65.5667 145.699C67.0667 145.499 68.4667 144.999 69.8667 144.799C70.6667 144.699 71.4667 144.799 72.2667 144.699C73.1667 144.599 74.0667 144.399 74.9667 144.299C76.7667 143.999 78.4667 143.799 80.2667 143.499C84.1667 142.799 87.9667 141.499 91.8667 140.699C95.3667 139.999 98.9667 139.599 102.167 137.999C102.867 137.599 102.967 136.399 102.167 135.999C100.967 135.399 99.6667 135.299 98.3667 135.199C97.0667 135.099 95.8667 134.699 94.5667 134.299C93.3667 133.899 92.1667 133.499 90.9667 133.199C89.6667 132.899 88.2667 132.799 86.9667 132.599C84.3667 132.099 81.8667 131.399 79.3667 130.499C78.0667 129.999 76.7667 129.599 75.4667 129.199C74.1667 128.899 72.8667 128.599 71.5667 128.299C68.8667 127.699 66.2667 126.599 63.6667 125.599C61.0667 124.599 58.3667 123.899 55.6667 123.199C50.1667 121.899 44.7667 120.199 39.3667 118.499C36.2667 117.599 33.1667 116.699 29.9667 115.699C28.5667 115.299 27.1667 114.899 25.6667 114.799C24.3667 114.699 22.9667 114.799 21.7667 114.199C21.4667 114.899 21.1667 115.599 20.8667 116.299C21.9667 116.699 22.8667 117.399 23.7667 118.099C24.6667 118.699 25.6667 119.199 26.5667 119.999C28.1667 121.399 29.5667 123.099 31.1667 124.499C34.5667 127.499 38.3667 130.099 41.3667 133.599C42.3667 134.699 43.9667 133.099 42.9667 131.999C39.8667 128.399 35.8667 125.799 32.3667 122.599C30.7667 121.099 29.3667 119.299 27.6667 117.999C26.7667 117.299 25.7667 116.699 24.7667 116.099C23.6667 115.399 22.6667 114.699 21.4667 114.299C20.2667 113.799 19.3667 115.799 20.5667 116.399C22.7667 117.499 25.2667 116.999 27.6667 117.599C30.4667 118.399 33.2667 119.199 35.9667 120.099C41.3667 121.699 46.7667 123.499 52.2667 124.899C54.9667 125.599 57.7667 126.199 60.4667 127.099C63.0667 127.999 65.5667 129.199 68.2667 129.999C70.8667 130.799 73.4667 131.099 76.0667 131.899C78.6667 132.699 81.1667 133.699 83.8667 134.399C86.7667 135.099 89.6667 135.299 92.4667 136.199C93.8667 136.699 95.1667 137.199 96.6667 137.399C98.0667 137.699 99.6667 137.399 100.967 137.999C100.967 137.299 100.967 136.699 100.967 135.999C98.2667 137.399 95.0667 137.699 92.0667 138.299C88.6667 138.999 85.3667 140.099 81.8667 140.799C80.1667 141.199 78.4667 141.399 76.6667 141.699C74.9667 141.899 73.3667 142.399 71.6667 142.499C70.8667 142.599 70.1667 142.499 69.3667 142.599C68.5667 142.699 67.8667 142.899 67.1667 143.099C65.5667 143.499 63.8667 143.599 62.2667 143.899C58.7667 144.599 55.3667 145.599 51.9667 146.299C48.9667 146.899 45.7667 147.699 42.6667 146.999C40.9667 146.599 39.3667 145.599 37.8667 144.899C36.3667 144.099 34.7667 143.299 33.2667 142.499C30.0667 140.799 26.8667 139.299 23.5667 137.999C19.9667 136.499 16.4667 134.699 12.8667 133.099C9.06667 131.499 5.46667 129.599 1.46667 128.399C0.266665 127.999 -0.633333 129.999 0.566667 130.499C2.06667 131.099 3.46667 130.899 5.06667 131.199C6.46667 131.399 7.86667 131.899 9.36667 131.999C10.9667 132.099 12.4667 131.899 14.0667 131.899C15.6667 131.899 17.2667 131.899 18.8667 131.799C20.4667 131.799 21.9667 131.799 23.5667 131.899C25.1667 132.099 26.7667 132.299 28.3667 132.399C29.9667 132.499 31.5667 132.399 33.1667 132.499C34.6667 132.599 36.1667 132.799 37.6667 133.099C40.7667 133.699 43.7667 134.399 46.8667 134.699C50.0667 135.099 53.2667 135.499 56.4667 135.699C62.9667 136.299 69.4667 136.399 75.8667 136.899C79.4667 137.199 83.0667 137.699 86.6667 137.699C90.3667 137.699 94.0667 137.499 97.7667 137.399C99.2667 137.499 99.2667 135.199 97.7667 135.199Z" fill="black"/>
<path d="M73.0666 134.801C69.2666 134.101 65.4666 134.101 61.6666 133.901C57.7666 133.701 53.8666 133.001 50.0666 132.601C46.2666 132.101 42.3666 131.601 38.5666 131.501C36.6666 131.401 34.7666 131.401 32.8666 131.301C30.9666 131.201 29.1666 130.801 27.2666 130.601C26.2666 130.501 25.2666 130.401 24.2666 130.401C23.2666 130.301 22.2666 130.001 21.2666 129.801C19.2666 129.401 17.2666 129.301 15.2666 129.301C13.7666 129.301 13.7666 131.601 15.2666 131.601C17.0666 131.601 18.7666 131.601 20.5666 132.001C21.4666 132.201 22.2666 132.401 23.1666 132.601C24.0666 132.701 24.9666 132.801 25.7666 132.801C27.6666 132.901 29.5666 133.401 31.4666 133.501C33.3666 133.701 35.1666 133.701 37.0666 133.801C44.7666 134.101 52.2666 135.501 59.9666 136.201C64.1666 136.601 68.4666 136.301 72.6666 137.101C73.8666 137.301 74.4666 135.101 73.0666 134.801Z" fill="black"/>
<path d="M133.767 99.4008C130.367 96.1008 126.467 93.2008 122.767 90.2008C119.067 87.1008 115.267 84.2008 111.267 81.5008C103.367 76.1008 95.6666 70.3008 88.4666 63.8008C84.7666 60.5008 81.1666 57.2008 77.3666 54.0008C73.5666 50.8008 69.3666 48.2008 65.4666 45.1008C61.5666 42.0008 57.6666 39.0008 53.6666 36.1008C51.7666 34.7008 49.8666 33.3008 48.0666 31.8008C46.2666 30.3008 44.5666 28.7008 42.9666 27.1008C41.2666 25.5008 39.3666 24.0008 37.4666 22.6008C35.5666 21.2008 33.6666 20.0008 31.6666 18.7008C29.6666 17.4008 27.7666 15.9008 25.9666 14.4008C24.2666 13.0008 22.7666 11.4008 21.1666 9.80084C20.4666 9.10084 19.7666 8.70083 18.8666 8.60083C18.3666 8.50083 17.9666 9.00083 17.7666 9.40083C16.8666 11.5008 18.3666 13.8008 19.1666 15.6008C19.6666 16.8008 20.2666 18.0008 20.8666 19.1008C21.4666 20.2008 22.1666 21.2008 22.6666 22.4008C23.6666 24.6008 24.1666 27.0008 24.7666 29.3008C25.4666 31.7008 26.2666 34.1008 26.9666 36.5008C27.6666 39.1008 28.8666 41.4008 29.7666 43.9008C30.7666 46.4008 31.9666 48.8008 32.7666 51.3008C33.4666 53.3008 34.0666 55.4008 36.0666 56.5008C37.2666 57.2008 38.6666 57.7008 39.9666 58.3008C41.2666 58.9008 42.4666 59.5008 43.8666 59.8008C45.1666 60.2008 46.4666 60.5008 47.7666 61.0008C48.9666 61.6008 50.1666 62.2008 51.4666 62.7008C54.0666 63.7008 56.8666 64.3008 59.4666 65.2008C60.7666 65.7008 62.0666 66.3008 63.3666 66.8008C64.5666 67.2008 65.8666 67.5008 67.0666 67.9008C68.3666 68.3008 69.4666 69.0008 70.7666 69.5008C72.0666 70.1008 73.4666 70.7008 74.7666 71.3008C84.9666 75.8008 95.4666 80.0008 104.967 85.8008C107.167 87.1008 109.667 87.8008 111.967 89.0008C113.067 89.6008 113.967 90.4008 115.067 91.0008C116.267 91.6008 117.467 92.1008 118.667 92.8008C119.867 93.5008 120.967 94.3008 122.167 95.0008C123.367 95.7008 124.567 96.4008 125.767 97.1008C128.067 98.4008 130.367 99.5008 132.567 101.001C133.467 101.601 134.067 102.501 135.167 102.901C136.567 103.301 137.167 101.101 135.767 100.701C135.367 100.601 135.067 100.201 134.667 99.9008C134.267 99.5008 133.767 99.2008 133.367 98.9008C132.267 98.1008 131.167 97.5008 130.067 96.9008C127.667 95.7008 125.367 94.4008 123.067 93.0008C121.967 92.3008 120.867 91.5008 119.667 90.9008C118.467 90.2008 117.267 89.7008 116.067 89.1008C114.967 88.6008 114.167 87.7008 113.167 87.2008C112.067 86.6008 110.867 86.1008 109.667 85.7008C107.167 84.7008 105.067 83.3008 102.767 82.0008C100.467 80.7008 98.0666 79.5008 95.6666 78.3008C90.7666 76.0008 85.6666 73.8008 80.6666 71.6008C78.0666 70.4008 75.4666 69.3008 72.8666 68.1008C71.6666 67.5008 70.3666 66.9008 69.1666 66.4008C67.9666 65.9008 66.7666 65.5008 65.4666 65.2008C64.1666 64.8008 62.9666 64.3008 61.7666 63.8008C60.4666 63.3008 59.1666 62.8008 57.7666 62.4008C55.1666 61.6008 52.6666 60.9008 50.2666 59.8008C49.0666 59.2008 47.8666 58.6008 46.6666 58.3008C45.3666 57.9008 44.0666 57.7008 42.7666 57.1008C41.4666 56.5008 40.0666 55.9008 38.7666 55.3008C37.7666 54.8008 36.7666 54.5008 36.1666 53.6008C35.6666 52.8008 35.3666 51.9008 35.0666 51.0008C34.6666 49.8008 34.1666 48.6008 33.6666 47.4008C32.6666 44.9008 31.7666 42.4008 30.6666 40.0008C29.5666 37.7008 29.1666 35.2008 28.2666 32.8008C27.4666 30.5008 26.8666 28.2008 26.1666 25.9008C25.4666 23.6008 24.6666 21.4008 23.4666 19.3008C22.2666 17.2008 21.2666 15.0008 20.2666 12.8008C19.8666 12.0008 19.4666 11.0008 19.8666 10.1008C19.4666 10.4008 19.1666 10.7008 18.7666 10.9008C18.9666 10.9008 19.2666 11.3008 19.3666 11.4008C19.6666 11.7008 19.9666 12.0008 20.2666 12.4008C21.0666 13.2008 21.8666 14.0008 22.6666 14.7008C24.3666 16.3008 26.2666 17.8008 28.1666 19.2008C31.9666 21.9008 35.9666 24.2008 39.4666 27.3008C41.2666 28.8008 42.7666 30.5008 44.5666 32.0008C46.2666 33.5008 48.1666 34.9008 49.9666 36.3008C53.8666 39.2008 57.7666 42.0008 61.5666 45.1008C63.4666 46.6008 65.3666 48.2008 67.3666 49.6008C69.3666 51.0008 71.3666 52.3008 73.2666 53.8008C77.1666 56.8008 80.8666 60.1008 84.4666 63.4008C88.0666 66.6008 91.6666 69.8008 95.3666 72.8008C99.0666 75.8008 102.867 78.6008 106.767 81.3008C110.667 84.0008 114.567 86.6008 118.267 89.6008C121.967 92.6008 125.667 95.5008 129.267 98.6008C130.167 99.4008 131.067 100.201 131.867 101.001C133.167 102.001 134.767 100.401 133.767 99.4008Z" fill="black"/>
<path d="M135.467 99.3001C134.767 99.0001 134.367 98.6001 133.867 98.0001C133.267 97.2001 132.667 96.5001 131.967 95.8001C130.567 94.3001 129.167 92.8001 127.967 91.2001C126.767 89.6001 125.567 88.1001 124.267 86.7001C122.867 85.2001 121.367 83.9001 119.967 82.5001C118.467 81.1001 117.267 79.6001 116.067 78.0001C114.767 76.3001 113.467 74.7001 112.167 73.0001C109.567 69.7001 107.067 66.3001 104.767 62.7001C102.567 59.2001 99.9666 55.9001 97.1666 52.8001C95.8666 51.3001 94.4666 50.0001 93.0666 48.7001C91.5666 47.3001 90.1666 45.9001 88.6666 44.4001C87.1666 42.9001 85.6666 41.5001 84.1666 40.0001C82.6666 38.6001 81.2666 37.1001 79.8666 35.6001C78.3666 34.1001 76.7666 32.6001 75.2666 31.0001C73.8666 29.6001 72.6666 28.0001 71.2666 26.5001C69.7666 24.7001 68.0666 23.1001 66.4666 21.4001C64.9666 19.7001 63.5666 17.9001 61.9666 16.3001C61.1666 15.6001 60.3666 14.9001 59.5666 14.2001C58.7666 13.5001 58.0666 12.7001 57.3666 11.9001C56.3666 10.7001 55.4666 9.00009 53.8666 8.50009C53.3666 8.40009 52.8666 8.60009 52.5666 9.00009C51.4666 10.5001 52.4666 12.5001 52.5666 14.2001C52.6666 15.5001 52.5666 16.9001 52.6666 18.2001C52.7666 19.6001 53.0666 20.9001 53.2666 22.2001C54.0666 27.5001 55.3666 32.7001 55.4666 38.1001C55.4666 39.5001 57.2666 39.6001 57.7666 38.4001C57.7666 38.3001 57.8666 38.2001 57.8666 38.1001C58.0666 37.5001 57.5666 36.8001 57.0666 36.7001C56.3666 36.5001 55.8666 36.9001 55.6666 37.5001C55.6666 37.6001 55.5666 37.7001 55.5666 37.8001C56.3666 37.9001 57.0666 38.0001 57.8666 38.1001C57.7666 35.5001 57.5666 33.0001 57.1666 30.4001C56.7666 27.8001 56.1666 25.3001 55.7666 22.7001C55.5666 21.5001 55.3666 20.2001 55.2666 19.0001C55.0666 17.7001 55.0666 16.3001 55.0666 15.0001C55.0666 14.1001 54.9666 13.2001 54.7666 12.3001C54.6666 11.7001 54.3666 10.7001 54.7666 10.2001C54.3666 10.4001 53.8666 10.6001 53.4666 10.7001C53.9666 10.8001 54.3666 11.5001 54.6666 11.9001C55.1666 12.5001 55.5666 13.1001 56.0666 13.7001C57.3666 15.2001 58.7666 16.4001 60.1666 17.7001C61.6666 19.1001 62.8666 20.7001 64.1666 22.2001C65.5666 23.7001 66.9666 25.2001 68.3666 26.7001C69.7666 28.2001 70.9666 29.7001 72.3666 31.2001C73.7666 32.8001 75.3666 34.2001 76.8666 35.7001C79.7666 38.7001 82.6666 41.7001 85.7666 44.6001C87.1666 46.0001 88.5666 47.4001 89.9666 48.8001C91.4666 50.2001 92.9666 51.5001 94.3666 53.0001C97.1666 56.0001 99.8666 59.1001 102.167 62.5001C103.267 64.2001 104.267 65.9001 105.367 67.5001C106.567 69.3001 107.967 71.0001 109.267 72.7001C110.567 74.4001 111.867 76.0001 113.167 77.7001C114.467 79.3001 115.567 81.0001 116.967 82.5001C118.467 84.1001 120.067 85.5001 121.567 87.0001C123.167 88.6001 124.567 90.3001 125.867 92.1001C127.267 93.9001 128.667 95.6001 130.267 97.2001C130.967 98.0001 131.667 98.7001 132.367 99.6001C132.967 100.3 133.567 100.9 134.467 101.3C135.067 101.6 135.667 101.5 136.067 100.9C136.167 100.4 136.067 99.6001 135.467 99.3001Z" fill="black"/>
<path d="M105.967 83.6997C103.967 82.7997 101.667 82.1997 99.8666 80.8997C99.3666 80.5997 98.9666 80.1997 98.4666 79.8997C97.9666 79.4997 97.3666 79.2997 96.7666 79.0997C95.5666 78.5997 94.3666 77.9997 93.2666 77.4997C90.8666 76.3997 88.4666 75.2997 85.9666 74.2997C83.5666 73.2997 81.2666 72.2997 78.9666 70.9997C76.6666 69.6997 74.3666 68.5997 71.9666 67.5997C70.7666 66.9997 69.4666 66.4997 68.2666 65.8997C67.0666 65.3997 65.8666 65.0997 64.5666 64.6997C63.3666 64.2997 62.2666 63.6997 61.1666 63.1997C59.9666 62.6997 58.6666 62.6997 57.4666 62.2997C54.9666 61.4997 52.4666 60.6997 50.0666 59.8997C48.7666 59.4997 47.5666 58.5997 46.1666 58.2997C45.5666 58.1997 44.9666 58.1997 44.4666 57.9997C43.7666 57.7997 43.1666 57.4997 42.4666 57.3997C40.6666 56.8997 38.9666 56.0997 37.2666 55.3997C36.7666 56.2997 36.2666 57.1997 35.7666 57.9997C35.7666 57.9997 35.7666 57.9997 35.8666 57.9997C36.6666 58.2997 37.4666 58.1997 37.9666 57.4997C38.3666 56.7997 38.1666 55.6997 37.4666 55.3997C37.4666 55.3997 37.4666 55.3997 37.3666 55.3997C36.5666 55.0997 35.7666 55.1997 35.2666 55.8997C34.8666 56.5997 35.0666 57.6997 35.7666 57.9997C37.1666 58.5997 38.6666 59.3997 40.1666 59.8997C41.3666 60.2997 42.6666 60.6997 43.8666 60.9997C44.3666 61.0997 44.8666 61.0997 45.4666 61.1997C45.9666 61.2997 46.4666 61.4997 46.9666 61.7997C49.2666 62.8997 51.8666 63.5997 54.2666 64.3997C55.4666 64.7997 56.7666 65.2997 58.0666 65.4997C58.6666 65.5997 59.3666 65.5997 59.8666 65.8997C60.4666 66.0997 60.9666 66.3997 61.4666 66.6997C62.6666 67.2997 63.8666 67.5997 65.1666 67.9997C66.3666 68.3997 67.5666 68.7997 68.6666 69.3997C71.0666 70.4997 73.5666 71.4997 75.8666 72.6997C78.1666 73.9997 80.3666 75.1997 82.7666 76.1997C85.1666 77.1997 87.5666 78.2997 89.9666 79.3997C91.3666 79.9997 92.6666 80.5997 94.0666 81.1997C95.2666 81.6997 96.4666 82.1997 97.5666 82.9997C98.6666 83.7997 99.7666 84.4997 101.067 85.0997C102.267 85.5997 103.467 85.9997 104.667 86.4997C105.467 86.7997 106.267 86.6997 106.767 85.9997C106.867 85.1997 106.667 83.9997 105.967 83.6997Z" fill="black"/>
<path d="M38.3667 56.1009C37.9667 55.3009 37.5667 54.5009 37.1667 53.7009C36.7667 52.8009 36.4667 52.1009 36.0667 51.1009C35.7667 50.3009 35.2667 49.6009 34.7667 48.9009C34.5667 48.6009 34.2667 48.3009 33.9667 48.0009C33.9667 48.0009 33.7667 47.8009 33.8667 47.9009C33.9667 48.1009 33.8667 47.9009 33.8667 47.8009C33.8667 47.6009 33.9667 48.0009 33.8667 47.9009C33.8667 47.8009 33.8667 48.1009 33.8667 48.1009C33.9667 47.3009 33.6667 46.4009 32.7667 46.2009C32.0667 46.0009 31.0667 46.4009 30.8667 47.3009C30.7667 48.0009 30.7667 48.6009 31.0667 49.2009C31.2667 49.6009 31.5667 49.9009 31.7667 50.2009C32.2667 50.8009 32.6667 51.3009 33.0667 52.2009C33.0667 52.3009 33.1667 52.4009 33.1667 52.5009C33.2667 52.7009 33.0667 52.3009 33.1667 52.6009C33.2667 52.8009 33.3667 53.1009 33.4667 53.3009C33.6667 53.8009 33.9667 54.4009 34.1667 54.9009C34.5667 55.8009 35.0667 56.7009 35.5667 57.7009C35.9667 58.4009 36.9667 58.7009 37.6667 58.2009C38.4667 57.7009 38.7667 56.8009 38.3667 56.1009Z" fill="black"/>
</svg>
