<svg width="1050" height="681" viewBox="0 0 1050 681" fill="none" xmlns="http://www.w3.org/2000/svg">
<path d="M20.8605 670.832C22.6744 670.832 31.7443 670.18 33.5582 669.528C43.535 669.528 54.4187 669.528 65.3024 669.528C49.8838 670.18 33.5582 670.832 19.0466 674.09C32.6512 674.742 47.1629 672.787 60.7675 672.135C52.6047 672.787 45.3489 673.438 37.1861 674.09C31.7442 674.742 18.1395 675.393 13.6046 677.348C12.6977 678 14.5117 677.348 15.4187 678L16.3256 678C18.1395 677.348 19.9536 677.348 21.7675 676.697C26.3024 676.045 51.6977 673.438 56.2326 673.438C67.1163 672.787 78 672.135 88.8837 671.483C89.7907 671.483 89.7907 670.832 89.7907 670.832C88.8837 670.832 87.9767 670.832 87.0698 670.832C81.6279 670.832 49.8838 672.787 44.4419 672.787C43.5349 672.787 37.186 673.438 36.279 673.438C34.4651 673.438 24.4884 674.09 22.6744 674.09C36.279 671.483 51.6977 670.832 66.2093 669.528C68.0232 669.528 80.7209 669.528 82.5349 669.528C87.9767 669.528 93.4185 669.528 99.7674 668.877C100.674 668.877 100.674 668.225 98.8605 668.225C100.674 668.225 104.302 668.225 104.302 668.225C105.209 668.225 107.93 668.225 108.837 668.225C109.744 668.225 109.744 668.225 109.744 668.225C111.558 668.225 114.279 668.225 116.093 668.225L117 667.573C110.651 667.573 104.302 666.922 97.9534 666.27C96.1395 666.27 86.1628 666.922 84.3488 666.922C82.5349 666.922 73.4651 666.27 72.5581 666.27C60.7674 665.618 48.0697 666.27 36.279 666.922C33.5581 666.922 29.9303 666.922 26.3024 666.922C22.6745 666.922 19.0466 666.922 14.5117 666.922C19.9535 667.573 25.3954 666.922 29.9302 666.922C28.1163 666.922 18.1395 667.573 16.3256 667.573C12.6977 667.573 9.06981 668.225 5.44191 668.225C4.53493 668.225 0.906973 668.225 -3.24823e-06 668.877C6.34883 670.832 14.5116 670.832 20.8605 670.832ZM91.6046 667.573C97.9535 666.922 104.302 667.573 110.651 668.225C104.302 668.225 97.9535 668.225 91.6046 667.573ZM57.1395 668.877C50.7907 668.877 45.3488 668.225 39 668.877C35.3721 668.877 32.6512 669.528 29.0233 669.528C26.3024 669.528 24.4884 669.528 21.7675 669.528C23.5815 669.528 35.3721 668.877 37.1861 668.225C39.907 668.225 43.5349 668.225 46.2558 668.225C55.3256 667.573 62.5814 668.225 71.6512 668.225C72.5582 668.225 75.2791 668.225 76.1861 668.225C81.6279 668.225 87.0698 668.225 92.5117 668.877C79.814 668.877 68.0232 668.877 57.1395 668.877ZM74.3721 667.573C68.0233 668.225 62.5815 667.573 56.2326 667.573C54.4187 667.573 53.5117 667.573 51.6977 667.573C59.8605 666.922 67.1163 666.922 74.3721 667.573ZM66.2093 667.573C64.3953 667.573 61.6744 667.573 58.9534 667.573C59.8604 667.573 65.3023 667.573 66.2093 667.573ZM48.0698 669.528C47.1628 669.528 38.093 669.528 37.1861 669.528C43.5349 668.877 49.8838 668.877 56.2326 669.528C53.5117 668.877 50.7907 669.528 48.0698 669.528ZM51.6977 667.573C48.9768 667.573 46.2558 667.573 43.5349 667.573C45.3488 667.573 48.0698 667.573 51.6977 667.573ZM13.6046 669.528C18.1395 668.877 21.7675 668.877 26.3024 668.877C20.8605 669.528 13.6047 669.528 8.16287 670.18C8.16287 670.18 6.34894 670.18 6.34894 670.832C5.44196 670.832 4.53496 670.832 3.62798 670.832C5.44194 670.18 12.6977 669.528 13.6046 669.528ZM12.6977 670.18C16.3257 669.528 20.8606 669.528 24.4885 669.528C23.5815 669.528 20.8605 670.18 20.8605 670.18C19.0465 670.18 16.3257 670.18 12.6977 670.18Z" fill="#91FF6A"/>
<path fill-rule="evenodd" clip-rule="evenodd" d="M234.865 7.91422C225.847 8.38271 217.382 9.06096 209.749 10.0119C208.917 10.1168 208.665 10.2636 208.59 10.3265C208.464 10.4384 208.514 10.5433 208.716 10.6412C208.842 10.7042 209.043 10.7811 209.472 10.83C209.774 10.865 210.555 10.8929 211.588 10.8859C213.351 10.8789 216.072 10.823 217.382 10.823C221.866 10.837 226.35 10.83 230.835 10.8509C245.119 10.9209 247.612 10.9768 265.978 10.9348C287.416 10.8859 308.905 10.802 330.369 10.6761C262.149 11.725 194.029 12.9486 126.262 14.0884C125.506 14.1024 124.927 14.2842 124.977 14.494C125.002 14.7107 125.682 14.8716 126.438 14.8576C284.569 12.2005 444.439 9.06794 603.78 8.86516C611.64 8.91411 619.474 8.96303 627.284 9.01197C674.469 9.31963 721.679 9.69025 768.813 10.2636C784.155 10.4524 799.497 10.6622 814.865 10.8579C819.399 10.9139 823.959 10.9698 828.519 11.0257C832.197 11.0677 841.669 11.2216 843.004 11.2286C844.214 11.2355 844.516 10.9349 844.541 10.9209C844.617 10.823 844.566 10.7111 844.264 10.6062C844.188 10.5783 843.987 10.5014 843.533 10.4664C843.458 10.4664 843.105 10.4524 842.374 10.4314C804.485 9.57137 766.496 8.97703 728.43 8.59945C733.544 8.61344 738.658 8.62046 743.772 8.63445C783.198 8.71835 822.725 9.01902 862.125 8.63445C871.093 8.55054 880.087 8.45261 889.03 8.33374C895.051 8.25683 910.544 8.35473 912.736 8.17293C913.744 8.09602 913.97 7.90021 913.996 7.80232C914.021 7.69045 913.945 7.56459 913.492 7.45271C913.29 7.39677 912.66 7.30592 911.476 7.23599C872.806 4.90757 827.561 5.56479 788.186 4.91451C681.245 3.13148 574.682 4.32022 467.767 5.40402C375.488 6.34099 283.209 6.38992 190.98 7.66251C157.223 8.124 122.408 7.59262 89.1287 9.35467C88.3729 9.39663 87.8941 9.59233 88.0201 9.8021C88.1712 10.0119 88.9019 10.1518 89.6576 10.1098C122.785 8.35475 157.475 8.89313 191.107 8.43164C205.693 8.22887 220.279 8.06106 234.865 7.91422ZM520.167 8.43164C463.661 8.18691 407.155 8.06102 350.598 8.13794C311.802 8.18688 255.271 6.13823 216.727 10.0539C217.004 10.0539 217.231 10.0539 217.432 10.0539C221.916 10.0679 226.401 10.0538 230.885 10.0818C245.144 10.1517 247.638 10.2077 265.952 10.1657C312.785 10.0538 359.743 9.77419 406.55 9.34067C444.464 8.99106 482.328 8.67637 520.167 8.43164ZM902.407 7.52961C865.853 5.75358 824.412 6.28507 788.01 5.68373C681.17 3.9007 574.682 5.08935 467.868 6.17316C420.128 6.66261 372.415 6.90733 324.726 7.208C333.871 7.30589 342.612 7.3758 350.598 7.36881C431.44 7.25693 512.256 7.55765 593.098 8.03312C643.306 7.82335 693.514 7.74644 743.798 7.85832C783.198 7.94922 822.649 8.2429 862.049 7.86531C870.993 7.78141 879.961 7.68348 888.904 7.56461C891.953 7.52965 897.47 7.53661 902.407 7.52961Z" fill="#91FF6A"/>
<path fill-rule="evenodd" clip-rule="evenodd" d="M189.16 3.91422C177.728 4.38271 166.999 5.06096 157.323 6.0119C156.269 6.11679 155.95 6.26359 155.854 6.32652C155.694 6.4384 155.758 6.54333 156.014 6.64123C156.174 6.70416 156.429 6.78108 156.972 6.83003C157.355 6.86499 158.345 6.89293 159.654 6.88594C161.89 6.87895 165.338 6.82303 166.999 6.82303C172.683 6.83702 178.367 6.82997 184.051 6.85094C202.156 6.92086 205.318 6.9768 228.596 6.93485C255.771 6.8859 283.009 6.802 310.216 6.67614C223.743 7.72498 137.397 8.94863 51.4991 10.0884C50.5411 10.1024 49.8066 10.2842 49.8705 10.494C49.9024 10.7107 50.7644 10.8716 51.7224 10.8576C252.162 8.20052 454.806 5.06794 656.779 4.86516C666.742 4.91411 676.673 4.96303 686.572 5.01197C746.381 5.31963 806.222 5.69025 865.968 6.26362C885.415 6.45241 904.862 6.66216 924.34 6.85794C930.088 6.91388 935.868 6.96981 941.648 7.02575C946.31 7.0677 958.317 7.22156 960.009 7.22855C961.542 7.23554 961.925 6.93492 961.957 6.92093C962.053 6.82304 961.989 6.71111 961.606 6.60623C961.51 6.57826 961.254 6.50138 960.68 6.46642C960.584 6.46642 960.137 6.4524 959.211 6.43142C911.184 5.57137 863.03 4.97703 814.78 4.59945C821.263 4.61344 827.745 4.62046 834.227 4.63445C884.201 4.71835 934.303 5.01902 984.246 4.63445C995.614 4.55054 1007.01 4.45261 1018.35 4.33374C1025.98 4.25683 1045.62 4.35473 1048.4 4.17293C1049.68 4.09602 1049.96 3.90021 1049.99 3.80232C1050.03 3.69045 1049.93 3.56459 1049.36 3.45271C1049.1 3.39677 1048.3 3.30592 1046.8 3.23599C997.785 0.907568 940.435 1.56479 890.524 0.914513C754.971 -0.868516 619.896 0.320221 484.375 1.40402C367.407 2.34099 250.438 2.38992 133.533 3.66251C90.7439 4.124 46.6134 3.59262 4.43066 5.35467C3.47269 5.39663 2.86577 5.59233 3.02543 5.8021C3.21703 6.01187 4.14314 6.15176 5.10112 6.10981C47.0923 4.35475 91.0633 4.89313 133.693 4.43164C152.182 4.22887 170.671 4.06106 189.16 3.91422ZM550.795 4.43164C479.17 4.18691 407.546 4.06102 335.858 4.13794C286.682 4.18688 215.025 2.13823 166.169 6.0539C166.52 6.0539 166.807 6.0539 167.062 6.0539C172.746 6.06788 178.431 6.05384 184.115 6.08181C202.188 6.15173 205.349 6.20767 228.564 6.16571C287.927 6.05384 347.449 5.77419 406.779 5.34067C454.838 4.99106 502.832 4.67637 550.795 4.43164ZM1035.31 3.52961C988.972 1.75358 936.443 2.28507 890.3 1.68373C754.875 -0.0992982 619.897 1.08935 484.503 2.17316C423.991 2.66261 363.511 2.90733 303.063 3.208C314.654 3.30589 325.735 3.3758 335.858 3.36881C438.329 3.25693 540.768 3.55765 643.239 4.03312C706.88 3.82335 770.522 3.74644 834.259 3.85832C884.201 3.94922 934.208 4.2429 984.15 3.86531C995.486 3.78141 1006.85 3.68348 1018.19 3.56461C1022.05 3.52965 1029.05 3.53661 1035.31 3.52961Z" fill="#91FF6A"/>
<path fill-rule="evenodd" clip-rule="evenodd" d="M848.53 15.3257C859.612 15.8435 870.014 16.593 879.393 17.6439C880.415 17.7599 880.725 17.9221 880.818 17.9916C880.972 18.1153 880.91 18.2312 880.663 18.3394C880.508 18.409 880.26 18.494 879.734 18.5481C879.362 18.5867 878.403 18.6176 877.134 18.6099C874.967 18.6021 871.623 18.5404 870.014 18.5404C864.503 18.5558 858.993 18.548 853.483 18.5712C835.931 18.6485 832.866 18.7103 810.299 18.6639C783.955 18.6098 757.549 18.5171 731.174 18.378C815.004 19.5371 898.71 20.8894 981.983 22.149C982.912 22.1644 983.624 22.3654 983.562 22.5972C983.531 22.8368 982.695 23.0145 981.767 22.9991C787.453 20.0627 591.003 16.6007 395.203 16.3766C385.545 16.4307 375.917 16.4848 366.321 16.5389C308.339 16.8789 250.327 17.2885 192.408 17.9221C173.555 18.1308 154.702 18.3626 135.819 18.5789C130.247 18.6407 124.644 18.7026 119.04 18.7644C114.521 18.8107 102.881 18.9808 101.24 18.9885C99.7545 18.9962 99.3831 18.664 99.3522 18.6485C99.2593 18.5404 99.3212 18.4167 99.6926 18.3008C99.7855 18.2698 100.033 18.1849 100.59 18.1462C100.683 18.1462 101.117 18.1308 102.014 18.1076C148.573 17.1571 195.255 16.5003 242.03 16.083C235.746 16.0985 229.462 16.1062 223.178 16.1217C174.731 16.2144 126.161 16.5467 77.7446 16.1217C66.7241 16.0289 55.6725 15.9207 44.6829 15.7894C37.2843 15.7044 18.2463 15.8126 15.5531 15.6116C14.3149 15.5266 14.0363 15.3103 14.0053 15.2021C13.9744 15.0784 14.0671 14.9393 14.6243 14.8157C14.8719 14.7539 15.646 14.6535 17.101 14.5762C64.6192 12.003 120.217 12.7293 168.602 12.0107C300.012 10.0402 430.958 11.3539 562.337 12.5516C675.731 13.5871 789.125 13.6412 902.456 15.0476C943.938 15.5576 986.72 14.9703 1027.61 16.9176C1028.54 16.964 1029.13 17.1803 1028.98 17.4121C1028.79 17.6439 1027.89 17.7985 1026.96 17.7521C986.255 15.8126 943.628 16.4076 902.301 15.8976C884.377 15.6735 866.454 15.488 848.53 15.3257ZM497.948 15.8976C567.383 15.6271 636.818 15.488 706.316 15.573C753.989 15.6271 823.455 13.363 870.818 17.6904C870.478 17.6904 870.2 17.6904 869.952 17.6904C864.442 17.7058 858.931 17.6903 853.421 17.7212C835.9 17.7985 832.835 17.8603 810.33 17.8139C752.782 17.6903 695.079 17.3812 637.561 16.9021C590.972 16.5158 544.444 16.168 497.948 15.8976ZM28.2452 14.9007C73.1631 12.9379 124.087 13.5253 168.819 12.8607C300.105 10.8903 430.958 12.2039 562.213 13.4016C620.876 13.9425 679.507 14.213 738.108 14.5453C726.871 14.6534 716.129 14.7307 706.316 14.723C606.976 14.5993 507.668 14.9317 408.329 15.4571C346.633 15.2253 284.936 15.1403 223.147 15.2639C174.731 15.3644 126.253 15.689 77.8376 15.2717C66.848 15.179 55.8274 15.0707 44.8378 14.9394C41.0921 14.9007 34.3127 14.9084 28.2452 14.9007Z" fill="#91FF6A"/>
<path fill-rule="evenodd" clip-rule="evenodd" d="M1028.94 548.961C1028.48 556.026 1027.8 562.656 1026.85 568.635C1026.74 569.286 1026.59 569.484 1026.53 569.543C1026.42 569.642 1026.32 569.602 1026.22 569.444C1026.15 569.345 1026.08 569.188 1026.03 568.852C1025.99 568.615 1025.97 568.004 1025.97 567.195C1025.98 565.813 1026.04 563.682 1026.04 562.656C1026.02 559.143 1026.03 555.631 1026.01 552.119C1025.94 540.93 1025.88 538.977 1025.92 524.591C1025.97 507.799 1026.06 490.967 1026.18 474.154C1025.13 527.591 1023.91 580.948 1022.77 634.03C1022.76 634.622 1022.57 635.076 1022.36 635.036C1022.15 635.016 1021.99 634.484 1022 633.892C1024.66 510.029 1027.79 384.804 1027.99 259.993C1027.94 253.837 1027.9 247.7 1027.85 241.583C1027.54 204.623 1027.17 167.644 1026.59 130.724C1026.41 118.707 1026.2 106.689 1026 94.6521C1025.94 91.1002 1025.89 87.5285 1025.83 83.9568C1025.79 81.0758 1025.64 73.6563 1025.63 72.6104C1025.62 71.6632 1025.92 71.4265 1025.94 71.4067C1026.04 71.3476 1026.15 71.387 1026.25 71.6238C1026.28 71.683 1026.36 71.8409 1026.39 72.1961C1026.39 72.2553 1026.41 72.5315 1026.43 73.1037C1027.29 102.782 1027.88 132.539 1028.26 162.355C1028.24 158.35 1028.24 154.344 1028.22 150.338C1028.14 119.456 1027.84 88.4954 1028.22 57.6333C1028.31 50.6084 1028.41 43.5636 1028.52 36.5585C1028.6 31.8423 1028.5 19.7068 1028.69 17.99C1028.76 17.2007 1028.96 17.0231 1029.06 17.0034C1029.17 16.9837 1029.29 17.0428 1029.41 17.398C1029.46 17.5558 1029.55 18.0492 1029.62 18.9767C1031.95 49.2666 1031.29 84.7067 1031.94 115.549C1033.73 199.315 1032.54 282.785 1031.45 366.531C1030.52 438.813 1030.47 511.094 1029.2 583.336C1028.73 609.778 1029.27 637.049 1027.5 663.116C1027.46 663.708 1027.27 664.083 1027.06 663.984C1026.85 663.866 1026.71 663.294 1026.75 662.702C1028.5 636.753 1027.97 609.581 1028.43 583.237C1028.63 571.812 1028.8 560.387 1028.94 548.961ZM1028.43 325.487C1028.67 369.748 1028.8 414.008 1028.72 458.309C1028.67 488.697 1030.72 532.978 1026.8 563.169C1026.8 562.952 1026.8 562.775 1026.8 562.617C1026.79 559.104 1026.8 555.592 1026.78 552.079C1026.71 540.91 1026.65 538.957 1026.69 524.611C1026.8 487.928 1027.08 451.146 1027.52 414.482C1027.87 384.784 1028.18 355.126 1028.43 325.487ZM1029.33 26.0805C1031.1 54.7128 1030.57 87.1734 1031.17 115.687C1032.96 199.374 1031.77 282.785 1030.69 366.452C1030.2 403.846 1029.95 441.22 1029.65 478.574C1029.55 471.411 1029.48 464.564 1029.49 458.309C1029.6 394.986 1029.3 331.683 1028.83 268.36C1029.04 229.033 1029.11 189.705 1029 150.318C1028.91 119.456 1028.62 88.5547 1028.99 57.6925C1029.08 50.6874 1029.17 43.6624 1029.29 36.6572C1029.33 34.2696 1029.32 29.9481 1029.33 26.0805Z" fill="#91FF6A"/>
<path fill-rule="evenodd" clip-rule="evenodd" d="M16.9142 123.239C17.3827 115.978 18.061 109.163 19.0119 103.018C19.1168 102.349 19.2636 102.146 19.3265 102.085C19.4384 101.984 19.5433 102.024 19.6412 102.186C19.7042 102.288 19.7811 102.45 19.83 102.795C19.865 103.038 19.8929 103.667 19.886 104.499C19.879 105.918 19.823 108.109 19.823 109.164C19.837 112.774 19.83 116.384 19.851 119.994C19.9209 131.494 19.9768 133.502 19.9349 148.287C19.8859 165.547 19.802 182.847 19.6762 200.128C20.725 145.204 21.9486 90.3622 23.0884 35.8041C23.1024 35.1956 23.2842 34.7291 23.494 34.7697C23.7107 34.79 23.8716 35.3375 23.8576 35.9459C21.2005 163.255 18.068 291.964 17.8652 420.246C17.9142 426.574 17.9631 432.882 18.012 439.169C18.3197 477.157 18.6903 515.165 19.2637 553.112C19.4525 565.464 19.6622 577.816 19.858 590.188C19.914 593.838 19.9699 597.509 20.0258 601.18C20.0678 604.142 20.2216 611.768 20.2286 612.842C20.2356 613.816 19.935 614.059 19.921 614.08C19.8231 614.14 19.7112 614.1 19.6063 613.857C19.5783 613.796 19.5015 613.633 19.4665 613.268C19.4665 613.207 19.4525 612.924 19.4315 612.335C18.5715 581.832 17.9771 551.247 17.5995 520.601C17.6135 524.718 17.6205 528.835 17.6345 532.952C17.7184 564.693 18.0191 596.515 17.6345 628.236C17.5506 635.457 17.4527 642.697 17.3338 649.897C17.2569 654.745 17.3548 667.218 17.173 668.982C17.0961 669.794 16.9003 669.976 16.8024 669.996C16.6905 670.017 16.5647 669.956 16.4528 669.591C16.3969 669.429 16.306 668.922 16.2361 667.968C13.9077 636.836 14.5649 600.41 13.9146 568.709C12.1316 482.613 13.3203 396.821 14.4041 310.744C15.341 236.452 15.3899 162.16 16.6625 87.908C17.124 60.7303 16.5926 32.701 18.3547 5.90868C18.3966 5.30023 18.5923 4.91474 18.8021 5.01615C19.0119 5.13784 19.1518 5.72607 19.1098 6.33452C17.3548 33.0051 17.8931 60.9332 17.4317 88.0095C17.2289 99.7527 17.0611 111.496 16.9142 123.239ZM17.4317 352.931C17.187 307.439 17.0611 261.947 17.138 216.414C17.1869 185.18 15.1382 139.667 19.0539 108.636C19.0539 108.859 19.0539 109.042 19.0539 109.204C19.0679 112.814 19.0539 116.424 19.0818 120.035C19.1517 131.514 19.2077 133.522 19.1657 148.267C19.0539 185.971 18.7742 223.776 18.3407 261.46C17.9911 291.984 17.6764 322.467 17.4317 352.931ZM16.5297 660.667C14.7537 631.238 15.2851 597.874 14.6838 568.567C12.9008 482.552 14.0894 396.821 15.1732 310.826C15.6627 272.392 15.9074 233.978 16.208 195.584C16.3059 202.947 16.3758 209.985 16.3688 216.414C16.257 281.498 16.5577 346.562 17.0332 411.647C16.8234 452.068 16.7465 492.49 16.8584 532.973C16.9493 564.693 17.243 596.455 16.8654 628.175C16.7815 635.375 16.6836 642.596 16.5647 649.796C16.5297 652.25 16.5367 656.692 16.5297 660.667Z" fill="#91FF6A"/>
<path fill-rule="evenodd" clip-rule="evenodd" d="M751.513 676.945C760.324 676.477 768.594 675.798 776.052 674.847C776.864 674.743 777.11 674.596 777.184 674.533C777.307 674.421 777.258 674.316 777.061 674.218C776.938 674.155 776.741 674.078 776.322 674.029C776.027 673.994 775.264 673.966 774.255 673.973C772.532 673.98 769.874 674.036 768.594 674.036C764.213 674.022 759.832 674.029 755.451 674.008C741.496 673.938 739.059 673.883 721.116 673.925C700.171 673.973 679.176 674.057 658.206 674.183C724.857 673.134 791.41 671.911 857.618 670.771C858.357 670.757 858.923 670.575 858.873 670.365C858.849 670.149 858.184 669.988 857.446 670.002C702.952 672.659 546.76 675.791 391.085 675.994C383.405 675.945 375.751 675.896 368.121 675.847C322.021 675.54 275.897 675.169 229.847 674.596C214.858 674.407 199.869 674.197 184.855 674.001C180.425 673.945 175.97 673.89 171.515 673.834C167.921 673.792 158.667 673.638 157.363 673.631C156.181 673.624 155.886 673.924 155.861 673.938C155.787 674.036 155.837 674.148 156.132 674.253C156.206 674.281 156.403 674.358 156.846 674.393C156.92 674.393 157.264 674.407 157.978 674.428C194.995 675.288 232.111 675.882 269.301 676.26C264.305 676.246 259.308 676.239 254.312 676.225C215.793 676.141 177.176 675.84 138.682 676.225C129.919 676.309 121.133 676.407 112.395 676.526C106.513 676.602 91.3761 676.505 89.2348 676.686C88.2503 676.763 88.0288 676.959 88.0042 677.057C87.9796 677.169 88.0533 677.295 88.4963 677.407C88.6932 677.463 89.3086 677.553 90.4654 677.623C128.246 679.952 172.45 679.295 210.92 679.945C315.401 681.728 419.512 680.539 523.969 679.455C614.125 678.518 704.281 678.469 794.388 677.197C827.369 676.735 861.384 677.267 893.897 675.505C894.636 675.463 895.103 675.267 894.98 675.057C894.833 674.848 894.119 674.708 893.381 674.75C861.015 676.505 827.123 675.966 794.265 676.428C780.014 676.63 765.764 676.798 751.513 676.945ZM472.774 676.428C527.98 676.672 583.187 676.798 638.442 676.721C676.346 676.672 731.577 678.721 769.234 674.805C768.963 674.805 768.742 674.805 768.545 674.805C764.164 674.791 759.783 674.806 755.402 674.778C741.471 674.708 739.034 674.652 721.141 674.694C675.386 674.806 629.508 675.085 583.777 675.519C546.735 675.868 509.742 676.183 472.774 676.428ZM99.326 677.33C135.039 679.106 175.527 678.574 211.092 679.176C315.475 680.959 419.512 679.77 523.87 678.686C570.511 678.197 617.128 677.952 663.719 677.651C654.785 677.553 646.244 677.484 638.442 677.491C559.46 677.602 480.503 677.302 401.521 676.826C352.468 677.036 303.414 677.113 254.287 677.001C215.793 676.91 177.25 676.616 138.756 676.994C130.018 677.078 121.256 677.176 112.518 677.295C109.54 677.33 104.15 677.323 99.326 677.33Z" fill="#91FF6A"/>
<path fill-rule="evenodd" clip-rule="evenodd" d="M6.91422 127.105C7.3827 119.976 8.06095 113.284 9.0119 107.249C9.11678 106.592 9.26359 106.393 9.32652 106.333C9.43839 106.233 9.54333 106.273 9.64122 106.433C9.70415 106.532 9.78108 106.692 9.83003 107.03C9.86499 107.269 9.89293 107.887 9.88593 108.703C9.87894 110.097 9.82303 112.248 9.82303 113.284C9.83701 116.829 9.82996 120.374 9.85094 123.919C9.92086 135.211 9.97679 137.183 9.93484 151.701C9.88589 168.65 9.80199 185.638 9.67613 202.606C10.725 148.674 11.9486 94.8218 13.0884 41.2482C13.1023 40.6507 13.2842 40.1927 13.494 40.2325C13.7107 40.2524 13.8716 40.79 13.8576 41.3875C11.2005 166.399 8.06793 292.785 7.86514 418.753C7.91409 424.967 7.96301 431.161 8.01195 437.335C8.31961 474.637 8.69023 511.959 9.26359 549.222C9.45238 561.35 9.66213 573.479 9.85792 585.628C9.91385 589.213 9.96979 592.818 10.0257 596.422C10.0677 599.33 10.2215 606.818 10.2285 607.874C10.2355 608.83 9.93489 609.069 9.92091 609.089C9.82302 609.148 9.71109 609.109 9.6062 608.87C9.57823 608.81 9.50135 608.651 9.46639 608.292C9.46639 608.232 9.45237 607.954 9.4314 607.376C8.57135 577.423 7.97701 547.39 7.59943 517.297C7.61341 521.34 7.62044 525.382 7.63442 529.425C7.71833 560.594 8.019 591.842 7.63442 622.99C7.55051 630.08 7.45258 637.19 7.33371 644.26C7.2568 649.02 7.3547 661.268 7.17291 663.001C7.09599 663.797 6.90019 663.977 6.80229 663.997C6.69042 664.017 6.56456 663.957 6.45268 663.598C6.39674 663.439 6.30589 662.941 6.23597 662.005C3.90754 631.434 4.56477 595.665 3.91449 564.537C2.13146 479.994 3.3202 395.75 4.40401 311.227C5.34098 238.276 5.38991 165.324 6.66251 92.4119C7.124 65.7247 6.59262 38.2011 8.35467 11.8923C8.39663 11.2948 8.59233 10.9163 8.8021 11.0159C9.01187 11.1354 9.15176 11.713 9.10981 12.3104C7.35475 38.4998 7.89313 65.9239 7.43164 92.5116C7.22886 104.043 7.06106 115.574 6.91422 127.105ZM7.43163 352.652C7.1869 307.981 7.06101 263.31 7.13793 218.599C7.18688 187.929 5.13822 143.237 9.05389 112.766C9.05389 112.985 9.05389 113.164 9.05389 113.324C9.06788 116.869 9.05384 120.414 9.0818 123.959C9.15173 135.231 9.20766 137.203 9.16571 151.681C9.05383 188.705 8.77418 225.828 8.34066 262.832C7.99105 292.805 7.67636 322.739 7.43163 352.652ZM6.52959 654.835C4.75355 625.937 5.28504 593.176 4.68371 564.397C2.90068 479.934 4.08934 395.75 5.17314 311.307C5.6626 273.566 5.90732 235.846 6.20799 198.145C6.30588 205.375 6.37579 212.286 6.3688 218.599C6.25692 282.509 6.55763 346.399 7.03311 410.309C6.82334 450.001 6.74642 489.693 6.85829 529.445C6.94919 560.594 7.24287 591.782 6.86529 622.93C6.78138 630 6.68345 637.09 6.56458 644.16C6.52962 646.57 6.53658 650.932 6.52959 654.835Z" fill="#91FF6A"/>
<path fill-rule="evenodd" clip-rule="evenodd" d="M5.91422 133.105C6.3827 125.976 7.06095 119.284 8.0119 113.249C8.11678 112.592 8.26359 112.393 8.32652 112.333C8.43839 112.233 8.54333 112.273 8.64122 112.433C8.70415 112.532 8.78108 112.692 8.83003 113.03C8.86499 113.269 8.89293 113.887 8.88593 114.703C8.87894 116.097 8.82303 118.248 8.82303 119.284C8.83701 122.829 8.82996 126.374 8.85094 129.919C8.92086 141.211 8.97679 143.183 8.93484 157.701C8.88589 174.65 8.80199 191.638 8.67613 208.606C9.72497 154.674 10.9486 100.822 12.0884 47.2482C12.1023 46.6507 12.2842 46.1927 12.494 46.2325C12.7107 46.2524 12.8716 46.79 12.8576 47.3875C10.2005 172.399 7.06793 298.785 6.86514 424.753C6.91409 430.967 6.96301 437.161 7.01195 443.335C7.31961 480.637 7.69023 517.959 8.26359 555.222C8.45238 567.35 8.66213 579.479 8.85792 591.628C8.91385 595.213 8.96979 598.818 9.02572 602.422C9.06768 605.33 9.22153 612.818 9.22853 613.874C9.23552 614.83 8.93489 615.069 8.92091 615.089C8.82302 615.148 8.71109 615.109 8.6062 614.87C8.57823 614.81 8.50135 614.651 8.46639 614.292C8.46639 614.232 8.45237 613.954 8.4314 613.376C7.57135 583.423 6.97701 553.39 6.59943 523.297C6.61341 527.34 6.62044 531.382 6.63442 535.425C6.71833 566.594 7.019 597.842 6.63442 628.99C6.55051 636.08 6.45258 643.19 6.33371 650.26C6.2568 655.02 6.3547 667.268 6.17291 669.001C6.09599 669.797 5.90019 669.977 5.80229 669.997C5.69042 670.017 5.56456 669.957 5.45268 669.598C5.39674 669.439 5.30589 668.941 5.23597 668.005C2.90754 637.434 3.56477 601.665 2.91449 570.537C1.13146 485.994 2.3202 401.75 3.40401 317.227C4.34098 244.276 4.38991 171.324 5.66251 98.4119C6.124 71.7247 5.59262 44.2011 7.35467 17.8923C7.39663 17.2948 7.59233 16.9163 7.8021 17.0159C8.01187 17.1354 8.15176 17.713 8.10981 18.3104C6.35475 44.4998 6.89313 71.9239 6.43164 98.5116C6.22886 110.043 6.06106 121.574 5.91422 133.105ZM6.43163 358.652C6.1869 313.981 6.06101 269.31 6.13793 224.599C6.18688 193.929 4.13822 149.237 8.05389 118.766C8.05389 118.985 8.05389 119.164 8.05389 119.324C8.06788 122.869 8.05384 126.414 8.0818 129.959C8.15173 141.231 8.20766 143.203 8.16571 157.681C8.05383 194.705 7.77418 231.828 7.34066 268.832C6.99105 298.805 6.67636 328.739 6.43163 358.652ZM5.52959 660.835C3.75355 631.937 4.28504 599.176 3.68371 570.397C1.90068 485.934 3.08934 401.75 4.17314 317.307C4.6626 279.566 4.90732 241.846 5.20799 204.145C5.30588 211.375 5.37579 218.286 5.3688 224.599C5.25692 288.509 5.55763 352.399 6.03311 416.309C5.82334 456.001 5.74642 495.693 5.85829 535.445C5.94919 566.594 6.24287 597.782 5.86529 628.93C5.78138 636 5.68345 643.09 5.56458 650.16C5.52962 652.57 5.53658 656.932 5.52959 660.835Z" fill="#91FF6A"/>
<path fill-rule="evenodd" clip-rule="evenodd" d="M1035.94 128.883C1035.48 121.644 1034.8 114.85 1033.85 108.723C1033.74 108.056 1033.59 107.854 1033.53 107.793C1033.42 107.692 1033.32 107.732 1033.22 107.894C1033.15 107.995 1033.08 108.157 1033.03 108.501C1032.99 108.744 1032.97 109.37 1032.97 110.199C1032.98 111.615 1033.04 113.799 1033.04 114.85C1033.02 118.45 1033.03 122.049 1033.01 125.648C1032.94 137.113 1032.88 139.115 1032.92 153.856C1032.97 171.064 1033.06 188.313 1033.18 205.541C1032.13 150.783 1030.91 96.1055 1029.77 41.7114C1029.76 41.1048 1029.57 40.6397 1029.36 40.6802C1029.15 40.7004 1028.99 41.2462 1029 41.8529C1031.66 168.779 1034.79 297.101 1034.99 424.997C1034.94 431.306 1034.9 437.595 1034.85 443.863C1034.54 481.737 1034.17 519.631 1033.59 557.464C1033.41 569.778 1033.2 582.093 1033 594.428C1032.94 598.067 1032.89 601.727 1032.83 605.387C1032.79 608.34 1032.64 615.943 1032.63 617.014C1032.62 617.985 1032.92 618.228 1032.94 618.248C1033.04 618.308 1033.15 618.268 1033.25 618.025C1033.28 617.965 1033.36 617.803 1033.39 617.439C1033.39 617.378 1033.41 617.095 1033.43 616.509C1034.29 586.097 1034.88 555.604 1035.26 525.05C1035.24 529.155 1035.24 533.26 1035.22 537.364C1035.14 569.01 1034.84 600.737 1035.22 632.362C1035.31 639.561 1035.41 646.779 1035.52 653.958C1035.6 658.791 1035.5 671.226 1035.69 672.986C1035.76 673.794 1035.96 673.976 1036.06 673.997C1036.17 674.017 1036.29 673.956 1036.41 673.592C1036.46 673.43 1036.55 672.925 1036.62 671.974C1038.95 640.935 1038.29 604.619 1038.94 573.014C1040.73 487.176 1039.54 401.642 1038.45 315.825C1037.52 241.756 1037.47 167.687 1036.2 93.6586C1035.73 66.5627 1036.27 38.6177 1034.5 11.9059C1034.46 11.2993 1034.27 10.915 1034.06 11.0161C1033.85 11.1374 1033.71 11.7239 1033.75 12.3305C1035.5 38.9209 1034.97 66.765 1035.43 93.7598C1035.63 105.468 1035.8 117.176 1035.94 128.883ZM1035.43 357.884C1035.67 312.529 1035.8 267.174 1035.72 221.778C1035.67 190.638 1037.72 145.262 1033.8 114.325C1033.8 114.547 1033.8 114.729 1033.8 114.891C1033.79 118.49 1033.8 122.089 1033.78 125.689C1033.71 137.134 1033.65 139.135 1033.69 153.836C1033.8 191.426 1034.08 229.118 1034.52 266.688C1034.87 297.121 1035.18 327.513 1035.43 357.884ZM1036.33 664.695C1038.1 635.355 1037.57 602.091 1038.17 572.872C1039.96 487.116 1038.77 401.642 1037.69 315.906C1037.2 277.587 1036.95 239.289 1036.65 201.011C1036.55 208.351 1036.48 215.368 1036.49 221.778C1036.6 286.667 1036.3 351.535 1035.83 416.424C1036.04 456.724 1036.11 497.024 1036 537.385C1035.91 569.01 1035.62 600.676 1035.99 632.301C1036.08 639.48 1036.17 646.678 1036.29 653.857C1036.33 656.303 1036.32 660.732 1036.33 664.695Z" fill="#91FF6A"/>
<path fill-rule="evenodd" clip-rule="evenodd" d="M1028.94 124.128C1028.48 116.813 1027.8 109.947 1026.85 103.755C1026.74 103.081 1026.59 102.876 1026.53 102.815C1026.42 102.713 1026.32 102.754 1026.22 102.917C1026.15 103.019 1026.08 103.183 1026.03 103.53C1025.99 103.776 1025.97 104.409 1025.97 105.247C1025.98 106.677 1026.04 108.884 1026.04 109.947C1026.02 113.584 1026.03 117.221 1026.01 120.859C1025.94 132.445 1025.88 134.468 1025.92 149.364C1025.97 166.754 1026.06 184.185 1026.18 201.595C1025.13 146.258 1023.91 91.004 1022.77 36.0357C1022.76 35.4227 1022.57 34.9527 1022.36 34.9935C1022.15 35.014 1021.99 35.5656 1022 36.1786C1024.66 164.445 1027.79 294.121 1027.99 423.368C1027.94 429.744 1027.9 436.099 1027.85 442.434C1027.54 480.707 1027.17 519.001 1026.59 557.233C1026.41 569.678 1026.2 582.123 1026 594.587C1025.94 598.266 1025.89 601.964 1025.83 605.663C1025.79 608.646 1025.64 616.33 1025.63 617.413C1025.62 618.394 1025.92 618.639 1025.94 618.659C1026.04 618.72 1026.15 618.68 1026.25 618.434C1026.28 618.373 1026.36 618.21 1026.39 617.842C1026.39 617.78 1026.41 617.494 1026.43 616.902C1027.29 586.169 1027.88 555.354 1028.26 524.477C1028.24 528.626 1028.24 532.774 1028.22 536.922C1028.14 568.902 1027.84 600.963 1028.22 632.922C1028.31 640.197 1028.41 647.492 1028.52 654.746C1028.6 659.63 1028.5 672.197 1028.69 673.975C1028.76 674.792 1028.96 674.976 1029.06 674.996C1029.17 675.017 1029.29 674.956 1029.41 674.588C1029.46 674.424 1029.55 673.913 1029.62 672.953C1031.95 641.586 1031.29 604.886 1031.94 572.948C1033.73 486.204 1032.54 399.767 1031.45 313.043C1030.52 238.192 1030.47 163.341 1029.2 88.5314C1028.73 61.1494 1029.27 32.9093 1027.5 5.91551C1027.46 5.30248 1027.27 4.9141 1027.06 5.01627C1026.85 5.13888 1026.71 5.73153 1026.75 6.34456C1028.5 33.2157 1027.97 61.3538 1028.43 88.6336C1028.63 100.465 1028.8 112.297 1028.94 124.128ZM1028.43 355.547C1028.67 309.713 1028.8 263.879 1028.72 218.003C1028.67 186.535 1030.72 140.68 1026.8 109.415C1026.8 109.64 1026.8 109.824 1026.8 109.987C1026.79 113.625 1026.8 117.262 1026.78 120.9C1026.71 132.465 1026.65 134.488 1026.69 149.344C1026.8 187.331 1027.08 225.421 1027.52 263.388C1027.87 294.142 1028.18 324.854 1028.43 355.547ZM1029.33 665.597C1031.1 635.947 1030.57 602.332 1031.17 572.804C1032.96 486.142 1031.77 399.767 1030.69 313.125C1030.2 274.402 1029.95 235.7 1029.65 197.017C1029.55 204.435 1029.48 211.526 1029.49 218.003C1029.6 283.577 1029.3 349.13 1028.83 414.704C1029.04 455.43 1029.11 496.155 1029 536.942C1028.91 568.902 1028.62 600.902 1028.99 632.861C1029.08 640.115 1029.17 647.39 1029.29 654.644C1029.33 657.117 1029.32 661.592 1029.33 665.597Z" fill="#91FF6A"/>
<path fill-rule="evenodd" clip-rule="evenodd" d="M854.618 670.945C865.941 670.477 876.568 669.798 886.151 668.847C887.194 668.743 887.511 668.596 887.606 668.533C887.764 668.421 887.701 668.316 887.448 668.218C887.289 668.155 887.036 668.078 886.499 668.029C886.119 667.994 885.139 667.966 883.842 667.973C881.628 667.98 878.212 668.036 876.568 668.036C870.938 668.022 865.308 668.029 859.679 668.008C841.746 667.938 838.615 667.883 815.558 667.925C788.643 667.973 761.665 668.057 734.718 668.183C820.366 667.134 905.886 665.911 990.964 664.771C991.913 664.757 992.64 664.575 992.577 664.365C992.546 664.149 991.692 663.988 990.743 664.002C792.217 666.659 591.509 669.791 391.466 669.994C381.598 669.945 371.762 669.896 361.957 669.847C302.719 669.54 243.449 669.169 184.274 668.596C165.013 668.407 145.752 668.197 126.459 668.001C120.766 667.945 115.042 667.889 109.317 667.834C104.7 667.792 92.8076 667.638 91.1313 667.631C89.6132 667.624 89.2337 667.924 89.2021 667.938C89.1072 668.036 89.1704 668.148 89.55 668.253C89.6449 668.281 89.898 668.358 90.4673 668.393C90.5622 668.393 91.0048 668.407 91.922 668.428C139.49 669.288 187.184 669.882 234.973 670.26C228.553 670.246 222.132 670.239 215.712 670.225C166.215 670.141 116.592 669.84 67.1262 670.225C55.8668 670.309 44.5757 670.407 33.3479 670.526C25.789 670.602 6.33835 670.505 3.58676 670.686C2.32166 670.763 2.03701 670.959 2.00539 671.057C1.97376 671.169 2.06849 671.295 2.63778 671.407C2.8908 671.463 3.68164 671.553 5.16813 671.623C53.7163 673.952 110.519 673.295 159.953 673.945C294.211 675.728 427.996 674.539 562.223 673.455C678.074 672.518 793.925 672.469 909.713 671.197C952.094 670.735 995.803 671.267 1037.58 669.505C1038.53 669.463 1039.13 669.267 1038.97 669.057C1038.79 668.848 1037.87 668.708 1036.92 668.75C995.329 670.505 951.778 669.966 909.555 670.428C891.243 670.63 872.931 670.798 854.618 670.945ZM496.437 670.428C567.378 670.672 638.318 670.798 709.321 670.721C758.028 670.672 829 672.721 877.39 668.805C877.042 668.805 876.758 668.805 876.505 668.805C870.875 668.791 865.245 668.806 859.615 668.778C841.714 668.708 838.583 668.652 815.59 668.694C756.795 668.806 697.841 669.085 639.077 669.519C591.478 669.868 543.942 670.183 496.437 670.428ZM16.5539 671.33C62.4454 673.106 114.473 672.574 160.174 673.176C294.306 674.959 427.995 673.77 562.096 672.686C622.03 672.197 681.932 671.952 741.803 671.651C730.322 671.553 719.347 671.484 709.321 671.491C607.829 671.602 506.368 671.302 404.876 670.826C341.842 671.036 278.809 671.113 215.68 671.001C166.215 670.91 116.687 670.616 67.2212 670.994C55.9934 671.078 44.734 671.176 33.5062 671.295C29.6793 671.33 22.7529 671.323 16.5539 671.33Z" fill="#91FF6A"/>
<path fill-rule="evenodd" clip-rule="evenodd" d="M855.618 676.945C866.941 676.477 877.568 675.798 887.151 674.847C888.194 674.743 888.511 674.596 888.606 674.533C888.764 674.421 888.701 674.316 888.448 674.218C888.289 674.155 888.036 674.078 887.499 674.029C887.119 673.994 886.139 673.966 884.842 673.973C882.628 673.98 879.212 674.036 877.568 674.036C871.938 674.022 866.308 674.029 860.679 674.008C842.746 673.938 839.615 673.883 816.558 673.925C789.643 673.973 762.665 674.057 735.718 674.183C821.366 673.134 906.886 671.911 991.964 670.771C992.913 670.757 993.64 670.575 993.577 670.365C993.546 670.149 992.692 669.988 991.743 670.002C793.217 672.659 592.509 675.791 392.466 675.994C382.598 675.945 372.762 675.896 362.957 675.847C303.719 675.54 244.449 675.169 185.274 674.596C166.013 674.407 146.752 674.197 127.459 674.001C121.766 673.945 116.042 673.889 110.317 673.834C105.7 673.792 93.8076 673.638 92.1313 673.631C90.6132 673.624 90.2337 673.924 90.2021 673.938C90.1072 674.036 90.1704 674.148 90.55 674.253C90.6449 674.281 90.898 674.358 91.4673 674.393C91.5622 674.393 92.0048 674.407 92.922 674.428C140.49 675.288 188.184 675.882 235.973 676.26C229.553 676.246 223.132 676.239 216.712 676.225C167.215 676.141 117.592 675.84 68.1262 676.225C56.8668 676.309 45.5757 676.407 34.3479 676.526C26.789 676.602 7.33835 676.505 4.58676 676.686C3.32166 676.763 3.03701 676.959 3.00539 677.057C2.97376 677.169 3.06849 677.295 3.63778 677.407C3.8908 677.463 4.68164 677.553 6.16813 677.623C54.7163 679.952 111.519 679.295 160.953 679.945C295.211 681.728 428.996 680.539 563.223 679.455C679.074 678.518 794.925 678.469 910.713 677.197C953.094 676.735 996.803 677.267 1038.58 675.505C1039.53 675.463 1040.13 675.267 1039.97 675.057C1039.79 674.848 1038.87 674.708 1037.92 674.75C996.329 676.505 952.778 675.966 910.555 676.428C892.243 676.63 873.931 676.798 855.618 676.945ZM497.437 676.428C568.378 676.672 639.318 676.798 710.321 676.721C759.028 676.672 830 678.721 878.39 674.805C878.042 674.805 877.758 674.805 877.505 674.805C871.875 674.791 866.245 674.806 860.615 674.778C842.714 674.708 839.583 674.652 816.59 674.694C757.795 674.806 698.841 675.085 640.077 675.519C592.478 675.868 544.942 676.183 497.437 676.428ZM17.5539 677.33C63.4454 679.106 115.473 678.574 161.174 679.176C295.306 680.959 428.995 679.77 563.096 678.686C623.03 678.197 682.932 677.952 742.803 677.651C731.322 677.553 720.347 677.484 710.321 677.491C608.829 677.602 507.368 677.302 405.876 676.826C342.842 677.036 279.809 677.113 216.68 677.001C167.215 676.91 117.687 676.616 68.2212 676.994C56.9934 677.078 45.734 677.176 34.5062 677.295C30.6793 677.33 23.7529 677.323 17.5539 677.33Z" fill="#91FF6A"/>
</svg>
