<svg width="247" height="246" viewBox="0 0 247 246" fill="none" xmlns="http://www.w3.org/2000/svg">
<path d="M106.01 217.703L102.862 217.077L103.494 213.899L106.642 214.525L106.01 217.703Z" fill="#91FF6A"/>
<path d="M73.6191 205.03L71.5737 203.663C70.4013 202.88 69.3524 203.37 68.2857 204.966L59.7688 217.713L57.1746 215.979L65.7415 203.158C67.7916 200.09 70.2634 199.468 72.7828 201.152L75.1524 202.735L73.6191 205.03Z" fill="#91FF6A"/>
<path d="M57.6277 188.596C61.8704 192.838 61.7855 199.202 57.4156 203.572C53.0457 207.942 46.6817 208.027 42.4391 203.784C38.2177 199.563 38.3025 193.199 42.6724 188.829C47.0423 184.459 53.4063 184.374 57.6277 188.596ZM55.6761 190.547C52.7275 187.599 48.1666 187.832 44.921 191.078C41.6754 194.323 41.4421 198.884 44.3907 201.833C47.3393 204.781 51.9214 204.569 55.167 201.323C58.4126 198.078 58.6248 193.496 55.6761 190.547Z" fill="#91FF6A"/>
<path d="M49.5655 180.171L32.1047 191.838L27.7879 185.378C25.6045 182.11 25.8092 178.907 28.6777 176.99C30.2991 175.906 32.3462 176.162 33.5951 176.951C33.0687 174.814 33.6071 172.541 36.0018 170.941C39.1697 168.825 42.6154 169.77 45.0321 173.387L49.5655 180.171ZM37.4471 184.552L34.9304 180.786C33.6304 178.84 32.1072 178.342 30.4858 179.426C28.8894 180.493 28.7413 182.107 30.058 184.077L32.5581 187.819L37.4471 184.552ZM45.554 179.135L42.9706 175.269C41.3372 172.825 39.5145 172.311 37.6187 173.577C35.723 174.844 35.5003 176.725 37.1337 179.169L39.7171 183.036L45.554 179.135Z" fill="#91FF6A"/>
<path d="M39.8271 164.704L20.4256 172.741L17.4522 165.562C15.9482 161.931 16.774 158.829 19.9614 157.509C21.7629 156.763 23.7208 157.413 24.7917 158.431C24.6925 156.231 25.6639 154.108 28.3246 153.006C31.8446 151.548 35.0397 153.147 36.7044 157.165L39.8271 164.704ZM27.0869 166.637L25.3533 162.452C24.4579 160.29 23.061 159.505 21.2595 160.251C19.4856 160.986 19.0254 162.54 19.9324 164.73L21.6545 168.887L27.0869 166.637ZM36.0947 162.906L34.3152 158.61C33.1901 155.893 31.5027 155.034 29.3963 155.906C27.2898 156.779 26.7045 158.58 27.8296 161.296L29.6091 165.592L36.0947 162.906Z" fill="#91FF6A"/>
<path d="M30.741 134.806L25.8957 137.819L27.6339 146.558L33.2635 147.488L33.8897 150.636L11.6837 146.641L11.1219 143.817L30.1089 131.628L30.741 134.806ZM24.7516 146.061L23.4171 139.352L15.2279 144.468L24.7516 146.061Z" fill="#91FF6A"/>
<path d="M29.9481 115.181L9.35159 111.084L10.1007 107.317L27.8242 104.022L12.711 94.1946L13.4602 90.4284L34.0567 94.5252L33.4714 97.4676L18.1417 94.4183L32.2482 103.617L31.7566 106.089L15.1978 109.218L30.5275 112.268L29.9481 115.181Z" fill="#91FF6A"/>
<path d="M34.8297 93.3582L15.4282 85.3218L20.5829 72.8772L23.1328 73.9334L19.1721 83.4955L24.7431 85.8031L27.9461 78.0702L30.496 79.1264L27.293 86.8593L33.4737 89.4195L37.5608 79.5524L40.1107 80.6086L34.8297 93.3582Z" fill="#91FF6A"/>
<path d="M41.7058 77.5893L24.2449 65.9223L27.8284 60.5594C31.0785 55.6953 36.755 53.7875 42.4423 57.5876C48.1296 61.3877 48.5393 67.3622 45.2892 72.2263L41.7058 77.5893ZM41.1443 73.4617L42.8944 70.8426C45.0611 67.5999 45.2736 63.34 40.6589 60.2566C36.0443 57.1732 32.19 58.9997 30.0232 62.2424L28.2732 64.8615L41.1443 73.4617Z" fill="#91FF6A"/>
<path d="M71.6749 45.8759C66.6861 49.2093 60.461 47.8846 57.0275 42.7461C53.5941 37.6076 54.7524 31.3494 59.7412 28.0159C64.7051 24.6992 70.9302 26.024 74.3637 31.1624C77.7971 36.3009 76.6388 42.5592 71.6749 45.8759ZM70.1415 43.5811C73.6088 41.2643 74.2697 36.7456 71.7196 32.9292C69.1695 29.1127 64.7418 27.9941 61.2746 30.3108C57.8074 32.6275 57.1215 37.1629 59.6716 40.9794C62.2217 44.7958 66.6743 45.8978 70.1415 43.5811Z" fill="#91FF6A"/>
<path d="M87.8163 37.2591C83.4371 39.073 79.5471 37.5995 77.6607 33.6725L80.4601 32.5129C81.7151 34.9156 84.0162 35.8458 86.7601 34.7092C89.1992 33.6989 90.5827 32.0218 89.7102 29.9154C87.7814 25.259 77.9376 32.6161 74.9756 25.4653C73.6898 22.3611 75.522 19.1018 79.43 17.4831C83.3934 15.8413 87.0625 17.0167 88.7815 20.4611L85.9821 21.6206C84.9615 19.7054 82.8698 19.0456 80.4862 20.033C78.158 20.9973 77.1808 22.6361 77.8581 24.2713C79.8098 28.9831 89.5713 21.2704 92.6366 28.6707C94.1061 32.2184 91.9738 35.537 87.8163 37.2591Z" fill="#91FF6A"/>
<path d="M105.224 32.0015C100.575 32.9263 97.0473 30.7222 95.9632 26.5026L98.935 25.9114C99.6971 28.5127 101.773 29.874 104.686 29.2946C107.275 28.7795 108.959 27.4046 108.514 25.1684C107.531 20.2252 96.4408 25.5205 94.9308 17.9292C94.2753 14.6338 96.7082 11.7946 100.857 10.9694C105.064 10.1325 108.434 12.001 109.448 15.7146L106.476 16.3057C105.849 14.2282 103.926 13.173 101.395 13.6764C98.9238 14.168 97.6456 15.5846 97.9909 17.3206C98.9858 22.3226 110.064 16.6625 111.627 24.5186C112.376 28.2848 109.638 31.1236 105.224 32.0015Z" fill="#91FF6A"/>
<path d="M140.419 28.2969L143.568 28.9231L142.935 32.1009L139.787 31.4746L140.419 28.2969Z" fill="#91FF6A"/>
<path d="M172.81 40.97L174.856 42.3367C176.028 43.1201 177.077 42.6302 178.144 41.0338L186.661 28.2874L189.255 30.0208L180.688 42.842C178.638 45.9102 176.166 46.5316 173.647 44.8482L171.277 43.2649L172.81 40.97Z" fill="#91FF6A"/>
<path d="M188.801 57.4044C184.559 53.1618 184.644 46.7978 189.014 42.4279C193.384 38.058 199.747 37.9731 203.99 42.2158C208.212 46.4372 208.127 52.8012 203.757 57.1711C199.387 61.541 193.023 61.6259 188.801 57.4044ZM190.753 55.4528C193.702 58.4015 198.263 58.1681 201.508 54.9225C204.754 51.6769 204.987 47.116 202.039 44.1674C199.09 41.2188 194.508 41.4309 191.262 44.6765C188.017 47.9221 187.804 52.5042 190.753 55.4528Z" fill="#91FF6A"/>
<path d="M196.864 65.8287L214.325 54.1617L218.641 60.6222C220.825 63.8899 220.62 67.0935 217.751 69.0102C216.13 70.0936 214.083 69.8378 212.834 69.0486C213.361 71.1865 212.822 73.4585 210.427 75.0586C207.26 77.1753 203.814 76.2303 201.397 72.6135L196.864 65.8287ZM208.982 61.4477L211.499 65.2143C212.799 67.1599 214.322 67.6576 215.943 66.5742C217.54 65.5075 217.688 63.8932 216.371 61.9226L213.871 58.181L208.982 61.4477ZM200.875 66.8645L203.459 70.7309C205.092 73.1754 206.915 73.6894 208.81 72.4227C210.706 71.1559 210.929 69.2753 209.296 66.8308L206.712 62.9644L200.875 66.8645Z" fill="#91FF6A"/>
<path d="M206.602 81.2957L226.004 73.2594L228.977 80.4379C230.481 84.0687 229.655 87.1709 226.468 88.4911C224.667 89.2374 222.709 88.5871 221.638 87.5695C221.737 89.7689 220.766 91.8923 218.105 92.9944C214.585 94.4524 211.39 92.8534 209.725 88.8346L206.602 81.2957ZM219.343 79.3631L221.076 83.5483C221.972 85.7102 223.368 86.4954 225.17 85.7492C226.944 85.0144 227.404 83.46 226.497 81.2704L224.775 77.1129L219.343 79.3631ZM210.335 83.0943L212.114 87.3903C213.239 90.1065 214.927 90.9662 217.033 90.0937C219.14 89.2212 219.725 87.4201 218.6 84.7039L216.82 80.4079L210.335 83.0943Z" fill="#91FF6A"/>
<path d="M215.688 111.194L220.534 108.181L218.795 99.4421L213.166 98.5125L212.54 95.3641L234.746 99.3587L235.308 102.183L216.321 114.372L215.688 111.194ZM221.678 99.9393L223.012 106.648L231.202 101.532L221.678 99.9393Z" fill="#91FF6A"/>
<path d="M216.481 130.819L237.078 134.916L236.329 138.683L218.605 141.978L233.718 151.805L232.969 155.572L212.373 151.475L212.958 148.532L228.288 151.582L214.181 142.383L214.673 139.911L231.232 136.782L215.902 133.732L216.481 130.819Z" fill="#91FF6A"/>
<path d="M211.6 152.642L231.001 160.678L225.847 173.123L223.297 172.067L227.257 162.504L221.686 160.197L218.483 167.93L215.933 166.874L219.136 159.141L212.956 156.581L208.869 166.448L206.319 165.391L211.6 152.642Z" fill="#91FF6A"/>
<path d="M204.724 168.411L222.184 180.078L218.601 185.441C215.351 190.305 209.674 192.213 203.987 188.412C198.3 184.612 197.89 178.638 201.14 173.774L204.724 168.411ZM205.285 172.538L203.535 175.157C201.368 178.4 201.156 182.66 205.771 185.743C210.385 188.827 214.239 187 216.406 183.758L218.156 181.138L205.285 172.538Z" fill="#91FF6A"/>
<path d="M174.755 200.124C179.743 196.791 185.968 198.115 189.402 203.254C192.835 208.392 191.677 214.651 186.688 217.984C181.724 221.301 175.499 219.976 172.066 214.838C168.632 209.699 169.791 203.441 174.755 200.124ZM176.288 202.419C172.821 204.736 172.16 209.254 174.71 213.071C177.26 216.887 181.688 218.006 185.155 215.689C188.622 213.372 189.308 208.837 186.758 205.021C184.208 201.204 179.755 200.102 176.288 202.419Z" fill="#91FF6A"/>
<path d="M158.613 208.741C162.992 206.927 166.882 208.4 168.768 212.328L165.969 213.487C164.714 211.084 162.413 210.154 159.669 211.291C157.23 212.301 155.847 213.978 156.719 216.085C158.648 220.741 168.492 213.384 171.454 220.535C172.739 223.639 170.907 226.898 166.999 228.517C163.036 230.159 159.367 228.983 157.648 225.539L160.447 224.379C161.468 226.295 163.559 226.954 165.943 225.967C168.271 225.003 169.248 223.364 168.571 221.729C166.619 217.017 156.858 224.73 153.793 217.329C152.323 213.782 154.455 210.463 158.613 208.741Z" fill="#91FF6A"/>
<path d="M141.206 213.998C145.855 213.074 149.382 215.278 150.466 219.497L147.495 220.089C146.733 217.487 144.657 216.126 141.744 216.705C139.155 217.22 137.471 218.595 137.916 220.832C138.899 225.775 149.989 220.479 151.499 228.071C152.154 231.366 149.722 234.205 145.573 235.031C141.365 235.868 137.996 233.999 136.982 230.285L139.954 229.694C140.581 231.772 142.504 232.827 145.034 232.324C147.506 231.832 148.784 230.415 148.439 228.679C147.444 223.677 136.365 229.338 134.803 221.481C134.053 217.715 136.792 214.876 141.206 213.998Z" fill="#91FF6A"/>
</svg>
