<svg width="296" height="294" viewBox="0 0 296 294" fill="none" xmlns="http://www.w3.org/2000/svg">
<path d="M149.629 259.933H146.419V256.693H149.629V259.933Z" fill="#91FF6A"/>
<path d="M129.167 254.163L130.374 276.09L127.258 275.321L126.452 258.283L117.674 272.959L115.053 272.313L114.101 255.239L105.441 269.944L102.353 269.183L113.583 250.322L116.612 251.069L117.52 267.947L126.166 253.424L129.167 254.163Z" fill="#91FF6A"/>
<path d="M97.5868 242.888C102.9 245.677 104.712 251.778 101.84 257.25C98.9679 262.722 92.9173 264.696 87.6046 261.908C82.3184 259.133 80.5061 253.032 83.3781 247.56C86.2501 242.088 92.3006 240.114 97.5868 242.888ZM96.3042 245.332C92.6118 243.394 88.3269 244.974 86.1938 249.038C84.0608 253.102 85.1948 257.526 88.8872 259.464C92.5795 261.402 96.891 259.836 99.0241 255.772C101.157 251.708 99.9965 247.27 96.3042 245.332Z" fill="#91FF6A"/>
<path d="M66.0967 232.83C65.5483 231.142 65.9014 229.25 67.1644 227.644L70.411 223.346L72.679 225.355L69.6114 229.451C68.4903 230.943 68.5356 232.746 69.8829 233.94L73.8126 237.421L79.3033 231.224L81.6386 233.293L67.7131 249.011L61.5603 243.56C58.3941 240.755 58.1539 237.136 60.6406 234.329C62.1326 232.645 64.0878 232.293 66.0967 232.83ZM67.1681 244.921L71.9824 239.487L68.2324 236.165C66.1889 234.355 64.2293 234.983 62.976 236.398C61.7028 237.835 61.3747 239.789 63.4181 241.599L67.1681 244.921Z" fill="#91FF6A"/>
<path d="M55.2889 203.913L50.844 215.693L55.207 216.364L61.0831 212.308L62.8725 214.9L45.5899 226.829L43.8005 224.237L51.7505 218.749L38.5686 216.657L36.3361 213.423L47.7823 215.219L53.1245 200.778L55.2889 203.913Z" fill="#91FF6A"/>
<path d="M40.954 167.276L20.8809 176.18L20.494 172.994L36.139 166.198L19.3043 163.196L18.9789 160.515L34.6058 153.571L17.7856 150.688L17.4022 147.531L39.0194 151.343L39.3954 154.44L23.9364 161.273L40.5815 164.208L40.954 167.276Z" fill="#91FF6A"/>
<path d="M39.8733 135.264L19.0264 132.733L19.4025 129.636L40.2494 132.167L39.8733 135.264Z" fill="#91FF6A"/>
<path d="M45.9996 109.15L28.9449 102.682L26.6151 108.825L24.0345 107.846L29.8004 92.6429L32.381 93.6216L30.0513 99.7646L47.106 106.233L45.9996 109.15Z" fill="#91FF6A"/>
<path d="M44.5323 68.3451L46.3047 65.7774L63.5874 77.7067L61.815 80.2744L54.0625 74.9233L48.1489 83.4905L55.9014 88.8417L54.1291 91.4094L36.8464 79.48L38.6188 76.9123L45.8775 81.9227L51.791 73.3554L44.5323 68.3451Z" fill="#91FF6A"/>
<path d="M97.5778 50.7577C93.3276 52.9883 89.1622 52.0236 86.9315 47.7734L80.588 35.687L83.2444 34.2928L89.6297 46.459C91.0239 49.1153 93.6249 49.6814 96.2812 48.2873C98.9642 46.8791 99.9758 44.417 98.5817 41.7606L92.1964 29.5944L94.8527 28.2003L101.196 40.2867C103.427 44.5369 101.855 48.5131 97.5778 50.7577Z" fill="#91FF6A"/>
<path d="M122.141 41.458C117.539 42.5923 113.915 40.5503 112.641 36.3841L115.582 35.659C116.462 38.2231 118.597 39.4889 121.48 38.7782C124.044 38.1464 125.664 36.6965 125.118 34.4828C123.912 29.5892 113.073 35.3814 111.221 27.8664C110.417 24.604 112.718 21.6575 116.826 20.6452C120.991 19.6186 124.441 21.3326 125.622 24.9964L122.681 25.7215C121.96 23.6746 119.991 22.7076 117.486 23.325C115.039 23.9281 113.827 25.4011 114.25 27.1197C115.471 32.0715 126.282 25.9154 128.198 33.6926C129.117 37.4211 126.51 40.3811 122.141 41.458Z" fill="#91FF6A"/>
<path d="M146.425 33.8459H149.635V37.0859H146.425V33.8459Z" fill="#91FF6A"/>
<path d="M166.833 39.4772L165.626 17.5511L168.742 18.3193L169.548 35.3572L178.326 20.6813L180.947 21.3275L181.899 38.4013L190.559 23.6967L193.647 24.4577L182.417 43.3183L179.388 42.5716L178.48 25.694L169.834 40.2167L166.833 39.4772Z" fill="#91FF6A"/>
<path d="M198.413 50.7543C193.1 47.966 191.288 41.8649 194.16 36.3928C197.032 30.9207 203.082 28.9464 208.395 31.7347C213.681 34.5091 215.493 40.6101 212.621 46.0823C209.749 51.5544 203.699 53.5287 198.413 50.7543ZM199.695 48.3104C203.388 50.2483 207.673 48.6687 209.806 44.6044C211.939 40.5402 210.805 36.1165 207.112 34.1786C203.42 32.2407 199.108 33.8064 196.975 37.8706C194.842 41.9349 196.003 46.3725 199.695 48.3104Z" fill="#91FF6A"/>
<path d="M229.903 60.8105C230.451 62.4987 230.098 64.3903 228.835 65.9968L225.589 70.2948L223.321 68.2856L226.388 64.1896C227.509 62.698 227.464 60.8943 226.117 59.7007L222.187 56.2193L216.696 62.4169L214.361 60.348L228.286 44.6293L234.439 50.0801C237.605 52.8851 237.846 56.5047 235.359 59.3116C233.867 60.9958 231.912 61.3478 229.903 60.8105ZM228.831 48.7192L224.017 54.1534L227.767 57.4756C229.811 59.2859 231.77 58.6574 233.024 57.2427C234.297 55.8055 234.625 53.8518 232.581 52.0414L228.831 48.7192Z" fill="#91FF6A"/>
<path d="M240.711 89.7294L245.156 77.9491L240.792 77.279L234.916 81.335L233.127 78.7426L250.41 66.8132L252.199 69.4056L244.249 74.8931L257.431 76.9853L259.663 80.2196L248.217 78.4239L242.875 92.865L240.711 89.7294Z" fill="#91FF6A"/>
<path d="M255.046 126.367L275.119 117.462L275.506 120.649L259.861 127.444L276.696 130.447L277.021 133.127L261.394 140.071L278.214 142.955L278.598 146.112L256.981 142.3L256.605 139.202L272.064 132.369L255.418 129.434L255.046 126.367Z" fill="#91FF6A"/>
<path d="M256.127 158.376L276.974 160.908L276.597 164.005L255.751 161.473L256.127 158.376Z" fill="#91FF6A"/>
<path d="M250.001 184.493L267.056 190.961L269.385 184.818L271.966 185.796L266.2 201L263.619 200.021L265.949 193.878L248.895 187.41L250.001 184.493Z" fill="#91FF6A"/>
<path d="M251.468 225.296L249.695 227.863L232.413 215.934L234.185 213.366L241.938 218.717L247.851 210.15L240.099 204.799L241.871 202.231L259.154 214.161L257.381 216.728L250.123 211.718L244.209 220.285L251.468 225.296Z" fill="#91FF6A"/>
<path d="M198.422 242.883C202.672 240.652 206.838 241.617 209.068 245.867L215.412 257.954L212.756 259.348L206.37 247.182C204.976 244.525 202.375 243.959 199.719 245.353C197.036 246.761 196.024 249.224 197.418 251.88L203.804 264.046L201.147 265.44L194.804 253.354C192.573 249.104 194.145 245.128 198.422 242.883Z" fill="#91FF6A"/>
<path d="M173.859 252.185C178.461 251.05 182.085 253.092 183.359 257.258L180.418 257.984C179.538 255.419 177.403 254.154 174.52 254.864C171.956 255.496 170.336 256.946 170.882 259.16C172.088 264.053 182.927 258.261 184.779 265.776C185.583 269.039 183.282 271.985 179.174 272.997C175.009 274.024 171.559 272.31 170.378 268.646L173.319 267.921C174.04 269.968 176.009 270.935 178.514 270.318C180.961 269.714 182.173 268.241 181.75 266.523C180.529 261.571 169.718 267.727 167.802 259.95C166.883 256.222 169.49 253.262 173.859 252.185Z" fill="#91FF6A"/>
</svg>
