<svg xmlns="http://www.w3.org/2000/svg" width="203" height="29" viewBox="0 0 203 29">
<path d="M166.806 11.6763C163.659 11.6763 147.922 10.1015 144.775 8.52666C127.465 8.52666 108.581 8.52666 89.6976 8.52666C116.449 10.1015 144.775 11.6763 169.953 19.5507C146.349 21.1256 121.17 16.4009 97.5658 14.826C111.729 16.4009 124.318 17.9758 138.481 19.5507C147.922 21.1256 171.527 22.7004 179.395 27.425C180.969 28.9999 177.822 27.4251 176.248 29H174.674C171.527 27.4251 168.38 27.4252 165.232 25.8503C157.364 24.2754 113.302 17.976 105.434 17.976C86.5503 16.4011 67.6667 14.8262 48.783 13.2513C47.2094 13.2513 47.2093 11.6763 47.2093 11.6763C48.7829 11.6763 50.3566 11.6763 51.9302 11.6763C61.3721 11.6763 116.45 16.401 125.891 16.401C127.465 16.401 138.481 17.976 140.054 17.976C143.202 17.976 160.512 19.5507 163.659 19.5507C140.054 13.2512 113.302 11.6764 88.1241 8.52666C84.9768 8.52666 62.9457 8.52666 59.7985 8.52666C50.3566 8.52666 40.9148 8.52656 29.8993 6.95169C28.3257 6.95169 28.3256 5.37697 31.4728 5.37697C28.3256 5.37697 22.0311 5.37697 22.0311 5.37697C20.4575 5.37697 15.7366 5.37697 14.1629 5.37697C12.5893 5.37697 12.5892 5.37697 12.5892 5.37697C9.4419 5.37697 4.72102 5.37697 1.57374 5.37697L0 3.802C11.0155 3.802 22.0311 2.22718 33.0466 0.652312C36.1939 0.652312 53.5039 2.22728 56.6512 2.22728C59.7985 2.22728 75.535 0.652312 77.1086 0.652312C97.566 -0.922557 119.597 0.652408 140.054 2.22728C144.775 2.22728 151.07 2.22728 157.364 2.22728C163.659 2.22728 169.953 2.22728 177.822 2.22728C168.38 3.80215 158.938 2.22728 151.07 2.22728C154.217 2.22728 171.527 3.802 174.674 3.802C180.969 3.802 187.263 5.37697 193.558 5.37697C195.132 5.37697 201.426 5.37682 203 6.95169C191.984 11.6763 177.822 11.6763 166.806 11.6763ZM44.062 3.802C33.0465 2.22713 22.0309 3.8021 11.0154 5.37697C22.0309 5.37697 33.0465 5.37687 44.062 3.802ZM103.86 6.95169C114.876 6.95169 124.318 5.37682 135.333 6.95169C141.628 6.95169 146.349 8.52666 152.643 8.52666C157.364 8.52666 160.512 8.52666 165.232 8.52666C162.085 8.52666 141.628 6.95184 138.481 5.37697C133.76 5.37697 127.465 5.37697 122.744 5.37697C107.008 3.8021 94.4185 5.37697 78.6821 5.37697C77.1085 5.37697 72.3875 5.37697 70.8139 5.37697C61.372 5.37697 51.9301 5.37682 42.4883 6.95169C64.5193 6.95169 84.9768 6.95169 103.86 6.95169ZM73.9611 3.802C84.9766 5.37687 94.4185 3.802 105.434 3.802C108.581 3.802 110.155 3.802 113.302 3.802C99.1394 2.22713 86.5503 2.22713 73.9611 3.802ZM88.1241 3.802C91.2713 3.802 95.9923 3.802 100.713 3.802C99.1396 3.802 89.6977 3.802 88.1241 3.802ZM119.597 8.52666C121.171 8.52666 136.907 8.52666 138.481 8.52666C127.465 6.95179 116.449 6.95179 105.434 8.52666C110.155 6.95179 114.876 8.52666 119.597 8.52666ZM113.302 3.802C118.023 3.802 122.744 3.802 127.465 3.802C124.318 3.802 119.597 3.802 113.302 3.802ZM179.395 8.52666C171.527 6.95179 165.232 6.95169 157.364 6.95169C166.806 8.52656 179.395 8.52675 188.837 10.1016C188.837 10.1016 191.984 10.1015 191.984 11.6763C193.558 11.6763 195.132 11.6763 196.705 11.6763C193.558 10.1015 180.969 8.52666 179.395 8.52666ZM180.969 10.1016C174.674 8.52675 166.806 8.52666 160.511 8.52666C162.085 8.52666 166.806 10.1016 166.806 10.1016C169.953 10.1016 174.674 10.1016 180.969 10.1016Z" fill="#91FF6A"/>
</svg>