<svg width="13" height="12" viewBox="0 0 13 12" fill="none" xmlns="http://www.w3.org/2000/svg">
<g clip-path="url(#clip0_563_2007)">
<path d="M3.53292 0.0294684C2.95299 0.124367 2.57339 0.435425 2.4574 1.01185C2.24827 2.06628 2.60327 3.05394 2.6103 4.09958C2.6103 4.94664 2.30978 5.67069 1.45042 5.93781C-0.189227 6.4457 -0.760379 8.89198 1.45921 9.17844C2.29748 9.28564 3.14278 9.27158 3.98282 9.32079C4.53815 9.35418 5.28329 9.37351 5.58204 9.93587C5.81753 10.3823 5.59259 10.9147 5.80171 11.3418C6.25336 12.2837 7.89477 12.057 8.61354 11.6335C9.74002 10.9745 9.77166 9.38757 9.66973 8.23296C9.58186 7.24355 9.97903 6.82705 10.7822 6.2436C11.276 5.87982 12.4605 5.01343 12.2918 4.28762C11.8911 2.56187 8.95271 4.87635 8.07402 3.70768C7.72254 3.22967 7.71024 2.61459 7.48002 2.08561C7.0231 1.03118 5.96339 0.342284 4.87206 0.103279C4.43381 -0.0020882 3.98009 -0.0270964 3.53292 0.0294684Z" fill="black"/>
</g>
<defs>
<clipPath id="clip0_563_2007">
<rect width="13" height="12" fill="white"/>
</clipPath>
</defs>
</svg>
